<svg width="143" height="57" viewBox="0 0 143 57" fill="none" xmlns="http://www.w3.org/2000/svg">
<path d="M1.6688 1.62891V4.0609V4.06194V6.49395L16.0684 6.49823L30.468 6.50252L30.6647 4.06622L30.8599 1.62891H16.2646H1.6688ZM35.0217 1.62891V4.08983V6.55171L48.6409 6.50252L62.2574 6.45426V4.04157V1.62891H48.6409H35.0217ZM65.865 1.62891L66.0652 4.0984L66.2653 6.56818L79.8232 6.49395L93.3868 6.4189V4.02444V1.62891H79.6287H65.865ZM97.2168 1.62891L97.3891 3.96224L97.5559 6.29559L114.438 6.3803L131.315 6.46502L133.755 8.82849L136.19 11.1904V19.3971V27.6033L133.944 29.7137L131.698 31.8247H123.66H115.622V39.2365V46.6483H121.181H126.74V44.3149L126.745 41.9816L123.96 42.1727L121.181 42.3626V39.0158V35.6679H127.701H134.216L137.985 31.9774L141.749 28.2863V18.9239V9.56198L137.707 5.59535L133.666 1.62891H115.439H97.2168ZM1.66602 11.4728V13.6881V15.9034H4.72337H7.78102V28.8054V41.7074H4.72337H1.66602L1.66603 44.1977V46.6875L7.23208 46.531L12.7987 46.374L12.8332 29.0799L12.8671 11.7858L7.26599 11.6293L1.66602 11.4728ZM19.4543 11.5113V29.0799V46.6485H25.0131H30.5719V44.1779V41.7074H27.5034H24.4361L24.5851 28.9426L24.7351 16.1779L27.8042 16.0171L30.8743 15.8568L30.6647 13.6837L30.4546 11.5113H24.9542H19.4543ZM35.019 11.5113V13.6788V15.8469L37.9374 16.0121L40.8557 16.1779L41.003 32.3691L41.1509 48.5597L44.8792 52.271L48.6075 55.9843H64.2002H79.7982L83.556 52.2387L87.3193 48.4943L87.4361 32.3367L87.5472 16.1779L90.4656 16.0121L93.384 15.8469V13.6788V11.5113H87.8252H82.2663V28.9245V46.3367L79.6481 48.9637L77.0299 51.5897H64.2446H51.4553L48.7965 49.0027L46.1366 46.4163V28.9635V11.5113H40.5778H35.019ZM52.8072 11.5113V28.5309V45.5505H64.2002H75.5958V28.5309V11.5113H70.9319H66.2625L66.0513 13.7074L65.84 15.9034H68.2303H70.6151L70.465 28.3936L70.3149 40.8838L64.0612 41.0397L57.8075 41.1951V28.5496V15.9034H60.0311C62.2546 15.9034 62.2546 15.9034 62.2546 13.7074V11.5113H57.5296H52.8072ZM108.951 11.7858L103.254 11.8791L97.5559 11.9714L97.3836 13.9379L97.2112 15.9034H100.302H103.393V29.0799V42.2564H100.335H97.278V44.4525V46.6485H103.115H108.951V29.2172V11.7858ZM115.628 11.7858V19.3348H115.622V26.8838H123.126H130.631V19.3348L130.636 11.7858H123.132H115.628ZM118.957 15.3544H122.849H126.74V19.1976V23.0407H122.849H118.957V19.1976V15.3544ZM1.66602 51.5897V53.7858V55.9843H16.119H30.5719V53.7858V51.5897H16.119H1.66602ZM97.278 51.5897V53.7858V55.9843H112.009H126.74V53.7858V51.5897H112.009H97.278Z" fill="#15112B"/>
</svg>
