<svg width="168" height="32" viewBox="0 0 168 32" fill="none" xmlns="http://www.w3.org/2000/svg">
<path d="M58.9731 25.5801C58.9731 25.0163 58.9579 23.9648 58.8056 23.6905C58.7447 23.5839 58.5772 23.5229 58.3488 23.4924L58.1205 23.4772C58.0596 23.4163 58.09 23.2944 58.1357 23.2639C58.4859 23.2791 58.8208 23.2943 59.171 23.2943C59.5517 23.2943 59.7953 23.2791 60.1303 23.2639C60.2064 23.3096 60.1912 23.4315 60.1455 23.4772L59.9323 23.4924C59.7039 23.5077 59.5365 23.5991 59.4756 23.7058C59.3537 24.0105 59.3537 25.062 59.3537 25.5648V26.601C59.3537 27.3934 59.2319 28.2315 58.7143 28.7801C58.3184 29.2067 57.6485 29.4505 56.9633 29.4505C56.339 29.4505 55.6996 29.3286 55.258 28.9477C54.7708 28.5515 54.5424 27.881 54.5424 26.7839V24.6201C54.5424 23.6753 54.5272 23.5077 53.9943 23.462L53.7659 23.4467C53.705 23.4163 53.7354 23.2486 53.7811 23.2334C54.2379 23.2486 54.5424 23.2639 54.9078 23.2639C55.2885 23.2639 55.5778 23.2486 56.0345 23.2334C56.0954 23.2639 56.1107 23.4163 56.0498 23.4467L55.8366 23.462C55.3037 23.5077 55.2885 23.6601 55.2885 24.6201V26.601C55.2885 28.0791 55.7452 29.0391 57.146 29.0391C58.4707 29.0391 58.9731 28.0029 58.9731 26.601V25.5801Z" fill="#15112B"/>
<path d="M70.9103 27.7599C70.9103 28.0342 70.9103 29.1161 70.9408 29.3599C70.9255 29.4209 70.8646 29.4666 70.7733 29.4666C70.6667 29.3142 70.3926 28.9942 69.6009 28.0799L67.4845 25.6723C67.2409 25.3828 66.6166 24.6361 66.4187 24.438H66.4035C66.373 24.5447 66.3578 24.758 66.3578 25.0323V27.0285C66.3578 27.4552 66.373 28.6438 66.5253 28.918C66.5862 29.0247 66.7689 29.0704 66.9973 29.0857L67.2866 29.1161C67.3475 29.1923 67.3323 29.299 67.2714 29.3447C66.8603 29.3295 66.5405 29.3142 66.2056 29.3142C65.8249 29.3142 65.5813 29.3295 65.2616 29.3447C65.2007 29.299 65.1854 29.1771 65.2463 29.1161L65.4899 29.0857C65.7031 29.0552 65.8401 29.0095 65.8858 28.9028C66.0076 28.5828 66.0076 27.4552 66.0076 27.0133V24.3771C66.0076 24.118 65.9924 23.9352 65.8097 23.7219C65.6879 23.5999 65.4595 23.5238 65.2463 23.5085L65.0941 23.4933C65.0332 23.4323 65.0332 23.2952 65.1093 23.2647C65.4899 23.2952 65.9772 23.2952 66.1446 23.2952C66.2969 23.2952 66.4492 23.2799 66.571 23.2647C66.7537 23.7371 67.8347 24.9409 68.1392 25.2761L69.0223 26.2666C69.6466 26.9676 70.1033 27.4857 70.5297 27.9276H70.5449C70.5754 27.8819 70.5754 27.7295 70.5754 27.5466V25.5961C70.5754 25.1695 70.5601 23.9809 70.3926 23.7066C70.3317 23.6152 70.1947 23.5695 69.8293 23.5238L69.677 23.5085C69.6161 23.4476 69.6161 23.3104 69.6923 23.2799C70.1186 23.2952 70.4231 23.3104 70.7733 23.3104C71.1692 23.3104 71.3975 23.2952 71.7173 23.2799C71.7934 23.3257 71.7934 23.4476 71.7325 23.5085L71.6107 23.5238C71.3214 23.5695 71.1387 23.6457 71.093 23.7219C70.9408 24.0571 70.956 25.1847 70.956 25.6114V27.7599H70.9103Z" fill="#15112B"/>
<path d="M77.7164 24.6645C77.7164 23.6892 77.7012 23.5368 77.1531 23.4911L76.9247 23.4759C76.8638 23.4454 76.8942 23.2778 76.9399 23.2473C77.3967 23.2626 77.7012 23.2778 78.097 23.2778C78.4625 23.2778 78.767 23.2626 79.2238 23.2473C79.2847 23.2778 79.2999 23.4454 79.239 23.4759L79.0106 23.4911C78.4777 23.5368 78.4472 23.6892 78.4472 24.6645V27.9254C78.4472 28.9007 78.4625 29.0226 79.0106 29.0835L79.239 29.114C79.2999 29.1445 79.2694 29.3121 79.2238 29.3426C78.767 29.3273 78.4625 29.3121 78.097 29.3121C77.7164 29.3121 77.3967 29.3273 76.9399 29.3426C76.879 29.3121 76.8638 29.1749 76.9247 29.114L77.1531 29.0835C77.686 29.0226 77.7164 28.8854 77.7164 27.9254V24.6645Z" fill="#15112B"/>
<path d="M85.1159 24.2552C84.9027 23.7371 84.7657 23.5542 84.3698 23.5085L84.2023 23.4933C84.1414 23.4323 84.1414 23.3104 84.2175 23.2647C84.4764 23.2799 84.7809 23.2952 85.1615 23.2952C85.5574 23.2952 85.8772 23.2799 86.273 23.2647C86.3339 23.2952 86.3491 23.4323 86.2882 23.4933L86.1512 23.5085C85.801 23.5542 85.7249 23.6152 85.7249 23.6761C85.7401 23.7676 85.8924 24.2552 86.1817 24.9561C86.608 26.0228 87.0191 27.0742 87.4759 28.1104C87.7499 27.5009 88.1458 26.5714 88.359 26.0838C88.6178 25.459 89.0593 24.4228 89.2116 24.0419C89.2877 23.8438 89.2877 23.7523 89.2877 23.6914C89.2877 23.6304 89.1964 23.5542 88.8766 23.5238L88.7091 23.5085C88.6482 23.4476 88.6635 23.3104 88.7244 23.2799C88.9832 23.2952 89.3334 23.3104 89.6684 23.3104C89.9729 23.3104 90.2469 23.2952 90.5515 23.2799C90.6124 23.3104 90.6124 23.4628 90.5667 23.5085L90.2926 23.5238C90.0795 23.539 89.9424 23.6457 89.8206 23.8438C89.5618 24.2704 89.2116 25.0171 88.8005 25.9466L88.3133 27.0742C87.9479 27.9123 87.5215 28.979 87.3693 29.4666C87.3388 29.4819 87.3084 29.4971 87.2779 29.4971C87.2322 29.4971 87.1866 29.4819 87.1409 29.4666C87.0343 29.0857 86.8821 28.6285 86.7146 28.2476L85.1159 24.2552Z" fill="#15112B"/>
<path d="M96.1242 24.6492C96.1242 23.6892 96.109 23.5521 95.5609 23.4911L95.4086 23.4759C95.3477 23.4454 95.3782 23.2778 95.4238 23.2473C95.8197 23.2626 96.1242 23.2778 96.5049 23.2778H98.2254C98.804 23.2778 99.3521 23.2778 99.4587 23.2473C99.5196 23.3997 99.5653 24.0549 99.6109 24.4664C99.5805 24.5273 99.4282 24.5426 99.3825 24.4816C99.2455 24.0549 99.1694 23.7349 98.6822 23.613C98.4842 23.5673 98.1949 23.5521 97.7991 23.5521H97.1444C96.8703 23.5521 96.8703 23.5673 96.8703 23.9178V25.7464C96.8703 26.0054 96.9007 26.0054 97.1748 26.0054H97.7077C98.0884 26.0054 98.3776 25.9902 98.4842 25.9445C98.5908 25.914 98.6517 25.853 98.6974 25.6245L98.7735 25.2435C98.8192 25.1826 98.9714 25.1826 99.0019 25.2587C99.0019 25.4721 98.9715 25.8378 98.9715 26.1883C98.9715 26.5235 99.0019 26.8587 99.0019 27.0568C98.9714 27.1178 98.804 27.1178 98.7735 27.0721L98.6822 26.7216C98.6517 26.554 98.5908 26.4168 98.4081 26.3711C98.2863 26.3406 98.0579 26.3254 97.7077 26.3254H97.1748C96.9007 26.3254 96.8703 26.3407 96.8703 26.5692V27.8645C96.8703 28.3521 96.9007 28.6568 97.0378 28.8092C97.1444 28.9159 97.3423 29.0226 98.1493 29.0226C98.8496 29.0226 99.1237 28.9921 99.3216 28.8854C99.4891 28.794 99.7327 28.474 99.9764 28.0016C100.037 27.9559 100.174 27.9864 100.205 28.0626C100.144 28.3826 99.9154 29.0835 99.7936 29.3273C98.9715 29.3121 98.1645 29.2968 97.3423 29.2968H96.5201C96.1242 29.2968 95.8197 29.3121 95.2716 29.3273C95.2107 29.2968 95.1955 29.1597 95.2564 29.0987L95.5609 29.0683C96.0786 29.0226 96.1242 28.8854 96.1242 27.9254V24.6492Z" fill="#15112B"/>
<path d="M106.021 24.6666C106.021 23.798 105.99 23.6457 105.625 23.5999L105.336 23.5695C105.275 23.5238 105.275 23.3714 105.351 23.3409C105.853 23.2952 106.493 23.2647 107.391 23.2647C107.954 23.2647 108.503 23.3104 108.914 23.539C109.355 23.7676 109.675 24.179 109.675 24.819C109.675 25.6876 108.99 26.1599 108.533 26.3428C108.487 26.4038 108.533 26.4952 108.579 26.5561C109.309 27.7295 109.797 28.4609 110.421 28.9942C110.573 29.1314 110.802 29.238 111.045 29.2533C111.091 29.2685 111.106 29.3447 111.06 29.3752C110.984 29.4057 110.832 29.4209 110.665 29.4209C109.888 29.4209 109.416 29.1923 108.777 28.2628C108.533 27.9276 108.168 27.2876 107.878 26.8761C107.741 26.678 107.589 26.5866 107.224 26.5866C106.812 26.5866 106.797 26.6019 106.797 26.7847V27.9428C106.797 28.9028 106.812 29.0095 107.345 29.0857L107.528 29.1161C107.589 29.1619 107.559 29.3142 107.513 29.3447C107.102 29.3295 106.797 29.3142 106.432 29.3142C106.051 29.3142 105.716 29.3295 105.29 29.3447C105.229 29.3142 105.214 29.1771 105.275 29.1161L105.503 29.0857C106.036 29.0247 106.051 28.9028 106.051 27.9428V24.6666H106.021ZM106.767 25.9771C106.767 26.1447 106.767 26.2361 106.797 26.2819C106.828 26.3123 106.965 26.3276 107.421 26.3276C107.756 26.3276 108.091 26.2971 108.365 26.0838C108.609 25.8857 108.822 25.5657 108.822 24.9561C108.822 24.2399 108.381 23.5542 107.361 23.5542C106.797 23.5542 106.767 23.5847 106.767 23.8438V25.9771Z" fill="#15112B"/>
<path d="M117.059 29.4633C116.298 29.4633 115.811 29.2195 115.628 29.1281C115.522 28.93 115.4 28.2748 115.385 27.8481C115.43 27.7871 115.567 27.7719 115.598 27.8176C115.735 28.29 116.115 29.1738 117.166 29.1738C117.927 29.1738 118.308 28.671 118.308 28.1224C118.308 27.7262 118.232 27.2691 117.562 26.8424L116.694 26.2786C116.237 25.9738 115.704 25.4557 115.704 24.7091C115.704 23.8405 116.374 23.1395 117.562 23.1395C117.851 23.1395 118.171 23.2005 118.415 23.2614C118.536 23.2919 118.658 23.3224 118.734 23.3224C118.81 23.5357 118.902 24.0538 118.902 24.4348C118.871 24.4957 118.719 24.511 118.673 24.4652C118.552 24.0233 118.308 23.4291 117.425 23.4291C116.527 23.4291 116.344 24.0233 116.344 24.45C116.344 24.9833 116.785 25.3643 117.12 25.5776L117.851 26.0348C118.43 26.3852 118.993 26.9186 118.993 27.7871C119.008 28.7776 118.247 29.4633 117.059 29.4633Z" fill="#15112B"/>
<path d="M125.22 24.6645C125.22 23.6892 125.205 23.5368 124.657 23.4911L124.429 23.4759C124.368 23.4454 124.398 23.2778 124.444 23.2473C124.901 23.2626 125.205 23.2778 125.601 23.2778C125.966 23.2778 126.271 23.2626 126.728 23.2473C126.789 23.2778 126.804 23.4454 126.743 23.4759L126.515 23.4911C125.982 23.5368 125.951 23.6892 125.951 24.6645V27.9254C125.951 28.9007 125.966 29.0226 126.515 29.0835L126.743 29.114C126.804 29.1445 126.773 29.3121 126.728 29.3426C126.271 29.3273 125.966 29.3121 125.601 29.3121C125.22 29.3121 124.901 29.3273 124.444 29.3426C124.383 29.3121 124.368 29.1749 124.429 29.114L124.657 29.0835C125.19 29.0226 125.22 28.8854 125.22 27.9254V24.6645Z" fill="#15112B"/>
<path d="M135.361 27.9412C135.361 28.9012 135.376 29.0383 135.909 29.084L136.198 29.1145C136.259 29.145 136.229 29.3126 136.183 29.3431C135.665 29.3279 135.345 29.3126 134.98 29.3126C134.615 29.3126 134.295 29.3279 133.716 29.3431C133.655 29.3126 133.64 29.1602 133.716 29.1145L134.051 29.084C134.569 29.0383 134.615 28.9012 134.615 27.9412V23.8574C134.615 23.5679 134.615 23.5679 134.341 23.5679H133.838C133.442 23.5679 132.94 23.5831 132.711 23.7964C132.498 23.9945 132.407 24.1926 132.3 24.4212C132.224 24.4821 132.102 24.4364 132.057 24.3602C132.209 23.9488 132.346 23.3545 132.407 23.004C132.437 22.9888 132.559 22.9736 132.574 23.004C132.635 23.2936 132.925 23.2936 133.351 23.2936H137.051C137.538 23.2936 137.629 23.2783 137.766 23.0345C137.812 23.0193 137.919 23.0193 137.934 23.065C137.827 23.4459 137.766 24.1774 137.797 24.4517C137.766 24.5279 137.599 24.5279 137.553 24.4669C137.523 24.2383 137.462 23.9031 137.325 23.7964C137.112 23.644 136.761 23.5679 136.259 23.5679H135.604C135.33 23.5679 135.345 23.5831 135.345 23.8726V27.9412H135.361Z" fill="#15112B"/>
<path d="M145.775 27.9254C145.775 28.9007 145.836 29.053 146.323 29.0835L146.673 29.114C146.719 29.1749 146.704 29.3121 146.658 29.3426C146.095 29.3273 145.775 29.3121 145.41 29.3121C145.029 29.3121 144.694 29.3273 144.207 29.3426C144.146 29.3121 144.131 29.1749 144.192 29.114L144.481 29.0835C145.014 29.0226 145.029 28.9007 145.029 27.9254V27.453C145.029 26.9502 144.999 26.8283 144.74 26.3254L143.659 24.2226C143.354 23.613 143.217 23.5673 142.943 23.5216L142.684 23.4759C142.623 23.4149 142.639 23.2778 142.699 23.2473C142.989 23.2626 143.324 23.2778 143.765 23.2778C144.192 23.2778 144.511 23.2626 144.74 23.2473C144.816 23.2778 144.816 23.4149 144.77 23.4759L144.648 23.4911C144.329 23.5368 144.268 23.5826 144.268 23.6587C144.268 23.7502 144.511 24.2683 144.557 24.3597C144.892 25.0302 145.227 25.7616 145.592 26.3864C145.866 25.8987 146.171 25.3654 146.445 24.8473C146.704 24.3749 147.039 23.7502 147.039 23.6435C147.039 23.5826 146.871 23.5216 146.658 23.4911L146.491 23.4759C146.43 23.4149 146.43 23.2778 146.506 23.2473C146.841 23.2626 147.1 23.2778 147.389 23.2778C147.678 23.2778 147.922 23.2626 148.242 23.2473C148.318 23.293 148.318 23.4149 148.257 23.4759L147.998 23.5216C147.526 23.5978 147.252 24.1768 146.795 24.9692L146.217 25.9597C145.821 26.6607 145.79 26.7368 145.79 27.4378V27.9254H145.775Z" fill="#15112B"/>
<mask id="mask0_1_4740" style="mask-type:luminance" maskUnits="userSpaceOnUse" x="0" y="0" width="30" height="32">
<path d="M29.6789 0H0.00384521V32H29.6789V0Z" fill="white"/>
</mask>
<g mask="url(#mask0_1_4740)">
<path d="M15.4891 31.7397C16.2656 31.313 17.2096 30.7187 18.2297 29.9416V20.692L15.4891 18.8635V31.7397Z" fill="#15112B"/>
</g>
<mask id="mask1_1_4740" style="mask-type:luminance" maskUnits="userSpaceOnUse" x="0" y="0" width="30" height="32">
<path d="M29.6789 0H0.00384521V32H29.6789V0Z" fill="white"/>
</mask>
<g mask="url(#mask1_1_4740)">
<path d="M15.4891 12.4636L18.2297 14.2921V9.61403C17.3162 9.56832 16.4027 9.55308 15.4891 9.53784V12.4636Z" fill="#15112B"/>
</g>
<mask id="mask2_1_4740" style="mask-type:luminance" maskUnits="userSpaceOnUse" x="0" y="0" width="30" height="32">
<path d="M29.6789 0H0.00384521V32H29.6789V0Z" fill="white"/>
</mask>
<g mask="url(#mask2_1_4740)">
<path d="M23.7257 10.0987C22.8121 9.97676 21.8986 9.88533 20.985 9.80914V16.1177L23.7257 17.9463V10.0987Z" fill="#15112B"/>
</g>
<mask id="mask3_1_4740" style="mask-type:luminance" maskUnits="userSpaceOnUse" x="0" y="0" width="30" height="32">
<path d="M29.6789 0H0.00384521V32H29.6789V0Z" fill="white"/>
</mask>
<g mask="url(#mask3_1_4740)">
<path d="M20.985 22.5193V27.5479C21.9138 26.6336 22.8426 25.5669 23.7257 24.3631V24.3479L20.985 22.5193Z" fill="#15112B"/>
</g>
<mask id="mask4_1_4740" style="mask-type:luminance" maskUnits="userSpaceOnUse" x="0" y="0" width="30" height="32">
<path d="M29.6789 0H0.00384521V32H29.6789V0Z" fill="white"/>
</mask>
<g mask="url(#mask4_1_4740)">
<path d="M26.4662 10.5118V19.7765H26.4814C27.6842 17.2927 28.6434 14.3975 29.1916 11.0299L29.1002 11.0146C28.2323 10.8318 27.3493 10.6642 26.4662 10.5118Z" fill="#15112B"/>
</g>
<mask id="mask5_1_4740" style="mask-type:luminance" maskUnits="userSpaceOnUse" x="0" y="0" width="30" height="32">
<path d="M29.6789 0H0.00384521V32H29.6789V0Z" fill="white"/>
</mask>
<g mask="url(#mask5_1_4740)">
<path d="M18.2297 14.2894V20.6894L20.9855 22.5179V16.1179L18.2297 14.2894Z" fill="#15112B"/>
</g>
<mask id="mask6_1_4740" style="mask-type:luminance" maskUnits="userSpaceOnUse" x="0" y="0" width="30" height="32">
<path d="M29.6789 0H0.00384521V32H29.6789V0Z" fill="white"/>
</mask>
<g mask="url(#mask6_1_4740)">
<path d="M23.7256 17.9487V24.3487C24.7153 23.023 25.644 21.4991 26.4662 19.7925V19.7772L23.7256 17.9487Z" fill="#15112B"/>
</g>
<mask id="mask7_1_4740" style="mask-type:luminance" maskUnits="userSpaceOnUse" x="0" y="0" width="30" height="32">
<path d="M29.6789 0H0.00384521V32H29.6789V0Z" fill="white"/>
</mask>
<g mask="url(#mask7_1_4740)">
<path d="M26.4662 19.7941C26.4819 19.7783 26.4819 19.7941 26.4662 19.7941V19.7941Z" fill="#15112B"/>
</g>
<mask id="mask8_1_4740" style="mask-type:luminance" maskUnits="userSpaceOnUse" x="0" y="0" width="30" height="32">
<path d="M29.6789 0H0.00384521V32H29.6789V0Z" fill="white"/>
</mask>
<g mask="url(#mask8_1_4740)">
<path d="M9.45972 21.1035C10.2667 20.8749 10.9823 20.433 11.5304 19.8082C11.2259 19.7016 10.8757 19.5949 10.4798 19.5035C10.1753 20.174 9.80991 20.7073 9.45972 21.1035Z" fill="#15112B"/>
</g>
<mask id="mask9_1_4740" style="mask-type:luminance" maskUnits="userSpaceOnUse" x="0" y="0" width="30" height="32">
<path d="M29.6789 0H0.00384521V32H29.6789V0Z" fill="white"/>
</mask>
<g mask="url(#mask9_1_4740)">
<path d="M5.10474 19.8222C5.65286 20.4317 6.36848 20.8888 7.17544 21.1174C6.84047 20.7212 6.45983 20.1879 6.15532 19.5174C5.75945 19.5936 5.40925 19.7155 5.10474 19.8222Z" fill="#15112B"/>
</g>
<mask id="mask10_1_4740" style="mask-type:luminance" maskUnits="userSpaceOnUse" x="0" y="0" width="30" height="32">
<path d="M29.6789 0H0.00384521V32H29.6789V0Z" fill="white"/>
</mask>
<g mask="url(#mask10_1_4740)">
<path d="M7.92141 13.1484C7.6169 13.4837 7.26671 13.9408 6.97742 14.5199C7.26671 14.5656 7.58645 14.5808 7.92141 14.5961V13.1484Z" fill="#15112B"/>
</g>
<mask id="mask11_1_4740" style="mask-type:luminance" maskUnits="userSpaceOnUse" x="0" y="0" width="30" height="32">
<path d="M29.6789 0H0.00384521V32H29.6789V0Z" fill="white"/>
</mask>
<g mask="url(#mask11_1_4740)">
<path d="M10.7537 18.757C11.2561 18.879 11.6672 19.0161 12.0174 19.1532C12.3372 18.6199 12.5503 17.9951 12.6112 17.3399H11.0125C10.9821 17.858 10.8907 18.3304 10.7537 18.757Z" fill="#15112B"/>
</g>
<mask id="mask12_1_4740" style="mask-type:luminance" maskUnits="userSpaceOnUse" x="0" y="0" width="30" height="32">
<path d="M29.6789 0H0.00384521V32H29.6789V0Z" fill="white"/>
</mask>
<g mask="url(#mask12_1_4740)">
<path d="M7.17544 12.7832C6.36848 13.0118 5.65286 13.4689 5.10474 14.0784C5.40925 14.1851 5.75945 14.2918 6.15532 14.3832C6.45983 13.7127 6.84047 13.1946 7.17544 12.7832Z" fill="#15112B"/>
</g>
<mask id="mask13_1_4740" style="mask-type:luminance" maskUnits="userSpaceOnUse" x="0" y="0" width="30" height="32">
<path d="M29.6789 0H0.00384521V32H29.6789V0Z" fill="white"/>
</mask>
<g mask="url(#mask13_1_4740)">
<path d="M11.5304 14.0806C10.9823 13.4711 10.2667 13.0139 9.45972 12.8006C9.79468 13.1968 10.1753 13.7301 10.4798 14.4006C10.8757 14.2939 11.2259 14.1873 11.5304 14.0806Z" fill="#15112B"/>
</g>
<mask id="mask14_1_4740" style="mask-type:luminance" maskUnits="userSpaceOnUse" x="0" y="0" width="30" height="32">
<path d="M29.6789 0H0.00384521V32H29.6789V0Z" fill="white"/>
</mask>
<g mask="url(#mask14_1_4740)">
<path d="M11.0125 16.5445H12.6112C12.5503 15.8892 12.3372 15.2797 12.0174 14.7311C11.6672 14.8683 11.2561 15.0054 10.7537 15.1273C10.8907 15.554 10.9821 16.0416 11.0125 16.5445Z" fill="#15112B"/>
</g>
<mask id="mask15_1_4740" style="mask-type:luminance" maskUnits="userSpaceOnUse" x="0" y="0" width="30" height="32">
<path d="M29.6789 0H0.00384521V32H29.6789V0Z" fill="white"/>
</mask>
<g mask="url(#mask15_1_4740)">
<path d="M8.71359 20.7507C9.01811 20.4155 9.3683 19.9583 9.65759 19.364C9.3683 19.3183 9.04856 19.3031 8.71359 19.2878V20.7507Z" fill="#15112B"/>
</g>
<mask id="mask16_1_4740" style="mask-type:luminance" maskUnits="userSpaceOnUse" x="0" y="0" width="30" height="32">
<path d="M29.6789 0H0.00384521V32H29.6789V0Z" fill="white"/>
</mask>
<g mask="url(#mask16_1_4740)">
<path d="M7.92215 17.3399H6.41479C6.44525 17.797 6.5366 18.2237 6.65841 18.6047C7.03905 18.5437 7.46537 18.5132 7.90692 18.4828V17.3399H7.92215Z" fill="#15112B"/>
</g>
<mask id="mask17_1_4740" style="mask-type:luminance" maskUnits="userSpaceOnUse" x="0" y="0" width="30" height="32">
<path d="M29.6789 0H0.00384521V32H29.6789V0Z" fill="white"/>
</mask>
<g mask="url(#mask17_1_4740)">
<path d="M8.71316 18.498C9.16994 18.5132 9.58103 18.559 9.96168 18.6047C10.0835 18.2237 10.1748 17.797 10.2053 17.3399H8.69794V18.498H8.71316Z" fill="#15112B"/>
</g>
<mask id="mask18_1_4740" style="mask-type:luminance" maskUnits="userSpaceOnUse" x="0" y="0" width="30" height="32">
<path d="M29.6789 0H0.00384521V32H29.6789V0Z" fill="white"/>
</mask>
<g mask="url(#mask18_1_4740)">
<path d="M9.65759 14.5177C9.3683 13.9234 9.00288 13.4663 8.71359 13.131V14.5939C9.04856 14.5939 9.3683 14.5634 9.65759 14.5177Z" fill="#15112B"/>
</g>
<mask id="mask19_1_4740" style="mask-type:luminance" maskUnits="userSpaceOnUse" x="0" y="0" width="30" height="32">
<path d="M29.6789 0H0.00384521V32H29.6789V0Z" fill="white"/>
</mask>
<g mask="url(#mask19_1_4740)">
<path d="M10.2205 16.5455C10.19 16.0883 10.0987 15.6617 9.97688 15.2807C9.59623 15.3417 9.16991 15.3721 8.72836 15.4026V16.5607H10.2205V16.5455Z" fill="#15112B"/>
</g>
<mask id="mask20_1_4740" style="mask-type:luminance" maskUnits="userSpaceOnUse" x="0" y="0" width="30" height="32">
<path d="M29.6789 0H0.00384521V32H29.6789V0Z" fill="white"/>
</mask>
<g mask="url(#mask20_1_4740)">
<path d="M6.97742 19.364C7.26671 19.9431 7.6169 20.4155 7.92141 20.7355V19.2878C7.58645 19.3031 7.26671 19.3336 6.97742 19.364Z" fill="#15112B"/>
</g>
<mask id="mask21_1_4740" style="mask-type:luminance" maskUnits="userSpaceOnUse" x="0" y="0" width="30" height="32">
<path d="M29.6789 0H0.00384521V32H29.6789V0Z" fill="white"/>
</mask>
<g mask="url(#mask21_1_4740)">
<path d="M5.88135 15.1273C5.3789 15.0054 4.9678 14.8683 4.61761 14.7311C4.29787 15.2645 4.08471 15.8892 4.0238 16.5445H5.62251C5.65296 16.0416 5.74432 15.554 5.88135 15.1273Z" fill="#15112B"/>
</g>
<mask id="mask22_1_4740" style="mask-type:luminance" maskUnits="userSpaceOnUse" x="0" y="0" width="30" height="32">
<path d="M29.6789 0H0.00384521V32H29.6789V0Z" fill="white"/>
</mask>
<g mask="url(#mask22_1_4740)">
<path d="M7.92169 15.4026C7.48014 15.3874 7.05382 15.3417 6.67318 15.2807C6.55137 15.6617 6.46002 16.0883 6.42957 16.5455H7.92169V15.4026Z" fill="#15112B"/>
</g>
<mask id="mask23_1_4740" style="mask-type:luminance" maskUnits="userSpaceOnUse" x="0" y="0" width="30" height="32">
<path d="M29.6789 0H0.00384521V32H29.6789V0Z" fill="white"/>
</mask>
<g mask="url(#mask23_1_4740)">
<path d="M5.62251 17.3399H4.0238C4.08471 17.9951 4.29787 18.6047 4.61761 19.1532C4.9678 19.0161 5.3789 18.879 5.88135 18.757C5.74432 18.3304 5.65296 17.858 5.62251 17.3399Z" fill="#15112B"/>
</g>
<mask id="mask24_1_4740" style="mask-type:luminance" maskUnits="userSpaceOnUse" x="0" y="0" width="30" height="32">
<path d="M29.6789 0H0.00384521V32H29.6789V0Z" fill="white"/>
</mask>
<g mask="url(#mask24_1_4740)">
<path d="M0.491028 11.0312C2.50083 23.4959 10.3117 29.5912 14.1942 31.7398V9.53784C9.59604 9.58356 5.02831 10.0712 0.582382 11.0159L0.491028 11.0312ZM8.31708 11.8388C11.1338 11.8388 13.4177 14.1245 13.4177 16.9436C13.4177 19.7626 11.1186 22.0483 8.31708 22.0483C5.50031 22.0483 3.21644 19.7474 3.21644 16.9436C3.21644 14.1245 5.50031 11.8388 8.31708 11.8388Z" fill="#15112B"/>
</g>
<mask id="mask25_1_4740" style="mask-type:luminance" maskUnits="userSpaceOnUse" x="0" y="0" width="30" height="32">
<path d="M29.6789 0H0.00384521V32H29.6789V0Z" fill="white"/>
</mask>
<g mask="url(#mask25_1_4740)">
<path d="M29.0853 1.49118C24.4871 0.500701 19.7214 -0.017395 14.834 -0.017395C9.94649 -0.017395 5.18082 0.500701 0.582638 1.49118H0.567412C0.247671 1.56737 0.00405884 1.87213 0.00405884 2.22261V4.79784C0.00405884 6.48927 0.110639 8.08927 0.293349 9.59785C5.05902 8.59213 9.96171 8.08927 14.8492 8.08927C19.7367 8.08927 24.6241 8.59213 29.3898 9.59785C29.5725 8.08927 29.6791 6.48927 29.6791 4.79784V2.22261C29.6791 1.87213 29.4203 1.56737 29.0853 1.49118ZM25.8727 7.87594C22.2946 7.19023 18.1989 6.99213 14.834 6.99213C11.4691 6.99213 7.37333 7.20546 3.79528 7.87594C3.65825 7.90642 3.53644 7.78451 3.61257 7.63213L5.95734 2.43594C5.98779 2.39023 7.49514 1.64356 7.49514 1.64356C9.42881 1.23213 12.5958 1.41499 14.8187 2.23784H14.834C17.0569 1.41499 20.2239 1.24737 22.1576 1.64356C22.1576 1.64356 23.6801 2.39023 23.6954 2.43594L26.0401 7.63213C26.1315 7.78451 26.0097 7.90642 25.8727 7.87594Z" fill="#15112B"/>
</g>
<mask id="mask26_1_4740" style="mask-type:luminance" maskUnits="userSpaceOnUse" x="0" y="0" width="30" height="32">
<path d="M29.6789 0H0.00384521V32H29.6789V0Z" fill="white"/>
</mask>
<g mask="url(#mask26_1_4740)">
<path d="M21.5485 2.54272L22.5382 5.19415C20.2391 4.87415 18.3359 5.02653 15.5191 5.94082V6.18463C18.1836 6.07796 21.5485 5.94082 24.2587 6.51987L22.7818 3.10653L21.5485 2.54272Z" fill="#15112B"/>
</g>
<mask id="mask27_1_4740" style="mask-type:luminance" maskUnits="userSpaceOnUse" x="0" y="0" width="30" height="32">
<path d="M29.6789 0H0.00384521V32H29.6789V0Z" fill="white"/>
</mask>
<g mask="url(#mask27_1_4740)">
<path d="M7.0996 5.18024L8.08928 2.52881L6.85599 3.09262L5.37909 6.50595C8.1045 5.9269 11.4694 6.06405 14.1187 6.17071V5.9269C11.3171 5.01262 9.41392 4.87548 7.0996 5.18024Z" fill="#15112B"/>
</g>
<mask id="mask28_1_4740" style="mask-type:luminance" maskUnits="userSpaceOnUse" x="34" y="3" width="134" height="19">
<path d="M167.367 3.59814H34.6587V21.7315H167.367V3.59814Z" fill="white"/>
</mask>
<g mask="url(#mask28_1_4740)">
<path d="M38.4498 6.86308C38.4498 4.53166 38.2367 4.28785 37.0034 4.18118L36.4857 4.13547C36.3639 4.04404 36.3943 3.67832 36.5314 3.61737C37.7494 3.66308 38.465 3.67832 39.3481 3.67832C40.1856 3.67832 40.9012 3.66308 41.7386 3.61737C41.8604 3.67832 41.9061 4.05928 41.7843 4.13547L41.4645 4.18118C40.2312 4.3488 40.1856 4.63832 40.1856 6.86308V14.6498C40.1856 16.3107 40.0942 17.7583 39.6983 18.7183C39.0132 20.3945 37.521 21.7355 35.5721 21.7355C35.3133 21.7355 34.6738 21.7202 34.6738 21.2936C34.6738 20.9431 34.9936 20.3336 35.4351 20.3336C35.694 20.3336 35.9376 20.3793 36.2116 20.4555C36.5009 20.5317 36.8054 20.6079 37.0947 20.6079C37.5363 20.6079 37.7799 20.3488 37.9321 20.0593C38.4194 19.0688 38.4803 15.9298 38.4803 14.7869V6.86308H38.4498Z" fill="#15112B"/>
</g>
<mask id="mask29_1_4740" style="mask-type:luminance" maskUnits="userSpaceOnUse" x="34" y="3" width="134" height="19">
<path d="M167.367 3.59814H34.6587V21.7315H167.367V3.59814Z" fill="white"/>
</mask>
<g mask="url(#mask29_1_4740)">
<path d="M41.7233 11.799C41.7233 8.26377 44.3726 5.55139 48.0267 5.55139C52.1072 5.55139 54.1627 8.50758 54.1627 11.6314C54.1627 15.2123 51.4373 17.8181 48.0267 17.8181C44.0985 17.8028 41.7233 14.999 41.7233 11.799ZM52.3965 12.18C52.3965 9.25425 51.1023 6.09996 47.7222 6.09996C45.8799 6.09996 43.4895 7.36473 43.4895 11.2352C43.4895 13.8562 44.7684 17.2542 48.2551 17.2542C50.3715 17.2542 52.3965 15.6695 52.3965 12.18Z" fill="#15112B"/>
</g>
<mask id="mask30_1_4740" style="mask-type:luminance" maskUnits="userSpaceOnUse" x="34" y="3" width="134" height="19">
<path d="M167.367 3.59814H34.6587V21.7315H167.367V3.59814Z" fill="white"/>
</mask>
<g mask="url(#mask30_1_4740)">
<path d="M58.1823 11.7987C57.3296 11.7987 57.2992 11.8291 57.2992 12.3625V14.8615C57.2992 16.7206 57.3905 16.9644 58.3802 17.0711L58.8979 17.132C59.0045 17.2082 58.974 17.5282 58.8674 17.5739C57.9082 17.5434 57.3144 17.5282 56.614 17.5282C55.8527 17.5282 55.2589 17.5587 54.5585 17.5739C54.452 17.5282 54.4215 17.2387 54.5281 17.132L54.8326 17.0711C55.8223 16.8882 55.8527 16.7206 55.8527 14.8615V8.49201C55.8527 6.63296 55.7309 6.3282 54.8021 6.26724L54.3454 6.23677C54.2388 6.16058 54.2692 5.84058 54.3758 5.79486C55.2437 5.8101 55.8527 5.84058 56.5988 5.84058C57.2839 5.84058 57.893 5.82534 58.6543 5.79486C58.7608 5.84058 58.7913 6.16058 58.6847 6.23677L58.3498 6.26724C57.3296 6.37391 57.2839 6.63296 57.2839 8.49201V10.5339C57.2839 11.0825 57.3144 11.0977 58.167 11.0977H63.222C64.0746 11.0977 64.1051 11.0825 64.1051 10.5339V8.49201C64.1051 6.63296 64.0746 6.37391 63.0241 6.26724L62.6891 6.23677C62.5825 6.16058 62.613 5.84058 62.7195 5.79486C63.5265 5.82534 64.1356 5.84058 64.8664 5.84058C65.5515 5.84058 66.1606 5.82534 66.9523 5.79486C67.0589 5.84058 67.0893 6.16058 66.9828 6.23677L66.6174 6.26724C65.5972 6.37391 65.5515 6.63296 65.5515 8.49201V14.8615C65.5515 16.7206 65.582 16.9491 66.6174 17.0711L67.0437 17.132C67.1503 17.2082 67.1198 17.5282 67.0132 17.5739C66.1606 17.5434 65.5668 17.5282 64.8664 17.5282C64.1356 17.5282 63.5113 17.5434 62.7195 17.5739C62.613 17.5282 62.5825 17.2387 62.6891 17.132L63.0241 17.0711C64.1051 16.8882 64.1051 16.7206 64.1051 14.8615V12.3625C64.1051 11.8291 64.0746 11.7987 63.222 11.7987H58.1823Z" fill="#15112B"/>
</g>
<mask id="mask31_1_4740" style="mask-type:luminance" maskUnits="userSpaceOnUse" x="34" y="3" width="134" height="19">
<path d="M167.367 3.59814H34.6587V21.7315H167.367V3.59814Z" fill="white"/>
</mask>
<g mask="url(#mask31_1_4740)">
<path d="M79.1485 14.5102C79.1485 15.0436 79.1485 17.1464 79.1942 17.6036C79.1637 17.7102 79.0571 17.8016 78.8592 17.8016C78.6461 17.4969 78.1284 16.8874 76.5906 15.135L72.4796 10.4569C72.0076 9.90831 70.8048 8.46069 70.4241 8.0645H70.3937C70.3176 8.27784 70.3023 8.68927 70.3023 9.20736V13.0626C70.3023 13.9007 70.3176 16.2016 70.6221 16.7197C70.7287 16.9178 71.0788 17.0245 71.5204 17.055L72.0685 17.1159C72.1751 17.2531 72.1599 17.4664 72.0381 17.5578C71.2463 17.5274 70.6221 17.5121 69.9674 17.5121C69.2213 17.5121 68.7493 17.5274 68.125 17.5578C68.0032 17.4664 67.988 17.2226 68.0946 17.1159L68.5666 17.055C68.9777 17.0093 69.2517 16.9026 69.3431 16.7045C69.5867 16.0645 69.5715 13.9007 69.5715 13.0626V7.9426C69.5715 7.43974 69.5563 7.07403 69.1756 6.6626C68.932 6.41879 68.5057 6.29688 68.0794 6.23593L67.7749 6.20546C67.6683 6.09879 67.6683 5.83974 67.8053 5.76355C68.5514 5.80926 69.4801 5.80926 69.7999 5.80926C70.0892 5.80926 70.3785 5.79403 70.6068 5.76355C70.957 6.6626 73.043 9.00927 73.6368 9.6645L75.3573 11.5997C76.5753 12.9559 77.4432 13.9616 78.2806 14.7997H78.3111C78.3872 14.7083 78.3872 14.434 78.3872 14.0531V10.2588C78.3872 9.42069 78.372 7.11974 78.037 6.58641C77.9304 6.43403 77.6412 6.32736 76.9408 6.23593L76.6363 6.20546C76.5144 6.09879 76.5297 5.80926 76.6667 5.76355C77.4737 5.79403 78.0827 5.80926 78.7526 5.80926C79.5139 5.80926 79.9707 5.79403 80.5797 5.76355C80.7168 5.85498 80.7168 6.09879 80.6102 6.20546L80.4122 6.26641C79.8489 6.35784 79.4987 6.49498 79.4226 6.63212C79.1181 7.27212 79.1637 9.46641 79.1637 10.274V14.5102H79.1485Z" fill="#15112B"/>
</g>
<mask id="mask32_1_4740" style="mask-type:luminance" maskUnits="userSpaceOnUse" x="34" y="3" width="134" height="19">
<path d="M167.367 3.59814H34.6587V21.7315H167.367V3.59814Z" fill="white"/>
</mask>
<g mask="url(#mask32_1_4740)">
<path d="M83.8229 17.8041C82.3308 17.8041 81.402 17.347 81.067 17.1489C80.8539 16.7527 80.6255 15.5032 80.595 14.6651C80.6864 14.5432 80.9452 14.4975 81.0214 14.6194C81.2802 15.5184 82.011 17.2556 84.0665 17.2556C85.5586 17.2556 86.2743 16.2803 86.2743 15.2137C86.2743 14.4365 86.122 13.568 84.8278 12.7299L83.153 11.6327C82.2699 11.0537 81.2498 10.0327 81.2498 8.58509C81.2498 6.9089 82.5592 5.53748 84.8583 5.53748C85.4064 5.53748 86.0459 5.64414 86.5026 5.76605C86.731 5.84224 86.9746 5.87271 87.1269 5.87271C87.2792 6.29938 87.4466 7.28986 87.4466 8.03652C87.3705 8.14319 87.0964 8.1889 87.0051 8.09748C86.7767 7.24414 86.3047 6.10128 84.5994 6.10128C82.8637 6.10128 82.4983 7.25938 82.4983 8.067C82.4983 9.08795 83.3509 9.83462 84.0056 10.246L85.4216 11.1299C86.5331 11.8156 87.6294 12.8518 87.6294 14.528C87.5989 16.4784 86.122 17.8041 83.8229 17.8041Z" fill="#15112B"/>
</g>
<mask id="mask33_1_4740" style="mask-type:luminance" maskUnits="userSpaceOnUse" x="34" y="3" width="134" height="19">
<path d="M167.367 3.59814H34.6587V21.7315H167.367V3.59814Z" fill="white"/>
</mask>
<g mask="url(#mask33_1_4740)">
<path d="M98.104 10.7466C97.0991 10.7466 97.0534 10.7924 97.0534 11.4171V14.3733C97.0534 16.5828 97.16 16.8724 98.3324 16.9943L98.9414 17.0552C99.0633 17.1314 99.0328 17.5124 98.8958 17.5733C97.7691 17.5276 97.0535 17.5124 96.2313 17.5124C95.3329 17.5124 94.6173 17.5581 93.7951 17.5733C93.6733 17.5124 93.6276 17.1771 93.7495 17.0552L94.0997 16.9943C95.272 16.7809 95.3177 16.5676 95.3177 14.3733V6.81522C95.3177 4.60569 95.1655 4.25521 94.0844 4.16378L93.5363 4.11807C93.4145 4.04188 93.4449 3.66093 93.582 3.59998C94.6021 3.61521 95.3177 3.66093 96.2313 3.66093C97.0535 3.66093 97.7691 3.64569 98.6674 3.59998C98.7892 3.66093 98.8349 4.04188 98.7131 4.11807L98.3172 4.16378C97.0991 4.28569 97.0534 4.60569 97.0534 6.81522V9.22283C97.0534 9.87807 97.0991 9.89331 98.104 9.89331H104.103C105.108 9.89331 105.154 9.87807 105.154 9.22283V6.81522C105.154 4.60569 105.108 4.30093 103.875 4.16378L103.479 4.11807C103.357 4.04188 103.403 3.66093 103.524 3.59998C104.484 3.64569 105.199 3.66093 106.067 3.66093C106.889 3.66093 107.605 3.64569 108.549 3.59998C108.671 3.66093 108.716 4.04188 108.595 4.11807L108.153 4.16378C106.935 4.28569 106.889 4.60569 106.889 6.81522V14.3733C106.889 16.5828 106.935 16.8571 108.153 16.9943L108.655 17.0552C108.777 17.1314 108.747 17.5124 108.61 17.5733C107.605 17.5276 106.889 17.5124 106.067 17.5124C105.214 17.5124 104.453 17.5276 103.524 17.5733C103.403 17.5124 103.357 17.1771 103.479 17.0552L103.875 16.9943C105.154 16.7809 105.154 16.5676 105.154 14.3733V11.4171C105.154 10.7924 105.108 10.7466 104.103 10.7466H98.104Z" fill="#15112B"/>
</g>
<mask id="mask34_1_4740" style="mask-type:luminance" maskUnits="userSpaceOnUse" x="34" y="3" width="134" height="19">
<path d="M167.367 3.59814H34.6587V21.7315H167.367V3.59814Z" fill="white"/>
</mask>
<g mask="url(#mask34_1_4740)">
<path d="M108.488 11.799C108.488 8.26377 111.137 5.55139 114.792 5.55139C118.887 5.55139 120.928 8.50758 120.928 11.6314C120.928 15.2123 118.202 17.8181 114.792 17.8181C110.863 17.8028 108.488 14.999 108.488 11.799ZM119.161 12.18C119.161 9.25425 117.867 6.09996 114.487 6.09996C112.645 6.09996 110.254 7.36473 110.254 11.2352C110.254 13.8562 111.533 17.2542 115.02 17.2542C117.152 17.2542 119.161 15.6695 119.161 12.18Z" fill="#15112B"/>
</g>
<mask id="mask35_1_4740" style="mask-type:luminance" maskUnits="userSpaceOnUse" x="34" y="3" width="134" height="19">
<path d="M167.367 3.59814H34.6587V21.7315H167.367V3.59814Z" fill="white"/>
</mask>
<g mask="url(#mask35_1_4740)">
<path d="M124.141 14.8768C124.141 16.7358 124.171 16.9644 125.313 17.0863L125.785 17.132C125.892 17.2234 125.861 17.5282 125.755 17.5739C124.75 17.5434 124.156 17.5282 123.456 17.5282C122.709 17.5282 122.07 17.5434 121.293 17.5739C121.187 17.5282 121.156 17.2387 121.263 17.132L121.628 17.0863C122.649 16.9491 122.694 16.7358 122.694 14.8768V8.33962C122.694 6.83105 122.664 6.52629 121.857 6.4501L121.217 6.37391C121.096 6.26724 121.111 6.0082 121.248 5.93201C122.192 5.8101 123.288 5.79486 124.75 5.79486C126.211 5.79486 127.323 5.99296 128.145 6.51105C128.952 7.02915 129.561 7.94343 129.561 9.16248C129.561 10.793 128.556 11.6006 127.795 11.9815C127.018 12.3472 126.074 12.5149 125.359 12.5149C125.237 12.4691 125.237 12.1949 125.344 12.1644C127.262 11.8139 127.947 10.732 127.947 9.19296C127.947 7.47105 126.942 6.35867 125.1 6.35867C124.156 6.35867 124.141 6.43486 124.141 6.99867V14.8768Z" fill="#15112B"/>
</g>
<mask id="mask36_1_4740" style="mask-type:luminance" maskUnits="userSpaceOnUse" x="34" y="3" width="134" height="19">
<path d="M167.367 3.59814H34.6587V21.7315H167.367V3.59814Z" fill="white"/>
</mask>
<g mask="url(#mask36_1_4740)">
<path d="M131.494 8.49333C131.494 6.63428 131.464 6.34475 130.429 6.26856L129.987 6.23809C129.881 6.1619 129.911 5.8419 130.018 5.79618C130.885 5.82666 131.449 5.8419 132.241 5.8419C132.926 5.8419 133.535 5.82666 134.296 5.79618C134.403 5.8419 134.433 6.1619 134.326 6.23809L134.007 6.26856C132.987 6.37523 132.941 6.63428 132.941 8.49333V10.5352C132.941 10.8705 132.971 11.2057 133.169 11.2057C133.322 11.2057 133.535 11.099 133.657 11.0076C133.9 10.7943 134.357 10.3371 134.555 10.1543L136.458 8.26476C136.793 7.94476 137.661 7.04571 137.844 6.8019C137.935 6.67999 137.965 6.58856 137.965 6.51237C137.965 6.43618 137.889 6.39047 137.661 6.32951L137.189 6.22285C137.067 6.10094 137.082 5.87237 137.219 5.78094C137.844 5.81142 138.544 5.82666 139.168 5.82666C139.793 5.82666 140.386 5.81142 140.919 5.78094C141.041 5.87237 141.056 6.11618 140.95 6.22285C140.493 6.25332 139.808 6.43618 139.305 6.72571C138.803 7.01523 137.813 7.83809 136.823 8.78285L135.225 10.2914C134.981 10.5352 134.814 10.7028 134.814 10.84C134.814 10.9619 134.92 11.099 135.149 11.3886C136.823 13.3238 138.194 14.9086 139.579 16.3714C140.006 16.7981 140.325 17.0267 140.934 17.1029L141.269 17.1486C141.391 17.24 141.361 17.5448 141.239 17.5905C140.782 17.56 140.295 17.5295 139.458 17.5295C138.727 17.5295 138.118 17.5448 137.295 17.5905C137.174 17.56 137.113 17.2552 137.219 17.1486L137.63 17.0724C137.874 17.0419 138.057 16.9809 138.057 16.8895C138.057 16.7829 137.935 16.6457 137.813 16.4781C137.478 16.0514 137.021 15.579 136.351 14.8171L134.935 13.2171C133.931 12.0895 133.641 11.7238 133.215 11.7238C132.956 11.7238 132.91 11.9524 132.91 12.5771V14.8628C132.91 16.7219 132.941 16.9657 133.931 17.0724L134.403 17.1181C134.509 17.1943 134.479 17.5143 134.372 17.56C133.504 17.5295 132.91 17.499 132.21 17.499C131.479 17.499 130.885 17.5143 130.155 17.56C130.048 17.499 130.018 17.24 130.124 17.1181L130.474 17.0724C131.418 16.9352 131.449 16.7219 131.449 14.8628V8.49333H131.494Z" fill="#15112B"/>
</g>
<mask id="mask37_1_4740" style="mask-type:luminance" maskUnits="userSpaceOnUse" x="34" y="3" width="134" height="19">
<path d="M167.367 3.59814H34.6587V21.7315H167.367V3.59814Z" fill="white"/>
</mask>
<g mask="url(#mask37_1_4740)">
<path d="M143.644 8.5238C143.644 6.64952 143.614 6.34475 142.563 6.25332L142.122 6.22285C142.015 6.14666 142.045 5.82666 142.152 5.78094C143.035 5.81142 143.644 5.8419 144.375 5.8419C145.075 5.8419 145.684 5.82666 146.568 5.78094C146.674 5.8419 146.705 6.14666 146.598 6.22285L146.156 6.25332C145.106 6.34475 145.075 6.64952 145.075 8.5238V14.8324C145.075 16.7067 145.106 16.9657 146.156 17.0876L146.598 17.1333C146.705 17.2095 146.674 17.5295 146.568 17.5752C145.684 17.5448 145.075 17.5143 144.375 17.5143C143.629 17.5143 143.096 17.5295 142.213 17.5752C142.106 17.5143 142.076 17.24 142.182 17.1333L142.563 17.0876C143.614 16.9657 143.644 16.7219 143.644 14.8324V8.5238Z" fill="#15112B"/>
</g>
<mask id="mask38_1_4740" style="mask-type:luminance" maskUnits="userSpaceOnUse" x="34" y="3" width="134" height="19">
<path d="M167.367 3.59814H34.6587V21.7315H167.367V3.59814Z" fill="white"/>
</mask>
<g mask="url(#mask38_1_4740)">
<path d="M158.947 14.5102C158.947 15.0436 158.947 17.1464 159.007 17.6036C158.977 17.7102 158.87 17.8016 158.672 17.8016C158.459 17.4969 157.942 16.8874 156.404 15.135L152.293 10.4569C151.821 9.90831 150.618 8.46069 150.237 8.0645H150.207C150.131 8.27784 150.116 8.68927 150.116 9.20736V13.0626C150.116 13.9007 150.131 16.2016 150.435 16.7197C150.542 16.9178 150.892 17.0245 151.334 17.055L151.882 17.1159C151.988 17.2531 151.973 17.4664 151.851 17.5578C151.06 17.5274 150.435 17.5121 149.781 17.5121C149.035 17.5121 148.563 17.5274 147.938 17.5578C147.816 17.4664 147.801 17.2226 147.908 17.1159L148.38 17.055C148.791 17.0093 149.065 16.9026 149.156 16.7045C149.4 16.0645 149.385 13.9007 149.385 13.0626V7.9426C149.385 7.43974 149.37 7.07403 148.989 6.6626C148.745 6.41879 148.319 6.29688 147.893 6.23593L147.588 6.20546C147.481 6.09879 147.482 5.83974 147.619 5.76355C148.365 5.80926 149.293 5.80926 149.613 5.80926C149.902 5.80926 150.192 5.79403 150.42 5.76355C150.77 6.6626 152.856 9.00927 153.45 9.6645L155.171 11.5997C156.389 12.9559 157.256 13.9616 158.094 14.7997H158.124C158.2 14.7083 158.2 14.434 158.2 14.0531V10.2588C158.2 9.42069 158.185 7.11974 157.85 6.58641C157.744 6.43403 157.454 6.32736 156.754 6.23593L156.449 6.20546C156.328 6.09879 156.343 5.80926 156.48 5.76355C157.302 5.79403 157.896 5.80926 158.566 5.80926C159.327 5.80926 159.784 5.79403 160.393 5.76355C160.53 5.85498 160.53 6.09879 160.423 6.20546L160.18 6.23593C159.616 6.32736 159.266 6.4645 159.19 6.60165C158.886 7.24165 158.931 9.43593 158.931 10.2436V14.5102H158.947Z" fill="#15112B"/>
</g>
<mask id="mask39_1_4740" style="mask-type:luminance" maskUnits="userSpaceOnUse" x="34" y="3" width="134" height="19">
<path d="M167.367 3.59814H34.6587V21.7315H167.367V3.59814Z" fill="white"/>
</mask>
<g mask="url(#mask39_1_4740)">
<path d="M163.605 17.8041C162.113 17.8041 161.184 17.347 160.849 17.1489C160.636 16.7527 160.408 15.5032 160.377 14.6651C160.469 14.5432 160.728 14.4975 160.804 14.6194C161.063 15.5184 161.793 17.2556 163.849 17.2556C165.341 17.2556 166.057 16.2803 166.057 15.2137C166.057 14.4365 165.889 13.568 164.61 12.7299L162.935 11.6327C162.052 11.0537 161.017 10.0327 161.017 8.58509C161.017 6.9089 162.326 5.53748 164.625 5.53748C165.174 5.53748 165.813 5.64414 166.27 5.76605C166.498 5.84224 166.742 5.87271 166.894 5.87271C167.062 6.29938 167.214 7.28986 167.214 8.03652C167.138 8.14319 166.864 8.1889 166.772 8.09748C166.544 7.24414 166.072 6.10128 164.367 6.10128C162.631 6.10128 162.265 7.25938 162.265 8.067C162.265 9.08795 163.118 9.83462 163.773 10.246L165.189 11.1299C166.3 11.8156 167.397 12.8518 167.397 14.528C167.366 16.4784 165.904 17.8041 163.605 17.8041Z" fill="#15112B"/>
</g>
</svg>
