<svg width="284" height="57" viewBox="0 0 284 57" fill="none" xmlns="http://www.w3.org/2000/svg">
<mask id="mask0_0_4803" style="mask-type:luminance" maskUnits="userSpaceOnUse" x="1" y="1" width="282" height="55">
<path d="M282.847 1.71289H1.10938V55.3956H282.847V1.71289Z" fill="white"/>
</mask>
<g mask="url(#mask0_0_4803)">
<path d="M108.088 31.6445H99.5918V31.8376C100.364 32.2238 102.102 32.8032 102.488 33.1894C102.875 33.7687 102.875 34.5411 102.875 34.9273V46.7066C102.875 51.5342 99.2056 54.2376 95.3435 53.8514C91.6745 53.2721 89.1642 51.3411 89.1642 46.3204V34.7342C89.1642 33.9618 89.1642 33.5756 89.5504 32.9963C89.9366 32.4169 91.6745 32.2238 92.4469 31.8376V31.6445H83.3711V31.8376C84.1435 32.0307 85.8814 32.6101 86.0745 32.9963C86.4607 33.5756 86.4607 34.348 86.4607 34.7342V46.1273C86.4607 52.6928 90.709 55.3963 95.3435 55.3963C100.171 55.3963 104.612 53.079 104.612 45.7411V35.8928C104.612 35.5066 104.612 33.5756 104.999 32.9963C105.385 32.4169 106.93 32.0307 107.895 31.6445H108.088Z" fill="#15112B"/>
<path d="M174.71 31.6443H166.986V31.8374C167.758 32.0305 169.303 32.8029 169.496 33.1891C169.496 33.3822 169.496 34.3477 169.11 34.927L163.317 50.7615L156.945 34.927C156.752 34.3477 156.365 33.3822 156.558 32.996C156.752 32.4167 158.296 31.8374 158.876 31.6443V31.4512H150.572V31.6443C151.538 32.0305 152.89 32.6098 153.276 33.1891C153.469 33.7684 153.662 34.1546 153.855 34.7339C154.627 36.665 159.841 49.0236 161.193 53.0788C161.386 53.8512 161.772 54.2374 161.965 55.0098H163.51C163.703 54.0443 163.896 53.465 164.283 52.4994C164.862 50.7615 170.076 35.8926 170.848 34.3477C171.041 33.7684 171.234 33.3822 171.621 32.8029C172.007 32.2236 173.745 31.8374 174.517 31.4512L174.71 31.6443Z" fill="#15112B"/>
<path d="M191.896 50.5687H191.51C191.124 51.5342 190.738 53.079 190.159 53.2721C189.772 53.4652 189.386 53.2721 188.807 53.2721H183.593C183.014 53.2721 182.628 53.2721 182.048 53.079C181.662 52.8859 181.469 51.9204 181.469 51.5342V43.81H186.103C186.876 43.81 187.262 43.81 187.841 44.1963C188.421 44.5825 188.614 45.7411 189 46.5135H189.193V39.7549H189L188.614 41.1066C188.421 41.4928 188.228 41.6859 188.034 41.879C187.648 42.2652 186.876 42.2652 186.103 42.2652H181.662V34.7342C181.662 34.1549 181.662 33.5756 181.855 33.3825C182.241 32.9963 182.821 33.1894 183.4 33.1894H187.262C187.841 33.1894 188.614 33.1894 189.193 33.5756C189.772 33.9618 190.159 35.3135 190.545 36.0859H190.738V31.6445H175.676V31.8376C176.448 32.0307 178.379 32.6101 178.572 32.9963C178.959 33.5756 178.959 33.9618 178.959 34.7342V51.7273C178.959 52.3066 178.959 53.079 178.572 53.4652C178.186 53.8514 176.448 54.4307 175.676 54.6238V54.8169H191.703L191.896 50.5687Z" fill="#15112B"/>
<path d="M216.419 55.2028L215.646 54.8166C213.909 54.0442 213.715 53.658 212.557 52.6924C210.819 51.1476 209.853 49.989 208.309 48.058L204.833 44.1959L205.412 44.0028C207.343 43.4235 211.012 42.2649 211.012 38.0166C211.012 33.7683 207.729 31.6442 204.833 31.4511C202.902 31.258 201.743 31.4511 200.005 31.4511H194.984V31.6442C195.95 32.0304 197.495 32.4166 197.881 32.9959C198.267 33.3821 198.267 33.9614 198.267 34.5407V51.5338C198.267 52.1131 198.267 52.8855 197.881 53.2717C197.688 53.658 195.757 54.2373 194.984 54.4304V54.6235H204.253V54.4304C203.288 54.0442 201.743 53.8511 201.357 53.2717C200.971 52.6924 200.971 52.3062 200.971 51.5338V44.0028H201.743L206.377 48.8304C208.502 51.1476 210.819 53.8511 212.171 54.4304C213.329 54.8166 214.681 55.2028 215.26 55.0097L216.419 55.2028ZM208.502 37.6304C208.695 40.9131 205.991 43.0373 202.515 43.0373H200.971V34.5407C200.971 33.9614 200.971 33.5752 201.357 33.189C201.743 32.9959 203.095 32.8028 204.06 32.9959C205.991 32.9959 208.309 34.9269 208.502 37.6304Z" fill="#15112B"/>
<path d="M229.355 48.828C229.355 44.9659 225.879 43.4211 222.403 41.6832C221.051 41.1039 218.155 39.7522 218.155 37.2418C218.155 34.7315 220.279 32.6073 222.982 32.8004C224.913 32.8004 226.072 33.1866 226.651 34.7315L227.81 37.4349H228.003V31.8349L227.424 31.6418C226.458 31.4487 224.913 31.0625 223.176 31.0625C219.507 31.0625 215.838 33.5728 216.031 37.628C216.224 41.4901 218.541 42.4556 221.824 44.1935C224.334 45.5453 226.845 46.5108 227.038 49.2142C227.231 51.9177 224.527 53.8487 221.631 53.4625C220.086 53.2694 218.155 52.8832 217.576 50.9522L216.803 48.828H216.61L216.803 54.0418L218.155 54.428C218.927 54.6211 220.472 55.0073 222.017 55.0073C226.265 55.2004 229.355 53.0763 229.355 48.828Z" fill="#15112B"/>
<path d="M260.832 37.2443V31.4512H243.066V37.0512H243.453C243.839 35.8926 244.225 33.7684 244.804 33.3822C244.997 33.1891 245.384 33.1891 245.577 33.1891H250.404V51.5339C250.404 52.1132 250.597 52.8857 250.018 53.2719C249.632 53.6581 247.894 54.2374 247.122 54.4305V54.6236H256.391V54.4305C255.425 54.0443 253.88 53.8512 253.494 53.2719C253.108 52.6926 253.108 52.3063 253.108 51.5339V32.996H257.356C257.935 32.996 258.322 32.996 258.901 33.1891C259.673 33.3822 260.253 36.0857 260.639 37.0512L260.832 37.2443Z" fill="#15112B"/>
<path d="M136.861 31.6443V31.8374C136.089 32.2236 134.93 32.6098 134.544 32.996C134.157 33.3822 134.157 37.0512 134.157 37.0512V55.0098H132.613C129.33 51.3408 128.944 50.7615 128.557 50.3753C128.364 50.1822 127.978 49.796 127.206 49.0236C122.185 43.8098 117.164 37.6305 115.233 35.6994V49.4098C115.233 50.1822 115.04 52.4994 115.62 53.465C115.813 54.0443 117.164 54.4305 117.937 54.6236V54.8167H110.792V54.6236C111.757 54.2374 112.723 53.8512 113.109 53.2719C113.302 52.6925 113.302 50.5684 113.302 49.2167V33.9615C113.302 33.5753 113.109 33.1891 112.916 32.8029C112.53 32.2236 110.792 32.0305 110.02 31.6443V31.4512H115.233C115.62 32.0305 116.199 32.8029 117.357 33.9615C122.764 39.5615 130.875 49.2167 132.226 50.3753V37.0512C132.226 35.5063 132.226 33.5753 132.033 32.996C131.647 32.4167 130.489 32.0305 129.716 31.6443V31.4512H136.861V31.6443Z" fill="#15112B"/>
<path d="M149.607 54.8169C148.641 54.4307 147.096 54.2376 146.71 53.6583C146.324 53.079 146.324 52.6928 146.324 51.9204V34.7342C146.324 33.9618 146.324 33.5756 146.71 32.9963C147.096 32.4169 148.834 32.2238 149.607 31.8376V31.6445H140.145V31.8376C140.917 32.0307 142.848 32.6101 143.041 32.9963C143.427 33.5756 143.427 34.348 143.427 34.7342V51.7273C143.427 52.3066 143.62 53.079 143.041 53.4652C142.655 53.8514 140.917 54.4307 140.145 54.6238V54.8169H149.607Z" fill="#15112B"/>
<path d="M268.944 34.7342L272.613 41.4928L276.282 35.1204C276.668 34.348 277.247 33.3825 277.054 33.1894C276.861 32.61 276.088 32.4169 274.544 31.8376V31.6445H282.461V31.8376C281.495 32.2238 280.337 32.4169 279.371 33.1894C278.985 33.5756 278.599 34.348 278.213 34.9273L273.578 42.8445V51.7273C273.578 52.4997 273.578 52.8859 273.964 53.4652C274.351 54.0445 276.282 54.2376 277.054 54.6238V54.8169H267.399V54.6238C268.171 54.4307 270.102 53.8514 270.488 53.4652C270.875 52.8859 270.875 52.1135 270.875 51.7273V43.81L266.047 34.9273C265.661 34.1549 265.275 33.5756 264.888 33.1894C263.923 32.2238 262.764 32.2238 261.799 31.8376V31.6445H270.682V31.8376C269.137 32.4169 268.364 32.61 268.171 33.1894C268.364 33.3825 268.751 33.9618 268.944 34.7342Z" fill="#15112B"/>
<path d="M240.945 54.8169C239.979 54.4307 238.434 54.2376 238.048 53.6583C237.662 53.079 237.662 52.6928 237.662 51.9204V34.7342C237.662 33.9618 237.662 33.5756 238.048 32.9963C238.434 32.4169 240.172 32.2238 240.945 31.8376V31.6445H231.676V31.8376C232.448 32.0307 234.379 32.6101 234.572 32.9963C234.959 33.5756 234.959 34.348 234.959 34.7342V51.7273C234.959 52.3066 235.152 53.079 234.572 53.4652C234.186 53.8514 232.448 54.4307 231.676 54.6238V54.8169H240.945Z" fill="#15112B"/>
<path d="M129.911 25.4629V25.2698C128.946 24.8836 127.401 24.6905 127.015 24.1112C126.629 23.5319 126.629 23.1457 126.629 22.3732V4.99395C126.629 4.22154 126.629 3.83533 127.015 3.25602C127.401 2.67671 129.139 2.48361 129.911 2.0974V1.9043H120.449V2.0974C121.222 2.2905 123.153 2.86982 123.346 3.25602C123.732 3.83533 123.732 4.60775 123.732 5.18706V22.3732C123.732 22.9526 123.925 23.725 123.346 24.3043C122.96 24.6905 121.222 25.2698 120.449 25.4629V25.656H129.911V25.4629Z" fill="#15112B"/>
<path d="M88.0066 5.18875C88.0066 4.60944 88.0066 3.83703 87.6204 3.25772C87.2342 2.87151 85.4963 2.2922 84.7238 2.0991V1.90599H88.0066H89.9376C90.1307 2.4853 90.5169 3.83703 90.9032 4.60944C93.0273 9.05082 99.2066 19.4784 100.172 20.8301C101.717 18.1267 105.193 11.5612 108.476 5.57496C109.248 4.22324 109.634 3.25772 110.214 1.71289H115.62V1.90599C114.655 2.2922 113.11 2.4853 112.724 3.06461C112.338 3.45082 112.338 4.03013 112.338 4.60944C112.338 5.18875 112.338 5.76806 112.531 6.34737C113.11 12.3336 113.882 21.6025 113.882 21.6025C113.882 22.375 114.076 23.1474 114.269 23.5336C114.462 24.1129 116.007 24.4991 116.972 24.8853V25.0784H108.476V24.8853C109.248 24.6922 110.6 24.1129 110.986 23.7267C111.565 22.5681 111.372 21.7956 111.179 21.0232L109.827 6.54048C108.476 8.85772 104.034 16.9681 101.91 21.0232C101.138 22.5681 99.979 24.8853 99.7859 25.2715C99.5928 24.8853 98.6273 23.1474 98.048 21.9888C93.4135 13.2991 90.1307 8.27841 89.5514 7.11979L88.5859 19.2853C88.5859 20.0577 88.1997 22.375 88.779 23.3405C89.1652 23.9198 90.3238 24.1129 91.0963 24.4991V24.6922H84.1445V24.4991C85.11 24.1129 86.2687 23.7267 86.6549 23.1474C86.848 22.5681 87.0411 20.8301 87.0411 19.2853C87.6204 15.6163 87.8135 9.43703 88.0066 6.92668C88.0066 6.34737 88.0066 5.76806 88.0066 5.18875Z" fill="#15112B"/>
<path d="M160.805 5.18875C160.805 4.60944 160.805 3.83703 160.419 3.25772C160.033 2.87151 158.295 2.2922 157.522 2.0991V1.90599H160.805H162.736C162.929 2.4853 163.316 3.83703 163.702 4.60944C165.826 9.05082 172.005 19.4784 172.971 20.8301C174.516 18.1267 177.991 11.5612 181.274 5.57496C182.047 4.22324 182.433 3.25772 183.012 1.71289H188.419V1.90599C187.453 2.2922 185.909 2.4853 185.522 3.06461C185.136 3.45082 185.136 4.03013 185.136 4.60944C185.136 5.18875 185.136 5.76806 185.329 6.34737C185.909 12.3336 186.681 21.6025 186.681 21.6025C186.681 22.375 186.874 23.1474 187.067 23.5336C187.26 24.1129 188.805 24.4991 189.771 24.8853V25.0784H181.274V24.8853C182.047 24.6922 183.398 24.1129 183.784 23.7267C184.364 22.5681 184.171 21.7957 183.978 21.0232L182.626 6.92668C181.274 9.24393 176.833 17.3543 174.709 21.4094C173.936 22.9543 172.778 25.2715 172.584 25.6577C172.391 25.2715 171.426 23.5336 170.847 22.375C166.212 13.6853 162.929 8.66462 162.35 7.50599L161.384 19.8646C161.384 20.637 160.998 22.9543 161.578 23.9198C161.964 24.4991 163.122 24.6922 163.895 25.0784V25.2715H156.75V25.0784C157.716 24.6922 158.874 24.306 159.26 23.7267C159.453 23.1474 159.647 21.4094 159.647 19.8646C160.226 15.4232 160.419 9.24393 160.612 6.73358C160.612 6.34737 160.612 5.76806 160.805 5.18875Z" fill="#15112B"/>
<path d="M202.516 25.4629V25.2698C201.55 24.8836 200.006 24.6905 199.619 24.1112C199.233 23.5319 199.233 23.1457 199.233 22.3732V4.99395C199.233 4.22154 199.233 3.83533 199.619 3.25602C200.006 2.67671 201.744 2.48361 202.516 2.0974V1.9043H193.055V2.0974C193.826 2.2905 195.757 2.86982 195.95 3.25602C196.337 3.83533 196.337 4.60775 196.337 5.18706V22.3732C196.337 22.9526 196.53 23.725 195.95 24.3043C195.564 24.6905 193.826 25.2698 193.055 25.4629V25.656H202.516V25.4629Z" fill="#15112B"/>
<path d="M145.938 14.2629H139.372L142.655 5.95947L145.938 14.2629ZM155.207 25.4629V25.2698C154.241 24.8836 152.889 24.4974 152.503 23.9181C152.31 23.3388 151.924 22.9526 151.731 22.3732C150.958 20.4422 146.131 7.89051 144.779 3.64223C144.586 3.06292 144.586 2.67671 144.393 1.9043H142.269C142.076 2.67671 141.882 3.25602 141.689 4.02844C141.11 5.76637 137.441 15.6146 134.544 22.3732C134.351 22.9526 134.158 23.3388 133.965 23.9181C133.579 24.4974 132.227 24.8836 131.262 25.2698V25.4629H138.6V25.2698C137.827 24.8836 136.476 24.4974 136.282 24.1112C136.282 23.9181 136.476 22.7595 136.669 21.987L138.986 16.0009H146.903L149.027 21.987C149.22 22.5663 149.607 23.5319 149.413 23.9181C149.22 24.4974 147.869 24.8836 147.096 25.2698V25.4629H155.207Z" fill="#15112B"/>
<path d="M1.10938 1.71289L9.21972 15.037H10.7645V42.0715H9.21972L1.10938 55.3956H35.868L27.7577 42.0715H26.4059V33.3819C29.8818 39.3681 36.6404 50.7612 36.6404 50.7612L39.9232 45.3543C39.9232 45.3543 43.399 39.3681 47.068 33.3819V42.0715H45.7163L37.6059 55.3956H72.3646L64.2542 42.0715H62.9025V15.037H64.4473L72.5577 1.71289H48.8059L36.8335 21.7956L24.8611 1.71289H1.10938Z" fill="#15112B" fill-opacity="0.1"/>
<path d="M59.2344 45.7415V11.369H62.3241L65.993 5.38281H50.7379L36.8344 29.1346L22.7379 5.38281H7.67578L11.1516 11.369H14.4344V45.7415H11.3447L7.67578 51.7277H29.4965L25.8275 45.7415H22.7379V19.8656L36.8344 43.4242L50.7379 19.8656V45.7415H47.8413L44.1724 51.7277H65.7999L62.3241 45.7415H59.2344Z" fill="#15112B"/>
</g>
</svg>
