<svg width="221" height="177" viewBox="0 0 221 177" fill="none" xmlns="http://www.w3.org/2000/svg">
<path d="M88.27 111.279C88.1804 111.29 88.0938 111.318 88.0151 111.363C87.9364 111.407 87.8672 111.466 87.8114 111.537C87.7557 111.608 87.7145 111.69 87.6903 111.777C87.666 111.864 87.659 111.955 87.6699 112.044C87.6699 112.044 88.2151 116.549 88.4354 118.313C88.458 118.493 88.5513 118.658 88.695 118.77C88.8387 118.882 89.0211 118.932 89.2019 118.909C89.3826 118.887 89.547 118.793 89.6588 118.65C89.7707 118.506 89.8209 118.323 89.7984 118.143C89.5792 116.388 89.0337 111.879 89.0337 111.879C89.0118 111.698 88.9191 111.533 88.7759 111.421C88.6327 111.309 88.4507 111.258 88.27 111.279Z" fill="#6D56FA"/>
<path d="M107.553 91.4279C107.465 91.4096 107.374 91.4088 107.285 91.4258C107.196 91.4427 107.112 91.4769 107.036 91.5265C106.961 91.5761 106.896 91.6401 106.845 91.7148C106.795 91.7895 106.759 91.8735 106.741 91.962C106.741 91.962 105.57 97.6224 104.351 103.721C103.133 109.819 101.875 116.264 101.671 118.154C101.652 118.335 101.705 118.516 101.82 118.658C101.934 118.8 102.1 118.891 102.281 118.91C102.462 118.929 102.643 118.876 102.785 118.762C102.927 118.647 103.017 118.482 103.037 118.301C103.209 116.701 104.481 110.082 105.698 103.99C106.916 97.8974 108.086 92.2402 108.086 92.2402C108.104 92.1518 108.105 92.0608 108.088 91.9721C108.071 91.8835 108.037 91.7991 107.988 91.7237C107.938 91.6482 107.874 91.5832 107.8 91.5324C107.725 91.4817 107.641 91.4462 107.553 91.4279Z" fill="#6D56FA"/>
<path d="M101.223 125.607C101.041 125.602 100.864 125.67 100.732 125.795C100.6 125.92 100.523 126.093 100.518 126.275L100.477 127.806C100.472 127.988 100.54 128.164 100.665 128.297C100.79 128.429 100.963 128.506 101.145 128.511C101.327 128.516 101.504 128.448 101.636 128.323C101.768 128.197 101.845 128.025 101.85 127.843L101.891 126.313C101.894 126.223 101.878 126.133 101.846 126.048C101.814 125.964 101.765 125.887 101.703 125.821C101.641 125.756 101.567 125.703 101.484 125.666C101.402 125.63 101.313 125.609 101.223 125.607Z" fill="#6D56FA"/>
<path d="M115.27 123.238C115.188 123.2 115.1 123.179 115.009 123.175C114.919 123.172 114.83 123.186 114.745 123.217C114.66 123.249 114.583 123.296 114.516 123.357C114.45 123.419 114.397 123.492 114.359 123.574C114.359 123.574 112.296 128.053 111.843 128.941C111.802 129.021 111.777 129.109 111.77 129.199C111.763 129.289 111.774 129.379 111.802 129.465C111.83 129.551 111.874 129.63 111.933 129.699C111.992 129.768 112.063 129.824 112.144 129.865C112.224 129.906 112.312 129.931 112.402 129.938C112.492 129.945 112.582 129.934 112.668 129.906C112.753 129.878 112.833 129.834 112.901 129.775C112.97 129.716 113.026 129.645 113.067 129.564C113.595 128.529 115.606 124.149 115.606 124.149C115.682 123.983 115.689 123.794 115.626 123.624C115.563 123.453 115.435 123.314 115.27 123.238Z" fill="#6D56FA"/>
<path d="M124.832 109.15C124.656 109.198 124.506 109.313 124.415 109.471C124.415 109.471 120.976 115.425 120.027 116.832C119.925 116.983 119.887 117.168 119.922 117.347C119.957 117.526 120.061 117.683 120.212 117.785C120.363 117.887 120.548 117.925 120.727 117.89C120.906 117.855 121.063 117.751 121.165 117.6C122.249 115.993 125.606 110.157 125.606 110.157C125.651 110.079 125.68 109.992 125.692 109.903C125.703 109.813 125.697 109.723 125.674 109.635C125.65 109.548 125.61 109.467 125.555 109.395C125.5 109.324 125.432 109.264 125.353 109.218C125.275 109.173 125.189 109.144 125.099 109.133C125.01 109.121 124.919 109.127 124.832 109.15Z" fill="#6D56FA"/>
<path d="M142.245 115.682C142.063 115.693 141.893 115.776 141.773 115.912L133.38 125.375C133.259 125.512 133.197 125.69 133.208 125.872C133.219 126.054 133.301 126.224 133.438 126.345C133.574 126.466 133.753 126.528 133.934 126.517C134.116 126.507 134.286 126.424 134.407 126.288L142.8 116.825C142.921 116.688 142.983 116.51 142.972 116.328C142.961 116.146 142.878 115.976 142.742 115.855C142.675 115.795 142.596 115.749 142.511 115.719C142.425 115.69 142.335 115.677 142.245 115.682Z" fill="#6D56FA"/>
<path d="M129.268 132.782C129.123 132.672 128.94 132.624 128.759 132.649C128.579 132.673 128.416 132.769 128.305 132.914C128.305 132.914 127.798 133.581 127.425 134.043C127.368 134.113 127.325 134.194 127.3 134.28C127.274 134.367 127.266 134.457 127.276 134.547C127.285 134.637 127.313 134.724 127.356 134.803C127.399 134.882 127.457 134.952 127.527 135.009C127.598 135.066 127.678 135.108 127.765 135.133C127.851 135.159 127.942 135.167 128.032 135.158C128.121 135.148 128.208 135.121 128.287 135.078C128.367 135.035 128.437 134.976 128.493 134.906C128.889 134.415 129.399 133.745 129.399 133.745C129.509 133.6 129.557 133.417 129.533 133.236C129.508 133.056 129.413 132.893 129.268 132.782Z" fill="#6D56FA"/>
<path d="M146.156 132.221C145.974 132.221 145.799 132.293 145.67 132.422C145.67 132.422 142.297 135.789 141.237 136.935C141.114 137.069 141.048 137.246 141.055 137.428C141.062 137.61 141.141 137.782 141.275 137.906C141.341 137.967 141.419 138.015 141.503 138.046C141.588 138.078 141.678 138.092 141.768 138.088C141.858 138.085 141.947 138.064 142.029 138.026C142.111 137.988 142.185 137.934 142.246 137.868C143.228 136.807 146.641 133.394 146.641 133.394C146.769 133.265 146.842 133.091 146.842 132.909C146.842 132.726 146.769 132.552 146.641 132.423C146.577 132.359 146.501 132.308 146.418 132.273C146.335 132.239 146.245 132.221 146.155 132.221H146.156Z" fill="#6D56FA"/>
<path d="M151.838 47.8881C150.098 47.9215 148.848 48.2537 148.022 48.593C147.197 48.9323 146.744 49.3239 146.744 49.3239C146.677 49.3843 146.623 49.4573 146.584 49.5387C146.545 49.6202 146.523 49.7085 146.518 49.7986C146.513 49.8887 146.526 49.979 146.556 50.0641C146.586 50.1492 146.633 50.2275 146.693 50.2945C146.754 50.3616 146.827 50.4162 146.908 50.4551C146.99 50.494 147.078 50.5164 147.168 50.5211C147.258 50.5258 147.348 50.5128 147.433 50.4826C147.519 50.4525 147.597 50.4059 147.664 50.3455C147.664 50.3455 147.876 50.1387 148.544 49.8642C149.212 49.5897 150.286 49.2927 151.865 49.2622C151.955 49.2604 152.044 49.241 152.127 49.2048C152.21 49.1687 152.284 49.1165 152.347 49.0515C152.41 48.9864 152.459 48.9098 152.491 48.8257C152.524 48.7417 152.54 48.6519 152.539 48.5617C152.537 48.4715 152.517 48.3825 152.481 48.2998C152.445 48.2171 152.393 48.1423 152.328 48.0797C152.263 48.0172 152.186 47.9682 152.102 47.9353C152.018 47.9024 151.929 47.8863 151.838 47.8881Z" fill="#6D56FA"/>
<path d="M169.491 45.2637C166.384 45.0908 163.431 45.9007 163.431 45.9007C163.344 45.9242 163.263 45.9647 163.191 46.0198C163.12 46.0749 163.06 46.1435 163.015 46.2217C162.97 46.3 162.941 46.3864 162.929 46.4759C162.918 46.5654 162.924 46.6563 162.947 46.7434C162.995 46.9191 163.11 47.0688 163.268 47.1596C163.426 47.2504 163.613 47.2747 163.789 47.2274C163.789 47.2274 166.597 46.4792 169.415 46.636C169.597 46.646 169.775 46.5835 169.911 46.462C170.046 46.3406 170.128 46.1702 170.138 45.9883C170.144 45.8982 170.131 45.808 170.101 45.7228C170.071 45.6376 170.025 45.5591 169.965 45.4918C169.905 45.4246 169.832 45.3697 169.751 45.3306C169.669 45.2915 169.581 45.2688 169.491 45.2637Z" fill="#6D56FA"/>
<path d="M158.751 60.7233C158.573 60.6848 158.387 60.7186 158.234 60.8172C158.081 60.9157 157.973 61.0711 157.935 61.2491C157.896 61.4271 157.929 61.6131 158.028 61.7664C158.028 61.7664 158.844 63.0402 159.079 64.918C159.313 66.7959 158.996 69.1985 156.562 71.6007C156.432 71.7285 156.359 71.9028 156.357 72.085C156.356 72.2672 156.427 72.4424 156.555 72.5722C156.682 72.702 156.857 72.7757 157.039 72.7771C157.221 72.7784 157.396 72.7074 157.526 72.5796C160.252 69.8884 160.716 66.9437 160.441 64.7474C160.167 62.551 159.183 61.0241 159.183 61.0241C159.134 60.948 159.071 60.8823 158.997 60.8307C158.923 60.7791 158.839 60.7425 158.751 60.7233Z" fill="#6D56FA"/>
<path d="M171.553 73.334C171.384 73.4011 171.248 73.5327 171.176 73.6999C171.176 73.6999 170.701 74.795 169.846 75.9221C168.991 77.0493 167.793 78.1178 166.471 78.2346C166.381 78.2426 166.294 78.2682 166.214 78.31C166.134 78.3518 166.063 78.4089 166.005 78.4781C165.947 78.5473 165.903 78.6273 165.876 78.7134C165.849 78.7995 165.84 78.89 165.848 78.9798C165.864 79.1612 165.951 79.3287 166.091 79.4456C166.23 79.5625 166.41 79.6193 166.592 79.6034C168.534 79.4317 169.974 78.0264 170.941 76.7523C171.907 75.4782 172.437 74.2447 172.437 74.2447C172.473 74.1619 172.492 74.0728 172.493 73.9825C172.494 73.8922 172.478 73.8025 172.445 73.7186C172.411 73.6347 172.362 73.5581 172.299 73.4934C172.236 73.4286 172.161 73.3769 172.078 73.3412C171.911 73.2693 171.722 73.2668 171.553 73.334Z" fill="#6D56FA"/>
<path d="M167.042 49.5845C164.104 49.6333 160.854 49.8332 157.551 50.2089C157.547 50.2047 157.542 50.2006 157.538 50.1965C157.524 50.2023 157.509 50.2086 157.496 50.2153C152.228 50.8179 146.823 51.907 142.279 53.8366C142.153 53.8903 142.045 53.9805 141.971 54.0958C141.896 54.2111 141.858 54.3461 141.86 54.4834C141.86 54.4834 141.908 57.0933 142.98 59.8939C144.052 62.6945 146.243 65.793 150.416 66.5149C152.586 66.8901 155.086 65.6675 156.064 63.017C156.98 60.5334 156.465 56.8792 153.571 52.1745C154.706 51.9834 155.837 51.8221 156.977 51.6824C157.264 54.5744 158.537 57.5984 160.417 59.9226C162.465 62.4541 165.258 64.2083 168.175 63.6548C170.57 63.1991 172.235 62.0966 173.298 60.7027C174.36 59.3088 174.824 57.6597 174.987 56.1071C175.314 53.002 174.451 50.1813 174.451 50.1813C174.41 50.0456 174.328 49.9259 174.217 49.8384C174.105 49.751 173.97 49.7002 173.828 49.6929C171.905 49.5947 169.589 49.5422 167.042 49.5845ZM167.065 50.9675C169.385 50.9249 171.438 50.9762 173.238 51.0579C173.397 51.6633 173.87 53.5994 173.622 55.9639C173.476 57.3467 173.067 58.74 172.206 59.8697C171.345 60.9994 170.037 61.9017 167.919 62.3048C165.694 62.7269 163.344 61.3567 161.485 59.0583C159.77 56.9378 158.59 54.0896 158.336 51.5132C161.369 51.1904 164.351 51.0173 167.065 50.9675ZM152.145 52.4347C155.178 57.1628 155.517 60.5303 154.775 62.541C154.01 64.6147 152.157 65.4213 150.65 65.1603C147.039 64.5356 145.237 61.9496 144.262 59.4027C143.441 57.2572 143.313 55.5245 143.281 54.9342C145.98 53.8354 149.01 53.0314 152.145 52.4347Z" fill="#6D56FA"/>
<path fill-rule="evenodd" clip-rule="evenodd" d="M168.476 57.6153C168.592 57.9632 168.663 58.3223 168.685 58.6721C168.707 59.0219 168.68 59.3557 168.604 59.6542C168.529 59.9527 168.407 60.2102 168.246 60.412C168.085 60.6137 167.888 60.7559 167.665 60.8302C167.442 60.9045 167.199 60.9096 166.949 60.8451C166.699 60.7807 166.447 60.648 166.208 60.4546C165.968 60.2612 165.746 60.0108 165.554 59.7179C165.361 59.425 165.202 59.0951 165.086 58.7473C164.97 58.3994 164.899 58.0403 164.877 57.6905C164.855 57.3407 164.882 57.0069 164.958 56.7084C165.033 56.4099 165.155 56.1524 165.316 55.9506C165.477 55.7489 165.674 55.6067 165.897 55.5324C166.119 55.4581 166.363 55.453 166.613 55.5175C166.863 55.5819 167.115 55.7146 167.354 55.908C167.594 56.1014 167.816 56.3518 168.008 56.6447C168.201 56.9376 168.36 57.2675 168.476 57.6153Z" fill="#6D56FA"/>
<path fill-rule="evenodd" clip-rule="evenodd" d="M168.225 57.6157C168.459 58.3182 168.506 59.0517 168.354 59.6546C168.202 60.2574 167.864 60.6804 167.414 60.8305C167.192 60.9049 166.949 60.9099 166.699 60.8455C166.448 60.781 166.197 60.6484 165.957 60.4549C165.718 60.2615 165.495 60.0112 165.303 59.7182C165.111 59.4253 164.952 59.0955 164.836 58.7476C164.719 58.3998 164.648 58.0407 164.626 57.6909C164.604 57.341 164.632 57.0073 164.707 56.7088C164.782 56.4103 164.904 56.1528 165.065 55.951C165.226 55.7492 165.424 55.6071 165.646 55.5328C165.869 55.4585 166.112 55.4534 166.362 55.5179C166.612 55.5823 166.864 55.7151 167.103 55.9085C167.343 56.1019 167.565 56.3522 167.758 56.6451C167.95 56.938 168.109 57.2679 168.225 57.6157Z" fill="#6D56FA"/>
<path fill-rule="evenodd" clip-rule="evenodd" d="M153.885 59.1946C153.958 59.5289 153.988 59.8688 153.974 60.1949C153.961 60.5211 153.904 60.8272 153.806 61.0956C153.709 61.364 153.573 61.5895 153.407 61.7593C153.24 61.9291 153.047 62.04 152.837 62.0853C152.413 62.1769 151.948 61.9966 151.546 61.584C151.143 61.1715 150.835 60.5606 150.689 59.8856C150.543 59.2105 150.571 58.5267 150.768 57.9846C150.965 57.4425 151.313 57.0865 151.737 56.9949C151.947 56.9495 152.169 56.9705 152.391 57.0565C152.612 57.1425 152.829 57.2918 153.029 57.496C153.228 57.7003 153.406 57.9555 153.553 58.247C153.7 58.5384 153.813 58.8604 153.885 59.1946Z" fill="#6D56FA"/>
<path d="M150.349 65.2063C150.179 65.2721 150.043 65.4026 149.969 65.5692C149.896 65.7357 149.891 65.9247 149.957 66.0946C153.732 75.873 160.511 82.8331 164.544 85.0073C168.983 87.4023 172.631 88.0808 175.604 87.6795C178.576 87.2781 180.831 85.7931 182.468 84.0286C185.743 80.4997 186.687 75.8207 186.687 75.8207C186.705 75.7323 186.706 75.6413 186.689 75.5526C186.672 75.464 186.638 75.3795 186.588 75.3041C186.539 75.2286 186.475 75.1637 186.401 75.113C186.326 75.0622 186.242 75.0267 186.154 75.0084C186.065 74.9901 185.974 74.9893 185.886 75.0062C185.797 75.023 185.713 75.0573 185.637 75.1068C185.562 75.1563 185.497 75.2202 185.446 75.2948C185.396 75.3694 185.36 75.4532 185.342 75.5416C185.342 75.5416 184.41 79.9159 181.461 83.0938C179.987 84.6827 178.043 85.9639 175.42 86.3179C172.798 86.6719 169.454 86.0954 165.196 83.7978C161.701 81.9138 154.891 75.059 151.239 65.5999C151.207 65.5156 151.158 65.4385 151.096 65.3731C151.033 65.3077 150.959 65.2553 150.876 65.2187C150.794 65.1821 150.705 65.1622 150.614 65.1601C150.524 65.158 150.434 65.1737 150.35 65.2063H150.349Z" fill="#6D56FA"/>
<path d="M191.707 81.1751C190.964 81.114 190.336 81.1426 189.826 81.2118C188.806 81.3498 188.194 81.685 188.194 81.685C188.041 81.7733 187.928 81.9171 187.878 82.0867C187.829 82.2563 187.846 82.4387 187.927 82.5957C188.484 83.6765 188.414 84.5559 187.968 85.4593C187.522 86.3628 186.636 87.2539 185.554 88.0313C183.39 89.5862 180.469 90.6864 179.166 91.0452C177.376 91.542 176.322 91.3005 175.749 90.9218C175.176 90.543 175.015 89.9782 175.059 89.6076C175.069 89.5179 175.062 89.4271 175.038 89.3402C175.013 89.2533 174.972 89.1721 174.916 89.1012C174.86 89.0304 174.791 88.9713 174.712 88.9272C174.633 88.8832 174.547 88.855 174.457 88.8445C174.276 88.8233 174.094 88.8748 173.952 88.9877C173.809 89.1006 173.716 89.2657 173.695 89.4466C173.588 90.3538 173.998 91.4102 174.992 92.0677C175.986 92.7251 177.494 92.9344 179.531 92.3692C181.007 91.9631 183.975 90.8598 186.358 89.1478C187.549 88.2917 188.601 87.2837 189.201 86.0686C189.695 85.0691 189.81 83.905 189.436 82.7281C189.614 82.6657 189.591 82.6303 190.012 82.5734C190.837 82.4617 192.12 82.4663 193.894 82.9947C197.441 84.0516 202.957 87.2288 210.463 95.8143C213.194 98.9392 216.513 105.34 219.007 112.575C221.501 119.811 223.195 127.908 222.872 134.467C222.747 137.014 219.894 142.73 209.415 147.278C209.248 147.35 209.117 147.486 209.05 147.656C208.983 147.825 208.986 148.014 209.059 148.181C209.131 148.348 209.267 148.48 209.436 148.547C209.606 148.614 209.795 148.611 209.962 148.538C220.738 143.861 224.076 137.943 224.244 134.535C224.581 127.688 222.839 119.479 220.305 112.128C217.772 104.777 214.471 98.312 211.497 94.9099C203.883 86.2 198.179 82.837 194.286 81.677C193.312 81.387 192.453 81.2362 191.709 81.1751H191.707Z" fill="#6D56FA"/>
<path d="M218.475 121.575C218.304 121.51 218.116 121.516 217.95 121.591C217.783 121.665 217.654 121.803 217.589 121.973C217.524 122.143 217.53 122.332 217.604 122.499C217.876 123.104 218.372 123.967 218.8 125.215C219.228 126.462 219.578 128.058 219.499 130.002C219.34 133.89 217.473 139.216 210.804 145.878C208.086 148.593 201.105 155.14 190.146 158.218C189.897 157.438 189.225 155.42 187.827 152.686C186.229 149.562 183.845 146.039 180.585 143.973C180.939 143.434 181.872 142.105 184.594 139.535C187.978 136.34 193.729 131.752 203.155 126.251C203.233 126.205 203.301 126.145 203.356 126.073C203.411 126.001 203.451 125.919 203.474 125.832C203.497 125.745 203.502 125.654 203.49 125.564C203.478 125.475 203.448 125.388 203.403 125.31C203.357 125.232 203.297 125.164 203.225 125.11C203.153 125.055 203.071 125.015 202.984 124.992C202.897 124.969 202.806 124.964 202.716 124.976C202.627 124.988 202.541 125.018 202.463 125.063C192.96 130.61 187.123 135.258 183.65 138.536C180.178 141.815 179.035 143.788 179.035 143.788C178.989 143.868 178.96 143.955 178.949 144.046C178.938 144.136 178.945 144.228 178.97 144.316C178.994 144.404 179.036 144.486 179.093 144.557C179.15 144.629 179.22 144.688 179.3 144.732C182.477 146.477 184.962 150.101 186.604 153.311C188.246 156.522 189.055 159.269 189.055 159.269C189.105 159.441 189.221 159.586 189.377 159.674C189.533 159.762 189.717 159.785 189.89 159.739C201.57 156.646 208.958 149.663 211.774 146.851C218.613 140.019 220.696 134.337 220.87 130.057C220.958 127.917 220.57 126.14 220.1 124.768C219.629 123.397 219.064 122.395 218.857 121.935C218.82 121.853 218.767 121.779 218.702 121.717C218.636 121.655 218.559 121.607 218.475 121.575Z" fill="#6D56FA"/>
<path d="M191.429 93.3902C191.253 93.3423 191.066 93.366 190.908 93.4562C190.749 93.5465 190.634 93.6959 190.586 93.8715C190.263 95.0534 190.396 96.7707 190.76 99.0003C191.124 101.23 191.758 103.926 192.586 106.824C194.242 112.619 196.673 119.209 199.303 124.379C199.344 124.46 199.401 124.531 199.469 124.59C199.538 124.648 199.617 124.693 199.703 124.721C199.789 124.749 199.879 124.759 199.969 124.752C200.059 124.745 200.147 124.721 200.227 124.68C200.308 124.639 200.379 124.582 200.438 124.514C200.496 124.445 200.541 124.366 200.569 124.28C200.597 124.194 200.607 124.104 200.6 124.014C200.593 123.924 200.569 123.836 200.528 123.756C197.956 118.702 195.541 112.164 193.907 106.446C193.09 103.587 192.468 100.931 192.116 98.7784C191.764 96.6254 191.72 94.93 191.91 94.2338C191.958 94.0582 191.934 93.8706 191.844 93.7124C191.754 93.5542 191.605 93.4384 191.429 93.3902Z" fill="#6D56FA"/>
<path d="M197.56 90.0174C196.175 89.8548 195.085 90.8163 195.085 90.8163C194.941 90.928 194.848 91.0922 194.825 91.2729C194.802 91.4535 194.852 91.6358 194.964 91.7798C195.019 91.8512 195.088 91.911 195.166 91.9558C195.244 92.0006 195.331 92.0295 195.42 92.0409C195.51 92.0523 195.601 92.0459 195.688 92.0221C195.775 91.9983 195.856 91.9577 195.928 91.9023C195.928 91.9023 196.834 91.3153 197.4 91.3817C197.489 91.3923 197.58 91.3852 197.667 91.3607C197.754 91.3361 197.835 91.2947 197.906 91.2388C197.977 91.1829 198.036 91.1136 198.08 91.0348C198.124 90.956 198.152 90.8693 198.163 90.7796C198.173 90.69 198.166 90.5992 198.141 90.5124C198.116 90.4255 198.075 90.3444 198.019 90.2736C197.963 90.2028 197.894 90.1438 197.815 90.0998C197.736 90.0559 197.649 90.0279 197.56 90.0174Z" fill="#6D56FA"/>
<path d="M171.977 91.6556C171.802 91.7047 171.653 91.8215 171.564 91.9803C167.455 99.3127 170.636 109.19 171.385 115.614C171.891 119.928 171.026 124.248 171.011 128.224C170.997 132.2 171.967 135.94 176.139 138.555C176.216 138.603 176.301 138.635 176.39 138.65C176.479 138.665 176.57 138.663 176.658 138.643C176.746 138.622 176.829 138.585 176.902 138.533C176.976 138.48 177.038 138.414 177.086 138.337C177.134 138.261 177.167 138.176 177.182 138.087C177.197 137.998 177.194 137.907 177.174 137.819C177.154 137.731 177.116 137.648 177.064 137.574C177.012 137.5 176.945 137.438 176.869 137.39C173.097 135.026 172.371 132.001 172.385 128.229C172.399 124.457 173.288 120.048 172.75 115.454C171.97 108.768 169.069 99.2431 172.762 92.6512C172.851 92.4924 172.873 92.3048 172.824 92.1295C172.775 91.9542 172.658 91.8055 172.499 91.7164C172.42 91.6723 172.334 91.6441 172.244 91.6335C172.155 91.6229 172.064 91.6301 171.977 91.6547L171.977 91.6556Z" fill="#6D56FA"/>
<path d="M168.601 114.524C168.52 114.485 168.431 114.463 168.341 114.459C168.251 114.455 168.161 114.468 168.076 114.499C167.991 114.53 167.913 114.576 167.847 114.637C167.78 114.698 167.726 114.771 167.687 114.853C167.687 114.853 160.613 129.798 158.904 139.86C158.753 140.755 158.694 141.584 157.77 143.028C156.846 144.473 155.028 146.493 151.378 149.404C151.236 149.518 151.144 149.683 151.123 149.864C151.103 150.045 151.155 150.227 151.269 150.369C151.325 150.44 151.395 150.499 151.474 150.542C151.553 150.586 151.639 150.614 151.729 150.624C151.819 150.634 151.91 150.627 151.996 150.602C152.083 150.577 152.164 150.535 152.235 150.478C155.952 147.513 157.877 145.409 158.927 143.769C159.976 142.129 160.12 140.912 160.258 140.089C161.9 130.429 168.93 115.438 168.93 115.438C169.007 115.273 169.016 115.084 168.955 114.913C168.893 114.741 168.766 114.601 168.601 114.524Z" fill="#6D56FA"/>
<path d="M156 149.691C156 149.691 154.138 149.917 151.874 150.669C149.611 151.422 146.896 152.691 145.157 154.914C145.045 155.058 144.994 155.24 145.016 155.421C145.038 155.602 145.131 155.766 145.274 155.879C145.418 155.991 145.6 156.041 145.781 156.019C145.961 155.997 146.126 155.904 146.238 155.761C147.699 153.893 150.178 152.68 152.307 151.973C154.436 151.265 156.166 151.054 156.166 151.054C156.347 151.032 156.511 150.939 156.623 150.796C156.736 150.652 156.786 150.47 156.764 150.289C156.742 150.108 156.649 149.944 156.506 149.832C156.362 149.719 156.18 149.669 156 149.691Z" fill="#6D56FA"/>
<path d="M148.159 156.269C147.988 156.333 147.85 156.462 147.774 156.627C147.774 156.627 147.057 158.158 146.791 159.335C146.771 159.423 146.768 159.514 146.784 159.603C146.799 159.692 146.831 159.777 146.879 159.854C146.927 159.93 146.99 159.996 147.064 160.048C147.137 160.1 147.221 160.137 147.309 160.157C147.396 160.177 147.487 160.18 147.576 160.165C147.665 160.149 147.75 160.117 147.827 160.069C147.903 160.021 147.969 159.958 148.021 159.884C148.073 159.811 148.11 159.727 148.13 159.639C148.331 158.755 149.024 157.199 149.024 157.199C149.061 157.117 149.082 157.028 149.086 156.938C149.089 156.848 149.074 156.758 149.043 156.673C149.012 156.589 148.964 156.511 148.902 156.445C148.841 156.379 148.767 156.326 148.685 156.288C148.603 156.251 148.514 156.23 148.424 156.227C148.333 156.223 148.244 156.238 148.159 156.269Z" fill="#6D56FA"/>
<path d="M152.106 154.719C151.942 154.639 151.753 154.628 151.581 154.688C151.409 154.748 151.268 154.874 151.188 155.037C151.188 155.037 150.697 156.048 150.204 157.309C149.712 158.57 149.193 160.044 149.182 161.244C149.181 161.334 149.198 161.424 149.232 161.508C149.266 161.591 149.316 161.667 149.379 161.732C149.442 161.796 149.517 161.847 149.6 161.883C149.683 161.918 149.773 161.937 149.863 161.937C149.953 161.938 150.043 161.921 150.126 161.888C150.21 161.854 150.286 161.804 150.35 161.741C150.415 161.677 150.466 161.602 150.501 161.519C150.536 161.436 150.555 161.347 150.556 161.257C150.563 160.496 151.013 159.014 151.484 157.809C151.955 156.604 152.424 155.637 152.424 155.637C152.504 155.473 152.515 155.284 152.455 155.112C152.395 154.94 152.27 154.798 152.106 154.719Z" fill="#6D56FA"/>
<path d="M179.438 143.471C179.438 143.471 169.942 146.254 166.255 147.719C159.173 150.538 157.025 155.796 157.025 155.796C156.992 155.88 156.975 155.97 156.976 156.06C156.977 156.15 156.996 156.239 157.032 156.322C157.067 156.405 157.119 156.48 157.183 156.544C157.248 156.607 157.324 156.656 157.408 156.69C157.577 156.757 157.766 156.755 157.933 156.683C158.101 156.611 158.233 156.476 158.301 156.307C158.301 156.307 160.128 151.636 166.763 148.995C170.248 147.611 179.826 144.788 179.826 144.788C179.912 144.763 179.993 144.721 180.063 144.664C180.133 144.607 180.192 144.537 180.235 144.458C180.279 144.379 180.306 144.292 180.315 144.203C180.325 144.113 180.317 144.022 180.292 143.936C180.24 143.761 180.121 143.614 179.962 143.526C179.802 143.439 179.614 143.419 179.439 143.47L179.438 143.471Z" fill="#6D56FA"/>
<path d="M165.976 151.557C162.319 154.214 160.334 156.391 159.255 157.937C158.716 158.71 158.404 159.325 158.224 159.762C158.045 160.198 157.99 160.511 157.99 160.511C157.976 160.6 157.98 160.691 158.002 160.779C158.024 160.866 158.062 160.949 158.116 161.021C158.169 161.094 158.236 161.155 158.314 161.202C158.391 161.249 158.477 161.28 158.566 161.293C158.655 161.307 158.746 161.303 158.834 161.281C158.921 161.26 159.004 161.221 159.076 161.168C159.149 161.114 159.21 161.047 159.257 160.969C159.304 160.892 159.335 160.807 159.348 160.717C159.348 160.717 159.355 160.622 159.494 160.284C159.633 159.946 159.895 159.42 160.381 158.723C161.354 157.33 163.224 155.255 166.784 152.669C166.857 152.616 166.918 152.549 166.966 152.472C167.013 152.395 167.044 152.309 167.058 152.22C167.073 152.131 167.069 152.04 167.048 151.952C167.027 151.864 166.989 151.782 166.936 151.709C166.883 151.636 166.816 151.574 166.739 151.527C166.662 151.479 166.576 151.448 166.487 151.434C166.398 151.42 166.307 151.423 166.22 151.444C166.132 151.465 166.049 151.504 165.976 151.557Z" fill="#6D56FA"/>
<path d="M187.782 152.733C187.712 152.676 187.631 152.634 187.545 152.608C187.458 152.583 187.367 152.575 187.278 152.584C187.188 152.594 187.101 152.621 187.022 152.665C186.943 152.708 186.873 152.766 186.816 152.836C182.61 158.057 179.254 159.624 176.733 159.857C174.213 160.09 172.459 159.01 171.214 158.449C170.315 158.043 169.353 158.377 168.468 158.896C167.582 159.416 166.695 160.185 165.86 161.015C164.19 162.675 162.785 164.526 162.341 165.239C161.914 165.925 161.523 166.006 161.469 165.997C161.442 165.992 161.428 165.997 161.372 165.902C161.315 165.805 161.249 165.594 161.257 165.266C161.307 163.166 162.947 160.599 164.646 158.626C166.344 156.653 168.031 155.269 168.031 155.269C168.1 155.212 168.158 155.141 168.2 155.062C168.243 154.982 168.269 154.895 168.278 154.805C168.287 154.715 168.278 154.625 168.252 154.538C168.226 154.452 168.183 154.371 168.125 154.302C168.068 154.232 167.998 154.174 167.918 154.132C167.839 154.089 167.751 154.063 167.662 154.054C167.572 154.045 167.481 154.054 167.395 154.08C167.309 154.107 167.228 154.15 167.159 154.207C167.159 154.207 165.39 155.657 163.606 157.73C161.821 159.803 159.949 162.493 159.884 165.234C159.872 165.749 159.961 166.208 160.183 166.591C160.405 166.974 160.79 167.272 161.229 167.349C162.107 167.505 162.913 166.919 163.507 165.966C163.805 165.487 165.254 163.556 166.829 161.99C167.616 161.207 168.448 160.502 169.164 160.082C169.879 159.662 170.4 159.589 170.65 159.702C171.704 160.176 173.883 161.5 176.859 161.225C179.835 160.95 183.539 159.095 187.886 153.699C187.943 153.629 187.985 153.548 188.01 153.461C188.036 153.375 188.044 153.284 188.034 153.194C188.025 153.105 187.997 153.018 187.954 152.938C187.911 152.859 187.852 152.789 187.782 152.733Z" fill="#6D56FA"/>
<path d="M174.863 162.172C174.778 162.142 174.687 162.13 174.597 162.136C174.507 162.142 174.419 162.166 174.338 162.205C174.338 162.205 161.408 168.55 158.021 170.32C157.86 170.405 157.739 170.55 157.684 170.724C157.63 170.897 157.647 171.086 157.731 171.247C157.773 171.327 157.83 171.398 157.899 171.456C157.968 171.514 158.048 171.558 158.134 171.585C158.22 171.612 158.311 171.621 158.401 171.613C158.491 171.605 158.578 171.58 158.658 171.538C161.966 169.809 174.943 163.439 174.943 163.439C175.024 163.399 175.096 163.344 175.156 163.276C175.216 163.209 175.261 163.13 175.291 163.044C175.32 162.959 175.332 162.869 175.326 162.779C175.321 162.689 175.297 162.6 175.257 162.519C175.218 162.438 175.163 162.366 175.095 162.306C175.027 162.246 174.948 162.201 174.863 162.172Z" fill="#6D56FA"/>
<path d="M82.271 132.855C82.1298 132.823 81.9821 132.837 81.8491 132.894C81.7162 132.952 81.6047 133.049 81.5305 133.174C81.0466 133.985 81.0833 134.973 81.4223 135.958C81.7614 136.942 82.3966 137.985 83.2574 139.116C84.9791 141.377 87.621 143.977 90.7329 146.743C96.9569 152.275 105.061 158.452 111.258 163.479C111.33 163.537 111.413 163.581 111.502 163.606C111.502 163.606 139.73 171.635 152.853 175.364C153.962 175.681 155.155 175.216 155.758 174.228C156.356 173.243 156.224 171.971 155.435 171.126C151.177 166.585 144.748 159.725 139.389 153.998C136.71 151.135 134.299 148.555 132.56 146.689C131.69 145.756 130.988 145.001 130.506 144.481C130.265 144.22 130.08 144.018 129.956 143.883C129.895 143.815 129.848 143.763 129.821 143.733C129.808 143.718 129.798 143.707 129.8 143.708C129.8 143.708 129.804 143.713 129.819 143.733C129.823 143.737 129.831 143.753 129.835 143.759C129.738 143.608 129.585 143.501 129.411 143.462L82.271 132.855ZM82.5903 134.336L128.89 144.751C128.908 144.77 128.918 144.782 128.939 144.805C129.068 144.946 129.255 145.149 129.498 145.411C129.982 145.934 130.683 146.69 131.554 147.623C133.294 149.49 135.706 152.071 138.386 154.935C143.745 160.662 150.174 167.521 154.433 172.063C154.807 172.464 154.867 173.05 154.586 173.513C154.301 173.982 153.755 174.193 153.233 174.043C140.153 170.327 112.196 162.375 112.015 162.323C105.804 157.289 97.7758 151.163 91.6487 145.717C88.5684 142.979 85.9712 140.408 84.3539 138.285C83.5452 137.223 82.986 136.27 82.7244 135.51C82.5521 135.01 82.542 134.65 82.5939 134.337L82.5903 134.336ZM129.837 143.76C129.844 143.77 129.847 143.772 129.863 143.801C129.863 143.805 129.853 143.836 129.853 143.842C129.85 143.814 129.844 143.787 129.838 143.76L129.837 143.76Z" fill="#6D56FA"/>
<path d="M189.43 158.45C189.43 158.45 181.519 162.053 173.116 165.805C168.915 167.682 164.59 169.596 161.073 171.115C157.555 172.634 154.784 173.773 153.918 174.038C153.743 174.091 153.598 174.211 153.512 174.372C153.427 174.532 153.408 174.72 153.461 174.895C153.514 175.069 153.635 175.215 153.795 175.301C153.956 175.386 154.144 175.405 154.318 175.352C155.426 175.014 158.091 173.899 161.617 172.376C165.144 170.854 169.472 168.938 173.676 167.061C182.085 163.305 189.998 159.701 189.998 159.701C190.164 159.625 190.293 159.487 190.357 159.316C190.421 159.146 190.414 158.957 190.339 158.791C190.264 158.625 190.125 158.496 189.955 158.432C189.784 158.368 189.595 158.375 189.43 158.45Z" fill="#6D56FA"/>
<path fill-rule="evenodd" clip-rule="evenodd" d="M223.588 133.526C223.588 133.526 233.712 154.366 215.703 183.264C211.148 190.579 202.402 196.767 171.916 202.717C157.204 205.593 114.63 210.709 99.1902 212.395C96.6764 212.67 95.5364 211.236 94.5657 206.527C93.6957 202.304 91.3101 193.826 90.1883 191.596C89.5289 190.276 93.7047 188.733 95.3943 187.995C98.3751 186.699 126.929 176.586 140.785 174.282C140.785 174.282 118.71 176.677 86.2824 190.826C85.2339 191.284 83.2467 191.348 81.0259 185.843C80.0827 183.502 76.9645 178.097 76.4929 177.287C75.8335 176.164 75.5771 175.377 79.1669 173.947C88.4619 170.247 114.525 163.752 114.525 163.752L153.042 174.703C153.404 174.809 153.779 174.799 154.118 174.694C158.065 173.489 189.714 159.075 189.714 159.075C199.449 156.496 206.161 151.174 209.687 147.908C220.315 143.296 223.41 137.479 223.556 134.502C223.57 134.181 223.584 133.856 223.588 133.526Z" fill="#6D56FA"/>
<path d="M60.0189 166.58C59.396 166.454 58.7505 166.615 58.165 166.96C56.9939 167.65 55.9561 169.064 55.2245 171.111C55.0983 171.463 55.0498 171.875 55.0224 172.457C54.9949 173.039 55.0059 173.768 55.0742 174.633C55.2109 176.362 55.5777 178.633 56.3415 181.301C57.8691 186.636 60.987 193.551 67.0275 200.793C67.0853 200.863 67.1562 200.92 67.2361 200.962C67.316 201.004 67.4034 201.03 67.4933 201.038C67.5831 201.046 67.6736 201.036 67.7598 201.009C67.8459 200.982 67.9259 200.939 67.9952 200.881C68.0644 200.823 68.1217 200.752 68.1635 200.672C68.2054 200.592 68.231 200.505 68.2391 200.415C68.2472 200.325 68.2374 200.234 68.2105 200.148C68.1835 200.062 68.1398 199.982 68.0819 199.913C62.168 192.823 59.1402 186.084 57.6624 180.922C56.9234 178.342 56.5723 176.155 56.4434 174.524C56.379 173.709 56.3702 173.032 56.3942 172.522C56.4181 172.012 56.4923 171.646 56.5186 171.573C57.1752 169.736 58.1196 168.582 58.8625 168.144C59.234 167.925 59.5277 167.882 59.7452 167.927C59.9628 167.971 60.1597 168.092 60.3623 168.432C61.5908 170.49 64.6913 173.509 67.7466 176.284C70.8018 179.059 73.7292 181.477 74.6685 182.15C74.7418 182.202 74.8248 182.24 74.9126 182.261C75.0005 182.281 75.0917 182.284 75.1807 182.269C75.2697 182.255 75.3549 182.223 75.4316 182.175C75.5082 182.127 75.5747 182.065 75.6272 181.992C75.7331 181.843 75.776 181.659 75.7464 181.48C75.7167 181.3 75.6168 181.14 75.4689 181.033C74.714 180.493 71.6938 178.014 68.6695 175.267C65.6452 172.52 62.534 169.389 61.5419 167.727C61.1858 167.13 60.6417 166.706 60.0189 166.579V166.58Z" fill="#6D56FA"/>
<path d="M166.71 3.03931C165.912 3.03931 165.109 3.07596 164.308 3.14576C157.901 3.70356 151.575 6.29888 148.552 7.77352C140.559 11.6739 138.071 16.9406 137.725 21.1925C137.503 23.9234 138.036 25.8432 138.516 27.1523C134.813 25.641 132.009 25.6927 130.021 26.73C127.763 27.9078 126.596 30.1063 125.897 31.8579C124.759 34.7157 124.937 37.9084 126.507 40.5516C128.077 43.1947 131.034 45.2556 135.293 45.9272C156.43 49.261 170.052 38.8848 172.158 37.1664C173.279 41.3781 175.047 44.7554 176.87 47.1501C177.854 48.4427 178.844 49.4608 179.753 50.1989C180.662 50.9367 181.466 51.4062 182.219 51.5641C183.194 51.7702 184.02 51.716 184.691 51.4183C185.361 51.1205 185.831 50.5946 186.153 50.028C186.796 48.8949 186.985 47.545 187.32 46.6125C187.704 45.5413 188.212 44.949 188.738 44.6202C189.264 44.2914 189.843 44.2062 190.453 44.2812C191.671 44.4311 192.96 45.3842 193.266 45.8744C195.043 48.7217 194.592 51.1379 193.566 52.9874C193.052 53.9122 192.38 54.6773 191.772 55.2069C191.163 55.7365 190.516 56.0041 190.518 56.004C190.428 56.015 190.342 56.0436 190.263 56.0882C190.185 56.1327 190.116 56.1923 190.06 56.2635C190.005 56.3347 189.964 56.4161 189.94 56.5031C189.916 56.5902 189.909 56.681 189.92 56.7706C189.931 56.8602 189.96 56.9467 190.004 57.0253C190.049 57.1038 190.109 57.1728 190.18 57.2283C190.251 57.2838 190.332 57.3248 190.419 57.3488C190.506 57.3728 190.597 57.3794 190.687 57.3682C191.373 57.2833 191.95 56.8729 192.673 56.2437C193.396 55.6145 194.164 54.7398 194.767 53.6539C194.855 53.4952 194.903 53.2995 194.983 53.1314C200.305 53.8511 204.369 52.471 207.244 50.444C210.212 48.3517 211.962 45.6497 212.823 44.011C217.029 35.9971 218.384 28.5572 217.363 22.4082C216.342 16.2594 212.909 11.4124 207.679 8.73253C193.107 1.27156 181.706 9.13597 179.976 10.4269C178.463 7.39233 176.219 5.39187 173.589 4.28906C171.456 3.39489 169.105 3.04238 166.71 3.03931ZM166.706 4.4143C168.964 4.41888 171.139 4.75258 173.057 5.5567C175.614 6.62887 177.732 8.50834 179.101 11.682C179.143 11.7797 179.207 11.8663 179.289 11.935C179.37 12.0036 179.466 12.0524 179.569 12.0775C179.673 12.1027 179.78 12.1035 179.884 12.0799C179.988 12.0563 180.085 12.0089 180.167 11.9414C180.167 11.9414 191.952 2.22342 207.052 9.95544C211.905 12.4422 215.049 16.8565 216.008 22.6337C216.967 28.4108 215.706 35.561 211.606 43.3722C210.814 44.8801 209.171 47.4047 206.452 49.3213C203.884 51.1321 200.324 52.363 195.518 51.7967C196.048 49.8724 195.935 47.5557 194.431 45.1462C193.776 44.0974 192.324 43.1265 190.62 42.9169C189.767 42.8121 188.838 42.9375 188.01 43.4545C187.182 43.9717 186.49 44.8605 186.027 46.1482C185.62 47.2814 185.408 48.5582 184.959 49.3499C184.734 49.7458 184.484 50.0064 184.133 50.1622C183.782 50.3181 183.282 50.3843 182.502 50.2195C182.14 50.1436 181.427 49.788 180.619 49.1326C179.812 48.4771 178.888 47.5333 177.963 46.3182C176.114 43.888 174.257 40.3746 173.213 35.8737C173.186 35.7579 173.13 35.6509 173.049 35.5634C172.969 35.4759 172.867 35.4109 172.754 35.3745C172.64 35.3382 172.52 35.3319 172.403 35.3562C172.287 35.3805 172.179 35.4346 172.09 35.5132C172.09 35.5132 157.865 48.0965 135.507 44.5701C131.574 43.95 129.034 42.116 127.688 39.8502C126.342 37.5844 126.183 34.8543 127.174 32.3669C127.822 30.7428 128.856 28.888 130.656 27.9485C132.457 27.009 135.136 26.8633 139.403 28.9898C139.533 29.0547 139.68 29.0767 139.824 29.0525C139.967 29.0283 140.099 28.9592 140.201 28.8552C140.302 28.7511 140.368 28.6175 140.389 28.4735C140.41 28.3295 140.385 28.1827 140.317 28.054C140.317 28.054 138.783 25.1334 139.095 21.3034C139.407 17.4734 141.491 12.7476 149.154 9.00806C152.065 7.58788 158.313 5.04687 164.428 4.5145C165.192 4.44795 165.954 4.41284 166.707 4.4143H166.706Z" fill="#6D56FA"/>
<path fill-rule="evenodd" clip-rule="evenodd" d="M194.6 52.4214C195.369 50.5206 195.483 48.125 193.849 45.5097C192.887 43.9707 188.368 41.6622 186.674 46.38C185.932 48.4457 185.873 51.6336 182.361 50.8916C180.131 50.4244 174.677 45.2257 172.544 36.0284C172.544 36.0284 158.051 48.8213 135.4 45.2487C127.208 43.957 124.406 37.4574 126.535 32.1122C127.881 28.7364 130.94 24.005 139.709 28.3746C139.709 28.3746 133.197 16.0307 148.852 8.39068C154.787 5.4959 174 -1.8831 179.732 11.409C179.732 11.409 191.926 1.43764 207.366 9.34331C217.448 14.5099 220.521 27.8662 212.215 43.6913C210.562 46.838 205.429 54.1436 194.6 52.4214Z" fill="#6D56FA"/>
<path d="M178.097 0.0246591C178.01 0.000662708 177.919 -0.00589427 177.829 0.00531346C177.74 0.0165212 177.653 0.0452636 177.575 0.0899647C177.416 0.180033 177.3 0.329305 177.252 0.504946C177.204 0.680587 177.227 0.868228 177.317 1.02661C177.317 1.02661 180.356 6.37158 178.428 13.0715C178.428 13.0715 178.428 13.0715 178.428 13.0761L178.414 13.1324C178.378 13.307 178.41 13.4888 178.506 13.6394C178.601 13.7901 178.751 13.8979 178.924 13.9399C179.097 13.9819 179.28 13.955 179.434 13.8648C179.588 13.7745 179.7 13.628 179.748 13.4563C179.754 13.437 179.754 13.4191 179.76 13.3999C179.76 13.3999 181.18 6.48102 186.081 2.42151C186.221 2.30534 186.309 2.13812 186.326 1.95677C186.343 1.77541 186.288 1.59471 186.172 1.45434C186.056 1.31403 185.888 1.22566 185.707 1.20855C185.526 1.19144 185.345 1.24699 185.205 1.36309C182.959 3.22348 181.435 5.56363 180.386 7.67805C180.172 3.34473 178.511 0.348727 178.511 0.348727C178.467 0.27027 178.407 0.201291 178.336 0.145877C178.265 0.0904629 178.183 0.0495972 178.096 0.0256656L178.097 0.0246591Z" fill="#6D56FA"/>
<path d="M118.819 153.414C118.549 153.425 118.299 153.491 118.078 153.626C117.726 153.841 117.57 154.176 117.484 154.492C117.128 154.264 116.752 154.034 116.351 153.87C115.869 153.672 115.329 153.454 114.733 153.825C114.435 154.011 114.249 154.368 114.208 154.693C114.167 155.018 114.217 155.34 114.321 155.717C114.879 157.731 116.503 159.118 118.081 160.02C118.87 160.47 119.658 160.802 120.335 161.027C121.012 161.252 121.543 161.377 121.981 161.387C122.163 161.392 122.339 161.323 122.471 161.198C122.603 161.072 122.68 160.899 122.684 160.717C122.685 160.587 122.648 160.46 122.579 160.35C123.147 160.579 123.668 160.691 124.141 160.519C124.521 160.38 124.813 160.042 124.926 159.702C125.039 159.362 125.023 159.028 124.954 158.709C124.901 158.469 124.82 158.344 124.717 158.164C124.613 157.984 124.482 157.782 124.324 157.559C124.009 157.114 123.589 156.587 123.106 156.057C122.14 154.999 120.97 153.911 119.685 153.539C119.38 153.45 119.089 153.405 118.819 153.416L118.819 153.414ZM118.793 154.8C118.783 154.806 118.897 154.739 119.301 154.857C120.044 155.072 121.202 156.01 122.089 156.982C122.533 157.469 122.923 157.958 123.201 158.351C123.34 158.548 123.451 158.721 123.525 158.849C123.598 158.976 123.629 159.092 123.609 159.002C123.635 159.119 123.625 159.179 123.618 159.219C123.557 159.219 123.094 159.205 122.208 158.642C122.054 158.544 121.868 158.512 121.69 158.551C121.513 158.591 121.358 158.699 121.26 158.853C121.212 158.929 121.179 159.014 121.163 159.103C121.148 159.192 121.15 159.283 121.17 159.371C121.189 159.459 121.226 159.542 121.278 159.616C121.33 159.69 121.396 159.753 121.472 159.801C121.596 159.88 121.685 159.897 121.803 159.965C121.59 159.938 121.261 159.888 120.766 159.724C120.171 159.526 119.459 159.225 118.76 158.826C117.362 158.028 116.056 156.846 115.643 155.351C115.596 155.181 115.602 155.132 115.596 155.047C115.644 155.058 115.619 155.056 115.828 155.141C116.497 155.416 117.535 156.2 117.709 156.377C117.817 156.488 117.959 156.558 118.113 156.578C118.267 156.598 118.422 156.565 118.555 156.485C118.687 156.404 118.789 156.282 118.843 156.137C118.897 155.992 118.901 155.833 118.853 155.685C118.853 155.685 118.728 155.183 118.765 154.92C118.783 154.788 118.801 154.794 118.791 154.8H118.793Z" fill="#6D56FA"/>
<path d="M116.188 151.426C116.123 151.364 116.046 151.314 115.962 151.281C115.878 151.248 115.789 151.232 115.699 151.234C115.608 151.235 115.52 151.255 115.437 151.291C115.354 151.327 115.279 151.378 115.217 151.443C115.154 151.508 115.105 151.585 115.072 151.669C115.039 151.753 115.023 151.843 115.024 151.933C115.026 152.023 115.045 152.112 115.082 152.195C115.118 152.277 115.169 152.352 115.234 152.415C115.234 152.415 117.163 154.386 117.531 156.045C117.551 156.133 117.587 156.217 117.639 156.291C117.691 156.364 117.757 156.428 117.833 156.476C117.909 156.524 117.994 156.557 118.083 156.573C118.172 156.588 118.263 156.586 118.351 156.567C118.529 156.527 118.683 156.419 118.781 156.265C118.879 156.111 118.912 155.925 118.872 155.747C118.352 153.403 116.188 151.426 116.188 151.426Z" fill="#6D56FA"/>
<path d="M58.0716 64.1928C57.7279 64.0426 57.3426 64.094 56.99 64.253C56.6374 64.412 56.2932 64.6778 55.951 65.0256C55.2666 65.7212 54.593 66.7533 54.0558 67.9827C53.5187 69.2121 53.219 70.4075 53.1736 71.3824C53.1509 71.8698 53.1898 72.3029 53.3126 72.6697C53.4355 73.0365 53.6594 73.3544 54.0031 73.5046C54.3468 73.6547 54.7322 73.603 55.0848 73.444C55.4374 73.285 55.7817 73.0192 56.1239 72.6714C56.8083 71.9757 57.4819 70.9437 58.019 69.7143C58.5562 68.4848 58.8558 67.2894 58.9013 66.3146C58.924 65.8272 58.8851 65.3941 58.7622 65.0273C58.6394 64.6605 58.4153 64.343 58.0716 64.1928ZM57.7871 64.844C57.9008 64.8937 58.0068 65.0084 58.0888 65.2531C58.1708 65.4977 58.2117 65.8547 58.1918 66.2819C58.152 67.1362 57.8761 68.2678 57.3683 69.43C56.8605 70.5921 56.2177 71.5634 55.6178 72.173C55.3179 72.4779 55.0282 72.6904 54.793 72.7965C54.558 72.9024 54.4017 72.9031 54.288 72.8536C54.1744 72.8039 54.0685 72.6887 53.9865 72.4441C53.9045 72.1994 53.8636 71.8425 53.8835 71.4153C53.9233 70.5609 54.1993 69.4293 54.707 68.2672C55.2148 67.1051 55.8576 66.1338 56.4575 65.5241C56.7574 65.2193 57.0471 65.0068 57.2823 64.9007C57.5173 64.7947 57.6734 64.7944 57.7871 64.844Z" fill="#6D56FA"/>
<path d="M59.7041 61.4054C58.4464 60.8559 56.9593 61.2999 55.6056 62.3441C54.252 63.3882 52.9871 65.0509 52.0909 67.102C51.1948 69.1531 50.8341 71.2108 50.9877 72.9135C51.1413 74.6161 51.8258 76.009 53.0835 76.5585C54.3411 77.108 55.8278 76.6637 57.1815 75.6196C58.5351 74.5755 59.8 72.9129 60.6962 70.8617C61.5923 68.8106 61.953 66.7529 61.7994 65.0502C61.6458 63.3476 60.9618 61.9549 59.7041 61.4054ZM59.4233 62.048C60.3644 62.4592 60.9609 63.5603 61.1009 65.113C61.241 66.6657 60.908 68.6252 60.0535 70.5809C59.199 72.5367 57.9877 74.1118 56.7532 75.064C55.5187 76.0162 54.3055 76.3266 53.3644 75.9154C52.4233 75.5043 51.8264 74.403 51.6864 72.8503C51.5463 71.2975 51.8791 69.3385 52.7336 67.3828C53.5881 65.427 54.7996 63.8514 56.0341 62.8992C57.2686 61.9471 58.4822 61.6369 59.4233 62.048Z" fill="#6D56FA"/>
<path fill-rule="evenodd" clip-rule="evenodd" d="M59.4301 63.6342C59.4012 63.7356 59.334 63.8215 59.2433 63.8731C59.1525 63.9247 59.0456 63.9377 58.9461 63.9094C58.8465 63.8811 58.7625 63.8136 58.7126 63.7219C58.6626 63.6303 58.6508 63.5218 58.6796 63.4205C58.6939 63.3703 58.7178 63.3234 58.7499 63.2824C58.7819 63.2415 58.8215 63.2072 58.8665 63.1816C58.9114 63.1561 58.9608 63.1397 59.0118 63.1335C59.0628 63.1273 59.1144 63.1313 59.1637 63.1453C59.2129 63.1593 59.2589 63.1831 59.299 63.2153C59.339 63.2475 59.3724 63.2874 59.3971 63.3328C59.4219 63.3782 59.4375 63.4282 59.4431 63.4799C59.4488 63.5316 59.4444 63.5841 59.4301 63.6342Z" fill="#6D56FA"/>
<path fill-rule="evenodd" clip-rule="evenodd" d="M63.161 60.6851C63.1467 60.7353 63.1229 60.7822 63.0908 60.8232C63.0588 60.8642 63.0192 60.8984 62.9742 60.924C62.9293 60.9495 62.8799 60.9659 62.8289 60.9721C62.7779 60.9784 62.7263 60.9743 62.677 60.9603C62.6277 60.9463 62.5817 60.9225 62.5417 60.8903C62.5016 60.8582 62.4683 60.8182 62.4435 60.7728C62.4188 60.7274 62.4032 60.6775 62.3975 60.6257C62.3919 60.574 62.3963 60.5216 62.4106 60.4714C62.4395 60.3701 62.5067 60.2842 62.5974 60.2325C62.6882 60.1809 62.7951 60.1679 62.8946 60.1962C62.9941 60.2246 63.0781 60.292 63.1281 60.3837C63.178 60.4754 63.1899 60.5838 63.161 60.6851Z" fill="#6D56FA"/>
<path fill-rule="evenodd" clip-rule="evenodd" d="M64.9748 56.385C64.9459 56.4863 64.8787 56.5722 64.7879 56.6238C64.6972 56.6754 64.5902 56.6885 64.4907 56.6601C64.3912 56.6318 64.3072 56.5644 64.2573 56.4727C64.2073 56.381 64.1955 56.2726 64.2243 56.1712C64.2386 56.1211 64.2625 56.0741 64.2945 56.0332C64.3266 55.9922 64.3662 55.9579 64.4111 55.9324C64.4561 55.9068 64.5055 55.8905 64.5565 55.8842C64.6074 55.878 64.6591 55.882 64.7083 55.896C64.7576 55.9101 64.8036 55.9339 64.8437 55.966C64.8837 55.9982 64.9171 56.0381 64.9418 56.0835C64.9665 56.1289 64.9822 56.1789 64.9878 56.2306C64.9935 56.2823 64.989 56.3348 64.9748 56.385Z" fill="#6D56FA"/>
<path fill-rule="evenodd" clip-rule="evenodd" d="M60.2039 65.7231C60.175 65.8244 60.1078 65.9103 60.0171 65.9619C59.9263 66.0136 59.8194 66.0266 59.7199 65.9983C59.6203 65.9699 59.5363 65.9025 59.4864 65.8108C59.4364 65.7191 59.4246 65.6107 59.4534 65.5094C59.4677 65.4592 59.4916 65.4123 59.5237 65.3713C59.5557 65.3303 59.5953 65.2961 59.6403 65.2705C59.6852 65.245 59.7346 65.2286 59.7856 65.2224C59.8366 65.2161 59.8882 65.2202 59.9375 65.2342C59.9867 65.2482 60.0327 65.272 60.0728 65.3042C60.1129 65.3363 60.1462 65.3762 60.1709 65.4216C60.1957 65.467 60.2113 65.517 60.2169 65.5688C60.2226 65.6205 60.2182 65.6729 60.2039 65.7231Z" fill="#6D56FA"/>
<path fill-rule="evenodd" clip-rule="evenodd" d="M60.0522 68.0086C60.0379 68.0588 60.014 68.1057 59.9819 68.1467C59.9499 68.1877 59.9103 68.2219 59.8653 68.2475C59.8204 68.273 59.771 68.2894 59.72 68.2956C59.669 68.3018 59.6174 68.2978 59.5681 68.2838C59.5189 68.2698 59.4728 68.246 59.4328 68.2138C59.3927 68.1816 59.3594 68.1417 59.3347 68.0963C59.3099 68.0509 59.2943 68.001 59.2887 67.9492C59.283 67.8975 59.2874 67.8451 59.3017 67.7949C59.3306 67.6936 59.3978 67.6076 59.4885 67.556C59.5793 67.5044 59.6862 67.4914 59.7857 67.5197C59.8852 67.548 59.9692 67.6155 60.0192 67.7072C60.0692 67.7989 60.081 67.9073 60.0522 68.0086Z" fill="#6D56FA"/>
<path fill-rule="evenodd" clip-rule="evenodd" d="M59.3994 70.1811C59.3706 70.2824 59.3034 70.3683 59.2126 70.42C59.1218 70.4716 59.0149 70.4846 58.9154 70.4563C58.8159 70.4279 58.7319 70.3605 58.6819 70.2688C58.632 70.1771 58.6201 70.0687 58.649 69.9674C58.6633 69.9172 58.6872 69.8703 58.7192 69.8293C58.7513 69.7883 58.7909 69.7541 58.8358 69.7285C58.8808 69.703 58.9301 69.6866 58.9811 69.6804C59.0321 69.6741 59.0838 69.6782 59.133 69.6922C59.1823 69.7062 59.2283 69.73 59.2684 69.7622C59.3084 69.7943 59.3418 69.8343 59.3665 69.8797C59.3912 69.9251 59.4068 69.975 59.4125 70.0268C59.4181 70.0785 59.4137 70.1309 59.3994 70.1811Z" fill="#6D56FA"/>
<path fill-rule="evenodd" clip-rule="evenodd" d="M58.1103 72.629C58.096 72.6791 58.0721 72.7261 58.04 72.767C58.008 72.808 57.9684 72.8423 57.9234 72.8678C57.8785 72.8934 57.8291 72.9097 57.7781 72.916C57.7271 72.9222 57.6755 72.9182 57.6262 72.9042C57.577 72.8901 57.531 72.8663 57.4909 72.8342C57.4508 72.802 57.4175 72.7621 57.3928 72.7167C57.368 72.6713 57.3524 72.6213 57.3468 72.5696C57.3411 72.5179 57.3455 72.4654 57.3598 72.4152C57.3887 72.3139 57.4559 72.228 57.5466 72.1764C57.6374 72.1248 57.7443 72.1117 57.8438 72.1401C57.9434 72.1684 58.0274 72.2358 58.0773 72.3275C58.1273 72.4192 58.1391 72.5277 58.1103 72.629Z" fill="#6D56FA"/>
<path fill-rule="evenodd" clip-rule="evenodd" d="M56.1337 74.5529C56.1048 74.6543 56.0376 74.7402 55.9469 74.7918C55.8561 74.8434 55.7492 74.8564 55.6497 74.8281C55.5502 74.7998 55.4662 74.7323 55.4162 74.6406C55.3662 74.549 55.3544 74.4405 55.3833 74.3392C55.4121 74.2379 55.4793 74.152 55.5701 74.1003C55.6608 74.0487 55.7678 74.0357 55.8673 74.064C55.9668 74.0924 56.0508 74.1598 56.1007 74.2515C56.1507 74.3432 56.1626 74.4516 56.1337 74.5529Z" fill="#6D56FA"/>
<path fill-rule="evenodd" clip-rule="evenodd" d="M53.5254 74.5295C53.5111 74.5797 53.4872 74.6266 53.4552 74.6676C53.4231 74.7085 53.3835 74.7428 53.3386 74.7683C53.2936 74.7939 53.2443 74.8103 53.1933 74.8165C53.1423 74.8227 53.0907 74.8187 53.0414 74.8047C52.9419 74.7763 52.8579 74.7089 52.8079 74.6172C52.758 74.5255 52.7461 74.4171 52.775 74.3158C52.7893 74.2656 52.8132 74.2187 52.8452 74.1777C52.8773 74.1367 52.9169 74.1025 52.9618 74.0769C53.0067 74.0514 53.0561 74.035 53.1071 74.0288C53.1581 74.0225 53.2097 74.0265 53.259 74.0406C53.3083 74.0546 53.3543 74.0784 53.3943 74.1106C53.4344 74.1427 53.4677 74.1826 53.4925 74.228C53.5172 74.2734 53.5328 74.3234 53.5385 74.3751C53.5441 74.4269 53.5397 74.4793 53.5254 74.5295Z" fill="#6D56FA"/>
<path fill-rule="evenodd" clip-rule="evenodd" d="M52.7499 71.9478C52.721 72.0491 52.6538 72.1351 52.5631 72.1867C52.4723 72.2383 52.3654 72.2513 52.2659 72.223C52.1664 72.1947 52.0824 72.1272 52.0324 72.0355C51.9825 71.9439 51.9706 71.8354 51.9995 71.7341C52.0138 71.6839 52.0376 71.637 52.0697 71.596C52.1018 71.5551 52.1413 71.5208 52.1863 71.4952C52.2312 71.4697 52.2806 71.4533 52.3316 71.4471C52.3826 71.4409 52.4342 71.4449 52.4835 71.4589C52.5328 71.4729 52.5788 71.4967 52.6188 71.5289C52.6589 71.5611 52.6922 71.601 52.717 71.6464C52.7417 71.6918 52.7573 71.7418 52.763 71.7935C52.7686 71.8452 52.7642 71.8977 52.7499 71.9478Z" fill="#6D56FA"/>
<path fill-rule="evenodd" clip-rule="evenodd" d="M53.2163 69.3959C53.1875 69.4973 53.1203 69.5832 53.0295 69.6348C52.9387 69.6864 52.8318 69.6995 52.7323 69.6711C52.6328 69.6428 52.5488 69.5753 52.4988 69.4837C52.4489 69.392 52.437 69.2835 52.4659 69.1822C52.4948 69.0809 52.562 68.995 52.6527 68.9434C52.7435 68.8918 52.8504 68.8787 52.9499 68.907C53.0494 68.9354 53.1334 69.0028 53.1834 69.0945C53.2333 69.1862 53.2452 69.2946 53.2163 69.3959Z" fill="#6D56FA"/>
<path fill-rule="evenodd" clip-rule="evenodd" d="M54.3207 66.8326C54.2918 66.9339 54.2246 67.0198 54.1339 67.0714C54.0431 67.1231 53.9362 67.1361 53.8367 67.1078C53.7372 67.0794 53.6532 67.012 53.6032 66.9203C53.5533 66.8286 53.5414 66.7202 53.5703 66.6189C53.5991 66.5175 53.6663 66.4316 53.7571 66.38C53.8479 66.3284 53.9548 66.3153 54.0543 66.3437C54.1538 66.372 54.2378 66.4395 54.2878 66.5311C54.3377 66.6228 54.3496 66.7313 54.3207 66.8326Z" fill="#6D56FA"/>
<path fill-rule="evenodd" clip-rule="evenodd" d="M55.6706 64.6861C55.6417 64.7874 55.5745 64.8734 55.4837 64.925C55.393 64.9766 55.286 64.9896 55.1865 64.9613C55.087 64.9329 55.003 64.8655 54.9531 64.7738C54.9031 64.6821 54.8913 64.5737 54.9201 64.4724C54.9344 64.4222 54.9583 64.3753 54.9903 64.3343C55.0224 64.2933 55.062 64.2591 55.1069 64.2335C55.1519 64.208 55.2013 64.1916 55.2523 64.1854C55.3032 64.1791 55.3549 64.1832 55.4041 64.1972C55.4534 64.2112 55.4994 64.235 55.5395 64.2672C55.5795 64.2993 55.6129 64.3393 55.6376 64.3847C55.6623 64.4301 55.678 64.48 55.6836 64.5318C55.6893 64.5835 55.6848 64.6359 55.6706 64.6861Z" fill="#6D56FA"/>
<path fill-rule="evenodd" clip-rule="evenodd" d="M57.5681 63.2661C57.5393 63.3674 57.4721 63.4533 57.3813 63.5049C57.2905 63.5565 57.1836 63.5696 57.0841 63.5412C56.9846 63.5129 56.9006 63.4455 56.8506 63.3538C56.8007 63.2621 56.7888 63.1537 56.8177 63.0523C56.832 63.0022 56.8559 62.9553 56.8879 62.9143C56.92 62.8733 56.9596 62.839 57.0045 62.8135C57.0495 62.7879 57.0989 62.7716 57.1498 62.7653C57.2008 62.7591 57.2525 62.7631 57.3017 62.7772C57.351 62.7912 57.397 62.815 57.4371 62.8471C57.4771 62.8793 57.5105 62.9192 57.5352 62.9646C57.5599 63.01 57.5755 63.06 57.5812 63.1117C57.5868 63.1634 57.5824 63.2159 57.5681 63.2661Z" fill="#6D56FA"/>
<path fill-rule="evenodd" clip-rule="evenodd" d="M52.5974 81.8996C52.5831 81.9498 52.5593 81.9967 52.5272 82.0377C52.4952 82.0786 52.4556 82.1129 52.4106 82.1385C52.3657 82.164 52.3163 82.1804 52.2653 82.1866C52.2143 82.1928 52.1627 82.1888 52.1134 82.1748C52.0641 82.1608 52.0181 82.137 51.9781 82.1048C51.938 82.0726 51.9047 82.0327 51.8799 81.9873C51.8552 81.9419 51.8396 81.8919 51.834 81.8402C51.8283 81.7885 51.8327 81.736 51.847 81.6859C51.8759 81.5846 51.9431 81.4986 52.0338 81.447C52.1246 81.3954 52.2315 81.3824 52.331 81.4107C52.4305 81.439 52.5145 81.5065 52.5645 81.5982C52.6144 81.6898 52.6263 81.7983 52.5974 81.8996Z" fill="#6D56FA"/>
<path fill-rule="evenodd" clip-rule="evenodd" d="M50.2736 86.5816C50.2447 86.6829 50.1775 86.7689 50.0868 86.8205C49.996 86.8721 49.8891 86.8851 49.7896 86.8568C49.6901 86.8285 49.6061 86.761 49.5561 86.6693C49.5061 86.5776 49.4943 86.4692 49.5231 86.3679C49.5374 86.3177 49.5613 86.2708 49.5934 86.2298C49.6254 86.1888 49.665 86.1546 49.71 86.129C49.7549 86.1035 49.8043 86.0871 49.8553 86.0809C49.9063 86.0747 49.9579 86.0787 50.0072 86.0927C50.0564 86.1067 50.1025 86.1305 50.1425 86.1627C50.1826 86.1949 50.2159 86.2348 50.2406 86.2802C50.2654 86.3256 50.281 86.3756 50.2866 86.4273C50.2923 86.479 50.2879 86.5314 50.2736 86.5816Z" fill="#6D56FA"/>
<path fill-rule="evenodd" clip-rule="evenodd" d="M47.7241 91.798C47.6953 91.8994 47.6281 91.9853 47.5373 92.0369C47.4466 92.0885 47.3396 92.1016 47.2401 92.0732C47.1406 92.0449 47.0566 91.9774 47.0067 91.8858C46.9567 91.7941 46.9449 91.6856 46.9737 91.5843C47.0026 91.483 47.0698 91.3971 47.1605 91.3455C47.2513 91.2939 47.3582 91.2808 47.4577 91.3091C47.5572 91.3375 47.6412 91.4049 47.6912 91.4966C47.7412 91.5883 47.753 91.6967 47.7241 91.798Z" fill="#6D56FA"/>
<path fill-rule="evenodd" clip-rule="evenodd" d="M45.9208 95.4693C45.8919 95.5706 45.8247 95.6566 45.734 95.7082C45.6432 95.7598 45.5363 95.7728 45.4368 95.7445C45.3373 95.7161 45.2533 95.6487 45.2033 95.557C45.1534 95.4653 45.1415 95.3569 45.1704 95.2556C45.1847 95.2054 45.2085 95.1585 45.2406 95.1175C45.2726 95.0765 45.3122 95.0423 45.3572 95.0167C45.4021 94.9912 45.4515 94.9748 45.5025 94.9686C45.5535 94.9623 45.6051 94.9664 45.6544 94.9804C45.7037 94.9944 45.7497 95.0182 45.7897 95.0504C45.8298 95.0825 45.8631 95.1225 45.8879 95.1679C45.9126 95.2133 45.9282 95.2632 45.9339 95.315C45.9395 95.3667 45.9351 95.4191 45.9208 95.4693Z" fill="#6D56FA"/>
<path fill-rule="evenodd" clip-rule="evenodd" d="M53.4376 103.922C53.4234 103.972 53.3995 104.019 53.3674 104.06C53.3354 104.101 53.2958 104.135 53.2508 104.161C53.2059 104.187 53.1565 104.203 53.1055 104.209C53.0545 104.215 53.0029 104.211 52.9536 104.197C52.9044 104.183 52.8583 104.16 52.8183 104.127C52.7782 104.095 52.7449 104.055 52.7202 104.01C52.6954 103.965 52.6798 103.915 52.6742 103.863C52.6685 103.811 52.6729 103.759 52.6872 103.708C52.7161 103.607 52.7833 103.521 52.874 103.47C52.9648 103.418 53.0717 103.405 53.1712 103.433C53.2707 103.462 53.3547 103.529 53.4047 103.621C53.4547 103.712 53.4665 103.821 53.4376 103.922Z" fill="#6D56FA"/>
<path fill-rule="evenodd" clip-rule="evenodd" d="M33.9207 97.2163C33.8918 97.3176 33.8246 97.4035 33.7339 97.4551C33.6431 97.5067 33.5362 97.5198 33.4367 97.4914C33.3371 97.4631 33.2531 97.3957 33.2032 97.304C33.1532 97.2123 33.1414 97.1039 33.1702 97.0025C33.1845 96.9524 33.2084 96.9055 33.2405 96.8645C33.2725 96.8235 33.3121 96.7892 33.3571 96.7637C33.402 96.7381 33.4514 96.7218 33.5024 96.7155C33.5534 96.7093 33.605 96.7133 33.6543 96.7273C33.7035 96.7414 33.7495 96.7652 33.7896 96.7973C33.8297 96.8295 33.863 96.8694 33.8877 96.9148C33.9125 96.9602 33.9281 97.0102 33.9337 97.0619C33.9394 97.1136 33.935 97.1661 33.9207 97.2163Z" fill="#6D56FA"/>
<path fill-rule="evenodd" clip-rule="evenodd" d="M26.7699 107.905C26.7556 107.955 26.7318 108.002 26.6997 108.043C26.6676 108.084 26.628 108.118 26.5831 108.144C26.5382 108.169 26.4888 108.185 26.4378 108.192C26.3868 108.198 26.3352 108.194 26.2859 108.18C26.2366 108.166 26.1906 108.142 26.1506 108.11C26.1105 108.078 26.0772 108.038 26.0524 107.992C26.0277 107.947 26.0121 107.897 26.0064 107.845C26.0008 107.794 26.0052 107.741 26.0195 107.691C26.0483 107.59 26.1155 107.504 26.2063 107.452C26.2971 107.401 26.404 107.387 26.5035 107.416C26.603 107.444 26.687 107.512 26.737 107.603C26.7869 107.695 26.7988 107.803 26.7699 107.905Z" fill="#6D56FA"/>
<path fill-rule="evenodd" clip-rule="evenodd" d="M21.6691 106.8C21.6548 106.85 21.6309 106.897 21.5989 106.938C21.5668 106.979 21.5272 107.013 21.4823 107.039C21.4373 107.064 21.3879 107.081 21.337 107.087C21.286 107.093 21.2343 107.089 21.1851 107.075C21.1358 107.061 21.0898 107.037 21.0497 107.005C21.0097 106.973 20.9763 106.933 20.9516 106.888C20.9269 106.842 20.9113 106.792 20.9056 106.741C20.9 106.689 20.9044 106.636 20.9187 106.586C20.9475 106.485 21.0147 106.399 21.1055 106.347C21.1962 106.296 21.3032 106.283 21.4027 106.311C21.5022 106.339 21.5862 106.407 21.6361 106.499C21.6861 106.59 21.698 106.699 21.6691 106.8Z" fill="#6D56FA"/>
<path fill-rule="evenodd" clip-rule="evenodd" d="M37.9689 132.047C37.94 132.149 37.8728 132.235 37.7821 132.286C37.6913 132.338 37.5844 132.351 37.4849 132.323C37.3854 132.294 37.3014 132.227 37.2514 132.135C37.2015 132.043 37.1896 131.935 37.2185 131.834C37.2473 131.732 37.3145 131.646 37.4053 131.595C37.4961 131.543 37.603 131.53 37.7025 131.559C37.802 131.587 37.886 131.654 37.936 131.746C37.9859 131.838 37.9978 131.946 37.9689 132.047Z" fill="#6D56FA"/>
<path d="M20.5348 89.7226C20.4461 89.7554 20.374 89.822 20.3343 89.9079C20.3343 89.9079 19.1865 92.3908 18.5358 94.3578C18.5211 94.4023 18.5152 94.4492 18.5186 94.4959C18.5221 94.5426 18.5347 94.5882 18.5558 94.63C18.5768 94.6719 18.6059 94.7092 18.6414 94.7398C18.6768 94.7704 18.718 94.7937 18.7624 94.8085C18.8069 94.8232 18.8539 94.829 18.9006 94.8255C18.9473 94.8221 18.9929 94.8095 19.0348 94.7884C19.0766 94.7674 19.1139 94.7383 19.1445 94.7029C19.1751 94.6674 19.1984 94.6263 19.2131 94.5818C19.8412 92.6831 20.9822 90.2069 20.9822 90.2069C21.0018 90.1644 21.0129 90.1184 21.0147 90.0716C21.0166 90.0247 21.0092 89.978 20.993 89.9341C20.9768 89.8901 20.9522 89.8498 20.9204 89.8153C20.8886 89.7809 20.8503 89.7531 20.8078 89.7335C20.7652 89.7138 20.7192 89.7028 20.6723 89.7009C20.6255 89.699 20.5788 89.7064 20.5348 89.7226Z" fill="#6D56FA"/>
<path d="M18.05 98.4287C18.0049 98.4415 17.9627 98.4631 17.9259 98.4922C17.8891 98.5213 17.8585 98.5574 17.8357 98.5983C17.8357 98.5983 15.7934 102.263 14.7456 105.072C14.7126 105.161 14.7161 105.259 14.7554 105.345C14.7948 105.431 14.8666 105.498 14.9552 105.531C15.0438 105.564 15.1418 105.56 15.2279 105.521C15.3139 105.482 15.3808 105.41 15.414 105.322C16.4263 102.608 18.4594 98.9452 18.4594 98.9452C18.5054 98.8625 18.5167 98.765 18.4908 98.674C18.4649 98.583 18.4039 98.5061 18.3212 98.4601C18.2386 98.4141 18.141 98.4028 18.05 98.4287Z" fill="#6D56FA"/>
<path d="M13.7918 114.142C13.7533 114.115 13.71 114.096 13.6642 114.086C13.6184 114.076 13.5711 114.075 13.525 114.084C13.4789 114.092 13.4349 114.109 13.3955 114.135C13.3561 114.16 13.3221 114.193 13.2954 114.231C13.2954 114.231 12.8812 114.843 12.4981 116.235C12.473 116.326 12.4852 116.424 12.5319 116.506C12.5786 116.588 12.6561 116.648 12.7472 116.673C12.8384 116.699 12.9358 116.686 13.018 116.64C13.1002 116.593 13.1606 116.516 13.1857 116.424C13.5493 115.104 13.8819 114.638 13.8819 114.638C13.9086 114.599 13.9274 114.556 13.9373 114.51C13.9472 114.464 13.9481 114.417 13.9397 114.371C13.9313 114.325 13.914 114.281 13.8886 114.242C13.8632 114.202 13.8303 114.168 13.7918 114.142Z" fill="#6D56FA"/>
<path d="M18.1198 117.242C18.0761 117.26 18.0362 117.285 18.0024 117.318C17.9686 117.35 17.9416 117.389 17.9228 117.432C17.4729 118.458 15.8482 121.747 14.9188 124.383C14.8873 124.472 14.8925 124.57 14.9333 124.655C14.9741 124.741 15.0471 124.806 15.1363 124.838C15.1805 124.854 15.2274 124.86 15.2742 124.858C15.321 124.855 15.3668 124.844 15.4091 124.823C15.4514 124.803 15.4893 124.775 15.5206 124.74C15.552 124.705 15.5761 124.664 15.5917 124.62C16.4961 122.055 18.0987 118.807 18.5761 117.718C18.5949 117.675 18.6051 117.629 18.6061 117.582C18.607 117.535 18.5989 117.489 18.5818 117.445C18.5648 117.402 18.5393 117.362 18.5069 117.328C18.4744 117.294 18.4357 117.267 18.3928 117.248C18.3499 117.229 18.3037 117.219 18.2568 117.218C18.21 117.217 18.1634 117.225 18.1198 117.242Z" fill="#6D56FA"/>
<path d="M22.9964 118.665C22.9032 118.649 22.8075 118.671 22.7306 118.726C22.6536 118.781 22.6015 118.864 22.5858 118.957C22.5858 118.957 22.5436 119.21 22.302 120.457C22.284 120.549 22.3036 120.646 22.3565 120.724C22.4094 120.802 22.4912 120.856 22.584 120.875C22.63 120.884 22.6774 120.883 22.7233 120.874C22.7693 120.865 22.8129 120.846 22.8518 120.82C22.8906 120.794 22.9239 120.76 22.9498 120.721C22.9756 120.682 22.9935 120.638 23.0023 120.592C23.2444 119.343 23.2894 119.075 23.2894 119.075C23.3049 118.982 23.2828 118.886 23.2278 118.809C23.1729 118.732 23.0897 118.68 22.9964 118.665Z" fill="#6D56FA"/>
<path d="M64.788 105.678C64.7056 105.632 64.6082 105.62 64.5171 105.645C64.4261 105.671 64.349 105.731 64.3026 105.814C64.3026 105.814 61.1232 111.465 60.4597 112.572C60.4356 112.612 60.4196 112.657 60.4127 112.703C60.4058 112.749 60.4081 112.797 60.4194 112.842C60.4308 112.887 60.4511 112.93 60.479 112.968C60.5069 113.005 60.542 113.037 60.5822 113.061C60.6224 113.085 60.6669 113.101 60.7133 113.108C60.7596 113.115 60.807 113.113 60.8524 113.101C60.8979 113.09 60.9406 113.07 60.9782 113.042C61.0159 113.014 61.0476 112.979 61.0717 112.938C61.7681 111.776 64.924 106.164 64.924 106.164C64.947 106.123 64.9617 106.078 64.9673 106.032C64.9729 105.985 64.9693 105.938 64.9567 105.893C64.9441 105.848 64.9227 105.805 64.8938 105.769C64.8648 105.732 64.8289 105.701 64.788 105.678Z" fill="#6D56FA"/>
<path d="M62.9823 118.952C62.8884 118.964 62.8029 119.012 62.7447 119.086C62.7447 119.086 60.7941 121.573 59.8703 123.55C59.8505 123.593 59.8392 123.639 59.8372 123.685C59.8351 123.732 59.8422 123.779 59.8582 123.823C59.8742 123.867 59.8986 123.907 59.9303 123.942C59.9619 123.977 60.0001 124.005 60.0425 124.024C60.085 124.044 60.1309 124.056 60.1777 124.058C60.2245 124.06 60.2713 124.053 60.3153 124.037C60.3594 124.021 60.3998 123.996 60.4344 123.964C60.469 123.933 60.497 123.895 60.5168 123.852C61.373 122.02 63.3074 119.525 63.3074 119.525C63.3656 119.451 63.3918 119.356 63.3802 119.262C63.3687 119.168 63.3203 119.083 63.2457 119.025C63.2087 118.996 63.1665 118.975 63.1213 118.962C63.0761 118.95 63.0288 118.946 62.9823 118.952Z" fill="#6D56FA"/>
<path d="M56.802 126.259C56.7158 126.22 56.6176 126.217 56.5291 126.25C56.4406 126.283 56.369 126.351 56.33 126.437C56.33 126.437 56.0649 127.025 55.4347 127.973C55.4088 128.012 55.3908 128.056 55.3818 128.102C55.3727 128.148 55.3729 128.195 55.3821 128.241C55.3914 128.287 55.4096 128.331 55.4358 128.37C55.4619 128.409 55.4955 128.442 55.5345 128.468C55.6133 128.52 55.7096 128.539 55.8022 128.52C55.8949 128.502 55.9764 128.447 56.0288 128.368C56.6838 127.383 56.9799 126.731 56.9799 126.731C57.0189 126.645 57.022 126.546 56.9886 126.458C56.9553 126.369 56.8881 126.298 56.802 126.259Z" fill="#6D56FA"/>
<path d="M56.7937 114.513C56.7024 114.538 56.6246 114.598 56.5774 114.68C56.5774 114.68 54.3572 118.512 52.6693 120.759C52.6126 120.835 52.5882 120.93 52.6014 121.023C52.6147 121.117 52.6646 121.201 52.7401 121.258C52.7776 121.286 52.8202 121.307 52.8656 121.318C52.9109 121.33 52.9581 121.333 53.0045 121.326C53.0509 121.32 53.0956 121.304 53.1359 121.28C53.1762 121.256 53.2115 121.225 53.2396 121.187C54.9806 118.87 57.1948 115.037 57.1948 115.037C57.2183 114.996 57.2335 114.952 57.2396 114.905C57.2458 114.859 57.2427 114.811 57.2307 114.766C57.2186 114.721 57.1978 114.679 57.1693 114.641C57.1408 114.604 57.1053 114.573 57.0647 114.549C57.0242 114.526 56.9793 114.511 56.9328 114.504C56.8863 114.498 56.839 114.501 56.7937 114.513Z" fill="#6D56FA"/>
<path d="M48.4146 119.446C48.4146 119.446 47.3782 120.52 46.4813 121.79C46.4542 121.828 46.4349 121.872 46.4246 121.917C46.4142 121.963 46.4131 122.01 46.421 122.057C46.429 122.103 46.446 122.147 46.471 122.187C46.4961 122.226 46.5287 122.261 46.5671 122.288C46.6444 122.342 46.7401 122.364 46.8333 122.348C46.9265 122.331 47.0096 122.279 47.0641 122.202C47.9206 120.988 48.9288 119.941 48.9288 119.941C48.9613 119.907 48.9868 119.867 49.0039 119.823C49.0211 119.78 49.0293 119.733 49.0285 119.686C49.0276 119.64 49.0175 119.593 48.9988 119.55C48.98 119.507 48.953 119.469 48.9192 119.436C48.8855 119.404 48.8457 119.378 48.802 119.361C48.7584 119.344 48.7118 119.335 48.665 119.336C48.6181 119.337 48.5719 119.347 48.5289 119.366C48.486 119.385 48.4471 119.412 48.4146 119.446Z" fill="#6D56FA"/>
<path d="M48.4415 125.285C48.3956 125.295 48.3521 125.313 48.3134 125.34C48.2748 125.366 48.2417 125.4 48.2161 125.44C48.2161 125.44 46.8452 127.542 45.9877 128.82C45.9616 128.859 45.9434 128.903 45.9341 128.948C45.9249 128.994 45.9247 129.042 45.9338 129.088C45.9428 129.134 45.9609 129.177 45.9869 129.216C46.0128 129.255 46.0462 129.289 46.0851 129.315C46.124 129.341 46.1677 129.359 46.2137 129.369C46.2596 129.378 46.3069 129.378 46.3528 129.369C46.3988 129.36 46.4426 129.342 46.4816 129.316C46.5207 129.29 46.5541 129.257 46.5802 129.218C47.4434 127.931 48.8134 125.829 48.8134 125.829C48.865 125.75 48.8832 125.653 48.8637 125.561C48.8442 125.468 48.7888 125.387 48.7095 125.335C48.6303 125.284 48.5338 125.266 48.4412 125.285L48.4415 125.285Z" fill="#6D56FA"/>
<path d="M35.5011 105.314C35.4067 105.32 35.3188 105.364 35.2566 105.435C35.2566 105.435 29.5635 111.972 28.2518 113.494C27.6228 114.224 27.3235 114.745 27.2656 115.221C27.2078 115.698 27.4885 116.078 27.775 116.274C28.0615 116.469 28.3641 116.577 28.5177 116.676C28.5945 116.726 28.6222 116.764 28.6249 116.77C28.6283 116.775 28.6392 116.767 28.6116 116.842C28.2324 117.892 28.2274 118.693 28.2163 119.358C28.2053 120.023 28.1923 120.533 27.8341 121.198C23.9626 128.396 21.7522 132.768 20.6421 135.226C20.087 136.454 19.8067 137.179 19.7241 137.632C19.7034 137.745 19.6899 137.841 19.7113 137.964C19.7214 138.025 19.7424 138.098 19.8001 138.174C19.8579 138.249 19.9624 138.314 20.0573 138.331C20.2473 138.366 20.3488 138.295 20.4339 138.242C20.519 138.189 20.593 138.126 20.6732 138.05C25.9339 133.064 28.4712 131.333 29.9273 130.534C30.6553 130.134 31.1209 129.966 31.5723 129.716C32.0238 129.466 32.4333 129.131 32.9503 128.478C34.141 126.973 34.7371 126.99 35.6092 126.72C36.0452 126.585 36.5387 126.379 37.0839 125.909C37.629 125.438 38.2323 124.713 38.9709 123.526C39.6117 122.497 40.1624 121.9 40.6116 121.567C41.0608 121.234 41.3987 121.155 41.6884 121.147C41.9781 121.139 42.2183 121.217 42.4974 121.251C42.6369 121.268 42.8049 121.275 42.9792 121.192C43.1535 121.109 43.2825 120.941 43.3535 120.757C43.5303 120.298 43.9292 119.662 44.3155 118.992C44.7018 118.323 45.0815 117.617 45.2005 116.91C45.2648 116.524 45.2553 115.912 45.2246 115.142C45.1938 114.371 45.1338 113.467 45.0673 112.601C44.9344 110.871 44.7759 109.296 44.7759 109.296C44.7664 109.202 44.72 109.116 44.6468 109.056C44.5736 108.996 44.4796 108.968 44.3855 108.977C44.3389 108.982 44.2937 108.996 44.2524 109.018C44.2111 109.04 44.1746 109.07 44.1449 109.106C44.1152 109.142 44.093 109.184 44.0794 109.229C44.0659 109.274 44.0613 109.321 44.066 109.368C44.066 109.368 44.2239 110.936 44.3561 112.656C44.4222 113.516 44.4817 114.415 44.5119 115.17C44.542 115.925 44.5351 116.562 44.4966 116.793C44.4075 117.321 44.0731 117.985 43.6973 118.636C43.3213 119.288 42.9102 119.923 42.6875 120.502C42.6598 120.572 42.6583 120.556 42.6725 120.549C42.6871 120.542 42.6649 120.554 42.5827 120.544C42.4181 120.524 42.0875 120.423 41.6674 120.435C41.2472 120.447 40.7362 120.586 40.1859 120.995C39.6355 121.404 39.0364 122.07 38.3643 123.15C37.6491 124.299 37.0836 124.966 36.6169 125.369C36.1502 125.772 35.7888 125.919 35.3971 126.04C34.6137 126.283 33.6647 126.425 32.3898 128.037C31.91 128.643 31.6091 128.88 31.2257 129.093C30.8424 129.305 30.3486 129.489 29.5833 129.909C28.1088 130.719 25.5943 132.467 20.6936 137.065C20.8259 136.671 20.9142 136.355 21.2914 135.52C22.3859 133.097 24.5937 128.728 28.4616 121.537C28.8922 120.737 28.9186 120.043 28.9297 119.371C28.9409 118.699 28.9407 118.031 29.2822 117.086C29.3572 116.879 29.3562 116.645 29.2682 116.462C29.1803 116.279 29.0388 116.165 28.905 116.079C28.6372 115.906 28.3521 115.805 28.1771 115.686C28.002 115.566 27.9475 115.527 27.9739 115.309C28.0004 115.091 28.205 114.642 28.7922 113.961C30.0969 112.447 35.7947 105.905 35.7947 105.905C35.8255 105.87 35.8491 105.829 35.864 105.784C35.879 105.74 35.885 105.693 35.8818 105.646C35.8785 105.599 35.8661 105.554 35.8452 105.512C35.8243 105.47 35.7952 105.432 35.7599 105.402C35.6885 105.34 35.5955 105.308 35.5012 105.315L35.5011 105.314Z" fill="#6D56FA"/>
<path d="M63.6551 53.4339C63.6105 53.4482 63.5691 53.4711 63.5333 53.5013C63.4975 53.5315 63.4681 53.5685 63.4466 53.6102C63.4466 53.6102 62.2802 55.8671 60.3816 59.6952C60.3396 59.7799 60.3329 59.8779 60.3631 59.9675C60.3933 60.0572 60.4579 60.1311 60.5426 60.1732C60.6274 60.2152 60.7253 60.2219 60.815 60.1917C60.9046 60.1615 60.9786 60.0969 61.0207 60.0122C62.9172 56.1883 64.0803 53.9379 64.0803 53.9379C64.1019 53.8963 64.115 53.8508 64.1189 53.8042C64.1229 53.7575 64.1177 53.7105 64.1035 53.6658C64.0892 53.6212 64.0663 53.5798 64.0361 53.544C64.0059 53.5082 63.9689 53.4787 63.9273 53.4571C63.8857 53.4356 63.8403 53.4224 63.7936 53.4184C63.7469 53.4145 63.6998 53.4197 63.6551 53.4339ZM51.6525 78.7991C51.5666 78.7597 51.4684 78.756 51.3798 78.7889C51.2911 78.8217 51.2192 78.8885 51.1797 78.9744C48.6573 84.4684 45.9853 90.4893 43.4107 96.6493C43.3927 96.6925 43.3832 96.7389 43.3831 96.7858C43.3829 96.8326 43.392 96.8791 43.4098 96.9224C43.4276 96.9658 43.4538 97.0052 43.4868 97.0384C43.5198 97.0717 43.5592 97.098 43.6024 97.1161C43.6456 97.1342 43.692 97.1436 43.7389 97.1437C43.7858 97.1439 43.8321 97.1348 43.8755 97.117C43.9188 97.0992 43.9583 97.073 43.9915 97.04C44.0247 97.0069 44.0512 96.9677 44.0692 96.9244C46.6398 90.7739 49.3082 84.7605 51.8278 79.2724C51.8474 79.2298 51.8585 79.1838 51.8603 79.137C51.862 79.0901 51.8546 79.0434 51.8383 78.9994C51.822 78.9555 51.7972 78.9152 51.7654 78.8808C51.7335 78.8464 51.6951 78.8187 51.6525 78.7991Z" fill="#6D56FA"/>
<path d="M64.3624 31.6856C64.2762 31.7246 64.209 31.7962 64.1756 31.8847C64.1422 31.9732 64.1454 32.0714 64.1844 32.1576C64.1844 32.1576 65.1489 34.3339 65.282 35.8847C65.2902 35.9789 65.3353 36.0659 65.4076 36.1268C65.4799 36.1876 65.5735 36.2173 65.6676 36.2093C65.7618 36.2012 65.849 36.156 65.91 36.0837C65.9709 36.0114 66.0007 35.9178 65.9926 35.8236C65.8401 34.0472 64.8344 31.8636 64.8344 31.8636C64.7954 31.7774 64.7238 31.7102 64.6353 31.6768C64.5468 31.6434 64.4486 31.6466 64.3624 31.6856Z" fill="#6D56FA"/>
<path d="M73.149 28.8519C73.0574 28.8284 72.9603 28.8423 72.8789 28.8905C72.7975 28.9386 72.7386 29.0171 72.7151 29.1087C72.7151 29.1087 72.0482 31.7067 71.7438 33.9607C71.7376 34.0071 71.7405 34.0544 71.7525 34.0997C71.7645 34.145 71.7852 34.1875 71.8137 34.2248C71.8421 34.262 71.8776 34.2933 71.9181 34.3169C71.9586 34.3404 72.0034 34.3557 72.0499 34.362C72.1435 34.3745 72.2383 34.3494 72.3135 34.2922C72.3886 34.2349 72.438 34.1501 72.4508 34.0565C72.7463 31.8677 73.4063 29.2857 73.4063 29.2857C73.4297 29.194 73.4157 29.0969 73.3674 29.0155C73.3192 28.9342 73.2406 28.8753 73.149 28.8519Z" fill="#6D56FA"/>
<path d="M79.2585 36.5661C79.2119 36.5617 79.1648 36.5665 79.12 36.5803C79.0752 36.5941 79.0335 36.6166 78.9974 36.6465C78.9974 36.6465 77.4408 37.935 76.1016 38.8846C76.0634 38.9117 76.0309 38.9461 76.006 38.9858C75.9811 39.0255 75.9643 39.0697 75.9564 39.1159C75.9486 39.1621 75.9499 39.2093 75.9604 39.255C75.9708 39.3007 75.9902 39.3439 76.0173 39.3821C76.072 39.4592 76.1551 39.5115 76.2483 39.5274C76.3415 39.5433 76.4372 39.5215 76.5144 39.4669C77.8889 38.4922 79.4527 37.1959 79.4527 37.1959C79.5255 37.1355 79.5715 37.0487 79.5803 36.9546C79.5892 36.8604 79.5603 36.7666 79.5 36.6937C79.4701 36.6576 79.4334 36.6278 79.392 36.6059C79.3506 36.584 79.3052 36.5705 79.2585 36.5661Z" fill="#6D56FA"/>
<path d="M69.7237 40.6661C69.3933 40.7639 69.0418 40.9699 68.6083 41.2937C56.7381 50.1539 48.0266 62.1891 42.5724 72.802C39.8453 78.1085 37.9326 83.059 36.8487 87.0906C35.7647 91.1222 35.4699 94.2054 36.1333 95.9461C36.404 96.6577 37.1913 97.3129 38.2491 98.026C39.3069 98.7391 40.6472 99.463 42.0325 100.084C43.4179 100.705 44.8454 101.223 46.085 101.515C47.3246 101.808 48.3669 101.92 49.0922 101.537C52.1208 99.9382 55.0945 96.4753 57.8736 91.9361C60.6528 87.397 63.2259 81.7738 65.3719 75.837C69.6638 63.9637 72.2583 50.8609 71.2746 42.6267C71.2279 42.2339 71.1771 41.8816 71.0921 41.5755C71.007 41.2694 70.8903 40.9929 70.6473 40.7994C70.4043 40.606 70.0537 40.5688 69.7233 40.6666L69.7237 40.6661ZM69.9263 41.35C70.1166 41.2937 70.1525 41.3165 70.2034 41.3569C70.2542 41.3974 70.3393 41.5287 70.4052 41.766C70.4712 42.0032 70.5209 42.3295 70.5662 42.7106C71.5217 50.7072 68.967 63.7926 64.7012 75.594C62.5682 81.4947 60.0101 87.0806 57.2657 91.5631C54.5212 96.0457 51.5792 99.4171 48.7593 100.906C48.3861 101.103 47.4236 101.097 46.2486 100.82C45.0735 100.543 43.6768 100.039 42.3238 99.4328C40.9708 98.8262 39.6591 98.116 38.6477 97.4342C37.6363 96.7523 36.937 96.0519 36.8002 95.6921C36.2707 94.3028 36.4705 91.2457 37.5378 87.276C38.6051 83.3063 40.5001 78.3948 43.2067 73.1283C48.6199 62.5951 57.2792 50.6401 69.0351 41.8652C69.4329 41.5681 69.7361 41.4063 69.9263 41.35Z" fill="#6D56FA"/>
<path d="M37.3575 96.4952C37.3115 96.486 37.2643 96.4859 37.2183 96.495C37.1724 96.5041 37.1286 96.5222 37.0897 96.5482C37.0507 96.5742 37.0171 96.6076 36.9911 96.6466C36.965 96.6855 36.9469 96.7292 36.9377 96.7751C36.9377 96.7751 36.6187 98.3717 36.3557 100.088C36.2242 100.946 36.1067 101.833 36.0496 102.576C36.0211 102.947 36.0071 103.281 36.016 103.565C36.025 103.848 36.04 104.071 36.1457 104.288C36.6926 105.418 38.135 106.244 39.6652 106.803C41.1956 107.361 42.8036 107.641 43.8689 107.37C44.3133 107.256 44.6076 106.894 44.9632 106.432C45.3188 105.97 45.6903 105.383 46.0522 104.767C46.7761 103.534 47.4607 102.179 47.8004 101.565C47.8231 101.524 47.8375 101.479 47.8428 101.433C47.8481 101.386 47.8442 101.339 47.8313 101.294C47.8184 101.249 47.7968 101.207 47.7676 101.17C47.7384 101.133 47.7022 101.103 47.6613 101.08C47.6203 101.057 47.5752 101.043 47.5287 101.038C47.4821 101.032 47.4351 101.036 47.39 101.049C47.345 101.062 47.3029 101.084 47.2662 101.113C47.2295 101.142 47.199 101.178 47.1763 101.219C46.8183 101.866 46.1449 103.2 45.4374 104.405C45.0836 105.008 44.7214 105.576 44.3978 105.997C44.0743 106.418 43.7447 106.665 43.6929 106.679C42.9378 106.871 41.3501 106.658 39.9092 106.132C38.4683 105.606 37.1637 104.755 36.7872 103.977C36.7806 103.964 36.7366 103.785 36.7291 103.543C36.7215 103.301 36.7331 102.987 36.7604 102.632C36.8151 101.921 36.9308 101.045 37.0607 100.197C37.3206 98.5004 37.6372 96.9159 37.6372 96.9159C37.6464 96.87 37.6464 96.8227 37.6373 96.7767C37.6282 96.7307 37.6101 96.687 37.5841 96.6481C37.5581 96.6091 37.5247 96.5756 37.4858 96.5495C37.4469 96.5235 37.4032 96.5053 37.3573 96.4962L37.3575 96.4952Z" fill="#6D56FA"/>
<path fill-rule="evenodd" clip-rule="evenodd" d="M37.2876 96.8451C39.3696 98.706 44.6426 101.147 47.4887 101.392C46.7911 102.653 44.7731 106.771 43.781 107.024C41.9607 107.487 37.3899 106.041 36.4667 104.132C36.0169 103.207 37.2876 96.8451 37.2876 96.8451Z" fill="#6D56FA"/>
<path fill-rule="evenodd" clip-rule="evenodd" d="M57.6103 51.7675C60.9635 48.1152 64.7028 44.6545 68.8216 41.5793C70.4841 40.3375 70.7365 41.1201 70.9205 42.6684C71.4043 46.7124 71.0082 51.994 69.9564 57.7408C67.3654 52.3824 64.5991 50.4059 57.6103 51.7675Z" fill="#6D56FA"/>
<path d="M64.2557 77.211C64.2108 77.2242 64.1688 77.2461 64.1323 77.2755C64.0958 77.3049 64.0655 77.3412 64.043 77.3823C63.9977 77.4653 63.9873 77.563 64.0139 77.6537C64.0406 77.7445 64.1022 77.8209 64.1853 77.8662C65.4624 78.5641 66.6012 80.1856 67.2452 82.4959C67.8892 84.8062 68.0418 87.7901 67.4107 91.1608C66.1485 97.9021 61.7588 106.193 51.9557 113.795C51.7764 113.933 51.6636 113.969 51.5942 113.989C51.5912 113.943 51.5785 113.893 51.6246 113.74C51.6863 113.534 51.815 113.255 52.0242 112.928C53.0602 111.305 55.6515 107.316 57.5356 102.895C59.4197 98.4732 60.6489 93.5864 58.7485 90.1197C58.703 90.0368 58.6263 89.9754 58.5355 89.9489C58.4447 89.9224 58.3472 89.9331 58.2642 89.9786C58.1813 90.0241 58.1199 90.1007 58.0934 90.1915C58.0669 90.2823 58.0776 90.3799 58.1231 90.4629C59.8206 93.5593 58.7319 98.2686 56.8797 102.615C55.0275 106.962 52.4637 110.914 51.423 112.544C51.1869 112.913 51.0285 113.242 50.9406 113.535C50.8527 113.828 50.8198 114.088 50.9231 114.342C50.9747 114.469 51.0742 114.591 51.2042 114.661C51.3343 114.731 51.4796 114.747 51.6123 114.732C51.8777 114.701 52.1212 114.568 52.3923 114.359C62.3124 106.666 66.8132 98.2245 68.111 91.293C68.7598 87.8272 68.6101 84.7394 67.9314 82.3046C67.2528 79.8698 66.0488 78.0727 64.5261 77.2406C64.4431 77.1954 64.3456 77.185 64.2549 77.2116L64.2557 77.211Z" fill="#6D56FA"/>
<path d="M40.426 69.4847C38.1705 69.8883 36.0882 70.8518 34.2124 72.2103C31.2112 74.3839 28.7246 77.5618 26.8148 81.1046C22.9951 88.1902 21.4475 96.7174 22.9384 101.807C23.1776 102.625 23.35 103.07 23.7021 103.327C23.8783 103.455 24.1671 103.479 24.3509 103.378C24.5347 103.277 24.6345 103.129 24.7234 102.972C25.079 102.343 25.2482 101.32 25.3451 100.815C26.115 96.812 28.521 91.9863 31.2915 88.1558C32.6767 86.2405 34.1531 84.5718 35.5477 83.3749C36.9423 82.1779 38.2605 81.4707 39.2543 81.4051C39.3011 81.402 39.3468 81.3897 39.3889 81.369C39.4309 81.3482 39.4684 81.3194 39.4993 81.2841C39.5302 81.2488 39.5539 81.2078 39.5689 81.1634C39.5839 81.1189 39.59 81.072 39.5869 81.0252C39.5806 80.9308 39.5371 80.8428 39.466 80.7806C39.3949 80.7183 39.3019 80.6868 39.2075 80.693C37.9351 80.7771 36.537 81.5857 35.0829 82.8337C33.6288 84.0817 32.1241 85.7867 30.7133 87.7374C27.8916 91.6387 25.4459 96.5125 24.6444 100.68C24.5471 101.187 24.3233 102.23 24.1023 102.621C24.0841 102.654 24.0871 102.645 24.0714 102.665C23.998 102.563 23.8145 102.263 23.6227 101.606C22.2319 96.8587 23.6998 88.3866 27.4428 81.4431C29.3144 77.9714 31.7461 74.8772 34.631 72.7879C37.5158 70.6985 40.8405 69.6073 44.5712 70.1054C44.6177 70.1116 44.6649 70.1086 44.7102 70.0965C44.7554 70.0845 44.7979 70.0636 44.8351 70.0352C44.8723 70.0067 44.9036 69.9712 44.9271 69.9307C44.9505 69.8902 44.9658 69.8454 44.972 69.799C44.9782 69.7526 44.9752 69.7053 44.9631 69.6601C44.9511 69.6148 44.9302 69.5724 44.9017 69.5352C44.8733 69.4979 44.8378 69.4667 44.7973 69.4432C44.7567 69.4197 44.712 69.4044 44.6656 69.3982C43.1946 69.2018 41.7792 69.2425 40.426 69.4847Z" fill="#6D56FA"/>
<path fill-rule="evenodd" clip-rule="evenodd" d="M44.6185 69.7515C42.3834 73.7225 40.5873 77.5654 39.2308 81.0488C34.6983 81.3483 26.566 92.5768 24.9947 100.748C24.8004 101.758 24.2086 104.881 23.2805 101.706C20.3989 91.8693 29.3119 67.7078 44.6185 69.7515ZM64.3561 77.5528C69.9557 80.6127 71.8975 98.7811 52.1744 114.076C51.2107 114.821 50.8331 114.127 51.7236 112.735C53.8004 109.482 62.0335 96.8537 58.4356 90.2905C60.5856 86.5481 62.5949 82.1733 64.3561 77.5528Z" fill="#6D56FA"/>
<path fill-rule="evenodd" clip-rule="evenodd" d="M37.2973 107.637C39.2548 108.658 40.8236 107.943 41.0695 108.642C41.3135 109.344 41.9841 110.978 40.9865 112.669C39.9889 114.36 34.6213 122.749 31.9999 124.634C31.2116 125.201 30.7866 125.226 31.2343 124.101C31.682 122.976 32.5439 119.213 33.5299 117.365C34.1375 116.23 35.0513 113.989 35.0135 111.824C34.9926 110.533 36.031 106.977 37.2973 107.637Z" fill="#6D56FA"/>
</svg>
