<svg width="211" height="204" viewBox="0 0 211 204" fill="none" xmlns="http://www.w3.org/2000/svg">
<path d="M95.9473 82.9893C95.9473 82.9893 108.789 83.2888 113.008 75.3764C117.226 67.4639 117.363 69.2361 117.363 69.2361C117.363 69.2361 116.302 70.7962 121.968 72.3687C127.634 73.9412 132.627 70.3843 132.627 70.3843C132.627 70.3843 135.934 77.1486 136.059 84.437C136.183 91.7254 135.484 93.3978 135.484 93.3978C135.484 93.3978 136.383 93.7847 141.163 92.9984C145.943 92.2122 155.977 87.4198 153.131 81.604C150.286 75.7882 150.448 75.8132 150.448 75.8132C150.448 75.8132 159.509 77.5978 153.543 68.038C147.578 58.4782 140.452 59.9758 140.452 59.9758C140.452 59.9758 149.088 49.1805 138.23 51.2147C127.372 53.249 124.702 53.2989 123.965 52.2755C123.229 51.2522 121.307 40.1947 110.112 47.2335C98.9176 54.2724 93.7008 63.2706 89.9942 67.7011C86.2876 72.1315 81.2457 73.5543 79.149 74.3156C71.8693 77.779 87.829 98.6777 95.1859 95.457C96.4034 95.2372 98.4433 94.3962 97.5073 93.9594C96.0575 92.4723 95.4038 89.9686 93.2752 88.9981C88.883 86.9956 87.2357 82.1231 92.247 79.8443C94.9575 79.3075 96.047 87.0578 96.047 87.0578C96.047 87.0578 97.5323 89.9782 97.1828 88.518C96.8334 87.0578 95.9473 82.9893 95.9473 82.9893Z" fill="#6D56FA"/>
<path d="M105.589 80.8193C105.982 80.9566 115.48 82.5291 115.48 82.5291L105.589 80.8193Z" fill="#6D56FA"/>
<path d="M105.783 80.2626C105.71 80.237 105.633 80.2262 105.555 80.2306C105.478 80.235 105.402 80.2546 105.333 80.2882C105.263 80.3219 105.2 80.369 105.149 80.4268C105.097 80.4846 105.058 80.552 105.032 80.6251C105.007 80.6982 104.996 80.7756 105 80.8529C105.005 80.9303 105.024 81.0059 105.058 81.0757C105.092 81.1454 105.139 81.2079 105.196 81.2594C105.254 81.311 105.322 81.3506 105.395 81.3761C105.511 81.4167 105.547 81.4176 105.644 81.438C105.742 81.4584 105.867 81.4825 106.018 81.5109C106.32 81.5679 106.724 81.6411 107.198 81.7246C108.147 81.8918 109.372 82.1016 110.584 82.3069C113.009 82.7174 115.384 83.1108 115.384 83.1108C115.46 83.1235 115.538 83.121 115.614 83.1035C115.689 83.0859 115.76 83.0537 115.823 83.0086C115.886 82.9635 115.94 82.9065 115.981 82.8408C116.022 82.775 116.049 82.7019 116.062 82.6255C116.075 82.5491 116.072 82.4709 116.054 82.3955C116.037 82.3201 116.005 82.2488 115.96 82.1859C115.915 82.1229 115.858 82.0694 115.792 82.0285C115.726 81.9876 115.653 81.96 115.576 81.9474C115.576 81.9474 113.203 81.5545 110.781 81.1444C109.57 80.9394 108.346 80.7294 107.403 80.5632C106.931 80.48 106.53 80.4078 106.237 80.3524C106.09 80.3248 105.971 80.3012 105.886 80.2835C105.801 80.2658 105.716 80.2391 105.783 80.2626Z" fill="#6D56FA"/>
<path d="M129.64 80.8043C127.873 80.8271 126.103 81.0958 124.358 81.3985C124.263 81.4151 124.173 81.4548 124.097 81.5142C124.021 81.5736 123.96 81.6508 123.921 81.7391C121.325 87.5645 121.276 92.1312 122.324 95.6199C123.372 99.1086 125.493 101.497 127.1 103.062C127.155 103.116 127.221 103.159 127.293 103.188C127.364 103.217 127.441 103.231 127.519 103.23C127.596 103.229 127.673 103.213 127.744 103.182C127.815 103.152 127.88 103.108 127.934 103.052C127.988 102.997 128.03 102.931 128.059 102.859C128.088 102.787 128.102 102.71 128.101 102.633C128.1 102.556 128.084 102.479 128.053 102.408C128.023 102.337 127.978 102.272 127.923 102.218C126.374 100.709 124.418 98.4915 123.454 95.2804C122.508 92.1308 122.525 87.986 124.889 82.5231C128.224 81.9566 131.449 81.5946 134.484 82.7837C134.63 82.8408 134.792 82.8377 134.935 82.7751C135.079 82.7126 135.191 82.5957 135.248 82.4501C135.305 82.3046 135.302 82.1424 135.24 81.9991C135.177 81.8558 135.06 81.7433 134.915 81.6861C133.174 81.0044 131.408 80.7815 129.64 80.8043Z" fill="#6D56FA"/>
<path d="M130.056 88.9075C129.981 88.8887 129.903 88.8849 129.826 88.8963C129.749 88.9078 129.676 88.9342 129.609 88.974C129.543 89.0139 129.485 89.0665 129.439 89.1288C129.393 89.191 129.36 89.2618 129.341 89.3369C128.995 90.7241 128.704 92.0326 127.986 92.7944C127.267 93.5562 126.067 93.9829 123.413 93.4326C123.259 93.4008 123.1 93.4311 122.969 93.5169C122.838 93.6027 122.747 93.7369 122.715 93.89C122.684 94.043 122.714 94.2025 122.8 94.3332C122.886 94.4639 123.02 94.5552 123.173 94.587C126.03 95.1794 127.8 94.7088 128.843 93.6033C129.887 92.4978 130.149 90.9696 130.485 89.6225C130.504 89.5474 130.508 89.4693 130.496 89.3927C130.485 89.316 130.459 89.2424 130.419 89.176C130.379 89.1096 130.326 89.0517 130.264 89.0056C130.202 88.9596 130.131 88.9262 130.056 88.9075Z" fill="#6D56FA"/>
<path d="M116.247 90.2022C116.169 90.1974 116.092 90.2078 116.019 90.233C115.945 90.2581 115.878 90.2975 115.82 90.3488C115.762 90.4 115.714 90.4623 115.68 90.5319C115.646 90.6015 115.626 90.6771 115.622 90.7545C115.484 92.9806 113.798 94.6006 112.141 94.8531C111.313 94.9793 110.509 94.7916 109.814 94.171C109.12 93.5504 108.521 92.457 108.27 90.7065C108.259 90.6299 108.233 90.5561 108.193 90.4895C108.154 90.4229 108.102 90.3648 108.04 90.3184C107.977 90.272 107.907 90.2383 107.832 90.2193C107.757 90.2002 107.679 90.1961 107.602 90.2072C107.447 90.2295 107.308 90.3123 107.214 90.4374C107.121 90.5625 107.08 90.7197 107.103 90.8743C107.381 92.8182 108.074 94.1965 109.029 95.0499C109.984 95.9032 111.186 96.191 112.318 96.0186C114.581 95.6738 116.627 93.6002 116.798 90.8264C116.808 90.6706 116.755 90.5173 116.651 90.4003C116.548 90.2833 116.403 90.2121 116.247 90.2022Z" fill="#6D56FA"/>
<path d="M136.177 92.6693C136.022 92.6469 135.865 92.6868 135.74 92.7802C135.615 92.8737 135.532 93.013 135.509 93.1677C134.249 101.813 131.46 108.077 127.982 112.133C124.504 116.189 120.359 118.048 116.268 117.957C108.087 117.775 99.8775 109.693 98.0577 94.458C98.0391 94.3028 97.9597 94.1613 97.8368 94.0647C97.714 93.9681 97.5577 93.9242 97.4025 93.9427C97.2473 93.9612 97.1059 94.0407 97.0093 94.1636C96.9127 94.2864 96.8687 94.4426 96.8872 94.5978C98.7509 110.201 107.306 118.937 116.242 119.136C120.71 119.235 125.212 117.174 128.877 112.9C132.542 108.625 135.391 102.148 136.675 93.3375C136.698 93.1828 136.658 93.0255 136.565 92.9002C136.471 92.7749 136.332 92.6919 136.177 92.6693Z" fill="#6D56FA"/>
<path d="M113.337 107.019C113.26 107.006 113.182 107.008 113.106 107.026C113.031 107.043 112.959 107.075 112.896 107.119C112.833 107.164 112.779 107.221 112.738 107.286C112.697 107.352 112.669 107.425 112.655 107.501C112.642 107.578 112.644 107.656 112.662 107.731C112.679 107.807 112.711 107.878 112.755 107.941C114.106 109.852 115.559 110.704 116.988 110.971C118.416 111.239 119.764 110.966 121.018 110.833C121.173 110.816 121.316 110.739 121.414 110.617C121.512 110.495 121.558 110.34 121.542 110.184C121.534 110.107 121.511 110.033 121.473 109.964C121.436 109.896 121.386 109.836 121.326 109.788C121.266 109.739 121.196 109.703 121.122 109.681C121.048 109.659 120.97 109.652 120.893 109.66C119.573 109.801 118.349 110.026 117.205 109.812C116.06 109.598 114.941 108.99 113.718 107.26C113.628 107.133 113.491 107.046 113.337 107.019Z" fill="#6D56FA"/>
<path d="M124.2 116.07C124.2 116.07 123.917 116.125 123.634 116.3C123.352 116.475 123.013 116.782 122.733 117.275C122.172 118.261 121.836 119.945 122.315 122.924C122.79 125.882 123.558 127.941 124.217 129.269C124.876 130.598 125.463 131.235 125.463 131.235C125.57 131.348 125.718 131.415 125.874 131.42C126.03 131.425 126.182 131.367 126.296 131.26C126.41 131.154 126.477 131.006 126.482 130.85C126.487 130.693 126.43 130.542 126.323 130.428C126.323 130.428 125.879 129.966 125.273 128.746C124.668 127.525 123.937 125.584 123.48 122.738C123.026 119.914 123.388 118.509 123.758 117.857C123.944 117.531 124.129 117.381 124.254 117.304C124.378 117.227 124.387 117.235 124.387 117.235C124.463 117.223 124.536 117.195 124.602 117.155C124.668 117.114 124.725 117.061 124.771 116.998C124.816 116.935 124.849 116.864 124.867 116.789C124.884 116.713 124.887 116.635 124.875 116.559C124.85 116.404 124.765 116.266 124.638 116.175C124.512 116.083 124.354 116.046 124.2 116.07Z" fill="#6D56FA"/>
<path d="M126.45 117.95C126.372 117.943 126.295 117.952 126.221 117.976C126.147 118 126.079 118.038 126.019 118.088C125.96 118.138 125.912 118.199 125.876 118.268C125.841 118.337 125.82 118.413 125.813 118.49C125.801 118.646 125.851 118.8 125.952 118.919C126.053 119.038 126.197 119.112 126.353 119.125C130.06 119.429 132.901 119.657 135.361 120.488C137.821 121.32 139.936 122.739 142.282 125.549C142.382 125.669 142.526 125.744 142.682 125.758C142.837 125.772 142.992 125.724 143.112 125.624C143.171 125.574 143.221 125.513 143.257 125.445C143.293 125.376 143.315 125.301 143.322 125.224C143.329 125.147 143.32 125.069 143.297 124.995C143.274 124.921 143.237 124.852 143.187 124.793C140.741 121.863 138.396 120.269 135.74 119.371C133.083 118.473 130.154 118.253 126.45 117.95Z" fill="#6D56FA"/>
<path d="M98.2813 118.287C93.2758 117.953 88.8899 120.584 85.2912 124.915C81.1783 129.864 77.9801 137.043 75.6637 144.846C73.3473 152.648 71.9219 161.074 71.4182 168.513C70.9144 175.951 71.3095 182.377 72.7455 186.307C72.7991 186.454 72.9089 186.574 73.0507 186.64C73.1925 186.706 73.3546 186.712 73.5015 186.659C73.6484 186.605 73.7679 186.495 73.8338 186.354C73.8997 186.212 73.9067 186.05 73.853 185.903C72.5384 182.305 72.097 175.94 72.5947 168.591C73.0924 161.243 74.5062 152.888 76.7942 145.181C79.0822 137.474 82.2535 130.416 86.199 125.669C90.1445 120.921 94.7515 118.495 100.196 119.764C100.966 119.944 101.309 120.06 101.38 120.11C101.416 120.135 101.42 120.136 101.463 120.219C101.506 120.301 101.567 120.461 101.653 120.693C101.995 121.623 102.736 123.566 105.702 127.604C108.762 131.772 113.22 133.326 117.173 133.652C119.149 133.815 121.007 133.677 122.54 133.41C124.072 133.142 125.261 132.763 125.987 132.361C126.818 131.902 127.269 131.018 127.555 130.041C127.841 129.064 127.962 127.948 128.007 126.874C128.051 125.8 128.017 124.77 127.971 123.986C127.948 123.594 127.922 123.263 127.902 123.021C127.881 122.779 127.865 122.56 127.867 122.624C127.863 122.467 127.796 122.319 127.683 122.212C127.569 122.105 127.417 122.047 127.261 122.051C127.105 122.056 126.957 122.122 126.849 122.236C126.742 122.35 126.684 122.501 126.689 122.658C126.694 122.8 126.707 122.885 126.727 123.12C126.747 123.355 126.771 123.676 126.793 124.055C126.838 124.813 126.872 125.808 126.829 126.825C126.787 127.842 126.666 128.883 126.424 129.71C126.182 130.538 125.819 131.107 125.417 131.329C124.911 131.609 123.778 131.997 122.337 132.248C120.896 132.499 119.131 132.63 117.27 132.477C113.547 132.17 109.473 130.748 106.652 126.906C103.737 122.935 103.098 121.206 102.759 120.286C102.675 120.056 102.609 119.866 102.51 119.675C102.41 119.483 102.257 119.284 102.059 119.145C101.663 118.867 101.239 118.796 100.464 118.616C99.7246 118.443 98.9963 118.335 98.2813 118.287Z" fill="#6D56FA"/>
<path d="M96.9519 139.156C96.876 139.171 96.8039 139.202 96.7398 139.245C96.6756 139.288 96.6206 139.344 96.578 139.409C96.5353 139.473 96.5058 139.546 96.4911 139.622C96.4764 139.698 96.4769 139.776 96.4925 139.852C96.4925 139.852 98.895 151.665 97.8577 160.915C96.8043 170.308 96.0211 174.872 96.0211 174.872C95.9948 175.026 96.0308 175.184 96.1211 175.312C96.2113 175.439 96.3485 175.526 96.5024 175.552C96.5788 175.565 96.657 175.563 96.7325 175.546C96.8081 175.529 96.8795 175.497 96.9427 175.452C97.006 175.408 97.0598 175.351 97.1012 175.286C97.1425 175.22 97.1705 175.147 97.1836 175.071C97.1836 175.071 97.9734 170.462 99.0292 161.047C100.101 151.489 97.648 139.615 97.648 139.615C97.6324 139.539 97.6021 139.467 97.5587 139.403C97.5153 139.339 97.4597 139.284 97.395 139.241C97.3304 139.199 97.258 139.169 97.1819 139.154C97.1059 139.14 97.0277 139.14 96.9519 139.156Z" fill="#6D56FA"/>
<path d="M92.0583 173.78C89.7332 173.652 87.4797 173.937 85.4099 174.635C79.8908 176.494 75.7302 181.352 75.1722 188.881C75.1608 189.037 75.2118 189.191 75.3138 189.309C75.4159 189.428 75.5607 189.501 75.7165 189.512C75.7938 189.518 75.8714 189.508 75.945 189.484C76.0186 189.46 76.0866 189.422 76.1453 189.371C76.2041 189.32 76.2523 189.259 76.2872 189.19C76.322 189.12 76.343 189.045 76.3487 188.968C76.878 181.826 80.6781 177.474 85.7864 175.752C90.8947 174.031 97.3632 175.005 103.108 178.838C103.172 178.881 103.245 178.911 103.321 178.926C103.396 178.941 103.475 178.941 103.551 178.926C103.627 178.911 103.699 178.881 103.763 178.838C103.828 178.795 103.883 178.74 103.926 178.675C103.969 178.611 103.999 178.539 104.014 178.463C104.029 178.387 104.029 178.308 104.014 178.232C103.998 178.156 103.968 178.084 103.925 178.02C103.882 177.956 103.827 177.9 103.762 177.857C100.007 175.352 95.9334 173.992 92.0583 173.78Z" fill="#6D56FA"/>
<path d="M112.055 174.985C110.328 175.121 108.614 175.578 107.083 176.126C105.552 176.674 104.198 177.323 103.189 177.87C102.684 178.143 102.266 178.391 101.952 178.591C101.638 178.791 101.475 178.885 101.293 179.069C101.239 179.124 101.196 179.189 101.167 179.261C101.137 179.333 101.123 179.41 101.123 179.487C101.124 179.565 101.139 179.641 101.169 179.713C101.199 179.784 101.243 179.849 101.298 179.903C101.353 179.957 101.419 180 101.49 180.03C101.562 180.059 101.639 180.074 101.716 180.073C101.794 180.073 101.87 180.057 101.942 180.027C102.013 179.997 102.078 179.953 102.132 179.898C102.077 179.954 102.299 179.768 102.586 179.585C102.872 179.403 103.269 179.167 103.751 178.906C104.715 178.384 106.02 177.759 107.48 177.236C110.401 176.191 113.92 175.589 116.602 176.842C122.368 179.534 126.096 182.789 127.523 184.776C128.935 186.741 129.054 189.033 129.054 189.033C129.058 189.11 129.076 189.186 129.109 189.256C129.142 189.327 129.189 189.39 129.246 189.442C129.303 189.494 129.37 189.534 129.443 189.561C129.516 189.587 129.593 189.599 129.67 189.595C129.748 189.592 129.824 189.573 129.894 189.54C129.964 189.507 130.027 189.461 130.079 189.404C130.132 189.346 130.172 189.279 130.198 189.207C130.225 189.134 130.236 189.056 130.233 188.979C130.233 188.979 130.127 186.378 128.481 184.087C126.85 181.818 123.017 178.535 117.101 175.773C115.522 175.036 113.782 174.85 112.055 174.985Z" fill="#6D56FA"/>
<path d="M99.8231 187.623C99.7481 187.604 99.6699 187.6 99.5933 187.611C99.5167 187.622 99.4431 187.649 99.3766 187.688C99.3101 187.728 99.2521 187.78 99.2058 187.842C99.1596 187.905 99.126 187.975 99.1071 188.05C99.0881 188.125 99.0841 188.203 99.0953 188.28C99.1066 188.357 99.1328 188.43 99.1725 188.497C99.2122 188.563 99.2645 188.621 99.3267 188.668C99.3888 188.714 99.4594 188.747 99.5345 188.766C99.5345 188.766 101.587 189.285 104.009 189.737C106.431 190.189 109.16 190.608 110.843 190.297C110.919 190.283 110.992 190.254 111.057 190.212C111.122 190.17 111.178 190.116 111.222 190.052C111.266 189.988 111.297 189.916 111.313 189.84C111.329 189.765 111.33 189.686 111.316 189.61C111.288 189.456 111.199 189.32 111.071 189.232C110.942 189.143 110.783 189.109 110.629 189.138C109.404 189.364 106.605 189.021 104.225 188.578C101.846 188.134 99.8231 187.623 99.8231 187.623Z" fill="#6D56FA"/>
<path d="M110.382 186.041C109.972 186.031 109.615 186.084 109.335 186.139C109.055 186.195 108.825 186.252 108.798 186.255C108.721 186.265 108.647 186.289 108.579 186.327C108.512 186.366 108.453 186.417 108.405 186.478C108.358 186.539 108.322 186.609 108.302 186.684C108.281 186.758 108.276 186.836 108.285 186.913C108.295 186.99 108.319 187.064 108.358 187.132C108.396 187.199 108.447 187.258 108.508 187.306C108.569 187.353 108.639 187.388 108.714 187.409C108.789 187.429 108.867 187.435 108.943 187.425C109.166 187.398 109.334 187.341 109.564 187.296C109.794 187.25 110.059 187.214 110.353 187.221C110.939 187.235 111.631 187.403 112.414 188.128C114.13 189.716 114.611 190.679 114.611 190.679C114.683 190.818 114.806 190.923 114.955 190.971C115.104 191.019 115.266 191.005 115.405 190.934C115.544 190.862 115.649 190.739 115.697 190.59C115.745 190.441 115.731 190.279 115.66 190.14C115.66 190.14 115.031 188.944 113.215 187.263C112.232 186.353 111.201 186.061 110.382 186.041Z" fill="#6D56FA"/>
<path d="M111.602 182.544C111.446 182.547 111.297 182.611 111.188 182.723C111.079 182.835 111.019 182.985 111.021 183.142C111.022 183.219 111.038 183.296 111.068 183.367C111.099 183.438 111.143 183.502 111.199 183.556C111.254 183.611 111.32 183.653 111.392 183.682C111.464 183.711 111.541 183.725 111.618 183.724C111.611 183.724 111.889 183.744 112.241 183.823C112.593 183.901 113.06 184.034 113.594 184.24C114.664 184.653 116.006 185.362 117.29 186.539C119.948 188.976 120.925 190.488 120.925 190.488C120.967 190.553 121.022 190.609 121.086 190.653C121.149 190.697 121.221 190.727 121.297 190.743C121.373 190.759 121.451 190.76 121.527 190.746C121.603 190.732 121.676 190.703 121.741 190.661C121.806 190.619 121.862 190.564 121.906 190.5C121.949 190.436 121.98 190.364 121.996 190.289C122.012 190.213 122.013 190.135 121.999 190.058C121.985 189.982 121.956 189.91 121.914 189.845C121.914 189.845 120.82 188.175 118.087 185.669C116.675 184.375 115.202 183.596 114.019 183.14C113.427 182.911 112.907 182.764 112.499 182.672C112.09 182.581 111.834 182.541 111.602 182.544Z" fill="#6D56FA"/>
<path d="M115.084 179.4C114.935 179.354 114.774 179.369 114.635 179.442C114.497 179.515 114.394 179.64 114.347 179.79C114.301 179.939 114.317 180.101 114.39 180.239C114.463 180.377 114.588 180.481 114.737 180.527C114.737 180.527 119.488 182.026 122.282 184.655C125.162 187.365 126.343 189.812 126.343 189.812C126.411 189.952 126.532 190.06 126.68 190.111C126.827 190.163 126.989 190.153 127.13 190.085C127.2 190.051 127.262 190.004 127.313 189.946C127.365 189.889 127.405 189.821 127.43 189.748C127.455 189.675 127.466 189.597 127.462 189.52C127.457 189.443 127.437 189.367 127.403 189.297C127.403 189.297 126.113 186.641 123.09 183.796C119.981 180.872 115.084 179.4 115.084 179.4Z" fill="#6D56FA"/>
<path d="M42.182 188.734C42.1046 188.734 42.0278 188.75 41.9563 188.779C41.8848 188.809 41.8198 188.853 41.765 188.907C41.7103 188.962 41.667 189.027 41.6375 189.099C41.6079 189.17 41.5927 189.247 41.5928 189.325C41.5929 189.481 41.6549 189.631 41.7654 189.741C41.8759 189.852 42.0258 189.914 42.182 189.914H104.77C104.926 189.914 105.076 189.852 105.186 189.741C105.297 189.631 105.359 189.481 105.359 189.325C105.359 189.247 105.344 189.17 105.314 189.099C105.285 189.027 105.241 188.962 105.187 188.907C105.132 188.853 105.067 188.809 104.995 188.779C104.924 188.75 104.847 188.734 104.77 188.734H42.182Z" fill="#6D56FA"/>
<path d="M224.596 188.54L129.73 188.603C129.653 188.603 129.576 188.618 129.505 188.648C129.433 188.678 129.368 188.721 129.313 188.776C129.259 188.831 129.215 188.896 129.186 188.968C129.156 189.039 129.141 189.116 129.141 189.193C129.141 189.271 129.156 189.347 129.186 189.419C129.216 189.491 129.259 189.555 129.314 189.61C129.369 189.665 129.434 189.708 129.506 189.738C129.577 189.767 129.654 189.783 129.731 189.783L224.597 189.72C224.674 189.72 224.751 189.704 224.823 189.675C224.894 189.645 224.959 189.601 225.014 189.547C225.069 189.492 225.112 189.427 225.142 189.355C225.171 189.284 225.186 189.207 225.186 189.129C225.186 189.052 225.171 188.975 225.141 188.904C225.112 188.832 225.068 188.767 225.013 188.712C224.958 188.658 224.893 188.614 224.822 188.585C224.75 188.555 224.674 188.54 224.596 188.54Z" fill="#6D56FA"/>
<path d="M42.4098 195.803C42.3324 195.803 42.2557 195.818 42.1841 195.848C42.1125 195.877 42.0474 195.921 41.9926 195.975C41.9378 196.03 41.8943 196.095 41.8646 196.167C41.835 196.238 41.8196 196.315 41.8196 196.392C41.8195 196.47 41.8348 196.547 41.8644 196.618C41.894 196.69 41.9374 196.755 41.9922 196.81C42.0471 196.865 42.1122 196.908 42.1839 196.938C42.2555 196.967 42.3323 196.983 42.4098 196.982H225.045C225.123 196.982 225.2 196.967 225.271 196.937C225.343 196.908 225.408 196.864 225.462 196.809C225.517 196.755 225.56 196.69 225.59 196.618C225.62 196.546 225.635 196.47 225.635 196.392C225.635 196.236 225.573 196.086 225.462 195.976C225.352 195.865 225.202 195.803 225.045 195.803H42.4098Z" fill="#6D56FA"/>
<path d="M138.022 134.773C137.947 134.796 137.878 134.833 137.819 134.882C137.759 134.931 137.709 134.992 137.673 135.06C137.637 135.129 137.614 135.204 137.607 135.281C137.599 135.358 137.607 135.436 137.63 135.51C137.63 135.51 138.17 137.267 138.742 139.161C139.313 141.056 139.927 143.142 140.035 143.607C140.07 143.76 140.164 143.892 140.297 143.975C140.43 144.057 140.59 144.084 140.742 144.049C140.817 144.031 140.889 143.999 140.952 143.954C141.015 143.909 141.068 143.852 141.109 143.786C141.15 143.721 141.178 143.647 141.191 143.571C141.203 143.494 141.201 143.416 141.183 143.341C141.035 142.701 140.442 140.719 139.87 138.821C139.298 136.923 138.758 135.165 138.758 135.165C138.712 135.015 138.609 134.89 138.471 134.816C138.333 134.743 138.171 134.727 138.022 134.773Z" fill="#6D56FA"/>
<path d="M144.601 158.827C144.446 158.849 144.307 158.932 144.213 159.056C144.118 159.181 144.078 159.339 144.1 159.493C144.973 165.678 145.723 169.52 146.556 178.076C146.571 178.232 146.647 178.375 146.768 178.474C146.889 178.573 147.044 178.621 147.2 178.605C147.355 178.59 147.498 178.514 147.597 178.393C147.697 178.273 147.744 178.118 147.729 177.962C146.893 169.373 146.138 165.487 145.268 159.329C145.257 159.252 145.232 159.178 145.192 159.111C145.153 159.044 145.101 158.986 145.039 158.94C144.977 158.893 144.906 158.859 144.831 158.84C144.756 158.821 144.678 158.816 144.601 158.827Z" fill="#6D56FA"/>
<path d="M156.678 158.828C156.529 158.783 156.368 158.8 156.23 158.873C156.092 158.947 155.99 159.073 155.944 159.222C155.899 159.372 155.915 159.534 155.989 159.671C155.983 159.659 156.102 159.937 156.228 160.293C156.354 160.649 156.514 161.126 156.696 161.682C157.06 162.792 157.511 164.219 157.955 165.664C158.398 167.11 158.835 168.573 159.171 169.753C159.475 170.819 159.656 171.56 159.716 171.869C157.224 175.25 152.684 176.732 147.263 177.473C147.108 177.494 146.968 177.576 146.873 177.7C146.779 177.825 146.737 177.981 146.758 178.136C146.769 178.213 146.794 178.287 146.833 178.354C146.872 178.42 146.924 178.479 146.986 178.526C147.047 178.573 147.118 178.607 147.193 178.627C147.268 178.646 147.346 178.651 147.422 178.64C153.07 177.868 158.082 176.314 160.843 172.354C160.927 172.232 160.963 172.083 160.943 171.936C160.88 171.474 160.645 170.623 160.306 169.43C159.966 168.238 159.528 166.769 159.082 165.318C158.637 163.867 158.183 162.435 157.816 161.314C157.632 160.754 157.47 160.271 157.339 159.901C157.209 159.531 157.136 159.314 157.028 159.113C156.954 158.976 156.828 158.873 156.678 158.828Z" fill="#6D56FA"/>
<path d="M147.108 177.579C146.954 177.607 146.818 177.695 146.729 177.824C146.64 177.953 146.606 178.111 146.634 178.265C146.627 178.224 146.655 178.494 146.668 178.819C146.682 179.144 146.694 179.579 146.707 180.084C146.733 181.092 146.756 182.379 146.775 183.646C146.813 186.18 146.836 188.635 146.836 188.635C146.837 188.792 146.901 188.941 147.013 189.05C147.124 189.16 147.275 189.22 147.431 189.219C147.509 189.218 147.585 189.202 147.656 189.172C147.728 189.141 147.792 189.097 147.846 189.042C147.901 188.987 147.944 188.921 147.973 188.85C148.002 188.778 148.016 188.701 148.015 188.623C148.015 188.623 147.992 186.168 147.953 183.629C147.935 182.36 147.912 181.069 147.886 180.054C147.874 179.546 147.86 179.107 147.846 178.77C147.831 178.434 147.831 178.256 147.794 178.052C147.765 177.899 147.677 177.762 147.549 177.674C147.42 177.585 147.262 177.551 147.108 177.579Z" fill="#6D56FA"/>
<path d="M123.485 178.758C123.408 178.75 123.331 178.756 123.256 178.778C123.182 178.799 123.112 178.835 123.052 178.884C122.991 178.932 122.941 178.992 122.904 179.06C122.866 179.128 122.843 179.202 122.834 179.279C122.817 179.435 122.863 179.59 122.96 179.712C123.058 179.834 123.2 179.912 123.356 179.93C126.188 180.244 128.199 181.369 129.747 182.964C131.296 184.559 132.371 186.645 133.202 188.856C133.229 188.928 133.271 188.995 133.324 189.051C133.377 189.108 133.44 189.153 133.511 189.185C133.581 189.217 133.657 189.235 133.735 189.237C133.812 189.24 133.889 189.227 133.962 189.199C134.108 189.144 134.226 189.033 134.291 188.891C134.355 188.749 134.36 188.587 134.305 188.44C133.443 186.146 132.309 183.909 130.593 182.142C128.878 180.375 126.569 179.1 123.485 178.758Z" fill="#6D56FA"/>
<path d="M186.446 186.395C186.369 186.387 186.291 186.395 186.217 186.418C186.142 186.44 186.073 186.477 186.013 186.526C185.953 186.575 185.904 186.636 185.867 186.704C185.831 186.772 185.808 186.847 185.801 186.924C185.785 187.08 185.833 187.235 185.932 187.356C186.031 187.477 186.174 187.553 186.33 187.569C188.016 187.735 189.056 187.42 190.329 187.936C191.601 188.453 193.294 189.866 196.057 193.675C197.337 195.438 197.678 197.749 197.272 200.402C196.866 203.055 195.705 206.018 194.052 208.957C190.745 214.834 185.465 220.615 180.537 223.823C175.699 226.973 170 226.551 165.229 224.514C160.459 222.478 156.706 218.768 155.854 215.769C150.605 197.268 134.979 188.512 134.979 188.512C134.911 188.474 134.837 188.45 134.76 188.441C134.683 188.432 134.605 188.438 134.53 188.459C134.456 188.48 134.386 188.515 134.325 188.563C134.264 188.611 134.214 188.67 134.176 188.738C134.138 188.806 134.113 188.88 134.104 188.957C134.095 189.034 134.101 189.112 134.122 189.186C134.143 189.261 134.179 189.331 134.226 189.391C134.274 189.452 134.334 189.503 134.401 189.541C134.401 189.541 149.611 198.087 154.72 216.091C155.741 219.688 159.737 223.451 164.767 225.599C169.797 227.746 175.947 228.219 181.181 224.811C186.325 221.461 191.672 215.59 195.08 209.535C196.783 206.507 198.001 203.434 198.437 200.581C198.874 197.727 198.52 195.063 197.011 192.982C194.196 189.103 192.39 187.5 190.772 186.844C189.154 186.187 187.911 186.54 186.446 186.395Z" fill="#6D56FA"/>
<path d="M156.05 175.362C155.974 175.349 155.896 175.351 155.82 175.368C155.745 175.385 155.673 175.417 155.61 175.462C155.547 175.507 155.493 175.563 155.452 175.629C155.41 175.694 155.382 175.767 155.369 175.844C155.369 175.844 155.094 177.442 154.9 179.431C154.706 181.42 154.576 183.782 154.924 185.472C155.247 187.043 155.537 187.987 155.758 188.558C155.868 188.844 155.96 189.036 156.033 189.167C156.106 189.298 156.194 189.406 156.194 189.406C156.297 189.523 156.443 189.595 156.599 189.605C156.755 189.615 156.909 189.562 157.026 189.459C157.143 189.356 157.215 189.21 157.225 189.054C157.235 188.898 157.182 188.744 157.079 188.627C157.079 188.627 157.103 188.664 157.063 188.592C157.023 188.52 156.952 188.376 156.857 188.133C156.669 187.646 156.392 186.759 156.078 185.234C155.789 183.829 155.884 181.487 156.073 179.545C156.263 177.602 156.531 176.044 156.531 176.044C156.557 175.89 156.522 175.731 156.432 175.604C156.341 175.476 156.204 175.389 156.05 175.362Z" fill="#6D56FA"/>
<path d="M159.182 183.815C159.031 183.815 158.886 183.873 158.777 183.977C158.667 184.081 158.602 184.223 158.594 184.373L158.356 188.861C158.352 188.938 158.363 189.015 158.389 189.089C158.415 189.162 158.455 189.229 158.507 189.286C158.559 189.344 158.621 189.391 158.691 189.424C158.761 189.458 158.837 189.477 158.915 189.481C159.071 189.489 159.224 189.435 159.34 189.33C159.456 189.225 159.526 189.079 159.534 188.923L159.742 184.995L190.508 185.001L190.492 188.783C190.491 188.86 190.506 188.937 190.536 189.009C190.565 189.08 190.608 189.145 190.663 189.2C190.717 189.255 190.782 189.299 190.853 189.329C190.925 189.359 191.001 189.375 191.079 189.375C191.156 189.375 191.233 189.36 191.305 189.331C191.377 189.302 191.442 189.259 191.497 189.204C191.552 189.149 191.595 189.085 191.625 189.013C191.655 188.942 191.671 188.865 191.671 188.788L191.69 184.413C191.69 184.336 191.675 184.259 191.646 184.187C191.617 184.115 191.573 184.05 191.518 183.995C191.464 183.94 191.399 183.896 191.327 183.866C191.255 183.837 191.178 183.821 191.101 183.821L159.182 183.815Z" fill="#6D56FA"/>
<path d="M168.911 184.023C168.835 184.019 168.759 184.031 168.688 184.056C168.616 184.082 168.55 184.121 168.493 184.172C168.437 184.224 168.391 184.285 168.358 184.354C168.326 184.423 168.307 184.498 168.303 184.574L168.097 188.678C168.094 188.754 168.105 188.83 168.13 188.902C168.156 188.974 168.195 189.04 168.247 189.096C168.298 189.153 168.359 189.199 168.428 189.231C168.497 189.264 168.572 189.283 168.648 189.286C168.724 189.29 168.8 189.279 168.872 189.253C168.943 189.228 169.009 189.188 169.066 189.137C169.122 189.086 169.168 189.024 169.201 188.956C169.233 188.887 169.252 188.812 169.256 188.736L169.461 184.632C169.468 184.478 169.415 184.328 169.312 184.214C169.209 184.1 169.065 184.031 168.911 184.023Z" fill="#6D56FA"/>
<path d="M172.811 122.266C172.667 122.266 172.528 122.319 172.42 122.415C172.312 122.511 172.243 122.643 172.226 122.787L165.061 183.757C165.043 183.912 165.087 184.068 165.184 184.191C165.281 184.313 165.423 184.393 165.578 184.411C165.655 184.42 165.733 184.414 165.807 184.393C165.882 184.372 165.952 184.336 166.013 184.288C166.073 184.24 166.124 184.181 166.162 184.113C166.2 184.045 166.224 183.971 166.233 183.894L173.336 123.446H193.618L187.697 182.19C187.689 182.267 187.697 182.345 187.719 182.419C187.741 182.493 187.778 182.562 187.827 182.622C187.876 182.682 187.936 182.732 188.004 182.769C188.073 182.805 188.147 182.828 188.224 182.836C188.301 182.844 188.379 182.836 188.453 182.814C188.528 182.792 188.597 182.755 188.657 182.706C188.717 182.657 188.766 182.597 188.803 182.529C188.84 182.461 188.863 182.386 188.87 182.309L194.858 122.915C194.866 122.833 194.857 122.75 194.831 122.672C194.805 122.593 194.763 122.522 194.708 122.46C194.653 122.399 194.586 122.351 194.51 122.317C194.435 122.284 194.354 122.266 194.271 122.266H172.811Z" fill="#6D56FA"/>
<path d="M176.337 125.586C176.192 125.586 176.051 125.639 175.943 125.736C175.835 125.833 175.767 125.966 175.75 126.11L169.33 184.093C169.321 184.17 169.328 184.248 169.35 184.323C169.371 184.397 169.407 184.466 169.455 184.527C169.504 184.587 169.564 184.638 169.632 184.675C169.7 184.712 169.774 184.736 169.851 184.745C169.928 184.753 170.006 184.746 170.08 184.725C170.155 184.703 170.224 184.667 170.285 184.619C170.345 184.57 170.396 184.51 170.433 184.443C170.47 184.375 170.494 184.3 170.502 184.223L176.865 126.765H183.033C183.11 126.765 183.187 126.75 183.259 126.72C183.33 126.691 183.395 126.647 183.45 126.592C183.505 126.538 183.548 126.472 183.578 126.401C183.607 126.329 183.622 126.253 183.622 126.175C183.622 126.019 183.56 125.869 183.45 125.759C183.339 125.648 183.189 125.586 183.033 125.586H176.337Z" fill="#6D56FA"/>
<path d="M158.691 188.832L159.633 184.508L169.081 184.421C169.081 184.421 169.137 189.363 168.744 189.356C168.351 189.35 158.691 188.832 158.691 188.832Z" fill="#6D56FA"/>
<path d="M139.984 158.178L144.15 104.357L146.646 104.718L141.528 158.549L139.984 158.178Z" fill="#6D56FA"/>
<path d="M189.564 103.802C189.413 103.801 189.267 103.859 189.158 103.962C189.048 104.066 188.982 104.207 188.973 104.358L188.802 107.385H178.604L178.582 104.686C178.58 104.531 178.517 104.382 178.407 104.272C178.296 104.163 178.146 104.102 177.991 104.102L144.916 104.164C144.759 104.164 144.61 104.227 144.499 104.337C144.389 104.448 144.327 104.598 144.327 104.754C144.328 104.911 144.39 105.06 144.501 105.171C144.611 105.281 144.761 105.343 144.918 105.342L177.407 105.283L177.429 107.979C177.431 108.135 177.493 108.283 177.604 108.393C177.714 108.503 177.863 108.564 178.019 108.564H189.359C189.509 108.564 189.654 108.506 189.764 108.403C189.873 108.3 189.939 108.158 189.947 108.008L190.119 104.983L221.439 105.076L215.412 158.214L190.745 158.551C190.668 158.552 190.591 158.568 190.52 158.599C190.449 158.63 190.384 158.674 190.33 158.73C190.277 158.785 190.234 158.851 190.205 158.923C190.177 158.995 190.163 159.072 190.164 159.149C190.166 159.305 190.23 159.454 190.342 159.563C190.454 159.672 190.605 159.732 190.761 159.73L215.947 159.386C216.091 159.384 216.228 159.33 216.334 159.233C216.441 159.137 216.508 159.006 216.525 158.863L222.685 104.555C222.694 104.472 222.686 104.389 222.66 104.31C222.635 104.231 222.594 104.158 222.539 104.097C222.484 104.035 222.416 103.985 222.34 103.951C222.265 103.917 222.183 103.9 222.1 103.899L189.564 103.802Z" fill="#6D56FA"/>
<path d="M141.633 157.642C141.225 157.646 140.894 157.653 140.647 157.664C140.524 157.669 140.423 157.675 140.335 157.684C140.247 157.692 140.234 157.658 140.016 157.756C139.874 157.82 139.762 157.938 139.707 158.084C139.651 158.23 139.656 158.392 139.72 158.535C139.751 158.605 139.797 158.669 139.853 158.722C139.909 158.775 139.976 158.817 140.048 158.845C140.12 158.872 140.198 158.885 140.275 158.883C140.353 158.881 140.429 158.863 140.5 158.831C140.319 158.912 140.397 158.862 140.448 158.857C140.5 158.852 140.588 158.846 140.699 158.841C140.922 158.831 141.244 158.824 141.646 158.82C142.449 158.812 143.57 158.815 144.9 158.826C147.558 158.849 151.051 158.906 154.524 158.97C161.47 159.099 168.341 159.263 168.341 159.263C168.419 159.264 168.496 159.251 168.568 159.223C168.64 159.195 168.706 159.153 168.762 159.1C168.818 159.046 168.863 158.982 168.894 158.911C168.926 158.84 168.943 158.764 168.944 158.686C168.948 158.53 168.89 158.379 168.782 158.266C168.674 158.153 168.525 158.087 168.369 158.083C168.369 158.083 161.496 157.92 154.546 157.791C151.071 157.726 147.576 157.671 144.91 157.648C143.576 157.636 142.45 157.633 141.633 157.642Z" fill="#6D56FA"/>
<path d="M169.614 147.174C160.6 147.794 152.035 150.078 144.332 155.26C144.268 155.303 144.213 155.358 144.17 155.423C144.127 155.488 144.098 155.56 144.083 155.636C144.068 155.712 144.068 155.79 144.084 155.866C144.099 155.942 144.129 156.014 144.173 156.079C144.26 156.208 144.395 156.298 144.548 156.328C144.702 156.358 144.861 156.326 144.991 156.238C152.49 151.193 160.827 148.96 169.694 148.351C169.85 148.34 169.995 148.268 170.098 148.15C170.201 148.032 170.252 147.878 170.242 147.723C170.231 147.567 170.159 147.421 170.041 147.318C169.923 147.216 169.77 147.164 169.614 147.174Z" fill="#6D56FA"/>
<path d="M194.838 147.27C193.956 147.264 193.095 147.326 192.267 147.464C192.113 147.49 191.975 147.576 191.884 147.703C191.794 147.83 191.757 147.988 191.783 148.142C191.795 148.219 191.823 148.292 191.864 148.357C191.905 148.423 191.959 148.48 192.022 148.525C192.085 148.57 192.156 148.602 192.232 148.62C192.307 148.637 192.385 148.639 192.462 148.626C195.471 148.124 199.143 148.731 202.537 150.087C205.93 151.442 209.041 153.545 210.963 155.921C211.011 155.981 211.072 156.031 211.14 156.068C211.208 156.106 211.282 156.129 211.359 156.137C211.437 156.145 211.514 156.138 211.589 156.116C211.663 156.094 211.732 156.058 211.793 156.009C211.914 155.91 211.991 155.768 212.008 155.612C212.024 155.457 211.978 155.301 211.88 155.18C209.783 152.587 206.525 150.411 202.974 148.992C200.311 147.928 197.482 147.29 194.838 147.27Z" fill="#6D56FA"/>
<path d="M206.267 122.75C206.112 122.732 205.955 122.776 205.833 122.873C205.71 122.969 205.63 123.111 205.612 123.266L203.075 144.64C203.056 144.795 203.1 144.951 203.197 145.074C203.294 145.197 203.435 145.276 203.59 145.295C203.667 145.304 203.745 145.298 203.82 145.277C203.894 145.256 203.964 145.221 204.025 145.173C204.086 145.125 204.137 145.065 204.174 144.998C204.212 144.93 204.236 144.856 204.245 144.779L206.783 123.406C206.792 123.329 206.786 123.251 206.765 123.176C206.744 123.102 206.709 123.032 206.661 122.971C206.613 122.91 206.553 122.859 206.486 122.822C206.418 122.784 206.344 122.76 206.267 122.75Z" fill="#6D56FA"/>
<path d="M211.135 122.404C211.058 122.397 210.981 122.406 210.907 122.429C210.833 122.453 210.764 122.491 210.705 122.541C210.646 122.591 210.597 122.652 210.562 122.721C210.526 122.79 210.505 122.865 210.498 122.942L208.624 145.375C208.617 145.452 208.626 145.53 208.649 145.603C208.673 145.677 208.711 145.746 208.761 145.805C208.811 145.864 208.872 145.913 208.941 145.948C209.01 145.984 209.085 146.005 209.162 146.012C209.318 146.025 209.472 145.975 209.591 145.874C209.711 145.773 209.785 145.629 209.798 145.474L211.674 123.041C211.68 122.964 211.672 122.886 211.648 122.812C211.624 122.738 211.587 122.67 211.537 122.611C211.487 122.552 211.425 122.503 211.357 122.467C211.288 122.432 211.213 122.41 211.135 122.404Z" fill="#6D56FA"/>
<path d="M161.532 122.765C161.455 122.76 161.377 122.771 161.304 122.797C161.231 122.823 161.164 122.862 161.106 122.914C161.048 122.966 161.001 123.028 160.968 123.098C160.934 123.168 160.915 123.244 160.911 123.321C160.911 123.321 160.639 128.285 160.356 133.302C160.215 135.81 160.071 138.332 159.956 140.253C159.899 141.213 159.849 142.022 159.81 142.604C159.791 142.894 159.775 143.129 159.762 143.294C159.756 143.376 159.75 143.441 159.746 143.485C159.741 143.529 159.729 143.585 159.746 143.512C159.73 143.588 159.729 143.666 159.742 143.742C159.756 143.819 159.785 143.891 159.827 143.956C159.869 144.022 159.923 144.078 159.987 144.122C160.05 144.166 160.122 144.197 160.198 144.213C160.273 144.23 160.352 144.231 160.428 144.217C160.504 144.204 160.577 144.175 160.642 144.133C160.707 144.091 160.763 144.037 160.807 143.973C160.851 143.909 160.882 143.838 160.899 143.762C160.92 143.663 160.916 143.654 160.921 143.597C160.926 143.541 160.932 143.471 160.939 143.385C160.952 143.212 160.968 142.975 160.988 142.681C161.027 142.095 161.077 141.284 161.135 140.323C161.249 138.4 161.394 135.877 161.535 133.368C161.818 128.35 162.089 123.386 162.089 123.386C162.094 123.308 162.083 123.231 162.057 123.158C162.031 123.085 161.991 123.018 161.94 122.96C161.888 122.902 161.826 122.855 161.756 122.822C161.686 122.788 161.61 122.769 161.533 122.765L161.532 122.765Z" fill="#6D56FA"/>
<path d="M156.937 122.853C156.86 122.847 156.782 122.857 156.708 122.881C156.635 122.905 156.567 122.944 156.508 122.994C156.449 123.045 156.401 123.106 156.366 123.176C156.331 123.245 156.311 123.32 156.305 123.398L154.787 143.81C154.775 143.966 154.826 144.12 154.928 144.238C155.03 144.356 155.175 144.429 155.331 144.441C155.408 144.447 155.486 144.437 155.559 144.413C155.633 144.389 155.701 144.35 155.76 144.3C155.819 144.249 155.867 144.188 155.902 144.119C155.937 144.049 155.957 143.974 155.963 143.897L157.481 123.485C157.487 123.408 157.478 123.331 157.453 123.257C157.429 123.183 157.391 123.115 157.34 123.057C157.29 122.998 157.228 122.95 157.159 122.915C157.09 122.88 157.014 122.859 156.937 122.853Z" fill="#6D56FA"/>
<path d="M151.64 121.93C151.563 121.926 151.485 121.937 151.412 121.963C151.339 121.988 151.272 122.028 151.214 122.08C151.156 122.131 151.109 122.194 151.076 122.264C151.042 122.334 151.023 122.409 151.019 122.487C151.019 122.487 150.723 127.793 150.426 133.134C150.278 135.804 150.13 138.483 150.019 140.512C149.963 141.527 149.917 142.378 149.884 142.986C149.868 143.289 149.854 143.531 149.845 143.703C149.837 143.874 149.832 143.923 149.83 144.01C149.829 144.088 149.843 144.165 149.871 144.237C149.9 144.309 149.942 144.375 149.996 144.431C150.049 144.486 150.114 144.531 150.185 144.562C150.256 144.593 150.332 144.609 150.41 144.611C150.487 144.612 150.564 144.598 150.636 144.57C150.708 144.542 150.774 144.499 150.83 144.445C150.886 144.392 150.93 144.327 150.961 144.256C150.992 144.185 151.009 144.109 151.01 144.031C151.01 144.084 151.015 143.935 151.023 143.765C151.031 143.595 151.045 143.352 151.062 143.049C151.094 142.442 151.141 141.59 151.196 140.576C151.308 138.547 151.456 135.869 151.604 133.199C151.9 127.858 152.196 122.552 152.196 122.552C152.2 122.474 152.189 122.397 152.164 122.324C152.138 122.251 152.098 122.183 152.047 122.126C151.995 122.068 151.932 122.021 151.863 121.988C151.793 121.954 151.717 121.935 151.64 121.93Z" fill="#6D56FA"/>
<path d="M147.724 107.34C147.649 107.361 147.58 107.396 147.519 107.444C147.458 107.492 147.407 107.551 147.368 107.619C147.292 107.755 147.272 107.916 147.315 108.067C147.357 108.217 147.457 108.345 147.593 108.422C158.149 114.374 169.079 118.9 180.882 119.748C192.685 120.595 205.341 117.747 219.274 109.048C219.407 108.965 219.501 108.833 219.536 108.681C219.571 108.528 219.544 108.368 219.462 108.236C219.379 108.103 219.247 108.009 219.095 107.974C218.942 107.939 218.782 107.965 218.65 108.048C204.89 116.639 192.522 119.401 180.967 118.571C169.411 117.742 158.648 113.302 148.172 107.395C148.105 107.357 148.031 107.332 147.954 107.323C147.877 107.313 147.799 107.319 147.724 107.34Z" fill="#6D56FA"/>
<path d="M175.634 101.024C175.556 101.024 175.479 101.039 175.408 101.068C175.336 101.098 175.271 101.141 175.216 101.196C175.161 101.251 175.117 101.316 175.088 101.387C175.058 101.459 175.043 101.536 175.042 101.613V104.557C175.043 104.714 175.105 104.863 175.215 104.974C175.326 105.084 175.475 105.147 175.632 105.147C175.709 105.147 175.786 105.132 175.857 105.102C175.929 105.072 175.994 105.029 176.049 104.974C176.104 104.92 176.147 104.855 176.177 104.783C176.207 104.712 176.222 104.635 176.222 104.557V102.205L189.387 102.246L189.302 104.207C189.295 104.363 189.351 104.515 189.456 104.631C189.562 104.746 189.709 104.814 189.865 104.821C190.021 104.828 190.174 104.772 190.289 104.667C190.404 104.561 190.473 104.414 190.479 104.258L190.592 101.684C190.596 101.605 190.583 101.526 190.555 101.451C190.527 101.377 190.485 101.309 190.43 101.252C190.375 101.194 190.309 101.148 190.236 101.117C190.163 101.086 190.084 101.069 190.005 101.069L175.634 101.024Z" fill="#6D56FA"/>
<path d="M44.7278 164.329C44.6971 164.651 44.1717 176.4 45.1249 182.323C45.493 184.61 47.159 188.968 47.159 188.968H64.2528C64.3732 188.976 66.0209 185.343 66.5207 182.116C67.0973 178.393 67.5709 164.634 67.5709 164.634L44.7278 164.329Z" fill="#6D56FA"/>
<path d="M44.644 170.37C38.0463 168.983 38.6629 178.178 45.3235 179.354L45.5706 182.778C45.5706 182.778 40.8944 181.755 39.6051 179.976C34.8774 173.453 35.1107 165.482 45.756 167.339" fill="#6D56FA"/>
<path d="M46.935 136.061C46.861 136.084 46.7923 136.121 46.7328 136.171C46.6732 136.22 46.6239 136.281 46.5878 136.35C46.5517 136.418 46.5295 136.493 46.5224 136.57C46.5153 136.647 46.5235 136.725 46.5465 136.799C46.5465 136.799 46.9256 138.024 47.2965 139.564C47.6676 141.103 48.0199 142.976 47.9896 144.124C47.9456 145.793 47.2668 147.468 46.5854 149.21C45.9041 150.952 45.2192 152.77 45.3391 154.743C45.3989 155.728 45.799 156.84 46.2149 157.796C46.4229 158.274 46.6364 158.707 46.8221 159.052C47.0079 159.397 47.1312 159.62 47.2955 159.814C47.3967 159.933 47.5411 160.007 47.6969 160.02C47.8527 160.033 48.0072 159.983 48.1264 159.882C48.2458 159.781 48.32 159.637 48.3329 159.481C48.3458 159.325 48.2964 159.17 48.1954 159.051C48.201 159.057 48.0297 158.806 47.8608 158.493C47.6919 158.179 47.4895 157.771 47.2955 157.325C46.9076 156.434 46.558 155.37 46.5155 154.671C46.4152 153.019 47.0083 151.367 47.684 149.639C48.3598 147.912 49.1163 146.115 49.1681 144.155C49.2049 142.751 48.8236 140.866 48.443 139.287C48.0626 137.707 47.673 136.451 47.673 136.451C47.6502 136.377 47.613 136.308 47.5636 136.248C47.5141 136.188 47.4533 136.139 47.3848 136.103C47.3162 136.067 47.2413 136.044 47.1641 136.037C47.0869 136.03 47.009 136.038 46.935 136.061Z" fill="#6D56FA"/>
<path d="M54.7248 130.103C54.6529 130.075 54.5761 130.06 54.4986 130.061C54.4212 130.062 54.3447 130.079 54.2736 130.109C54.2024 130.14 54.1381 130.184 54.084 130.24C54.03 130.295 53.9875 130.361 53.9588 130.433C53.9588 130.433 53.815 130.794 53.6692 131.25C53.5234 131.705 53.3643 132.235 53.3526 132.737C53.3526 132.737 53.3526 132.737 53.3526 132.738C53.2789 135.921 55.1147 138.667 55.2412 141.369C55.3936 144.626 54.0602 147.971 53.9788 151.547C53.9497 152.821 54.0003 154.462 54.1056 155.916C54.1584 156.644 54.2253 157.322 54.3044 157.89C54.3835 158.457 54.4584 158.891 54.6 159.24C54.6588 159.385 54.7727 159.501 54.9167 159.561C55.0607 159.622 55.2231 159.623 55.368 159.565C55.5129 159.506 55.6285 159.392 55.6893 159.248C55.7502 159.104 55.7514 158.942 55.6926 158.797C55.6445 158.678 55.5456 158.256 55.4719 157.727C55.3981 157.198 55.3335 156.539 55.2821 155.831C55.1793 154.413 55.1295 152.793 55.1573 151.574C55.232 148.288 56.5881 144.915 56.4196 141.315C56.272 138.159 54.4691 135.444 54.5311 132.765C54.5362 132.542 54.6594 132.022 54.7918 131.608C54.9241 131.195 55.0544 130.869 55.0544 130.869C55.0831 130.797 55.0973 130.72 55.0962 130.643C55.0952 130.566 55.0789 130.489 55.0483 130.418C55.0177 130.347 54.9733 130.282 54.9178 130.228C54.8623 130.174 54.7968 130.132 54.7248 130.103Z" fill="#6D56FA"/>
<path d="M62.6256 138.747C62.4748 138.788 62.3464 138.888 62.2686 139.023C62.1909 139.159 62.1702 139.32 62.2111 139.47C62.2111 139.47 62.4818 140.466 62.7434 141.717C63.005 142.967 63.2485 144.488 63.2148 145.401C63.1609 146.858 62.5272 148.347 61.9135 149.903C61.2997 151.459 60.7022 153.099 60.9238 154.872C61.0659 156.01 61.6167 157.195 62.2191 158.222C62.8215 159.248 63.4587 160.085 63.9209 160.529C64.0338 160.637 64.1849 160.696 64.3411 160.692C64.4973 160.689 64.6457 160.624 64.7538 160.511C64.8619 160.398 64.9209 160.247 64.9177 160.091C64.9145 159.935 64.8495 159.786 64.7369 159.678C64.4402 159.393 63.7915 158.571 63.2359 157.625C62.6803 156.678 62.2005 155.576 62.0944 154.726C61.917 153.307 62.4067 151.866 63.0102 150.336C63.6137 148.806 64.3274 147.203 64.3924 145.445C64.4348 144.295 64.1664 142.762 63.897 141.475C63.6277 140.187 63.3487 139.161 63.3487 139.161C63.3075 139.01 63.2083 138.882 63.0727 138.805C62.9372 138.727 62.7763 138.707 62.6256 138.747Z" fill="#6D56FA"/>
<path fill-rule="evenodd" clip-rule="evenodd" d="M8.50952 45.3322V45.9219V88.0833H58.6857V45.3322H8.50952ZM9.68898 46.5116H57.5062V86.9039H9.68898V46.5116Z" fill="#6D56FA"/>
<path d="M15.7974 59.3646C15.7199 59.3646 15.6432 59.3799 15.5717 59.4095C15.5001 59.4391 15.4351 59.4826 15.3804 59.5374C15.3256 59.5921 15.2821 59.657 15.2525 59.7286C15.2229 59.8001 15.2076 59.8769 15.2076 59.9544C15.2076 60.0318 15.2229 60.1084 15.2525 60.18C15.2821 60.2516 15.3256 60.3166 15.3803 60.3714C15.4351 60.4261 15.5001 60.4696 15.5717 60.4992C15.6432 60.5288 15.7199 60.5441 15.7974 60.5441H52.1888C52.2663 60.5441 52.343 60.5288 52.4145 60.4992C52.4861 60.4696 52.5511 60.4261 52.6059 60.3714C52.6606 60.3166 52.7041 60.2516 52.7337 60.18C52.7633 60.1084 52.7786 60.0318 52.7786 59.9544C52.7786 59.8769 52.7633 59.8001 52.7337 59.7286C52.7041 59.657 52.6606 59.5921 52.6059 59.5374C52.5511 59.4826 52.4861 59.4391 52.4145 59.4095C52.343 59.3799 52.2663 59.3646 52.1888 59.3646H15.7974Z" fill="#6D56FA"/>
<path d="M15.7974 65.776C15.6411 65.776 15.4913 65.838 15.3807 65.9483C15.2702 66.0587 15.2079 66.2084 15.2076 66.3646C15.2076 66.4421 15.2229 66.5187 15.2525 66.5903C15.2821 66.6618 15.3256 66.7269 15.3803 66.7816C15.4351 66.8364 15.5001 66.8799 15.5717 66.9095C15.6432 66.9391 15.7199 66.9544 15.7974 66.9544H52.1888C52.2663 66.9544 52.343 66.9391 52.4145 66.9095C52.4861 66.8799 52.5511 66.8364 52.6059 66.7816C52.6606 66.7269 52.7041 66.6618 52.7337 66.5903C52.7633 66.5187 52.7786 66.4421 52.7786 66.3646C52.7783 66.2084 52.7161 66.0587 52.6055 65.9483C52.4949 65.838 52.3451 65.776 52.1888 65.776H15.7974Z" fill="#6D56FA"/>
<path d="M15.7974 72.1541C15.6411 72.154 15.4913 72.216 15.3807 72.3264C15.2702 72.4367 15.2079 72.5865 15.2076 72.7427C15.2076 72.8201 15.2229 72.8968 15.2525 72.9683C15.2821 73.0399 15.3256 73.1049 15.3803 73.1597C15.4351 73.2145 15.5001 73.2579 15.5717 73.2875C15.6432 73.3172 15.7199 73.3324 15.7974 73.3324H52.1888C52.2663 73.3324 52.343 73.3172 52.4145 73.2875C52.4861 73.2579 52.5511 73.2145 52.6059 73.1597C52.6606 73.1049 52.7041 73.0399 52.7337 72.9683C52.7633 72.8968 52.7786 72.8201 52.7786 72.7427C52.7783 72.5865 52.7161 72.4367 52.6055 72.3264C52.4949 72.216 52.3451 72.154 52.1888 72.1541H15.7974Z" fill="#6D56FA"/>
<path d="M15.7158 78.4885C15.6384 78.4885 15.5617 78.5038 15.4901 78.5334C15.4186 78.563 15.3535 78.6065 15.2988 78.6613C15.244 78.716 15.2006 78.7811 15.1709 78.8526C15.1413 78.9242 15.1261 79.0008 15.1261 79.0783C15.1261 79.1557 15.1413 79.2325 15.1709 79.304C15.2006 79.3756 15.244 79.4405 15.2988 79.4953C15.3535 79.55 15.4186 79.5935 15.4901 79.6231C15.5617 79.6527 15.6384 79.668 15.7158 79.668H47.0674C47.1448 79.668 47.2215 79.6527 47.2931 79.6231C47.3646 79.5935 47.4296 79.55 47.4844 79.4953C47.5392 79.4405 47.5826 79.3756 47.6122 79.304C47.6419 79.2325 47.6571 79.1557 47.6571 79.0783C47.6571 79.0008 47.6419 78.9242 47.6122 78.8526C47.5826 78.7811 47.5392 78.716 47.4844 78.6613C47.4296 78.6065 47.3646 78.563 47.2931 78.5334C47.2215 78.5038 47.1448 78.4885 47.0674 78.4885H15.7158Z" fill="#6D56FA"/>
<path d="M64.0107 95.9849C63.8576 96.0158 63.723 96.1062 63.6364 96.2363C63.1348 96.9913 63.0927 97.8465 63.2262 98.6017C63.3596 99.3562 63.652 100.052 63.8736 100.641C64.2538 101.657 65.0439 102.502 66.0073 103.007C66.1096 103.39 66.2715 103.76 66.497 104.101C66.9226 104.845 67.5724 105.537 68.3771 105.98C69.189 106.427 70.1988 106.608 71.1637 106.201C71.2351 106.171 71.2998 106.127 71.3543 106.072C71.4087 106.017 71.4518 105.951 71.481 105.88C71.5102 105.808 71.5249 105.731 71.5245 105.654C71.524 105.576 71.5082 105.5 71.4781 105.428C71.4172 105.284 71.3016 105.17 71.1568 105.112C71.0119 105.053 70.8496 105.054 70.7056 105.115C70.1165 105.364 69.5292 105.268 68.9462 104.947C68.3632 104.626 67.8274 104.064 67.5089 103.501C67.5017 103.488 67.4941 103.476 67.486 103.463C67.4775 103.451 67.4821 103.433 67.474 103.42C67.8156 103.447 68.1567 103.484 68.511 103.406C69.5519 103.227 70.3068 102.423 70.6229 101.506C70.9405 100.586 70.8121 99.4496 69.9712 98.722C69.9654 98.7172 69.9597 98.7125 69.9538 98.708C69.3406 98.2157 68.5472 98.2463 67.967 98.5154C67.3905 98.7828 66.9411 99.2334 66.6352 99.7037C66.235 100.244 66.0231 100.879 65.941 101.528C65.5257 101.167 65.1674 100.735 64.9781 100.229C64.9777 100.229 64.9773 100.229 64.9769 100.229C64.7457 99.6146 64.4895 98.9766 64.3872 98.3979C64.2849 97.819 64.3199 97.341 64.619 96.8909C64.6619 96.8263 64.6917 96.754 64.7067 96.6779C64.7216 96.6018 64.7214 96.5235 64.706 96.4475C64.6907 96.3715 64.6604 96.2992 64.6171 96.2349C64.5738 96.1706 64.5182 96.1155 64.4536 96.0727C64.3232 95.9864 64.1639 95.9555 64.0107 95.9867V95.9849ZM68.8613 99.4755C68.9756 99.481 69.0835 99.5273 69.2052 99.6223C69.6305 99.9975 69.7028 100.556 69.5076 101.122C69.311 101.692 68.8414 102.16 68.3064 102.249C68.2947 102.251 68.2831 102.253 68.2716 102.256C67.893 102.341 67.513 102.304 67.1433 102.206C67.0954 101.558 67.1988 100.906 67.5916 100.385C67.6003 100.374 67.6086 100.362 67.6166 100.351C67.8069 100.056 68.1521 99.7289 68.4631 99.5847C68.6186 99.5125 68.7435 99.4722 68.8613 99.4755Z" fill="#6D56FA"/>
<path d="M215.536 67.2903C215.46 67.275 215.382 67.2748 215.306 67.2897C215.23 67.3047 215.158 67.3345 215.093 67.3773C214.963 67.4639 214.873 67.5987 214.842 67.7519C214.811 67.9051 214.842 68.0643 214.929 68.1945C215.228 68.6446 215.263 69.1238 215.161 69.7025C215.058 70.2813 214.802 70.9181 214.571 71.5327C214.57 71.5327 214.57 71.5327 214.57 71.5327C214.38 72.0389 214.022 72.471 213.607 72.8318C213.524 72.1805 213.311 71.5447 212.909 71.0039C212.603 70.5349 212.156 70.0856 211.581 69.819C211.001 69.5499 210.206 69.5192 209.593 70.0115C209.587 70.0161 209.582 70.0207 209.577 70.0254C208.736 70.7531 208.607 71.8903 208.925 72.8109C209.241 73.7272 209.996 74.5309 211.037 74.7095C211.391 74.7876 211.732 74.7503 212.074 74.7236C212.065 74.7369 212.07 74.7553 212.062 74.7682C212.054 74.7801 212.046 74.7924 212.039 74.8049C211.72 75.368 211.184 75.9298 210.601 76.2509C210.018 76.572 209.431 76.6672 208.842 76.4185C208.698 76.3576 208.536 76.3565 208.391 76.4152C208.246 76.474 208.13 76.5879 208.07 76.7318C208.039 76.8032 208.024 76.8798 208.023 76.9572C208.023 77.0347 208.038 77.1115 208.067 77.1833C208.096 77.255 208.139 77.3203 208.193 77.3754C208.248 77.4305 208.313 77.4743 208.384 77.5044C209.349 77.9118 210.359 77.7318 211.171 77.2846C211.974 76.842 212.623 76.1508 213.049 75.4077C213.275 75.0657 213.438 74.6951 213.54 74.3109C214.503 73.8058 215.294 72.9624 215.674 71.9465C215.896 71.3575 216.188 70.6612 216.321 69.9064C216.455 69.1512 216.413 68.296 215.911 67.541C215.868 67.4764 215.813 67.421 215.749 67.3779C215.684 67.3348 215.612 67.3048 215.536 67.2896L215.536 67.2903ZM210.686 70.7808C210.804 70.7752 210.929 70.8187 211.085 70.8907C211.396 71.035 211.741 71.361 211.931 71.6556C211.939 71.6674 211.947 71.6789 211.955 71.6902C212.348 72.2109 212.453 72.8636 212.404 73.5116C212.035 73.6104 211.655 73.6463 211.276 73.5605C211.265 73.558 211.253 73.5558 211.241 73.5539C210.706 73.4652 210.236 72.9965 210.039 72.4266C209.843 71.8599 209.917 71.3013 210.344 70.9262C210.465 70.8317 210.573 70.7839 210.686 70.7808Z" fill="#6D56FA"/>
<path d="M9.85121 51.0881C9.77376 51.0881 9.69706 51.1034 9.6255 51.133C9.55394 51.1626 9.48892 51.2061 9.43415 51.2609C9.37939 51.3156 9.33595 51.3805 9.30632 51.4521C9.27669 51.5237 9.26146 51.6004 9.26147 51.6779C9.26146 51.7553 9.27669 51.8319 9.30632 51.9035C9.33595 51.9751 9.37939 52.0401 9.43415 52.0949C9.48892 52.1496 9.55394 52.1931 9.6255 52.2227C9.69706 52.2523 9.77376 52.2676 9.85121 52.2676H57.4214C57.4989 52.2676 57.5756 52.2523 57.6472 52.2227C57.7187 52.1931 57.7837 52.1496 57.8385 52.0949C57.8933 52.0401 57.9367 51.9751 57.9663 51.9035C57.996 51.8319 58.0112 51.7553 58.0112 51.6779C58.0112 51.6004 57.996 51.5237 57.9663 51.4521C57.9367 51.3805 57.8933 51.3156 57.8385 51.2609C57.7837 51.2061 57.7187 51.1626 57.6472 51.133C57.5756 51.1034 57.4989 51.0881 57.4214 51.0881H9.85121Z" fill="#6D56FA"/>
<path fill-rule="evenodd" clip-rule="evenodd" d="M13.1261 48.6836C13.1261 48.8001 13.1031 48.9154 13.0586 49.023C13.014 49.1306 12.9487 49.2283 12.8664 49.3106C12.784 49.393 12.6863 49.4583 12.5787 49.5028C12.4711 49.5474 12.3558 49.5704 12.2394 49.5704C12.1229 49.5704 12.0076 49.5474 11.9 49.5028C11.7925 49.4583 11.6947 49.393 11.6124 49.3106C11.53 49.2283 11.4647 49.1306 11.4202 49.023C11.3756 48.9154 11.3527 48.8001 11.3527 48.6836C11.3527 48.5672 11.3756 48.4519 11.4202 48.3443C11.4647 48.2367 11.53 48.139 11.6124 48.0567C11.6947 47.9743 11.7925 47.909 11.9 47.8645C12.0076 47.8199 12.1229 47.7969 12.2394 47.7969C12.3558 47.7969 12.4711 47.8199 12.5787 47.8645C12.6863 47.909 12.784 47.9743 12.8664 48.0567C12.9487 48.139 13.014 48.2367 13.0586 48.3443C13.1031 48.4519 13.1261 48.5672 13.1261 48.6836Z" fill="#6D56FA"/>
<path fill-rule="evenodd" clip-rule="evenodd" d="M16.2982 48.6836C16.2982 48.8001 16.2753 48.9154 16.2307 49.023C16.1861 49.1306 16.1208 49.2283 16.0385 49.3106C15.9561 49.393 15.8584 49.4583 15.7508 49.5028C15.6432 49.5474 15.5279 49.5704 15.4115 49.5704C15.295 49.5704 15.1797 49.5474 15.0722 49.5028C14.9646 49.4583 14.8668 49.393 14.7845 49.3106C14.7021 49.2283 14.6368 49.1306 14.5923 49.023C14.5477 48.9154 14.5248 48.8001 14.5248 48.6836C14.5248 48.5672 14.5477 48.4519 14.5923 48.3443C14.6368 48.2367 14.7021 48.139 14.7845 48.0567C14.8668 47.9743 14.9646 47.909 15.0722 47.8645C15.1797 47.8199 15.295 47.7969 15.4115 47.7969C15.5279 47.7969 15.6432 47.8199 15.7508 47.8645C15.8584 47.909 15.9561 47.9743 16.0385 48.0567C16.1208 48.139 16.1861 48.2367 16.2307 48.3443C16.2753 48.4519 16.2982 48.5672 16.2982 48.6836Z" fill="#6D56FA"/>
<path fill-rule="evenodd" clip-rule="evenodd" d="M19.4703 48.6836C19.4703 48.8001 19.4474 48.9154 19.4028 49.023C19.3583 49.1306 19.2929 49.2283 19.2106 49.3106C19.1283 49.393 19.0305 49.4583 18.9229 49.5028C18.8153 49.5474 18.7001 49.5704 18.5836 49.5704C18.4672 49.5704 18.3518 49.5474 18.2443 49.5028C18.1367 49.4583 18.0389 49.393 17.9566 49.3106C17.8743 49.2283 17.809 49.1306 17.7644 49.023C17.7198 48.9154 17.6969 48.8001 17.6969 48.6836C17.6969 48.5672 17.7198 48.4519 17.7644 48.3443C17.809 48.2367 17.8743 48.139 17.9566 48.0567C18.0389 47.9743 18.1367 47.909 18.2443 47.8645C18.3518 47.8199 18.4672 47.7969 18.5836 47.7969C18.7001 47.7969 18.8153 47.8199 18.9229 47.8645C19.0305 47.909 19.1283 47.9743 19.2106 48.0567C19.2929 48.139 19.3583 48.2367 19.4028 48.3443C19.4474 48.4519 19.4703 48.5672 19.4703 48.6836Z" fill="#6D56FA"/>
<path fill-rule="evenodd" clip-rule="evenodd" d="M176.378 11.9536V12.5433V54.7037H226.553V11.9536H176.378ZM177.557 13.1331H225.374V53.5253H177.557V13.1331Z" fill="#6D56FA"/>
<path d="M200.995 25.9851C200.918 25.9851 200.841 26.0004 200.769 26.03C200.698 26.0596 200.633 26.1031 200.578 26.1578C200.523 26.2126 200.48 26.2776 200.45 26.3492C200.42 26.4208 200.405 26.4974 200.405 26.5748C200.405 26.6523 200.42 26.7291 200.45 26.8006C200.48 26.8722 200.523 26.9371 200.578 26.9918C200.633 27.0466 200.698 27.0901 200.769 27.1197C200.841 27.1493 200.918 27.1646 200.995 27.1646H220.057C220.134 27.1646 220.211 27.1493 220.283 27.1197C220.354 27.0901 220.419 27.0466 220.474 26.9918C220.529 26.9371 220.572 26.8722 220.602 26.8006C220.631 26.7291 220.647 26.6523 220.647 26.5748C220.647 26.4974 220.631 26.4208 220.602 26.3492C220.572 26.2776 220.529 26.2126 220.474 26.1578C220.419 26.1031 220.354 26.0596 220.283 26.03C220.211 26.0004 220.134 25.9851 220.057 25.9851H200.995Z" fill="#6D56FA"/>
<path d="M200.995 32.3959C200.918 32.3959 200.841 32.4111 200.769 32.4408C200.698 32.4704 200.633 32.5138 200.578 32.5686C200.523 32.6234 200.48 32.6884 200.45 32.76C200.42 32.8315 200.405 32.9082 200.405 32.9856C200.405 33.0631 200.42 33.1398 200.45 33.2114C200.48 33.2829 200.523 33.3478 200.578 33.4026C200.633 33.4574 200.698 33.5008 200.769 33.5305C200.841 33.5601 200.918 33.5754 200.995 33.5753H220.057C220.134 33.5754 220.211 33.5601 220.283 33.5305C220.354 33.5008 220.419 33.4574 220.474 33.4026C220.529 33.3478 220.572 33.2829 220.602 33.2114C220.631 33.1398 220.647 33.0631 220.647 32.9856C220.647 32.9082 220.631 32.8315 220.602 32.76C220.572 32.6884 220.529 32.6234 220.474 32.5686C220.419 32.5138 220.354 32.4704 220.283 32.4408C220.211 32.4111 220.134 32.3959 220.057 32.3959H200.995Z" fill="#6D56FA"/>
<path d="M200.995 38.7745C200.918 38.7745 200.841 38.7898 200.769 38.8194C200.698 38.849 200.633 38.8925 200.578 38.9473C200.523 39.002 200.48 39.0669 200.45 39.1385C200.42 39.2101 200.405 39.2868 200.405 39.3643C200.405 39.4417 200.42 39.5183 200.45 39.5899C200.48 39.6615 200.523 39.7265 200.578 39.7813C200.633 39.836 200.698 39.8795 200.769 39.9091C200.841 39.9387 200.918 39.954 200.995 39.954H220.057C220.134 39.954 220.211 39.9387 220.283 39.9091C220.354 39.8795 220.419 39.836 220.474 39.7813C220.529 39.7265 220.572 39.6615 220.602 39.5899C220.631 39.5183 220.647 39.4417 220.647 39.3643C220.647 39.2868 220.631 39.2101 220.602 39.1385C220.572 39.0669 220.529 39.002 220.474 38.9473C220.419 38.8925 220.354 38.849 220.283 38.8194C220.211 38.7898 220.134 38.7745 220.057 38.7745H200.995Z" fill="#6D56FA"/>
<path d="M200.953 45.11C200.875 45.11 200.798 45.1252 200.727 45.1549C200.655 45.1845 200.59 45.2279 200.535 45.2827C200.481 45.3375 200.437 45.4025 200.408 45.4741C200.378 45.5456 200.363 45.6223 200.363 45.6997C200.363 45.7772 200.378 45.8539 200.408 45.9255C200.437 45.997 200.481 46.0621 200.535 46.1169C200.59 46.1716 200.655 46.2149 200.727 46.2446C200.798 46.2742 200.875 46.2895 200.953 46.2894H217.375C217.531 46.2892 217.681 46.227 217.791 46.1164C217.901 46.0059 217.963 45.8559 217.963 45.6997C217.963 45.5435 217.901 45.3937 217.791 45.2831C217.681 45.1725 217.531 45.1102 217.375 45.11H200.953Z" fill="#6D56FA"/>
<path d="M177.719 17.7096C177.563 17.7096 177.413 17.7715 177.302 17.8819C177.192 17.9923 177.13 18.142 177.129 18.2982C177.129 18.3757 177.145 18.4525 177.174 18.524C177.204 18.5956 177.247 18.6606 177.302 18.7154C177.357 18.7701 177.422 18.8135 177.493 18.8431C177.565 18.8727 177.642 18.888 177.719 18.888H225.289C225.367 18.888 225.444 18.8727 225.515 18.8431C225.587 18.8135 225.652 18.7701 225.706 18.7154C225.761 18.6606 225.805 18.5956 225.834 18.524C225.864 18.4525 225.879 18.3757 225.879 18.2982C225.879 18.142 225.817 17.9923 225.706 17.8819C225.595 17.7715 225.446 17.7096 225.289 17.7096H177.719Z" fill="#6D56FA"/>
<path fill-rule="evenodd" clip-rule="evenodd" d="M180.994 15.3051C180.994 15.5403 180.901 15.7658 180.735 15.9321C180.568 16.0984 180.343 16.1917 180.108 16.1917C179.872 16.1917 179.647 16.0984 179.481 15.9321C179.314 15.7658 179.221 15.5403 179.221 15.3051C179.221 15.1886 179.244 15.0733 179.288 14.9658C179.333 14.8582 179.398 14.7604 179.481 14.6781C179.563 14.5958 179.661 14.5305 179.768 14.4859C179.876 14.4414 179.991 14.4185 180.108 14.4185C180.224 14.4185 180.339 14.4414 180.447 14.4859C180.555 14.5305 180.652 14.5958 180.735 14.6781C180.817 14.7604 180.882 14.8582 180.927 14.9658C180.971 15.0733 180.994 15.1886 180.994 15.3051Z" fill="#6D56FA"/>
<path fill-rule="evenodd" clip-rule="evenodd" d="M184.166 15.3051C184.166 15.5403 184.073 15.7658 183.907 15.9321C183.74 16.0984 183.515 16.1917 183.28 16.1917C183.045 16.1917 182.819 16.0984 182.653 15.9321C182.486 15.7658 182.393 15.5403 182.393 15.3051C182.393 15.1886 182.416 15.0733 182.461 14.9658C182.505 14.8582 182.57 14.7604 182.653 14.6781C182.735 14.5958 182.833 14.5305 182.94 14.4859C183.048 14.4414 183.163 14.4185 183.28 14.4185C183.396 14.4185 183.512 14.4414 183.619 14.4859C183.727 14.5305 183.824 14.5958 183.907 14.6781C183.989 14.7604 184.054 14.8582 184.099 14.9658C184.144 15.0733 184.166 15.1886 184.166 15.3051Z" fill="#6D56FA"/>
<path fill-rule="evenodd" clip-rule="evenodd" d="M187.339 15.3051C187.339 15.5403 187.245 15.7658 187.079 15.9321C186.913 16.0984 186.687 16.1917 186.452 16.1917C186.217 16.1917 185.991 16.0984 185.825 15.9321C185.659 15.7658 185.565 15.5403 185.565 15.3051C185.565 15.1886 185.588 15.0733 185.633 14.9658C185.677 14.8582 185.743 14.7604 185.825 14.6781C185.907 14.5958 186.005 14.5305 186.113 14.4859C186.22 14.4414 186.335 14.4185 186.452 14.4185C186.568 14.4185 186.684 14.4414 186.791 14.4859C186.899 14.5305 186.997 14.5958 187.079 14.6781C187.161 14.7604 187.227 14.8582 187.271 14.9658C187.316 15.0733 187.339 15.1886 187.339 15.3051Z" fill="#6D56FA"/>
<path fill-rule="evenodd" clip-rule="evenodd" d="M188.556 27.3615C184.238 27.3615 180.724 30.8751 180.724 35.1933C180.724 39.5115 184.238 43.0252 188.556 43.0252C192.874 43.0252 196.387 39.5115 196.387 35.1933C196.387 30.8751 192.874 27.3615 188.556 27.3615ZM188.556 28.5409C192.237 28.5409 195.209 31.5124 195.209 35.1933C195.209 38.8743 192.237 41.8458 188.556 41.8458C184.875 41.8458 181.904 38.8743 181.904 35.1933C181.904 31.5124 184.875 28.5409 188.556 28.5409Z" fill="#6D56FA"/>
<path d="M9.29407 33.5746C9.21984 33.5967 9.15068 33.6331 9.09054 33.6819C9.0304 33.7307 8.98046 33.7909 8.94358 33.859C8.9067 33.9271 8.8836 34.0017 8.87559 34.0788C8.86759 34.1558 8.87484 34.2337 8.89693 34.308L10.6977 40.3924C10.7197 40.4667 10.7562 40.5359 10.805 40.596C10.8538 40.6562 10.914 40.706 10.9821 40.7429C11.0502 40.7798 11.1249 40.8029 11.2019 40.8109C11.2789 40.8189 11.3568 40.8117 11.431 40.7896C11.5809 40.7452 11.7071 40.6432 11.7817 40.5058C11.8564 40.3685 11.8735 40.2072 11.8293 40.0573L10.0274 33.9728C10.0055 33.8985 9.96911 33.8292 9.92036 33.7689C9.87161 33.7087 9.81146 33.6586 9.74334 33.6217C9.67523 33.5847 9.60047 33.5615 9.52338 33.5534C9.44629 33.5453 9.36838 33.5525 9.29407 33.5746Z" fill="#6D56FA"/>
<path d="M2.40327 38.1531C2.32582 38.1552 2.24955 38.1725 2.17879 38.204C2.10803 38.2356 2.04418 38.2808 1.99089 38.337C1.88327 38.4504 1.8251 38.6019 1.82918 38.7582C1.83327 38.9145 1.89927 39.0628 2.01267 39.1705L5.79261 42.76C5.90602 42.8676 6.05755 42.9258 6.21385 42.9217C6.37015 42.9177 6.51842 42.8516 6.62607 42.7383C6.7337 42.6248 6.79187 42.4733 6.78779 42.317C6.7837 42.1607 6.7177 42.0124 6.60429 41.9048L2.82435 38.3153C2.71104 38.2075 2.55958 38.1492 2.40327 38.1531Z" fill="#6D56FA"/>
<path d="M4.95272 47.5715L0.452475 48.653C0.300397 48.6894 0.168999 48.7846 0.0871739 48.9178C0.00534886 49.0511 -0.0201967 49.2114 0.0161606 49.3635C0.0341596 49.4389 0.0668461 49.5101 0.112369 49.5728C0.157893 49.6356 0.215363 49.6887 0.281462 49.7292C0.34756 49.7698 0.420996 49.7968 0.497579 49.8089C0.574162 49.821 0.652379 49.818 0.727756 49.7998L5.228 48.7183C5.37987 48.6817 5.51101 48.5863 5.59262 48.4531C5.67422 48.3198 5.69961 48.1597 5.66322 48.0078C5.62686 47.8557 5.53157 47.7243 5.39833 47.6425C5.26508 47.5606 5.10479 47.5351 4.95272 47.5715Z" fill="#6D56FA"/>
</svg>
