<svg width="194" height="183" viewBox="0 0 194 183" fill="none" xmlns="http://www.w3.org/2000/svg">
<path d="M77.7719 59.2007C78.6387 67.8666 80.6513 75.6919 84.8132 81.9403C77.6682 86.0663 71.52 83.0079 69.3838 67.854C61.3434 69.1865 56.4902 54.8268 65.8135 45.6811C59.6874 26.1193 75.5829 16.5088 82.5444 22.168C85.8353 10.2767 97.3621 10.0621 101.662 15.0799C107.986 7.69341 121.764 5.54537 122.18 18.9657C128.969 16.6607 140.421 19.2892 134.419 36.9379C144.486 42.566 141.456 54.9295 133.298 59.0658C138.445 73.3033 131.753 75.2843 122.686 74.8072L122.379 67.0085C123.973 64.556 124.378 64.2365 124.882 61.7901C126.005 56.3297 124.335 51.4244 122.365 51.3747C116.894 51.237 119.981 63.2778 120.092 64.211C120.203 65.1442 119.401 64.9922 119.125 64.8316C118.849 64.6711 116.332 60.442 116.332 60.442C105.396 65.202 95.1934 61.4172 85.2651 54.4333C83.6851 56.8544 83.8742 60.879 77.7719 59.2007Z" fill="#6D56FA"/>
<path d="M77.843 58.9344C77.6954 58.9538 77.5616 59.0308 77.4711 59.1484C77.3805 59.266 77.3406 59.4146 77.3601 59.5615C78.5718 68.711 80.8324 76.2632 84.3833 81.8619C92.0229 93.907 104.02 97.4978 112.528 93.4734C120.013 89.9321 124.05 78.9117 123.41 67.472C123.406 67.3987 123.387 67.3269 123.355 67.2607C123.323 67.1946 123.278 67.1354 123.223 67.0865C123.168 67.0376 123.104 66.9999 123.034 66.9757C122.965 66.9515 122.891 66.9412 122.817 66.9453C122.669 66.9536 122.53 67.0203 122.43 67.1306C122.331 67.2409 122.28 67.3859 122.288 67.5337C122.911 78.669 118.842 89.2498 112.046 92.4649C104.144 96.2031 92.7447 92.9512 85.3335 81.2663C81.9115 75.871 79.6718 68.4645 78.4732 59.415C78.4537 59.2681 78.3763 59.135 78.2581 59.0448C78.1399 58.9547 77.9906 58.915 77.843 58.9344Z" fill="#6D56FA"/>
<path d="M82.1752 64.0107C81.6938 64.0494 81.2111 64.1414 80.7311 64.2903C80.589 64.3345 80.4704 64.4331 80.4012 64.5643C80.3321 64.6955 80.3182 64.8487 80.3625 64.9901C80.4069 65.1315 80.5059 65.2496 80.6378 65.3184C80.7696 65.3872 80.9235 65.401 81.0657 65.3569C82.6718 64.8584 84.2909 65.1128 85.7994 65.9465C87.3078 66.7802 88.687 68.204 89.7046 70.0022C91.7396 73.5987 92.3262 78.6547 89.8506 83.4019C89.7821 83.5334 89.7689 83.6865 89.8138 83.8277C89.8587 83.9689 89.9581 84.0866 90.0902 84.1549C90.2224 84.223 90.3763 84.2362 90.5182 84.1915C90.6601 84.1468 90.7783 84.0478 90.8469 83.9164C93.506 78.8174 92.8934 73.3608 90.6827 69.4538C89.5773 67.5003 88.0712 65.9239 86.3444 64.9695C85.0493 64.2537 83.6192 63.8944 82.1752 64.0107Z" fill="#6D56FA"/>
<path d="M103.368 59.6523L93.9906 63.3C93.9219 63.3267 93.8591 63.3666 93.8059 63.4174C93.7527 63.4683 93.7101 63.529 93.6805 63.5963C93.6509 63.6635 93.6349 63.7359 93.6334 63.8093C93.6319 63.8826 93.645 63.9556 93.6719 64.024C93.6987 64.0923 93.7388 64.1548 93.7899 64.2077C93.8409 64.2607 93.902 64.3031 93.9696 64.3325C94.0371 64.362 94.1099 64.3779 94.1836 64.3794C94.2574 64.3808 94.3307 64.3679 94.3994 64.3412L103.777 60.6934C103.845 60.6667 103.908 60.6268 103.961 60.576C104.015 60.5252 104.057 60.4644 104.087 60.3972C104.116 60.3299 104.132 60.2575 104.134 60.1842C104.135 60.1108 104.122 60.0378 104.095 59.9694C104.069 59.9011 104.029 59.8386 103.977 59.7857C103.926 59.7327 103.865 59.6903 103.798 59.6609C103.73 59.6314 103.657 59.6155 103.584 59.614C103.51 59.6125 103.437 59.6255 103.368 59.6523Z" fill="#6D56FA"/>
<path d="M83.7702 69.6076C82.9229 69.6662 82.1399 69.7707 81.5512 69.8558C81.2568 69.8983 81.0098 69.9356 80.8346 69.9599C80.747 69.972 80.6764 69.9813 80.6339 69.9853C80.5913 69.9896 80.5385 69.971 80.6667 69.9938C80.52 69.9679 80.3691 70.0011 80.247 70.086C80.125 70.171 80.0418 70.3006 80.0158 70.4466C79.9898 70.5925 80.0232 70.7427 80.1085 70.8642C80.1939 70.9857 80.3242 71.0684 80.4708 71.0943C80.6403 71.1243 80.6675 71.1049 80.7409 71.098C80.8143 71.0911 80.8953 71.0797 80.9903 71.0665C81.1802 71.0401 81.4241 71.0029 81.7129 70.9612C82.2905 70.8777 83.0451 70.7782 83.848 70.7227C85.4539 70.6115 87.2513 70.7427 88.0768 71.3244C88.9247 71.9218 89.7176 73.6992 90.1791 75.3256C90.571 76.707 90.686 77.5872 90.7375 77.9322C87.9094 79.0025 86.3217 79.0683 83.8383 79.1973C83.7646 79.2011 83.6925 79.2193 83.6259 79.2509C83.5593 79.2825 83.4996 79.3268 83.4503 79.3813C83.4009 79.4359 83.3628 79.4995 83.3382 79.5687C83.3135 79.6379 83.3028 79.7112 83.3066 79.7845C83.3105 79.8578 83.3288 79.9296 83.3605 79.9959C83.3922 80.0621 83.4368 80.1215 83.4916 80.1706C83.5463 80.2198 83.6103 80.2577 83.6798 80.2822C83.7493 80.3067 83.823 80.3174 83.8967 80.3135C86.5047 80.178 88.2978 80.1695 91.6037 78.839C91.7193 78.7923 91.816 78.7087 91.8786 78.6013C91.9412 78.4939 91.966 78.3688 91.9492 78.2457C91.9492 78.2457 91.7454 76.735 91.2594 75.0217C90.7733 73.3084 90.0713 71.3612 88.7253 70.4127C87.4182 69.4918 85.4648 69.4903 83.7702 69.6076Z" fill="#6D56FA"/>
<path d="M83.6326 73.1789C83.4839 73.1812 83.3421 73.2422 83.2385 73.3484C83.1871 73.4011 83.1466 73.4633 83.1194 73.5316C83.0922 73.5998 83.0788 73.6728 83.0799 73.7462C83.081 73.8196 83.0967 73.8921 83.126 73.9595C83.1553 74.0269 83.1976 74.0879 83.2506 74.139C84.8123 75.6458 86.2198 76.1321 87.4721 76.0349C88.7245 75.9376 89.7459 75.3278 90.7021 74.8872C90.837 74.8249 90.9416 74.7119 90.9929 74.573C91.0443 74.4341 91.0381 74.2806 90.9759 74.1462C90.9449 74.0796 90.901 74.0197 90.8468 73.9699C90.7925 73.9202 90.7289 73.8816 90.6597 73.8563C90.5904 73.831 90.5168 73.8195 90.4431 73.8225C90.3694 73.8255 90.297 73.843 90.2301 73.8738C89.209 74.3444 88.3069 74.8495 87.3857 74.9211C86.4646 74.9926 85.4485 74.7023 84.0329 73.3363C83.9798 73.2852 83.9172 73.2449 83.8485 73.2179C83.7798 73.1909 83.7065 73.1777 83.6326 73.1789Z" fill="#6D56FA"/>
<path d="M107.135 67.8218C102.939 67.5078 98.9296 68.6415 94.9785 69.0434C94.9769 69.0438 94.9752 69.0442 94.9735 69.0447L91.0002 69.4853C90.8523 69.5019 90.7171 69.5763 90.6242 69.6921C90.5314 69.8078 90.4885 69.9556 90.5051 70.1028C90.5218 70.25 90.5965 70.3846 90.7128 70.4769C90.8291 70.5693 90.9776 70.612 91.1255 70.5955L94.6268 70.2069C95.7057 73.0497 96.2663 75.6404 99.5369 78.4346C99.5456 78.4421 99.5545 78.4494 99.5637 78.4564C100.093 78.8556 100.863 79.0397 101.869 79.2191C102.875 79.3986 104.084 79.5164 105.312 79.5435C106.54 79.5707 107.782 79.5079 108.861 79.3135C109.939 79.119 110.868 78.8225 111.47 78.1997C112.534 77.0993 112.844 75.3906 112.8 73.6791C112.756 71.9676 112.34 70.2293 111.712 68.9769C111.647 68.8473 111.534 68.7479 111.397 68.6996C109.952 68.1925 108.533 67.9265 107.135 67.8218ZM107.035 68.9441C108.277 69.0324 109.527 69.2873 110.788 69.7056C111.269 70.7574 111.64 72.2538 111.677 73.7069C111.717 75.2521 111.377 76.6842 110.661 77.4248C110.374 77.7225 109.631 78.0394 108.661 78.2142C107.692 78.389 106.509 78.4519 105.338 78.426C104.166 78.4002 103.003 78.2854 102.067 78.1185C101.137 77.9526 100.405 77.6803 100.251 77.5677C97.3097 75.0463 96.7993 72.8291 95.7729 70.0616C99.6038 69.6052 103.299 68.6785 107.035 68.9441Z" fill="#6D56FA"/>
<path d="M118.249 61.7467C118.1 61.7435 117.956 61.7993 117.849 61.9017C117.849 61.9017 116.168 63.511 114.461 65.1838C113.607 66.0201 112.747 66.8725 112.085 67.5506C111.754 67.8897 111.473 68.1846 111.262 68.4175C111.157 68.5339 111.07 68.6338 110.998 68.7226C110.927 68.8113 110.878 68.8379 110.804 69.0313C110.75 69.1697 110.755 69.3234 110.815 69.4587C110.876 69.594 110.988 69.6998 111.127 69.7528C111.266 69.8058 111.421 69.8016 111.557 69.7412C111.693 69.6808 111.799 69.5692 111.852 69.4308C111.802 69.5623 111.827 69.4809 111.875 69.4211C111.924 69.3613 112 69.2724 112.097 69.1657C112.29 68.9521 112.564 68.6626 112.89 68.3291C113.541 67.6622 114.397 66.8138 115.248 65.9804C116.949 64.3137 118.627 62.708 118.627 62.708C118.681 62.6571 118.723 62.5963 118.753 62.5291C118.783 62.4618 118.799 62.3894 118.8 62.316C118.801 62.2426 118.788 62.1696 118.762 62.1012C118.735 62.0328 118.694 61.9703 118.643 61.9174C118.592 61.8646 118.531 61.8223 118.463 61.7931C118.396 61.7638 118.323 61.748 118.249 61.7467Z" fill="#6D56FA"/>
<path d="M109.431 66.7213C109.286 66.7528 109.159 66.8405 109.078 66.9651C108.998 67.0898 108.97 67.2411 109.002 67.3859C109.618 70.2208 108.041 72.0531 106.012 72.7201C103.982 73.3871 101.59 72.8221 100.483 70.507C100.419 70.3733 100.305 70.2705 100.164 70.221C100.024 70.1715 99.8697 70.1794 99.7353 70.2431C99.6686 70.2746 99.6089 70.3188 99.5595 70.3733C99.51 70.4277 99.4718 70.4913 99.4471 70.5605C99.4224 70.6296 99.4115 70.7029 99.4153 70.7762C99.419 70.8495 99.4372 70.9214 99.4688 70.9877C100.82 73.814 103.885 74.5964 106.363 73.7819C108.842 72.9674 110.825 70.4888 110.099 67.1499C110.084 67.0781 110.054 67.01 110.012 66.9496C109.97 66.8892 109.917 66.8376 109.855 66.7978C109.793 66.758 109.723 66.7307 109.651 66.7176C109.578 66.7045 109.503 66.7057 109.431 66.7213Z" fill="#6D56FA"/>
<path d="M108.547 82.7263C108.475 82.7118 108.4 82.7115 108.328 82.7256C108.255 82.7397 108.187 82.7678 108.125 82.8084C108.064 82.849 108.011 82.9012 107.97 82.9621C107.928 83.023 107.9 83.0914 107.885 83.1634C107.227 86.3874 105.299 87.8002 102.503 88.4915C102.358 88.5271 102.234 88.6185 102.157 88.7454C102.08 88.8723 102.057 89.0244 102.093 89.1683C102.129 89.3121 102.221 89.4359 102.348 89.5124C102.476 89.5889 102.629 89.6119 102.773 89.5762C105.824 88.8218 108.25 86.9865 108.985 83.3849C109.014 83.2398 108.985 83.0889 108.903 82.9654C108.821 82.8419 108.693 82.7559 108.547 82.7263Z" fill="#6D56FA"/>
<path d="M124.967 78.4853C124.894 78.4921 124.822 78.5133 124.757 78.5475C124.691 78.5818 124.634 78.6286 124.587 78.6851C124.539 78.7417 124.504 78.8069 124.482 78.8771C124.46 78.9474 124.453 79.0212 124.46 79.0943C124.496 79.4811 124.662 79.7412 124.87 80.0907C125.077 80.4401 125.344 80.8264 125.631 81.2081C126.206 81.9716 126.812 82.6869 127.305 83.0568C127.508 83.2089 127.602 83.2142 127.791 83.2796C127.979 83.3449 128.218 83.4191 128.509 83.506C129.09 83.6796 129.876 83.9014 130.816 84.1718C132.696 84.7126 135.189 85.4473 137.838 86.3607C143.137 88.1876 149.065 90.7791 151.852 93.7918C152.908 94.9327 154.414 97.5996 155.98 101.035C157.546 104.471 159.204 108.695 160.711 113.057C163.726 121.781 166.125 131.13 166.048 135.671C166.038 136.267 165.738 136.715 165.048 137.157C164.359 137.598 163.295 137.962 161.993 138.218C159.391 138.731 155.848 138.838 152.307 138.741C145.654 138.56 139.456 137.726 138.672 137.619C138.759 136.717 139.823 125.799 140.875 120.124C141.785 115.211 144.499 105.426 144.499 105.426C144.519 105.355 144.524 105.282 144.515 105.209C144.506 105.136 144.483 105.065 144.446 105.002C144.41 104.938 144.361 104.882 144.303 104.837C144.245 104.791 144.179 104.758 144.107 104.739C143.964 104.699 143.811 104.718 143.682 104.792C143.552 104.865 143.457 104.986 143.418 105.128C143.418 105.128 140.704 114.88 139.77 119.92C138.651 125.959 137.497 138.056 137.497 138.056C137.483 138.199 137.525 138.343 137.615 138.456C137.705 138.569 137.835 138.643 137.978 138.663C137.978 138.663 145.11 139.663 152.277 139.859C155.86 139.957 159.45 139.858 162.211 139.314C163.592 139.042 164.769 138.664 165.655 138.096C166.542 137.528 167.154 136.698 167.171 135.69C167.255 130.746 164.808 121.475 161.773 112.694C160.256 108.303 158.588 104.053 157.003 100.574C155.418 97.095 153.949 94.4071 152.678 93.0339C149.581 89.687 143.564 87.1514 138.206 85.3038C135.527 84.38 133.014 83.6405 131.128 83.098C130.185 82.8267 129.397 82.605 128.831 82.4357C128.548 82.3511 128.319 82.279 128.161 82.2239C128.002 82.1688 127.869 82.0799 127.981 82.1634C127.742 81.9846 127.068 81.2531 126.53 80.5387C126.261 80.1815 126.013 79.8199 125.837 79.5229C125.661 79.2259 125.574 78.9408 125.579 78.9902C125.572 78.9171 125.551 78.846 125.517 78.781C125.482 78.716 125.435 78.6584 125.378 78.6115C125.321 78.5646 125.256 78.5294 125.185 78.5077C125.115 78.4861 125.041 78.4784 124.967 78.4853Z" fill="#6D56FA"/>
<path d="M88.9028 87.1561C86.9184 87.7579 84.7009 90.1265 82.2226 93.3644C79.7443 96.6022 77.0999 100.733 74.7042 104.89C72.3085 109.046 70.163 113.224 68.6907 116.555C67.9545 118.22 67.3867 119.672 67.0374 120.82C66.8627 121.394 66.7419 121.891 66.6846 122.317C66.6272 122.744 66.6043 123.098 66.7721 123.463C67.0874 124.148 67.7572 124.618 68.6238 125.05C69.4904 125.481 70.5847 125.859 71.8367 126.202C74.3408 126.89 77.4744 127.436 80.5511 127.863C86.7043 128.719 92.628 129.095 92.628 129.095C92.7766 129.104 92.9228 129.054 93.0346 128.957C93.1464 128.859 93.2145 128.721 93.2241 128.573C93.2336 128.425 93.1837 128.279 93.0853 128.168C92.987 128.057 92.8483 127.989 92.6998 127.98C92.6998 127.98 86.8069 127.603 80.7068 126.756C77.6567 126.332 74.5536 125.789 72.1348 125.125C70.9254 124.793 69.8867 124.428 69.1262 124.05C68.3657 123.671 67.9148 123.263 67.7929 122.998C67.7997 123.013 67.753 122.798 67.7978 122.466C67.8425 122.134 67.9493 121.682 68.1129 121.144C68.4403 120.069 68.9939 118.645 69.7188 117.005C71.1686 113.725 73.3008 109.572 75.6788 105.447C78.0568 101.321 80.6834 97.2189 83.1157 94.0411C85.5481 90.8633 87.8816 88.6341 89.2302 88.2251C89.3726 88.1819 89.492 88.0841 89.5621 87.9534C89.6321 87.8226 89.6471 87.6695 89.6037 87.5278C89.5603 87.386 89.4621 87.2672 89.3306 87.1975C89.1992 87.1278 89.0453 87.1129 88.9028 87.1561Z" fill="#6D56FA"/>
<path d="M89.4272 101.868C89.3538 101.875 89.2825 101.897 89.2174 101.931C89.1522 101.966 89.0946 102.012 89.0477 102.069C89.0008 102.126 88.9656 102.191 88.9441 102.261C88.9226 102.331 88.9152 102.405 88.9223 102.478C88.9331 102.589 88.9575 102.739 89.0038 103.055C89.0502 103.37 89.115 103.811 89.1972 104.358C89.3617 105.453 89.5926 106.974 89.8676 108.78C90.4176 112.391 91.1446 117.137 91.8688 121.86C93.3173 131.305 94.757 140.657 94.757 140.657C94.7681 140.729 94.7934 140.799 94.8316 140.862C94.8697 140.924 94.92 140.979 94.9794 141.023C95.0388 141.066 95.1063 141.098 95.1779 141.115C95.2496 141.133 95.324 141.136 95.3969 141.125C95.544 141.103 95.6761 141.023 95.7641 140.903C95.8522 140.784 95.889 140.635 95.8665 140.488C95.8665 140.488 94.428 131.135 92.9796 121.69C92.2553 116.968 91.5282 112.223 90.9783 108.613C90.7034 106.807 90.4722 105.285 90.308 104.193C90.2258 103.646 90.1605 103.207 90.1145 102.894C90.0686 102.58 90.0385 102.352 90.0403 102.371C90.0332 102.297 90.0117 102.227 89.9771 102.162C89.9424 102.097 89.8953 102.04 89.8383 101.993C89.7814 101.946 89.7158 101.911 89.6452 101.89C89.5747 101.868 89.5006 101.861 89.4272 101.868Z" fill="#6D56FA"/>
<path d="M142.253 138.36C142.105 138.352 141.959 138.403 141.849 138.502C141.738 138.601 141.671 138.74 141.663 138.888C141.651 139.114 141.64 139.818 141.624 140.831C141.609 141.844 141.593 143.129 141.577 144.393C141.545 146.921 141.517 149.364 141.517 149.364C141.516 149.437 141.53 149.51 141.558 149.578C141.585 149.646 141.626 149.709 141.677 149.761C141.729 149.814 141.791 149.855 141.858 149.884C141.926 149.913 141.999 149.928 142.073 149.929C142.222 149.93 142.365 149.873 142.472 149.769C142.578 149.665 142.639 149.524 142.64 149.376C142.64 149.376 142.668 146.934 142.7 144.407C142.716 143.144 142.732 141.859 142.747 140.848C142.762 139.837 142.779 139.063 142.785 138.947C142.789 138.874 142.778 138.8 142.753 138.731C142.729 138.662 142.691 138.598 142.641 138.544C142.592 138.489 142.532 138.445 142.466 138.413C142.399 138.382 142.327 138.364 142.253 138.36Z" fill="#6D56FA"/>
<path d="M160.615 138.712C160.467 138.699 160.319 138.744 160.205 138.839C160.09 138.933 160.018 139.07 160.004 139.217C159.823 141.19 158.807 144.575 157.833 147.299C157.345 148.661 156.868 149.868 156.518 150.668C156.348 151.055 156.208 151.341 156.126 151.486C156.051 151.534 155.989 151.6 155.945 151.677C155.901 151.754 155.876 151.84 155.872 151.929C155.873 152.009 155.815 152.136 156.054 152.367C156.174 152.483 156.411 152.547 156.558 152.521C156.704 152.495 156.775 152.439 156.824 152.401C157.021 152.248 157.023 152.179 157.087 152.068C157.215 151.847 157.364 151.532 157.547 151.114C157.913 150.278 158.395 149.056 158.89 147.674C159.879 144.909 160.918 141.542 161.122 139.319C161.136 139.171 161.09 139.025 160.995 138.911C160.899 138.797 160.763 138.726 160.615 138.712ZM156.545 151.476C156.653 151.498 156.768 151.499 156.836 151.565C157.06 151.781 156.994 151.876 156.994 151.902C156.97 151.795 156.914 151.698 156.834 151.622C156.755 151.546 156.654 151.496 156.545 151.476Z" fill="#6D56FA"/>
<path d="M106.66 93.9624C106.518 93.9175 106.364 93.9306 106.232 93.9987C106.099 94.0668 106 94.1844 105.955 94.3256C105.909 94.4668 105.922 94.6201 105.991 94.7518C107.461 97.581 107.613 99.334 107.356 100.78C107.33 100.926 107.363 101.076 107.449 101.197C107.534 101.319 107.664 101.401 107.811 101.427C107.957 101.453 108.108 101.42 108.231 101.335C108.353 101.25 108.436 101.12 108.462 100.975C108.761 99.2894 108.534 97.2121 106.988 94.2384C106.955 94.1732 106.908 94.1152 106.852 94.0679C106.795 94.0205 106.73 93.9847 106.66 93.9624Z" fill="#6D56FA"/>
<path d="M128.051 82.6767C127.903 82.6617 127.755 82.7058 127.639 82.7993C127.524 82.8928 127.451 83.0282 127.435 83.1755C126.598 91.2791 124.91 97.2415 122.821 101.326C120.732 105.41 118.258 107.591 115.867 108.279C113.476 108.966 111.094 108.229 108.976 106.205C106.858 104.181 105.06 100.854 104.054 96.4928C104.038 96.4213 104.007 96.3536 103.964 96.2938C103.922 96.234 103.868 96.1831 103.805 96.1441C103.743 96.105 103.673 96.0787 103.6 96.0664C103.528 96.0542 103.453 96.0563 103.381 96.0727C103.236 96.106 103.111 96.1952 103.032 96.3208C102.953 96.4463 102.927 96.5979 102.96 96.7422C104.003 101.265 105.867 104.784 108.198 107.011C110.528 109.238 113.381 110.157 116.178 109.352C118.976 108.548 121.644 106.09 123.822 101.832C126 97.5733 127.704 91.4902 128.552 83.2905C128.56 83.2175 128.553 83.1436 128.532 83.0732C128.511 83.0028 128.476 82.9372 128.43 82.8802C128.383 82.8232 128.326 82.7759 128.261 82.741C128.196 82.706 128.124 82.6842 128.051 82.6767Z" fill="#6D56FA"/>
<path d="M132.804 83.6863C132.655 83.6846 132.512 83.7417 132.405 83.8453C132.299 83.9488 132.238 84.0902 132.236 84.2384C132.053 100.871 124.063 110.969 116.228 113.064C112.311 114.112 108.441 113.221 105.4 110.141C102.359 107.06 100.154 101.73 99.8423 93.8704C99.8364 93.7224 99.7718 93.5828 99.6625 93.4822C99.5532 93.3817 99.4083 93.3284 99.2596 93.3341C99.1109 93.3399 98.9706 93.4043 98.8695 93.513C98.7685 93.6218 98.7149 93.766 98.7206 93.914C99.0396 101.961 101.294 107.578 104.598 110.924C107.902 114.27 112.263 115.283 116.52 114.144C125.036 111.867 133.172 101.234 133.359 84.2505C133.36 84.1025 133.303 83.96 133.199 83.8543C133.095 83.7485 132.953 83.6881 132.804 83.6863Z" fill="#6D56FA"/>
<path d="M103.328 98.6452L101.317 100.121C101.197 100.209 101.117 100.34 101.095 100.487C101.073 100.633 101.109 100.783 101.198 100.902C101.241 100.961 101.296 101.011 101.36 101.049C101.423 101.087 101.493 101.112 101.566 101.123C101.639 101.134 101.713 101.131 101.785 101.113C101.857 101.096 101.924 101.064 101.984 101.021L103.995 99.546C104.054 99.5024 104.104 99.4475 104.142 99.3846C104.18 99.3217 104.206 99.2519 104.216 99.1793C104.227 99.1066 104.224 99.0326 104.206 98.9613C104.188 98.89 104.156 98.8229 104.113 98.7639C104.024 98.6447 103.892 98.5652 103.745 98.543C103.598 98.5207 103.448 98.5575 103.328 98.6452Z" fill="#6D56FA"/>
<path d="M105.255 102.293C105.106 102.298 104.966 102.362 104.864 102.47L102.794 104.673C102.743 104.727 102.704 104.79 102.678 104.859C102.652 104.927 102.64 105.001 102.642 105.074C102.645 105.147 102.662 105.22 102.692 105.287C102.723 105.353 102.767 105.414 102.821 105.464C102.874 105.514 102.938 105.553 103.007 105.579C103.076 105.605 103.15 105.617 103.223 105.614C103.297 105.612 103.37 105.595 103.437 105.565C103.504 105.534 103.565 105.491 103.615 105.437L105.684 103.232C105.786 103.124 105.84 102.98 105.835 102.832C105.83 102.684 105.766 102.544 105.658 102.443C105.604 102.393 105.54 102.354 105.471 102.328C105.402 102.302 105.329 102.291 105.255 102.293Z" fill="#6D56FA"/>
<path d="M108.026 105.863C107.897 105.791 107.743 105.773 107.6 105.812C107.457 105.852 107.335 105.947 107.262 106.076L105.563 109.08C105.526 109.144 105.503 109.214 105.494 109.287C105.486 109.36 105.491 109.434 105.511 109.505C105.531 109.576 105.565 109.642 105.61 109.699C105.656 109.757 105.712 109.805 105.777 109.841C105.907 109.914 106.06 109.932 106.203 109.892C106.346 109.852 106.468 109.757 106.541 109.628L108.24 106.625C108.277 106.561 108.3 106.49 108.309 106.417C108.317 106.344 108.312 106.271 108.292 106.2C108.272 106.129 108.238 106.063 108.193 106.005C108.147 105.947 108.091 105.899 108.026 105.863Z" fill="#6D56FA"/>
<path d="M111.159 108.425C111.088 108.405 111.014 108.4 110.94 108.409C110.867 108.418 110.796 108.441 110.732 108.477C110.668 108.514 110.612 108.562 110.566 108.62C110.521 108.678 110.487 108.744 110.468 108.815L109.519 112.242C109.48 112.385 109.499 112.537 109.572 112.666C109.646 112.795 109.767 112.889 109.911 112.929C109.982 112.948 110.056 112.954 110.129 112.945C110.202 112.936 110.273 112.912 110.337 112.876C110.402 112.84 110.458 112.792 110.503 112.734C110.549 112.676 110.582 112.61 110.602 112.539L111.551 109.111C111.59 108.969 111.571 108.816 111.497 108.688C111.424 108.559 111.302 108.464 111.159 108.425Z" fill="#6D56FA"/>
<path d="M115.705 108.499C115.631 108.496 115.558 108.507 115.489 108.533C115.419 108.558 115.356 108.597 115.301 108.647C115.247 108.696 115.203 108.756 115.172 108.823C115.142 108.89 115.124 108.962 115.121 109.035C115.113 109.241 115.127 109.565 115.147 110.011C115.167 110.457 115.195 110.994 115.225 111.515C115.283 112.556 115.344 113.527 115.344 113.527C115.353 113.675 115.421 113.813 115.533 113.911C115.644 114.009 115.79 114.059 115.939 114.05C116.087 114.041 116.226 113.973 116.325 113.862C116.423 113.751 116.473 113.606 116.464 113.458C116.464 113.458 116.403 112.489 116.345 111.453C116.316 110.935 116.288 110.4 116.268 109.961C116.249 109.523 116.241 109.153 116.244 109.08C116.247 109.007 116.236 108.933 116.21 108.864C116.185 108.795 116.146 108.732 116.096 108.678C116.046 108.624 115.985 108.581 115.918 108.55C115.851 108.519 115.779 108.502 115.705 108.499Z" fill="#6D56FA"/>
<path d="M120.165 106.069C120.017 106.054 119.869 106.097 119.753 106.191C119.638 106.284 119.564 106.419 119.548 106.567C119.522 106.821 119.57 106.89 119.609 107.044C119.648 107.198 119.702 107.377 119.766 107.578C119.895 107.979 120.067 108.465 120.239 108.938C120.585 109.885 120.935 110.781 120.935 110.781C120.989 110.919 121.096 111.03 121.232 111.089C121.369 111.148 121.523 111.152 121.662 111.098C121.8 111.044 121.912 110.938 121.972 110.803C122.032 110.667 122.035 110.513 121.982 110.375C121.982 110.375 121.636 109.489 121.295 108.557C121.125 108.091 120.956 107.613 120.836 107.237C120.775 107.049 120.727 106.886 120.698 106.77C120.669 106.654 120.681 106.525 120.665 106.682C120.68 106.534 120.636 106.387 120.542 106.272C120.449 106.158 120.313 106.085 120.165 106.069Z" fill="#6D56FA"/>
<path d="M122.8 101.958C122.748 102.009 122.706 102.07 122.677 102.138C122.648 102.205 122.633 102.278 122.632 102.351C122.631 102.425 122.645 102.498 122.673 102.566C122.7 102.634 122.741 102.696 122.793 102.748L125.997 105.99C126.049 106.043 126.111 106.084 126.179 106.113C126.246 106.142 126.319 106.157 126.393 106.158C126.467 106.158 126.54 106.145 126.609 106.117C126.677 106.09 126.739 106.049 126.792 105.998C126.844 105.946 126.886 105.885 126.915 105.817C126.944 105.75 126.959 105.677 126.96 105.604C126.961 105.53 126.947 105.458 126.919 105.389C126.892 105.321 126.851 105.259 126.799 105.207L123.595 101.965C123.543 101.912 123.481 101.871 123.414 101.842C123.346 101.813 123.273 101.798 123.199 101.797C123.125 101.797 123.052 101.81 122.984 101.838C122.915 101.865 122.853 101.906 122.8 101.958Z" fill="#6D56FA"/>
<path d="M125.628 97.1913C125.499 97.1168 125.346 97.0963 125.202 97.1342C125.058 97.1721 124.935 97.2654 124.86 97.3935C124.785 97.5216 124.765 97.6741 124.803 97.8173C124.841 97.9606 124.934 98.0829 125.063 98.1574L129.37 100.654C129.499 100.728 129.652 100.749 129.796 100.711C129.94 100.673 130.063 100.58 130.137 100.452C130.212 100.323 130.233 100.171 130.195 100.028C130.157 99.8845 130.063 99.7622 129.934 99.6877L125.628 97.1913Z" fill="#6D56FA"/>
<path d="M127.23 92.2638C127.16 92.2408 127.086 92.2318 127.012 92.2373C126.939 92.2427 126.867 92.2625 126.801 92.2956C126.735 92.3286 126.677 92.3742 126.628 92.4299C126.58 92.4855 126.544 92.55 126.521 92.6198C126.474 92.7604 126.485 92.9137 126.552 93.0461C126.619 93.1784 126.736 93.279 126.877 93.3256L131.035 94.6924C131.177 94.7389 131.331 94.7276 131.464 94.6611C131.597 94.5946 131.698 94.4783 131.745 94.3377C131.768 94.268 131.777 94.1944 131.772 94.1211C131.767 94.0478 131.747 93.9763 131.714 93.9106C131.681 93.845 131.635 93.7864 131.579 93.7384C131.523 93.6903 131.458 93.6537 131.388 93.6307L127.23 92.2638Z" fill="#6D56FA"/>
<path d="M127.652 86.8631C127.579 86.8522 127.505 86.8557 127.433 86.8735C127.362 86.8912 127.294 86.9227 127.235 86.9663C127.176 87.01 127.125 87.0648 127.087 87.1277C127.049 87.1905 127.024 87.2603 127.013 87.3329C127.002 87.4054 127.006 87.4794 127.024 87.5507C127.041 87.6219 127.073 87.6889 127.117 87.748C127.161 87.807 127.216 87.8568 127.279 87.8946C127.342 87.9325 127.412 87.9576 127.485 87.9685C127.452 87.9635 127.583 87.9889 127.73 88.0254C127.877 88.0618 128.074 88.1126 128.3 88.1719C128.754 88.2903 129.33 88.4444 129.897 88.5968C131.029 88.9017 132.12 89.1997 132.12 89.1997C132.264 89.2389 132.417 89.2198 132.546 89.1467C132.676 89.0737 132.771 88.9525 132.81 88.8099C132.83 88.7391 132.835 88.6652 132.826 88.5924C132.817 88.5195 132.794 88.4491 132.758 88.3853C132.721 88.3214 132.673 88.2653 132.614 88.2202C132.556 88.1751 132.49 88.1418 132.419 88.1222C132.419 88.1222 131.325 87.8238 130.19 87.5181C129.622 87.3653 129.044 87.2105 128.585 87.0907C128.356 87.0309 128.156 86.9791 128.001 86.9406C127.846 86.9022 127.768 86.8805 127.652 86.8631Z" fill="#6D56FA"/>
<path d="M95.7211 116.152L96.5136 127.518C107.678 135.375 120.381 134.76 132.907 135.125L132.542 122.627C119.815 123.802 107.688 120.563 95.7211 116.152Z" fill="#6D56FA"/>
<path d="M71.3417 125.131C71.2728 125.125 71.2201 125.133 71.1787 125.142C71.0132 125.176 70.9825 125.219 70.9427 125.247C70.863 125.304 70.8224 125.346 70.7699 125.401C70.6649 125.51 70.5448 125.655 70.4037 125.848C70.1216 126.233 69.7661 126.8 69.428 127.526C68.7519 128.977 68.1471 131.071 68.4146 133.553C68.517 134.503 69.0911 135.934 69.8891 137.735C70.6872 139.536 71.716 141.642 72.7383 143.664C73.7607 145.686 74.7765 147.623 75.545 149.077C75.9292 149.803 76.2516 150.409 76.4817 150.844C76.5968 151.062 76.6887 151.236 76.753 151.36C76.8173 151.484 76.8792 151.633 76.8394 151.528C77.5922 153.518 77.0542 155.756 77.6594 158.335C78.8058 163.22 81.8378 165.801 85.0355 166.588C88.2331 167.374 91.5745 166.448 93.4712 164.427C93.5727 164.318 93.6269 164.174 93.6219 164.026C93.6169 163.878 93.5531 163.738 93.4444 163.637C93.3356 163.536 93.191 163.482 93.0423 163.487C92.8935 163.492 92.7529 163.556 92.6512 163.664C91.0966 165.32 88.1178 166.195 85.3043 165.503C82.4909 164.811 79.8215 162.634 78.7531 158.08C78.22 155.808 78.7919 153.516 77.8905 151.134C77.8334 150.983 77.8178 150.976 77.7506 150.847C77.6834 150.717 77.5912 150.542 77.4757 150.324C77.2446 149.887 76.9224 149.281 76.5389 148.556C75.7719 147.105 74.7596 145.174 73.742 143.161C72.7244 141.149 71.7006 139.054 70.9159 137.284C70.1313 135.513 69.5926 134.001 69.5314 133.434C69.2902 131.196 69.8371 129.306 70.4475 127.995C70.7528 127.34 71.0741 126.83 71.3113 126.506C71.4298 126.344 71.5294 126.227 71.5814 126.173C71.6062 126.147 71.6241 126.138 71.5948 126.159C71.5935 126.16 71.5966 126.156 71.5948 126.158C71.6875 126.101 71.7619 126.02 71.809 125.922C71.856 125.825 71.8738 125.716 71.86 125.609C71.8513 125.554 71.8318 125.484 71.787 125.408C71.7646 125.37 71.701 125.297 71.7006 125.297C71.7003 125.296 71.5843 125.206 71.5838 125.206C71.5834 125.206 71.4972 125.163 71.4561 125.151C71.415 125.14 71.3762 125.134 71.3417 125.131ZM70.7492 125.78C70.7738 125.919 70.8503 126.043 70.9634 126.128C70.9337 126.106 70.9036 126.083 70.9038 126.084C70.9041 126.084 70.8417 126.012 70.8198 125.975C70.7761 125.901 70.7575 125.833 70.7492 125.78ZM70.9901 126.149C71.0987 126.221 71.229 126.253 71.3587 126.24C71.3275 126.244 71.2988 126.249 71.2541 126.246C71.2209 126.244 71.1835 126.237 71.1434 126.225C71.1034 126.214 71.0189 126.172 71.0193 126.172C71.0194 126.172 71.0014 126.158 70.9901 126.149Z" fill="#6D56FA"/>
<path d="M95.9311 158.233C95.9311 158.233 94.6804 159.327 93.0442 160.491C91.408 161.654 89.3537 162.865 87.9893 163.109C87.039 163.279 85.366 162.385 84.0233 161.319C82.6805 160.253 81.6497 159.123 81.6497 159.123C81.6002 159.068 81.5404 159.024 81.4738 158.993C81.4071 158.961 81.3349 158.944 81.2612 158.94C81.1875 158.936 81.1139 158.947 81.0445 158.972C80.975 158.997 80.9112 159.035 80.8565 159.084C80.7462 159.184 80.6801 159.323 80.6728 159.471C80.6655 159.619 80.7176 159.764 80.8176 159.873C80.8176 159.873 81.8978 161.061 83.3237 162.193C84.7497 163.325 86.5038 164.511 88.1876 164.21C89.9569 163.893 92.0092 162.6 93.6962 161.4C95.3833 160.2 96.6732 159.072 96.6732 159.072C96.7847 158.974 96.8526 158.836 96.862 158.688C96.8714 158.54 96.8214 158.395 96.7231 158.284C96.6248 158.173 96.4862 158.105 96.3377 158.095C96.1892 158.086 96.0429 158.135 95.9311 158.233Z" fill="#6D56FA"/>
<path d="M81.3236 155.891C81.2655 155.937 81.2168 155.993 81.1804 156.056C81.1441 156.12 81.1207 156.191 81.1117 156.264C81.1026 156.336 81.1081 156.41 81.1278 156.481C81.1474 156.552 81.1809 156.618 81.2263 156.676C81.2263 156.676 83.3894 159.449 87.106 160.666C88.5286 161.132 89.8127 160.63 90.8896 159.983C91.9664 159.337 92.9321 158.546 93.8239 158.198C96.6587 157.089 99.245 157.192 99.245 157.192C99.3937 157.198 99.5388 157.145 99.6483 157.044C99.7578 156.944 99.8227 156.805 99.8289 156.657C99.835 156.509 99.7818 156.364 99.6809 156.255C99.5801 156.146 99.4399 156.082 99.2912 156.075C99.2912 156.075 96.4866 155.956 93.4127 157.158C92.2635 157.607 91.2802 158.444 90.3092 159.027C89.3383 159.61 88.4752 159.938 87.4576 159.604C84.0993 158.505 82.112 155.988 82.112 155.988C82.0666 155.93 82.0102 155.882 81.9461 155.846C81.8819 155.81 81.8112 155.786 81.738 155.777C81.6647 155.768 81.5905 155.774 81.5194 155.793C81.4483 155.813 81.3818 155.846 81.3236 155.891Z" fill="#6D56FA"/>
<path d="M85.9053 151.565C85.7586 151.539 85.6077 151.572 85.4856 151.657C85.3635 151.742 85.2804 151.871 85.2544 152.017C85.0974 152.899 84.9853 153.645 85.1461 154.361C85.307 155.078 85.7976 155.698 86.5951 156.147C86.9406 156.341 87.2955 156.357 87.7009 156.348C88.1064 156.339 88.566 156.28 89.0745 156.194C90.0914 156.022 91.3017 155.735 92.5271 155.461C93.7525 155.186 94.993 154.926 96.0333 154.806C97.0735 154.685 97.9197 154.75 98.2377 154.916C98.8988 155.26 99.032 155.598 99.0808 155.86C99.1295 156.122 99.0662 156.281 99.0662 156.281C99.013 156.42 99.0172 156.573 99.0779 156.709C99.1386 156.844 99.2508 156.95 99.3898 157.003C99.5289 157.056 99.6834 157.052 99.8193 156.991C99.9553 156.931 100.062 156.819 100.115 156.681C100.115 156.681 100.291 156.22 100.185 155.655C100.08 155.091 99.6677 154.4 98.7584 153.925C97.9954 153.527 97.0247 153.565 95.9031 153.695C94.7815 153.826 93.5144 154.095 92.2802 154.371C91.0459 154.647 89.8434 154.93 88.8859 155.092C88.4072 155.173 87.9891 155.223 87.6754 155.23C87.3618 155.238 87.1563 155.178 87.1487 155.174C86.5336 154.827 86.3376 154.542 86.2423 154.118C86.147 153.693 86.2084 153.065 86.3603 152.212C86.3863 152.066 86.3529 151.916 86.2676 151.795C86.1823 151.673 86.0519 151.59 85.9053 151.565Z" fill="#6D56FA"/>
<path d="M76.3989 138.256C74.4297 139.463 73.949 140.949 73.6738 142.211C73.651 142.315 73.6588 142.424 73.6963 142.524C73.7339 142.625 73.7995 142.712 73.8855 142.776L90.5805 155.236C90.6997 155.325 90.8495 155.363 90.9969 155.342C91.1442 155.321 91.2772 155.242 91.3664 155.124C91.4557 155.005 91.4941 154.856 91.4731 154.71C91.4521 154.563 91.3735 154.431 91.2545 154.342L74.8806 142.121C75.1056 141.159 75.4988 140.313 76.7249 139.455L96.3008 154.066C96.4199 154.155 96.5695 154.193 96.7169 154.172C96.8643 154.151 96.9973 154.073 97.0867 153.954C97.176 153.836 97.2144 153.687 97.1934 153.54C97.1724 153.394 97.0938 153.261 96.9748 153.172L77.0303 138.285C76.9401 138.217 76.8317 138.179 76.7191 138.173C76.6065 138.168 76.4949 138.197 76.3989 138.256Z" fill="#6D56FA"/>
<path d="M99.8216 156.333C99.673 156.341 99.5335 156.406 99.4335 156.516C99.384 156.571 99.3457 156.634 99.3209 156.703C99.296 156.772 99.2851 156.846 99.2887 156.919C99.2923 156.992 99.3104 157.064 99.342 157.13C99.3735 157.197 99.4178 157.256 99.4725 157.305C99.4725 157.305 100.12 157.892 100.621 158.522C100.871 158.837 101.077 159.171 101.142 159.364C101.155 159.403 101.149 159.393 101.153 159.416C101.14 159.402 100.901 159.433 100.482 159.273C100.029 159.1 99.4641 158.796 98.9226 158.465C97.8396 157.803 96.8614 157.053 96.7413 156.962C96.6826 156.917 96.6156 156.885 96.5443 156.866C96.473 156.847 96.3986 156.843 96.3255 156.853C96.2524 156.863 96.182 156.887 96.1183 156.924C96.0546 156.961 95.9988 157.01 95.9541 157.068C95.9095 157.127 95.8768 157.193 95.858 157.264C95.8392 157.335 95.8347 157.409 95.8446 157.482C95.8546 157.555 95.8788 157.625 95.916 157.688C95.9531 157.752 96.0025 157.807 96.0612 157.852C96.1424 157.913 97.1858 158.716 98.335 159.418C98.9096 159.769 99.5137 160.1 100.081 160.316C100.648 160.533 101.208 160.718 101.771 160.395C102.017 160.254 102.211 159.991 102.268 159.727C102.325 159.463 102.28 159.224 102.207 159.009C102.063 158.579 101.792 158.195 101.502 157.83C100.921 157.1 100.227 156.477 100.227 156.477C100.172 156.428 100.108 156.39 100.039 156.365C99.9691 156.341 99.8954 156.33 99.8216 156.333Z" fill="#6D56FA"/>
<path d="M86.3043 128.022C86.1841 127.935 86.0339 127.898 85.8867 127.921C85.7396 127.944 85.6075 128.024 85.5196 128.143C85.412 128.29 85.2503 128.549 84.9673 128.989C84.6842 129.43 84.3248 129.993 83.9709 130.549C83.2631 131.659 82.5779 132.738 82.5779 132.738C82.5181 132.832 82.4878 132.941 82.4911 133.053C82.4943 133.164 82.5309 133.272 82.5962 133.362C84.0649 135.404 84.6603 137.587 85.2945 139.856C85.9288 142.126 86.6033 144.481 88.2958 146.709C88.3759 146.814 88.491 146.888 88.6206 146.917C88.7503 146.946 88.8861 146.928 89.0039 146.867C89.0039 146.867 89.7714 146.473 90.6292 146.251C91.0581 146.14 91.5044 146.079 91.8446 146.112C92.1847 146.145 92.3824 146.24 92.521 146.437C93.4676 147.786 94.6409 149.753 95.7011 151.43C96.2312 152.269 96.7335 153.035 97.178 153.631C97.4003 153.929 97.6067 154.185 97.807 154.393C98.0072 154.6 98.1819 154.77 98.4664 154.875C98.5355 154.9 98.6091 154.912 98.6828 154.909C98.7565 154.906 98.8289 154.889 98.8958 154.858C98.9628 154.827 99.0231 154.784 99.0732 154.73C99.1233 154.676 99.1622 154.613 99.1878 154.544C99.2134 154.475 99.225 154.402 99.2222 154.329C99.2193 154.255 99.202 154.183 99.1711 154.117C99.1403 154.05 99.0966 153.99 99.0424 153.94C98.9883 153.89 98.9248 153.852 98.8557 153.826C98.893 153.84 98.7643 153.77 98.6172 153.618C98.4702 153.466 98.2846 153.241 98.0795 152.965C97.6692 152.415 97.1765 151.664 96.6524 150.835C95.6043 149.176 94.4317 147.208 93.4419 145.797C93.081 145.283 92.5008 145.053 91.9528 145C91.4048 144.948 90.8526 145.039 90.347 145.17C89.6137 145.359 89.298 145.539 88.9966 145.682C87.6275 143.742 86.9732 141.693 86.3761 139.556C85.7765 137.411 85.1249 135.193 83.6972 133.067C83.8352 132.849 84.2979 132.121 84.9186 131.147C85.2721 130.592 85.6321 130.031 85.9138 129.592C86.1954 129.154 86.4437 128.78 86.4272 128.803C86.4706 128.744 86.5019 128.676 86.5193 128.605C86.5366 128.534 86.5397 128.46 86.5282 128.387C86.5168 128.315 86.4912 128.245 86.4528 128.182C86.4143 128.12 86.3639 128.065 86.3043 128.022Z" fill="#6D56FA"/>
<path d="M79.7591 130.641C79.2026 130.621 78.5607 130.686 77.7883 130.834C77.7158 130.848 77.6468 130.876 77.5852 130.917C77.5236 130.957 77.4706 131.009 77.4292 131.07C77.3879 131.131 77.359 131.199 77.3442 131.271C77.3294 131.343 77.329 131.417 77.343 131.489C77.3714 131.635 77.4567 131.763 77.5801 131.846C77.7036 131.929 77.855 131.959 78.0012 131.931C79.4437 131.654 80.165 131.713 80.7603 131.977C81.3557 132.242 81.9165 132.797 82.8541 133.629C82.9091 133.678 82.9732 133.715 83.0429 133.739C83.1126 133.764 83.1863 133.774 83.26 133.77C83.3336 133.766 83.4058 133.747 83.4722 133.715C83.5387 133.683 83.5982 133.639 83.6473 133.584C83.6964 133.529 83.7342 133.465 83.7586 133.396C83.7829 133.327 83.7933 133.253 83.7891 133.18C83.7849 133.107 83.7663 133.035 83.7342 132.969C83.7022 132.902 83.6573 132.843 83.6022 132.794C82.6918 131.986 82.0803 131.34 81.2177 130.957C80.7864 130.765 80.3156 130.66 79.7591 130.641Z" fill="#6D56FA"/>
<path d="M55.6795 132.35C55.6071 132.336 55.5326 132.336 55.4602 132.35C55.3878 132.364 55.319 132.393 55.2576 132.434C55.1963 132.474 55.1436 132.527 55.1027 132.588C55.0617 132.649 55.0332 132.718 55.0189 132.79C55.0045 132.862 55.0045 132.936 55.0188 133.008C55.0332 133.08 55.0617 133.148 55.1027 133.209C55.1438 133.27 55.1965 133.323 55.2579 133.364C55.3192 133.404 55.3881 133.433 55.4605 133.447L69.3878 136.199C69.4602 136.213 69.5347 136.213 69.6071 136.199C69.6795 136.185 69.7483 136.156 69.8097 136.115C69.871 136.075 69.9237 136.022 69.9646 135.961C70.0056 135.9 70.0341 135.831 70.0484 135.759C70.0772 135.614 70.0469 135.463 69.9641 135.34C69.8813 135.217 69.7528 135.132 69.6068 135.103L55.6795 132.35Z" fill="#6D56FA"/>
<path d="M89.3251 139.067C89.2527 139.053 89.1783 139.053 89.1059 139.068C89.0336 139.082 88.9649 139.11 88.9037 139.151C88.8424 139.192 88.7899 139.245 88.7491 139.306C88.7082 139.367 88.6799 139.436 88.6657 139.508C88.6515 139.58 88.6516 139.654 88.6662 139.726C88.6807 139.798 88.7094 139.866 88.7505 139.927C88.7916 139.988 88.8444 140.04 88.9059 140.081C88.9673 140.122 89.0362 140.15 89.1085 140.164L184.428 158.878C184.574 158.907 184.726 158.877 184.849 158.794C184.973 158.712 185.059 158.584 185.088 158.439C185.102 158.367 185.102 158.293 185.088 158.221C185.073 158.149 185.045 158.08 185.004 158.019C184.963 157.958 184.91 157.906 184.849 157.865C184.787 157.824 184.718 157.796 184.646 157.781L89.3251 139.067Z" fill="#6D56FA"/>
<path d="M98.588 133.748C98.5144 133.754 98.4426 133.774 98.3767 133.807C98.3109 133.84 98.2522 133.886 98.204 133.941C98.1559 133.997 98.1193 134.061 98.0962 134.131C98.0732 134.201 98.0642 134.274 98.0697 134.348L98.3519 138.136C98.3574 138.209 98.3773 138.281 98.4106 138.346C98.4438 138.412 98.4897 138.47 98.5457 138.518C98.6016 138.566 98.6664 138.602 98.7365 138.625C98.8066 138.648 98.8806 138.657 98.9542 138.652C99.0277 138.646 99.0995 138.626 99.1654 138.593C99.2313 138.56 99.29 138.515 99.3381 138.459C99.3862 138.403 99.4229 138.339 99.4459 138.269C99.469 138.199 99.478 138.126 99.4724 138.052L99.189 134.264C99.1779 134.117 99.1084 133.979 98.9957 133.883C98.883 133.786 98.7364 133.738 98.588 133.748Z" fill="#6D56FA"/>
<path d="M109.961 135.515C109.888 135.501 109.814 135.502 109.741 135.518C109.669 135.533 109.601 135.562 109.54 135.604C109.479 135.645 109.427 135.699 109.387 135.76C109.347 135.822 109.319 135.891 109.306 135.963L108.613 139.695C108.586 139.841 108.618 139.991 108.703 140.113C108.787 140.235 108.916 140.318 109.063 140.345C109.135 140.359 109.21 140.358 109.282 140.343C109.354 140.327 109.422 140.298 109.483 140.256C109.544 140.215 109.596 140.162 109.636 140.1C109.676 140.038 109.704 139.97 109.717 139.897L110.411 136.166C110.424 136.094 110.423 136.02 110.408 135.948C110.392 135.876 110.363 135.808 110.321 135.748C110.279 135.687 110.226 135.636 110.164 135.596C110.102 135.556 110.033 135.528 109.961 135.515Z" fill="#6D56FA"/>
<path d="M119.79 138.391C119.645 138.36 119.493 138.386 119.368 138.466C119.242 138.546 119.154 138.672 119.121 138.816L118.466 141.757C118.434 141.902 118.46 142.053 118.54 142.178C118.62 142.302 118.746 142.391 118.891 142.423C119.037 142.455 119.189 142.429 119.315 142.349C119.44 142.27 119.529 142.144 119.562 141.999L120.217 139.058C120.234 138.987 120.235 138.913 120.222 138.84C120.21 138.768 120.183 138.699 120.143 138.637C120.103 138.575 120.052 138.521 119.991 138.479C119.931 138.437 119.863 138.407 119.79 138.391Z" fill="#6D56FA"/>
<path d="M130.763 150.069L124.154 152.29C124.084 152.313 124.02 152.35 123.964 152.398C123.909 152.447 123.863 152.505 123.83 152.571C123.798 152.637 123.778 152.708 123.773 152.782C123.768 152.855 123.778 152.928 123.801 152.998C123.825 153.068 123.862 153.132 123.911 153.187C123.959 153.242 124.018 153.288 124.084 153.32C124.15 153.353 124.222 153.372 124.296 153.377C124.369 153.382 124.443 153.373 124.513 153.349L131.122 151.129C131.191 151.105 131.256 151.068 131.312 151.02C131.367 150.972 131.413 150.913 131.445 150.847C131.478 150.782 131.498 150.71 131.503 150.637C131.508 150.564 131.498 150.49 131.474 150.42C131.451 150.351 131.414 150.287 131.365 150.231C131.317 150.176 131.258 150.131 131.192 150.098C131.126 150.066 131.054 150.046 130.98 150.041C130.906 150.036 130.833 150.046 130.763 150.069Z" fill="#6D56FA"/>
<path d="M125.428 163.383L119.29 164.678C119.145 164.709 119.017 164.796 118.936 164.92C118.855 165.044 118.827 165.196 118.857 165.341C118.888 165.486 118.976 165.612 119.1 165.693C119.225 165.774 119.377 165.802 119.523 165.772L125.662 164.476C125.807 164.445 125.934 164.358 126.015 164.234C126.096 164.11 126.124 163.959 126.094 163.814C126.063 163.669 125.975 163.542 125.85 163.461C125.726 163.38 125.574 163.352 125.428 163.383Z" fill="#6D56FA"/>
<path d="M113.953 177.884C113.819 177.82 113.665 177.812 113.524 177.861C113.384 177.91 113.269 178.012 113.204 178.146C113.139 178.279 113.131 178.433 113.18 178.573C113.229 178.713 113.333 178.827 113.467 178.892L118.623 181.364C118.689 181.396 118.761 181.414 118.835 181.419C118.909 181.423 118.982 181.413 119.052 181.389C119.122 181.364 119.186 181.327 119.241 181.278C119.296 181.229 119.341 181.17 119.373 181.103C119.438 180.97 119.446 180.816 119.397 180.676C119.348 180.537 119.245 180.422 119.11 180.358L113.953 177.884Z" fill="#6D56FA"/>
<path d="M54.6892 170.354C54.5476 170.308 54.3936 170.321 54.261 170.388C54.1285 170.456 54.0283 170.573 53.9824 170.714C53.9366 170.854 53.949 171.008 54.0167 171.14C54.0845 171.272 54.2021 171.371 54.3437 171.417L57.137 172.318C57.2786 172.363 57.4326 172.351 57.5652 172.283C57.6977 172.216 57.7979 172.099 57.8438 171.958C57.8666 171.888 57.8754 171.815 57.8696 171.741C57.8638 171.668 57.8435 171.597 57.8099 171.531C57.7764 171.466 57.7302 171.408 57.674 171.36C57.6178 171.312 57.5527 171.276 57.4825 171.253L54.6892 170.354Z" fill="#6D56FA"/>
<path d="M55.6125 159.552C55.4854 159.476 55.3327 159.452 55.1881 159.487C55.0435 159.522 54.9187 159.612 54.8412 159.739C54.7639 159.865 54.7401 160.017 54.7753 160.161C54.8104 160.305 54.9015 160.429 55.0286 160.507L59.261 163.068C59.324 163.107 59.394 163.132 59.467 163.144C59.5399 163.155 59.6144 163.152 59.6862 163.134C59.7579 163.117 59.8255 163.086 59.8851 163.043C59.9448 162.999 59.9952 162.945 60.0336 162.882C60.072 162.819 60.0976 162.749 60.1089 162.677C60.1203 162.604 60.1171 162.53 60.0996 162.459C60.082 162.387 60.0506 162.32 60.0069 162.261C59.9632 162.201 59.9082 162.151 59.845 162.113L55.6125 159.552Z" fill="#6D56FA"/>
<path d="M62.1383 150.758C62.0038 150.822 61.9001 150.935 61.8499 151.075C61.7998 151.214 61.8072 151.368 61.8706 151.502L66.8269 161.916C66.8908 162.049 67.0053 162.152 67.1453 162.202C67.2854 162.252 67.4395 162.244 67.5739 162.181C67.7084 162.118 67.8121 162.004 67.8622 161.864C67.9124 161.725 67.905 161.571 67.8416 161.438L62.8865 151.023C62.8548 150.957 62.8104 150.898 62.7557 150.848C62.701 150.799 62.637 150.761 62.5675 150.737C62.498 150.712 62.4244 150.701 62.3507 150.705C62.2771 150.709 62.2049 150.727 62.1383 150.758Z" fill="#6D56FA"/>
<path d="M67.9766 146.204C67.8392 146.261 67.7302 146.37 67.6734 146.506C67.6166 146.643 67.6167 146.797 67.6737 146.934L70.0047 152.521C70.033 152.589 70.0744 152.65 70.1267 152.702C70.179 152.754 70.241 152.795 70.3093 152.823C70.3775 152.851 70.4506 152.866 70.5244 152.866C70.5983 152.865 70.6713 152.851 70.7395 152.822C70.8769 152.766 70.9859 152.657 71.0427 152.52C71.0995 152.383 71.0994 152.229 71.0424 152.092L68.7102 146.505C68.653 146.369 68.5437 146.26 68.4061 146.203C68.2686 146.147 68.1141 146.147 67.9766 146.204Z" fill="#6D56FA"/>
<path d="M96.7206 143.31C95.1147 143.274 93.5279 143.809 92.2619 144.848L92.0879 144.991C92.0309 145.037 91.9838 145.095 91.9491 145.159C91.9144 145.224 91.8929 145.295 91.8857 145.368C91.8786 145.441 91.886 145.515 91.9076 145.585C91.9291 145.656 91.9644 145.721 92.0113 145.778C92.0582 145.834 92.1159 145.881 92.1811 145.915C92.2463 145.95 92.3176 145.971 92.391 145.978C92.4645 145.985 92.5386 145.978 92.6091 145.956C92.6796 145.935 92.7452 145.899 92.802 145.853L92.9772 145.71C94.3858 144.554 96.2675 144.147 98.0309 144.619L117.88 149.928C119.05 150.24 119.557 151.562 118.894 152.571L99.9141 181.416C99.0938 182.663 96.9995 183.652 95.532 183.451C86.4682 182.211 77.3392 179.586 67.9377 173.566C67.3263 173.174 67.0223 172.637 66.9681 172.071C66.914 171.504 67.1152 170.897 67.6299 170.377L78.5426 159.356C78.5944 159.304 78.6353 159.242 78.663 159.174C78.6907 159.106 78.7047 159.033 78.7041 158.96C78.7035 158.886 78.6884 158.814 78.6596 158.746C78.6308 158.679 78.589 158.617 78.5364 158.566C78.4838 158.514 78.4216 158.474 78.3532 158.446C78.2848 158.418 78.2116 158.404 78.1379 158.405C78.0641 158.406 77.9911 158.421 77.9232 158.449C77.8553 158.478 77.7937 158.52 77.7419 158.572L66.8293 169.593C66.104 170.325 65.7631 171.268 65.8499 172.176C65.9367 173.084 66.4563 173.946 67.3305 174.506C76.8856 180.624 86.2045 183.302 95.3798 184.558C97.4127 184.836 99.7391 183.724 100.854 182.029L119.833 153.183C120.897 151.566 120.049 149.35 118.172 148.848L98.3215 143.539C97.7932 143.398 97.256 143.322 96.7206 143.31Z" fill="#6D56FA"/>
<path d="M119.89 151.185C119.817 151.19 119.745 151.211 119.679 151.244C119.614 151.278 119.555 151.324 119.507 151.38C119.46 151.436 119.423 151.501 119.401 151.571C119.378 151.641 119.37 151.714 119.376 151.787L119.477 153.01C119.591 154.398 119.256 155.786 118.519 156.97L100.973 185.181C100.314 186.241 98.5718 187.039 97.3302 186.856C87.7461 185.439 79.2967 184.377 69.0351 178.233C67.0476 176.243 67.3798 174.967 67.119 172.972C67.0998 172.825 67.0227 172.692 66.9048 172.601C66.7868 172.511 66.6377 172.471 66.4901 172.49C66.3425 172.509 66.2086 172.586 66.1178 172.703C66.027 172.82 65.9868 172.969 66.0059 173.116C66.2439 174.938 66.0065 176.821 68.2784 179.069C68.3103 179.1 68.3458 179.128 68.3843 179.151C78.8637 185.444 87.5738 186.543 97.166 187.961C98.9545 188.225 100.974 187.302 101.928 185.77L119.474 157.559C120.337 156.171 120.73 154.545 120.596 152.918L120.495 151.695C120.483 151.548 120.412 151.411 120.299 151.316C120.185 151.22 120.039 151.173 119.89 151.185Z" fill="#6D56FA"/>
<path d="M93.9407 146.067C93.7929 146.049 93.6439 146.09 93.5264 146.181C93.4089 146.272 93.3326 146.405 93.3141 146.552C93.2958 146.7 93.3368 146.848 93.4283 146.965C93.5198 147.082 93.6542 147.158 93.802 147.176C100.873 148.053 107.705 150.219 114.562 152.429C114.952 152.555 115.146 152.768 115.226 152.999C115.306 153.231 115.283 153.518 115.052 153.855L98.1926 178.473C97.7227 179.159 96.4632 179.683 95.6415 179.535C87.2849 178.03 79.0053 176.549 71.4049 172.12C71.0592 171.919 70.9108 171.66 70.8805 171.389C70.8503 171.118 70.9419 170.812 71.2297 170.526L79.545 162.252C79.5972 162.2 79.6385 162.139 79.6668 162.071C79.695 162.003 79.7096 161.931 79.7096 161.857C79.7096 161.784 79.695 161.711 79.6668 161.643C79.6385 161.575 79.5972 161.514 79.545 161.462C79.4928 161.41 79.4309 161.369 79.3628 161.341C79.2946 161.312 79.2215 161.298 79.1478 161.298C79.074 161.298 79.0009 161.312 78.9328 161.341C78.8646 161.369 78.8027 161.41 78.7505 161.462L70.4353 169.737C69.937 170.233 69.6934 170.884 69.7637 171.513C69.834 172.142 70.2231 172.727 70.8367 173.084C78.6493 177.636 87.0868 179.131 95.4419 180.635C96.8081 180.881 98.3373 180.245 99.1196 179.102L115.98 154.485C116.375 153.908 116.491 153.228 116.288 152.637C116.085 152.047 115.576 151.58 114.908 151.365C108.048 149.154 101.149 146.961 93.9407 146.067Z" fill="#6D56FA"/>
<path d="M76.2347 169.79C76.1791 169.742 76.1144 169.705 76.0444 169.681C75.9744 169.658 75.9004 169.648 75.8267 169.653C75.753 169.658 75.6811 169.678 75.615 169.711C75.5489 169.744 75.4899 169.789 75.4415 169.844C75.3438 169.956 75.2947 170.102 75.3049 170.25C75.3152 170.398 75.384 170.535 75.4962 170.633C75.5763 170.702 75.6734 170.854 75.8138 171.068C75.9541 171.283 76.1575 171.57 76.5194 171.746C76.9297 171.946 77.2761 171.917 77.4342 171.949C78.1725 172.097 79.2451 172.285 79.6253 172.537C79.6495 172.553 79.7398 172.663 79.91 172.832C80.0971 173.019 80.2601 173.115 80.3443 173.189C80.6587 173.466 81.0206 173.816 81.6071 173.957C82.8605 174.258 83.9962 173.921 84.8565 174.151C85.1903 174.24 85.4462 174.442 85.7957 174.706C86.1453 174.971 86.6038 175.293 87.2471 175.371C87.9837 175.461 88.6311 175.267 89.1961 175.131C89.7611 174.995 90.2301 174.912 90.6754 175.031C90.9393 175.101 91.3497 175.402 91.6438 175.691C91.9038 175.946 92.2251 176.399 92.864 176.558C93.3517 176.679 93.7898 176.595 94.1451 176.519C94.5003 176.443 94.7854 176.378 95.0125 176.394C95.3549 176.418 96.0953 176.982 96.6829 177.415C96.7421 177.458 96.8095 177.49 96.881 177.508C96.9526 177.526 97.027 177.529 97.1 177.519C97.173 177.508 97.2432 177.483 97.3064 177.445C97.3697 177.407 97.4248 177.357 97.4688 177.298C97.5127 177.239 97.5446 177.172 97.5625 177.101C97.5804 177.03 97.5841 176.956 97.5732 176.883C97.5624 176.811 97.5373 176.741 97.4993 176.678C97.4613 176.615 97.4113 176.56 97.352 176.516C96.8646 176.157 96.1222 175.351 95.0916 175.279C94.6243 175.246 94.233 175.358 93.9103 175.427C93.5876 175.496 93.346 175.525 93.1365 175.473C92.9147 175.418 92.7765 175.233 92.4334 174.895C92.0772 174.545 91.5984 174.121 90.9662 173.952C90.213 173.751 89.5238 173.903 88.9321 174.045C88.3404 174.188 87.8329 174.316 87.3834 174.261C87.0313 174.218 86.7996 174.062 86.4746 173.817C86.1496 173.571 85.7471 173.231 85.1473 173.071C83.8765 172.732 82.7204 173.074 81.8711 172.87C81.5821 172.8 81.4246 172.649 81.0888 172.353C80.9075 172.193 80.7691 172.106 80.7044 172.042C80.632 171.97 80.5119 171.782 80.2482 171.607C79.4364 171.069 78.3085 170.984 77.6569 170.853C77.3084 170.783 77.0724 170.771 77.0133 170.743C76.9401 170.707 76.8678 170.63 76.7542 170.457C76.6405 170.284 76.506 170.025 76.2347 169.79Z" fill="#6D56FA"/>
<path d="M78.8856 166.28C78.8153 166.257 78.7412 166.249 78.6675 166.255C78.5938 166.26 78.522 166.281 78.4562 166.314C78.3238 166.382 78.2238 166.499 78.1782 166.64C78.1325 166.781 78.145 166.934 78.2128 167.066C78.5486 167.719 78.9371 168.262 79.4805 168.64C80.0239 169.017 80.6983 169.198 81.4927 169.202C82.5657 169.207 83.4933 168.993 84.2312 169.266C84.5684 169.39 84.8926 169.69 85.3468 170.011C86.0277 170.493 86.8929 170.887 87.7727 170.986C88.5742 171.076 89.4129 170.956 90.1949 170.881C90.9768 170.806 91.6944 170.784 92.1706 170.939C92.5001 171.046 92.8766 171.339 93.2959 171.664C93.7152 171.989 94.1907 172.365 94.8446 172.439C95.1517 172.473 95.4 172.479 95.7181 172.429C96.1256 172.365 96.4643 172.243 96.7473 172.18C97.0303 172.116 97.2337 172.104 97.4481 172.177C97.5486 172.212 97.7982 172.408 98.0904 172.647C98.3826 172.886 98.7721 173.201 99.3338 173.166C99.4823 173.157 99.6211 173.09 99.7197 172.979C99.8182 172.868 99.8685 172.722 99.8593 172.574C99.8501 172.427 99.7822 172.288 99.6706 172.19C99.5591 172.092 99.413 172.042 99.2644 172.051C99.2143 172.054 99.0507 171.986 98.8021 171.783C98.5536 171.58 98.2752 171.278 97.8143 171.12C97.335 170.956 96.8756 171.005 96.5004 171.089C96.1251 171.173 95.8097 171.283 95.5429 171.325C95.2972 171.364 95.2483 171.36 94.9711 171.329C94.718 171.3 94.3851 171.093 93.9857 170.783C93.5863 170.473 93.1342 170.078 92.5197 169.877C91.737 169.622 90.8967 169.69 90.0866 169.768C89.2765 169.846 88.489 169.941 87.8992 169.875C87.2844 169.806 86.5374 169.483 85.9977 169.101C85.6369 168.846 85.2391 168.447 84.6217 168.218C83.4703 167.793 82.37 168.089 81.4988 168.084C80.8632 168.081 80.4585 167.956 80.1241 167.723C79.7897 167.491 79.5027 167.122 79.2129 166.557C79.145 166.426 79.0273 166.326 78.8856 166.28Z" fill="#6D56FA"/>
<path d="M89.9978 165.875C89.8489 165.876 89.7067 165.936 89.6024 166.042C89.5507 166.094 89.5098 166.156 89.4822 166.224C89.4546 166.292 89.4408 166.365 89.4414 166.439C89.4421 166.512 89.4573 166.585 89.4862 166.652C89.515 166.72 89.557 166.781 89.6097 166.832C90.2407 167.449 90.9961 167.931 91.8324 168.242C92.4551 168.473 93.0533 168.388 93.5599 168.302C94.0665 168.217 94.5023 168.133 94.8568 168.185C95.5157 168.28 96.176 168.843 97.1439 169.158C97.7157 169.344 98.2467 169.293 98.7097 169.244C99.0066 169.212 99.2135 169.194 99.3411 169.229C99.4864 169.27 99.6346 169.347 99.8557 169.434C100.077 169.521 100.384 169.602 100.732 169.561C100.887 169.543 101.006 169.513 101.073 169.496C101.091 169.491 101.104 169.492 101.117 169.489C101.154 169.511 101.171 169.535 101.285 169.549C101.328 169.554 101.449 169.545 101.449 169.545C101.45 169.545 101.682 169.45 101.683 169.45C101.683 169.449 101.868 169.228 101.868 169.227C101.868 169.227 101.907 169.111 101.907 169.111C101.907 169.11 101.919 169.041 101.92 169.012C101.929 168.776 101.861 168.73 101.828 168.677C101.794 168.625 101.763 168.592 101.732 168.561C101.706 168.536 101.648 168.542 101.617 168.52C101.501 168.461 101.367 168.444 101.239 168.472C101.112 168.5 100.998 168.572 100.918 168.675C100.971 168.611 101.031 168.539 101.031 168.539C101.03 168.54 101.262 168.444 101.261 168.444C101.26 168.444 101.352 168.438 101.402 168.44C101.318 168.412 101.27 168.345 101.162 168.353C101.162 168.353 101.161 168.353 101.161 168.353C101.006 168.364 100.88 168.391 100.801 168.411C100.722 168.431 100.69 168.441 100.601 168.451C100.472 168.466 100.407 168.449 100.267 168.394C100.127 168.339 99.9257 168.23 99.6415 168.152C99.2164 168.034 98.8522 168.105 98.5904 168.132C98.1457 168.18 97.8052 168.198 97.4918 168.096C96.8224 167.879 96.099 167.236 95.0185 167.079C94.396 166.989 93.8428 167.121 93.3725 167.2C92.9023 167.28 92.5344 167.309 92.2253 167.194C91.5383 166.939 90.9171 166.542 90.3968 166.034C90.3441 165.983 90.2817 165.942 90.2132 165.915C90.1448 165.887 90.0716 165.874 89.9978 165.875ZM100.872 168.731C100.821 168.841 100.808 168.965 100.834 169.083C100.861 169.201 100.925 169.308 101.018 169.387C100.997 169.373 100.964 169.378 100.946 169.36C100.927 169.342 100.907 169.321 100.88 169.279C100.853 169.237 100.789 169.2 100.797 168.97C100.799 168.942 100.809 168.873 100.809 168.873C100.809 168.874 100.848 168.758 100.848 168.758C100.848 168.759 100.866 168.737 100.872 168.731Z" fill="#6D56FA"/>
<path d="M94.8361 161.875C94.7624 161.879 94.6903 161.898 94.624 161.93C94.5576 161.962 94.4983 162.007 94.4494 162.062C94.4005 162.117 94.3629 162.181 94.3389 162.25C94.3148 162.32 94.3048 162.393 94.3093 162.467C94.3185 162.615 94.3864 162.753 94.498 162.851C94.6095 162.949 94.7556 162.999 94.9042 162.99C95.7948 162.936 96.1475 163.15 96.8945 163.751C97.1355 163.945 97.4514 164.281 97.9967 164.394C98.5143 164.501 98.9598 164.39 99.313 164.348C99.6663 164.307 99.8718 164.319 100.021 164.421C100.02 164.419 100.174 164.635 100.334 164.916C100.414 165.056 100.504 165.212 100.655 165.365C100.806 165.518 101.063 165.674 101.357 165.673C101.801 165.67 102.129 165.477 102.365 165.349C102.602 165.221 102.751 165.156 102.857 165.153C103.041 165.148 102.798 165.074 102.952 165.185C102.872 165.127 102.941 165.18 103 165.262C103.06 165.344 103.135 165.458 103.239 165.577C103.342 165.696 103.468 165.849 103.747 165.923C104.027 165.997 104.401 165.835 104.567 165.631C104.614 165.574 104.649 165.509 104.67 165.438C104.691 165.368 104.698 165.294 104.691 165.221C104.683 165.148 104.661 165.077 104.626 165.012C104.591 164.948 104.543 164.891 104.486 164.844C104.42 164.796 104.343 164.763 104.263 164.747C104.182 164.731 104.099 164.733 104.019 164.752C103.985 164.707 103.957 164.671 103.915 164.613C103.846 164.516 103.796 164.413 103.61 164.279C103.409 164.135 103.066 164.028 102.823 164.036C102.382 164.049 102.062 164.242 101.829 164.369C101.629 164.477 101.518 164.512 101.419 164.527C101.391 164.49 101.36 164.45 101.312 164.365C101.182 164.137 101.062 163.774 100.654 163.497C100.155 163.159 99.6029 163.188 99.1817 163.238C98.7605 163.287 98.4157 163.34 98.2242 163.301C98.0464 163.264 97.9103 163.131 97.6013 162.882C96.7878 162.227 95.9854 161.805 94.8361 161.875Z" fill="#6D56FA"/>
<path d="M102.752 159.438C102.359 159.379 101.926 159.489 101.583 159.76C101.467 159.852 101.392 159.986 101.375 160.133C101.358 160.28 101.401 160.428 101.493 160.544C101.586 160.66 101.721 160.734 101.869 160.751C102.017 160.768 102.165 160.726 102.282 160.634C102.401 160.539 102.483 160.528 102.586 160.543C102.688 160.558 102.819 160.622 102.941 160.752C103.001 160.816 103.096 160.972 103.239 161.162C103.382 161.352 103.606 161.597 103.958 161.704C104.396 161.837 104.786 161.736 105.072 161.653C105.356 161.571 105.564 161.513 105.684 161.516C105.694 161.525 105.725 161.558 105.778 161.633C105.891 161.791 106.105 162.153 106.566 162.283C106.817 162.353 106.963 162.326 107.006 162.325C107.083 162.403 107.182 162.456 107.29 162.478C107.398 162.5 107.51 162.49 107.613 162.449C107.746 162.382 107.847 162.266 107.894 162.126C107.942 161.985 107.931 161.832 107.864 161.699C107.713 161.397 107.323 161.229 107.122 161.214C106.922 161.198 106.84 161.198 106.873 161.207C106.862 161.204 106.835 161.182 106.694 160.985C106.624 160.886 106.531 160.754 106.372 160.63C106.213 160.506 105.976 160.407 105.731 160.398C105.318 160.382 105.001 160.511 104.76 160.58C104.519 160.65 104.383 160.664 104.287 160.635C104.264 160.628 104.223 160.606 104.137 160.491C104.05 160.376 103.948 160.19 103.762 159.991C103.493 159.703 103.146 159.497 102.752 159.438Z" fill="#6D56FA"/>
<path d="M155.785 15.4059L155.63 57.0067L155.785 15.4059Z" fill="#6D56FA"/>
<path d="M155.786 14.8469C155.713 14.8466 155.64 14.8608 155.571 14.8886C155.503 14.9165 155.441 14.9575 155.389 15.0092C155.336 15.0609 155.295 15.1223 155.266 15.1901C155.238 15.2578 155.223 15.3305 155.223 15.4039L155.068 57.0046C155.068 57.078 155.082 57.1508 155.11 57.2188C155.138 57.2867 155.179 57.3485 155.231 57.4006C155.283 57.4527 155.345 57.4941 155.413 57.5225C155.481 57.5508 155.554 57.5655 155.628 57.5657C155.702 57.566 155.775 57.5519 155.843 57.524C155.911 57.4962 155.973 57.4553 156.026 57.4035C156.078 57.3518 156.12 57.2903 156.148 57.2226C156.177 57.1548 156.191 57.0822 156.192 57.0087L156.346 15.408C156.346 15.3346 156.332 15.2618 156.304 15.1939C156.276 15.1259 156.235 15.0642 156.183 15.0121C156.131 14.96 156.069 14.9186 156.001 14.8902C155.933 14.8619 155.86 14.8472 155.786 14.8469Z" fill="#6D56FA"/>
<path d="M199.478 56.7133L155.687 57.0044L199.478 56.7133Z" fill="#6D56FA"/>
<path d="M199.474 56.1538L155.684 56.4457C155.535 56.4468 155.393 56.5066 155.288 56.612C155.184 56.7174 155.125 56.8598 155.126 57.0079C155.127 57.156 155.187 57.2976 155.293 57.4016C155.399 57.5057 155.542 57.5636 155.691 57.5628L199.482 57.2719C199.63 57.2709 199.773 57.2111 199.877 57.1057C199.982 57.0003 200.04 56.8579 200.039 56.7098C200.039 56.6363 200.024 56.5638 199.995 56.4961C199.966 56.4284 199.925 56.3669 199.872 56.3153C199.82 56.2637 199.758 56.2229 199.689 56.1951C199.621 56.1674 199.548 56.1534 199.474 56.1538Z" fill="#6D56FA"/>
<path d="M155.548 14.9462C155.474 14.9461 155.401 14.9606 155.333 14.9887C155.265 15.0167 155.203 15.0579 155.151 15.1098C155.099 15.1618 155.057 15.2234 155.029 15.2913C155.001 15.3591 154.986 15.4318 154.986 15.5052C154.986 15.5786 155.001 15.6513 155.029 15.7192C155.057 15.787 155.099 15.8487 155.151 15.9006C155.203 15.9525 155.265 15.9936 155.333 16.0217C155.401 16.0498 155.474 16.0643 155.548 16.0643H200.036C200.11 16.0643 200.183 16.0498 200.251 16.0217C200.319 15.9936 200.381 15.9525 200.433 15.9006C200.485 15.8487 200.527 15.787 200.555 15.7192C200.583 15.6513 200.597 15.5786 200.597 15.5052C200.597 15.4318 200.583 15.3591 200.555 15.2913C200.527 15.2234 200.485 15.1618 200.433 15.1098C200.381 15.0579 200.319 15.0167 200.251 14.9887C200.183 14.9606 200.11 14.9461 200.036 14.9462H155.548Z" fill="#6D56FA"/>
<path d="M161.917 23.3574C161.844 23.3574 161.771 23.3719 161.702 23.4C161.634 23.4281 161.572 23.4692 161.52 23.5212C161.468 23.5731 161.427 23.6347 161.399 23.7025C161.37 23.7703 161.356 23.8431 161.356 23.9165C161.356 23.9899 161.37 24.0626 161.399 24.1304C161.427 24.1983 161.468 24.2599 161.52 24.3118C161.572 24.3638 161.634 24.4049 161.702 24.433C161.771 24.4611 161.844 24.4755 161.917 24.4755H177.109C177.182 24.4755 177.255 24.4611 177.324 24.433C177.392 24.4049 177.454 24.3638 177.506 24.3118C177.558 24.2599 177.599 24.1983 177.628 24.1304C177.656 24.0626 177.67 23.9899 177.67 23.9165C177.67 23.8431 177.656 23.7703 177.628 23.7025C177.599 23.6347 177.558 23.5731 177.506 23.5212C177.454 23.4692 177.392 23.4281 177.324 23.4C177.255 23.3719 177.182 23.3574 177.109 23.3574H161.917Z" fill="#6D56FA"/>
<path d="M181.724 23.4752C181.65 23.4752 181.577 23.4896 181.509 23.5177C181.441 23.5458 181.379 23.587 181.327 23.6389C181.274 23.6908 181.233 23.7525 181.205 23.8203C181.177 23.8881 181.162 23.9608 181.162 24.0343C181.162 24.1077 181.177 24.1804 181.205 24.2482C181.233 24.3161 181.274 24.3777 181.327 24.4296C181.379 24.4816 181.441 24.5227 181.509 24.5508C181.577 24.5789 181.65 24.5933 181.724 24.5933H192.665C192.738 24.5933 192.811 24.5789 192.88 24.5508C192.948 24.5227 193.01 24.4816 193.062 24.4296C193.114 24.3777 193.155 24.3161 193.183 24.2482C193.212 24.1804 193.226 24.1077 193.226 24.0343C193.226 23.9608 193.212 23.8881 193.183 23.8203C193.155 23.7525 193.114 23.6908 193.062 23.6389C193.01 23.587 192.948 23.5458 192.88 23.5177C192.811 23.4896 192.738 23.4752 192.665 23.4752H181.724Z" fill="#6D56FA"/>
<path d="M161.917 34.8809C161.844 34.8808 161.771 34.8953 161.702 34.9234C161.634 34.9515 161.572 34.9927 161.52 35.0446C161.468 35.0965 161.427 35.1581 161.399 35.2259C161.37 35.2938 161.356 35.3665 161.356 35.4399C161.356 35.5133 161.37 35.586 161.399 35.6539C161.427 35.7217 161.468 35.7834 161.52 35.8353C161.572 35.8872 161.634 35.9284 161.702 35.9565C161.771 35.9846 161.844 35.999 161.917 35.999H176.557C176.631 35.999 176.704 35.9846 176.772 35.9565C176.841 35.9284 176.902 35.8872 176.955 35.8353C177.007 35.7834 177.048 35.7217 177.076 35.6539C177.105 35.586 177.119 35.5133 177.119 35.4399C177.119 35.3665 177.105 35.2938 177.076 35.2259C177.048 35.1581 177.007 35.0965 176.955 35.0446C176.902 34.9927 176.841 34.9515 176.772 34.9234C176.704 34.8953 176.631 34.8808 176.557 34.8809H161.917Z" fill="#6D56FA"/>
<path d="M180.864 34.7789C180.715 34.7789 180.572 34.8377 180.467 34.9423C180.362 35.0469 180.302 35.1888 180.302 35.3369C180.302 35.4104 180.317 35.4831 180.345 35.5509C180.373 35.6187 180.414 35.6804 180.467 35.7323C180.519 35.7842 180.581 35.8254 180.649 35.8535C180.717 35.8815 180.79 35.896 180.864 35.896H193.716C193.79 35.896 193.863 35.8815 193.931 35.8535C193.999 35.8254 194.061 35.7842 194.113 35.7323C194.166 35.6804 194.207 35.6187 194.235 35.5509C194.263 35.4831 194.278 35.4104 194.278 35.3369C194.278 35.1888 194.218 35.0469 194.113 34.9423C194.008 34.8377 193.865 34.7789 193.716 34.7789H180.864Z" fill="#6D56FA"/>
<path d="M180.477 45.3555C180.403 45.3555 180.33 45.3699 180.262 45.398C180.194 45.4261 180.132 45.4673 180.08 45.5192C180.028 45.5711 179.987 45.6327 179.958 45.7006C179.93 45.7684 179.916 45.8411 179.916 45.9145C179.916 45.9879 179.93 46.0607 179.958 46.1285C179.987 46.1963 180.028 46.258 180.08 46.3099C180.132 46.3618 180.194 46.4029 180.262 46.431C180.33 46.4591 180.404 46.4736 180.477 46.4736H185.216C185.289 46.4736 185.362 46.4591 185.431 46.431C185.499 46.4029 185.561 46.3618 185.613 46.3099C185.665 46.258 185.706 46.1963 185.734 46.1285C185.763 46.0607 185.777 45.9879 185.777 45.9145C185.777 45.8411 185.763 45.7684 185.735 45.7006C185.706 45.6327 185.665 45.5711 185.613 45.5192C185.561 45.4673 185.499 45.4261 185.431 45.398C185.362 45.3699 185.289 45.3555 185.216 45.3555H180.477Z" fill="#6D56FA"/>
<path d="M188.718 45.3555C188.644 45.3555 188.571 45.3699 188.503 45.398C188.435 45.4261 188.373 45.4673 188.321 45.5192C188.269 45.5711 188.227 45.6327 188.199 45.7006C188.171 45.7684 188.156 45.8411 188.156 45.9145C188.156 45.9879 188.171 46.0607 188.199 46.1285C188.227 46.1963 188.269 46.258 188.321 46.3099C188.373 46.3618 188.435 46.4029 188.503 46.431C188.571 46.4591 188.644 46.4736 188.718 46.4736H194.455C194.529 46.4736 194.602 46.4591 194.67 46.431C194.738 46.4029 194.8 46.3618 194.852 46.3099C194.904 46.258 194.946 46.1963 194.974 46.1285C195.002 46.0607 195.017 45.9879 195.017 45.9145C195.017 45.8411 195.002 45.7684 194.974 45.7006C194.946 45.6327 194.904 45.5711 194.852 45.5192C194.8 45.4673 194.738 45.4261 194.67 45.398C194.602 45.3699 194.529 45.3555 194.455 45.3555H188.718Z" fill="#6D56FA"/>
<path d="M161.917 45.3555C161.844 45.3555 161.771 45.3699 161.702 45.398C161.634 45.4261 161.572 45.4673 161.52 45.5192C161.468 45.5711 161.427 45.6327 161.399 45.7006C161.37 45.7684 161.356 45.8411 161.356 45.9145C161.356 45.9879 161.37 46.0607 161.399 46.1285C161.427 46.1963 161.468 46.258 161.52 46.3099C161.572 46.3618 161.634 46.4029 161.702 46.431C161.771 46.4591 161.844 46.4736 161.917 46.4736H175.767C175.841 46.4736 175.914 46.4591 175.982 46.431C176.05 46.4029 176.112 46.3618 176.164 46.3099C176.216 46.258 176.257 46.1963 176.286 46.1285C176.314 46.0607 176.328 45.9879 176.328 45.9145C176.328 45.8411 176.314 45.7684 176.286 45.7006C176.258 45.6327 176.216 45.5711 176.164 45.5192C176.112 45.4673 176.05 45.4261 175.982 45.398C175.914 45.3699 175.841 45.3555 175.767 45.3555H161.917Z" fill="#6D56FA"/>
<path d="M11.8254 69.2008L11.8681 110.269L11.8254 69.2008Z" fill="#6D56FA"/>
<path d="M11.8247 68.6411C11.7509 68.6412 11.6779 68.6558 11.6098 68.6841C11.5417 68.7123 11.4799 68.7535 11.4279 68.8055C11.3758 68.8575 11.3345 68.9192 11.3064 68.9871C11.2784 69.055 11.264 69.1279 11.2642 69.2013L11.3059 110.27C11.306 110.344 11.3207 110.416 11.349 110.484C11.3774 110.552 11.4189 110.613 11.4711 110.665C11.5234 110.717 11.5854 110.758 11.6536 110.786C11.7218 110.814 11.7949 110.828 11.8686 110.828C11.9424 110.828 12.0154 110.813 12.0835 110.785C12.1516 110.757 12.2134 110.716 12.2655 110.664C12.3175 110.612 12.3588 110.55 12.3868 110.482C12.4149 110.414 12.4293 110.341 12.4292 110.268L12.3874 69.2013C12.3876 69.1277 12.3731 69.0547 12.3449 68.9867C12.3167 68.9187 12.2752 68.8569 12.223 68.8048C12.1707 68.7528 12.1085 68.7115 12.0402 68.6834C11.9719 68.6553 11.8986 68.641 11.8247 68.6411Z" fill="#6D56FA"/>
<path d="M55.4335 110.088L55.6118 75.0814L55.4335 110.088Z" fill="#6D56FA"/>
<path d="M55.6155 74.5227C55.5418 74.5223 55.4686 74.5362 55.4003 74.5639C55.332 74.5916 55.2699 74.6325 55.2174 74.6841C55.1649 74.7357 55.1232 74.7971 55.0946 74.8647C55.066 74.9324 55.051 75.0051 55.0506 75.0785L54.8726 110.086C54.8722 110.234 54.9308 110.376 55.0355 110.481C55.1401 110.586 55.2823 110.646 55.4309 110.646C55.5046 110.647 55.5778 110.633 55.6461 110.605C55.7144 110.577 55.7766 110.537 55.829 110.485C55.8815 110.433 55.9232 110.372 55.9518 110.304C55.9805 110.237 55.9954 110.164 55.9958 110.091L56.1738 75.0851C56.1743 75.0116 56.1602 74.9388 56.1324 74.8708C56.1046 74.8028 56.0636 74.741 56.0118 74.6887C55.9599 74.6365 55.8982 74.595 55.8302 74.5665C55.7622 74.538 55.6893 74.5231 55.6155 74.5227Z" fill="#6D56FA"/>
<path d="M11.8269 109.806C11.6783 109.807 11.5359 109.865 11.4308 109.97C11.3258 110.075 11.2666 110.216 11.2664 110.364C11.2662 110.438 11.2806 110.51 11.3086 110.578C11.3367 110.646 11.378 110.708 11.43 110.76C11.4821 110.812 11.5439 110.853 11.612 110.881C11.6801 110.91 11.7531 110.924 11.8269 110.924H55.6573C55.7313 110.925 55.8045 110.91 55.8729 110.882C55.9412 110.854 56.0033 110.813 56.0556 110.761C56.1079 110.709 56.1493 110.647 56.1776 110.579C56.2058 110.511 56.2202 110.438 56.22 110.364C56.2199 110.291 56.2053 110.218 56.1769 110.15C56.1485 110.083 56.1071 110.021 56.0548 109.969C56.0025 109.917 55.9405 109.876 55.8723 109.848C55.8041 109.82 55.7311 109.806 55.6573 109.806H11.8269Z" fill="#6D56FA"/>
<path d="M11.728 68.5973C11.6542 68.5974 11.5812 68.612 11.5131 68.6402C11.445 68.6684 11.3832 68.7098 11.3311 68.7618C11.2791 68.8138 11.2378 68.8755 11.2098 68.9434C11.1817 69.0113 11.1673 69.084 11.1675 69.1574C11.1677 69.3053 11.2269 69.4471 11.332 69.5517C11.437 69.6563 11.5794 69.7152 11.728 69.7154H49.3685L55.3144 75.5336C55.4212 75.6368 55.5648 75.6936 55.7135 75.6915C55.8623 75.6894 56.0042 75.6286 56.108 75.5224C56.2122 75.4168 56.27 75.2742 56.2687 75.1261C56.2675 74.978 56.2072 74.8366 56.1012 74.7327L49.9926 68.7546C49.8879 68.6513 49.7466 68.5932 49.5992 68.5928L11.728 68.5973Z" fill="#6D56FA"/>
<path d="M20.5006 77.0106C20.352 77.0109 20.2095 77.0697 20.1045 77.1743C19.9994 77.2789 19.9403 77.4207 19.9401 77.5686C19.9403 77.7165 19.9995 77.8583 20.1045 77.9629C20.2096 78.0674 20.352 78.1263 20.5006 78.1266H35.5885C35.737 78.1263 35.8794 78.0674 35.9845 77.9629C36.0896 77.8583 36.1487 77.7165 36.149 77.5686C36.1487 77.4207 36.0896 77.2789 35.9846 77.1743C35.8795 77.0697 35.737 77.0109 35.5885 77.0106H20.5006Z" fill="#6D56FA"/>
<path d="M37.9052 77.1267C37.8313 77.1265 37.758 77.141 37.6897 77.1691C37.6213 77.1972 37.5593 77.2384 37.507 77.2904C37.4547 77.3425 37.4132 77.4043 37.385 77.4723C37.3568 77.5403 37.3424 77.6133 37.3425 77.6869C37.3427 77.7603 37.3573 77.833 37.3857 77.9008C37.414 77.9685 37.4555 78.0302 37.5078 78.082C37.56 78.1338 37.622 78.1748 37.6902 78.2027C37.7584 78.2307 37.8315 78.245 37.9052 78.2448H48.8453C48.9938 78.2446 49.1363 78.1857 49.2413 78.0811C49.3464 77.9766 49.4055 77.8348 49.4058 77.6869C49.406 77.6134 49.3916 77.5407 49.3635 77.4728C49.3354 77.405 49.2942 77.3432 49.2421 77.2912C49.1901 77.2392 49.1282 77.1979 49.0601 77.1697C48.992 77.1414 48.919 77.1268 48.8453 77.1267H37.9052Z" fill="#6D56FA"/>
<path d="M20.7776 88.5332C20.7038 88.5333 20.6308 88.5479 20.5627 88.5761C20.4946 88.6044 20.4328 88.6457 20.3807 88.6977C20.3286 88.7497 20.2874 88.8114 20.2593 88.8793C20.2312 88.9472 20.2169 89.0199 20.217 89.0934C20.2173 89.2413 20.2764 89.383 20.3815 89.4876C20.4865 89.5922 20.629 89.6511 20.7776 89.6513H33.7091C33.8577 89.6511 34.0001 89.5922 34.1052 89.4876C34.2102 89.383 34.2694 89.2413 34.2696 89.0934C34.2698 89.0199 34.2554 88.9472 34.2273 88.8793C34.1992 88.8114 34.158 88.7497 34.1059 88.6977C34.0539 88.6457 33.992 88.6044 33.9239 88.5761C33.8559 88.5479 33.7828 88.5333 33.7091 88.5332H20.7776Z" fill="#6D56FA"/>
<path d="M37.0437 88.4304C36.8951 88.4307 36.7526 88.4895 36.6476 88.5941C36.5425 88.6987 36.4834 88.8405 36.4832 88.9884C36.483 89.0618 36.4974 89.1347 36.5254 89.2026C36.5535 89.2704 36.5948 89.3322 36.6468 89.3842C36.6989 89.4362 36.7607 89.4774 36.8288 89.5056C36.8969 89.5338 36.9699 89.5484 37.0437 89.5486H49.8961C49.97 89.5487 50.0433 89.5344 50.1116 89.5063C50.18 89.4782 50.242 89.4369 50.2943 89.3849C50.3466 89.3328 50.3881 89.271 50.4163 89.203C50.4445 89.1349 50.4589 89.062 50.4588 88.9884C50.4587 88.915 50.444 88.8423 50.4157 88.7745C50.3873 88.7067 50.3458 88.6451 50.2936 88.5933C50.2413 88.5415 50.1793 88.5005 50.1111 88.4725C50.0429 88.4446 49.9698 88.4303 49.8961 88.4304H37.0437Z" fill="#6D56FA"/>
<path d="M36.6567 99.0779C36.583 99.078 36.5099 99.0926 36.4418 99.1208C36.3738 99.149 36.3119 99.1904 36.2598 99.2424C36.2078 99.2944 36.1666 99.3561 36.1385 99.424C36.1104 99.4919 36.096 99.5646 36.0962 99.638C36.0964 99.786 36.1555 99.9277 36.2606 100.032C36.3657 100.137 36.5081 100.196 36.6567 100.196H41.3959C41.5444 100.196 41.6869 100.137 41.792 100.032C41.897 99.9277 41.9561 99.786 41.9564 99.638C41.9565 99.5646 41.9422 99.4919 41.9141 99.424C41.886 99.3561 41.8448 99.2944 41.7927 99.2424C41.7407 99.1904 41.6788 99.149 41.6107 99.1208C41.5426 99.0926 41.4696 99.078 41.3959 99.0779H36.6567Z" fill="#6D56FA"/>
<path d="M44.8976 98.6643C44.8238 98.6644 44.7508 98.679 44.6827 98.7072C44.6146 98.7355 44.5527 98.7768 44.5007 98.8288C44.4486 98.8808 44.4074 98.9425 44.3793 99.0104C44.3512 99.0783 44.3369 99.151 44.337 99.2245C44.3373 99.3724 44.3965 99.5142 44.5015 99.6187C44.6066 99.7233 44.749 99.7822 44.8976 99.7824H50.6346C50.7084 99.7826 50.7814 99.7683 50.8496 99.7403C50.9178 99.7124 50.9799 99.6714 51.0321 99.6196C51.0844 99.5678 51.1259 99.5061 51.1542 99.4384C51.1826 99.3706 51.1972 99.2979 51.1974 99.2245C51.1975 99.1509 51.1831 99.0779 51.1549 99.0099C51.1267 98.9419 51.0852 98.8801 51.0329 98.828C50.9806 98.776 50.9185 98.7348 50.8502 98.7067C50.7818 98.6786 50.7086 98.6641 50.6346 98.6643H44.8976Z" fill="#6D56FA"/>
<path d="M21.1689 99.0079C21.0203 99.0082 20.8779 99.067 20.7728 99.1716C20.6677 99.2762 20.6086 99.418 20.6084 99.5659C20.6082 99.6393 20.6226 99.7122 20.6507 99.7801C20.6788 99.848 20.72 99.9097 20.7721 99.9617C20.8241 100.014 20.886 100.055 20.9541 100.083C21.0221 100.111 21.0952 100.126 21.1689 100.126H33.4014C33.4752 100.126 33.5482 100.111 33.6163 100.083C33.6844 100.055 33.7462 100.014 33.7983 99.9617C33.8504 99.9097 33.8916 99.848 33.9197 99.7801C33.9478 99.7122 33.9621 99.6393 33.962 99.5659C33.9617 99.418 33.9026 99.2762 33.7975 99.1716C33.6925 99.067 33.55 99.0082 33.4014 99.0079H21.1689Z" fill="#6D56FA"/>
<path fill-rule="evenodd" clip-rule="evenodd" d="M18.3539 77.7109C18.3539 78.0544 18.2168 78.3838 17.9729 78.6267C17.7289 78.8696 17.3979 79.006 17.0529 79.006C16.7078 79.006 16.3769 78.8696 16.1329 78.6267C15.8889 78.3838 15.7518 78.0544 15.7518 77.7109C15.7518 77.3674 15.8889 77.038 16.1329 76.7951C16.3769 76.5522 16.7078 76.4158 17.0529 76.4158C17.3979 76.4158 17.7289 76.5522 17.9729 76.7951C18.2168 77.038 18.3539 77.3674 18.3539 77.7109Z" fill="#6D56FA"/>
<path fill-rule="evenodd" clip-rule="evenodd" d="M18.3731 89.6545C18.3731 90.0031 18.234 90.3374 17.9864 90.5839C17.7388 90.8304 17.403 90.9688 17.0528 90.9688C16.8795 90.9688 16.7078 90.9348 16.5476 90.8688C16.3874 90.8027 16.2419 90.7059 16.1193 90.5839C15.9967 90.4618 15.8994 90.317 15.8331 90.1575C15.7667 89.998 15.7325 89.8271 15.7325 89.6545C15.7325 89.4819 15.7667 89.311 15.8331 89.1516C15.8994 88.9921 15.9967 88.8472 16.1193 88.7252C16.2419 88.6032 16.3874 88.5063 16.5476 88.4403C16.7078 88.3742 16.8795 88.3402 17.0528 88.3402C17.403 88.3402 17.7388 88.4787 17.9864 88.7252C18.234 88.9717 18.3731 89.306 18.3731 89.6545Z" fill="#6D56FA"/>
<path fill-rule="evenodd" clip-rule="evenodd" d="M18.5272 99.3415C18.5272 99.7307 18.3718 100.104 18.0953 100.379C17.8189 100.654 17.4439 100.809 17.0529 100.809C16.6619 100.809 16.2869 100.654 16.0104 100.379C15.734 100.104 15.5786 99.7307 15.5786 99.3415C15.5786 99.1487 15.6168 98.9579 15.6908 98.7798C15.7649 98.6018 15.8735 98.44 16.0104 98.3038C16.1473 98.1675 16.3098 98.0594 16.4887 97.9856C16.6676 97.9119 16.8593 97.8739 17.0529 97.8739C17.2465 97.8739 17.4382 97.9119 17.6171 97.9856C17.7959 98.0594 17.9585 98.1675 18.0954 98.3038C18.2323 98.44 18.3408 98.6018 18.4149 98.7798C18.489 98.9579 18.5272 99.1487 18.5272 99.3415Z" fill="#6D56FA"/>
<path d="M10.4925 48.6539C10.3533 48.7065 10.2408 48.8121 10.1798 48.9473C10.1188 49.0825 10.1142 49.2363 10.1671 49.3749L12.3078 54.9695C12.3607 55.108 12.4668 55.22 12.6026 55.2807C12.7384 55.3415 12.8929 55.346 13.0321 55.2934C13.1713 55.2407 13.2838 55.1351 13.3448 54.9999C13.4058 54.8647 13.4103 54.7109 13.3575 54.5724L11.2167 48.9778C11.1638 48.8392 11.0578 48.7272 10.922 48.6665C10.7862 48.6058 10.6316 48.6012 10.4925 48.6539Z" fill="#6D56FA"/>
<path d="M3.70973 57.9585C3.60343 58.0622 3.54284 58.2038 3.54129 58.3519C3.53974 58.5001 3.59734 58.6427 3.70144 58.7486L6.76539 61.8595C6.86954 61.9654 7.01166 62.0257 7.16049 62.0273C7.30932 62.0288 7.45269 61.9716 7.55909 61.868C7.66539 61.7642 7.72598 61.6227 7.72753 61.4746C7.72908 61.3264 7.67148 61.1838 7.56738 61.0779L4.50344 57.966C4.39914 57.8603 4.25694 57.8001 4.10811 57.7987C3.95927 57.7973 3.816 57.8548 3.70973 57.9585Z" fill="#6D56FA"/>
<path d="M5.68982 68.4259L0.408477 69.9132C0.265382 69.9536 0.144215 70.0488 0.0715613 70.1779C-0.00109259 70.3071 -0.0192967 70.4597 0.0209511 70.6022C0.0410089 70.6729 0.0748576 70.7389 0.120553 70.7965C0.166247 70.8542 0.222906 70.9023 0.287278 70.9381C0.35165 70.9739 0.422464 70.9968 0.495709 71.0054C0.568955 71.0139 0.643184 71.008 0.714146 70.988L5.99548 69.5017C6.13861 69.4611 6.2597 69.3657 6.33217 69.2363C6.40464 69.1069 6.42257 68.9542 6.38197 68.8116C6.34145 68.6692 6.2458 68.5486 6.11604 68.4763C5.98627 68.404 5.83299 68.3858 5.68982 68.4259Z" fill="#6D56FA"/>
<path d="M25.8754 113.918C25.8023 113.909 25.728 113.914 25.6568 113.933C25.5856 113.952 25.5189 113.985 25.4605 114.03C25.4021 114.075 25.3531 114.13 25.3164 114.194C25.2797 114.258 25.2559 114.328 25.2465 114.401C25.237 114.474 25.242 114.548 25.2613 114.618C25.2805 114.689 25.3136 114.756 25.3586 114.814C25.4037 114.872 25.4598 114.921 25.5237 114.957C25.5877 114.994 25.6583 115.017 25.7314 115.027C28.7954 115.421 32.2518 116.631 34.8631 118.592C36.5933 119.891 37.8858 121.526 38.5695 123.455C37.5658 123.551 36.5593 123.815 35.5843 124.397C34.0699 125.276 33.3787 126.343 33.4664 127.373C33.554 128.404 34.351 129.175 35.2859 129.597C36.2208 130.019 37.3604 130.132 38.3602 129.699C39.36 129.267 40.1385 128.231 40.2367 126.68C40.2368 126.675 40.2368 126.67 40.2367 126.665C40.2621 125.945 40.1425 125.281 40.0243 124.619C40.2248 124.646 40.4294 124.601 40.6284 124.648C42.0947 124.988 43.5106 125.849 44.6984 127.025C47.0741 129.377 48.473 132.966 47.753 135.826C47.7169 135.969 47.7397 136.121 47.8162 136.248C47.8928 136.376 48.0169 136.467 48.1613 136.503C48.2329 136.521 48.3073 136.525 48.3803 136.514C48.4533 136.503 48.5235 136.478 48.5868 136.441C48.6502 136.403 48.7054 136.353 48.7493 136.294C48.7933 136.235 48.8252 136.168 48.8431 136.097C49.6958 132.709 48.1091 128.825 45.4911 126.233C44.1821 124.937 42.5991 123.957 40.8833 123.558C40.5254 123.475 40.1473 123.538 39.7797 123.509C39.0611 121.153 37.5205 119.187 35.5397 117.7C32.728 115.588 29.1203 114.335 25.8754 113.918ZM38.4027 124.54C38.5716 124.516 38.7368 124.573 38.9052 124.564C39.0395 125.22 39.1384 125.893 39.1135 126.617C39.0329 127.852 38.5423 128.402 37.9126 128.674C37.2811 128.947 36.4293 128.886 35.7491 128.579C35.0688 128.272 34.6264 127.76 34.5854 127.279C34.5445 126.797 34.836 126.125 36.15 125.362C36.1521 125.36 36.1542 125.359 36.1563 125.357C36.9032 124.91 37.6547 124.648 38.4027 124.539V124.54Z" fill="#6D56FA"/>
<path d="M167.993 65.1706C167.852 65.2186 167.736 65.3202 167.67 65.4532L167.383 66.035C167.382 66.0383 167.38 66.0417 167.379 66.045L167.104 66.6329C167.098 66.6478 167.091 66.663 167.086 66.6784C165.532 70.9456 163.419 75.9263 164.728 80.6474C164.833 81.1159 164.994 81.5277 165.189 81.8986C164.92 82.461 164.679 83.0432 164.53 83.6499C163.834 86.464 164.413 89.6948 166.873 91.3591C166.934 91.4004 167.003 91.4292 167.075 91.4441C167.147 91.459 167.222 91.4595 167.294 91.4457C167.367 91.4319 167.436 91.4041 167.498 91.3637C167.559 91.3234 167.612 91.2713 167.654 91.2105C167.737 91.0879 167.768 90.9374 167.74 90.792C167.712 90.6466 167.627 90.5181 167.504 90.4349C165.543 89.1081 165.007 86.3991 165.621 83.916C165.705 83.5746 165.859 83.2682 165.983 82.9454C166.426 83.3764 166.929 83.7052 167.475 83.8851C168.731 84.2987 170.101 84.1197 171.198 83.6128C172.295 83.106 173.202 82.2317 173.228 81.0961C173.241 80.5283 173.003 79.9444 172.539 79.4385C172.075 78.9327 171.394 78.4833 170.451 78.0811C170.367 78.0454 170.276 78.0305 170.185 78.0378C168.376 78.1832 166.972 79.2553 165.954 80.6763C165.921 80.5644 165.849 80.5206 165.822 80.3978C165.819 80.3877 165.817 80.3777 165.814 80.3677C164.636 76.1511 166.565 71.386 168.132 67.0825L168.394 66.5213L168.678 65.9448C168.744 65.8117 168.754 65.6582 168.705 65.5179C168.657 65.3777 168.555 65.2622 168.421 65.197C168.355 65.1646 168.283 65.1456 168.21 65.141C168.136 65.1364 168.062 65.1462 167.992 65.17L167.993 65.1706ZM170.141 79.1922C170.875 79.5266 171.42 79.8774 171.709 80.1927C172.022 80.5344 172.111 80.8137 172.105 81.0705C172.093 81.584 171.582 82.2036 170.726 82.5991C169.87 82.9947 168.751 83.1276 167.829 82.824C167.31 82.653 166.87 82.3101 166.501 81.8317C167.337 80.4096 168.587 79.3715 170.141 79.1922Z" fill="#6D56FA"/>
<path d="M67.081 173.773C67.4947 173.936 76.6401 178.699 76.6401 178.699L89.5906 183.11L96.9178 183.972L99.2967 182.877L112.002 164.599L118.148 155.051L119.656 152.667C119.656 152.667 120.01 156.108 119.732 156.519C119.455 156.931 110.119 171.633 110.119 171.633L101.48 185.468C101.48 185.468 99.7104 187.164 99.3456 187.337C98.9809 187.511 93.902 186.942 93.902 186.942L82.6064 184.931L73.8258 181.468L68.344 178.212C68.344 178.212 66.9232 175.979 66.8797 175.627C66.8362 175.274 67.081 173.773 67.081 173.773Z" fill="#6D56FA"/>
</svg>
