<svg width="18" height="20" viewBox="0 0 18 20" fill="none" xmlns="http://www.w3.org/2000/svg">
<path d="M11.3684 6.36364C11.3684 5.86156 10.9443 5.45455 10.4211 5.45455C9.89784 5.45455 9.47368 5.86156 9.47368 6.36364C9.47368 8.46226 8.98976 9.76585 8.16235 10.5598C7.33494 11.3538 5.97646 11.8182 3.78947 11.8182C3.26626 11.8182 2.84211 12.2252 2.84211 12.7273C2.84211 13.2294 3.26626 13.6364 3.78947 13.6364C5.97646 13.6364 7.33494 14.1007 8.16235 14.8947C8.98976 15.6887 9.47368 16.9923 9.47368 19.0909C9.47368 19.593 9.89784 20 10.4211 20C10.9443 20 11.3684 19.593 11.3684 19.0909C11.3684 16.9923 11.8523 15.6887 12.6798 14.8947C13.5072 14.1007 14.8656 13.6364 17.0526 13.6364C17.5758 13.6364 18 13.2294 18 12.7273C18 12.2252 17.5758 11.8182 17.0526 11.8182C14.8656 11.8182 13.5072 11.3538 12.6798 10.5598C11.8523 9.76585 11.3684 8.46226 11.3684 6.36364Z" fill="#15112B"/>
<path d="M3.78947 4.09091C3.78947 3.83987 3.5774 3.63636 3.31579 3.63636C3.05418 3.63636 2.84211 3.83987 2.84211 4.09091C2.84211 4.98239 2.63633 5.52055 2.29992 5.84336C1.96352 6.16617 1.4027 6.36364 0.473684 6.36364C0.212076 6.36364 0 6.56714 0 6.81818C0 7.06922 0.212076 7.27273 0.473684 7.27273C1.4027 7.27273 1.96352 7.47019 2.29992 7.793C2.63633 8.11582 2.84211 8.65397 2.84211 9.54545C2.84211 9.79649 3.05418 10 3.31579 10C3.5774 10 3.78947 9.79649 3.78947 9.54545C3.78947 8.65397 3.99525 8.11582 4.33166 7.793C4.66806 7.47019 5.22888 7.27273 6.1579 7.27273C6.4195 7.27273 6.63158 7.06922 6.63158 6.81818C6.63158 6.56714 6.4195 6.36364 6.1579 6.36364C5.22888 6.36364 4.66806 6.16617 4.33166 5.84336C3.99525 5.52055 3.78947 4.98239 3.78947 4.09091Z" fill="#15112B"/>
<path d="M8.52632 0.454545C8.52632 0.203507 8.31424 0 8.05263 0C7.79102 0 7.57895 0.203507 7.57895 0.454545C7.57895 1.03037 7.44554 1.34126 7.26374 1.51571C7.08194 1.69016 6.75797 1.81818 6.1579 1.81818C5.89629 1.81818 5.68421 2.02169 5.68421 2.27273C5.68421 2.52377 5.89629 2.72727 6.1579 2.72727C6.75797 2.72727 7.08194 2.85529 7.26374 3.02975C7.44554 3.2042 7.57895 3.51508 7.57895 4.09091C7.57895 4.34195 7.79102 4.54545 8.05263 4.54545C8.31424 4.54545 8.52632 4.34195 8.52632 4.09091C8.52632 3.51508 8.65973 3.2042 8.84152 3.02975C9.02332 2.85529 9.3473 2.72727 9.94737 2.72727C10.209 2.72727 10.4211 2.52377 10.4211 2.27273C10.4211 2.02169 10.209 1.81818 9.94737 1.81818C9.3473 1.81818 9.02332 1.69016 8.84152 1.51571C8.65973 1.34126 8.52632 1.03037 8.52632 0.454545Z" fill="#15112B"/>
</svg>
