<svg width="271" height="57" viewBox="0 0 271 57" fill="none" xmlns="http://www.w3.org/2000/svg">
<g clip-path="url(#clip0_0_4790)">
<mask id="mask0_0_4790" style="mask-type:luminance" maskUnits="userSpaceOnUse" x="0" y="0" width="271" height="57">
<path d="M270.092 0.904297H0.802734V56.535H270.092V0.904297Z" fill="white"/>
</mask>
<g mask="url(#mask0_0_4790)">
<path d="M148.036 6.68107C150.219 2.95458 154.615 0.990005 158.874 0.952673C162.76 0.70524 167.157 1.34257 169.879 4.37175C168.495 6.17125 167.171 8.00827 165.787 9.80771C164.244 8.06069 162.973 5.6012 160.479 5.10635C158.022 4.35657 154.934 5.61623 154.295 8.21052C153.261 12.3269 153.885 16.6306 153.733 20.8296H161.711V25.516H153.725C153.725 32.5791 153.725 39.642 153.717 46.7051C153.687 48.7071 154.014 50.6867 154.394 52.6511C156.22 53.4833 158.19 53.9108 160.205 53.9481C160.197 54.4356 160.19 55.4178 160.182 55.9128C153.657 55.4928 147.123 55.3652 140.605 55.905C140.605 55.4928 140.621 54.668 140.621 54.2555C142.682 53.8959 145.237 52.951 145.321 50.5066C146.119 42.2065 145.579 33.8463 145.739 25.5161C144.149 25.5161 142.56 25.5161 140.97 25.5086C140.978 24.8039 140.993 24.0915 141.001 23.3867C142.613 22.6519 144.188 21.8347 145.739 20.9949C145.739 16.1811 145.45 10.9774 148.036 6.68132L148.036 6.68107Z" fill="#15112B"/>
<path d="M265.67 0.945312C261.449 1.90504 257.175 2.71456 252.839 2.90201C252.794 3.2919 252.71 4.07149 252.672 4.46141C254.284 4.9413 256.916 4.81443 257.03 7.03383C257.676 11.5328 257.22 16.0981 257.349 20.6269C251.136 19.5772 244.192 19.6447 238.906 23.4611C233.118 27.4575 231.133 34.9109 231.711 41.5544C232.038 46.7054 234.654 51.9915 239.392 54.5031C245.035 57.5623 252.254 56.9326 257.539 53.4083C257.577 54.4506 257.6 55.4928 257.608 56.535C261.7 55.5077 265.883 54.9303 270.089 54.6904V52.8906C264.128 51.8898 265.776 49.1701 265.358 44.546C265.366 30.0151 265.137 15.4764 265.67 0.946308V0.945312ZM250.206 24.3782C252.723 24.352 255.283 25.1447 257.349 26.5281C257.357 34.3484 257.334 42.1685 257.364 49.9889C252.938 51.9906 246.953 51.8481 243.484 48.1443C240.51 45.0099 240.008 40.4213 240.275 36.3274C240.571 32.6009 241.363 28.342 244.663 26.0324C246.317 24.9138 248.249 24.3982 250.206 24.3777V24.3782Z" fill="#15112B"/>
<path d="M14.7783 5.72164C19.7903 5.42173 24.8175 5.74413 29.7764 6.43393C29.4798 9.91299 29.5102 13.4146 29.784 16.8935C29.3049 16.8935 28.3466 16.901 27.8674 16.901C27.4872 14.7267 27.0916 12.0873 24.7416 11.12C21.2582 9.67284 17.1815 9.53041 13.5689 10.5651C8.84602 11.9448 8.07015 18.7977 11.5839 21.7896C15.9799 25.5836 21.3647 28.0656 25.8672 31.7469C32.9173 37.2805 31.997 50.162 23.6311 54.0385C16.5886 57.2476 8.32125 56.4378 1.05025 54.4208C1.0957 50.9737 0.966525 47.5266 0.806641 44.0838C1.3314 44.0764 2.38858 44.054 2.92096 44.0465C3.29363 46.2134 3.63585 48.875 5.86429 49.9922C9.84954 52.1967 14.9908 52.3765 19.1285 50.4794C24.2927 47.6678 23.3418 39.5401 18.5124 36.8032C14.3217 33.6215 9.50746 31.2696 5.63613 27.6775C1.34659 23.7485 0.81434 16.8653 3.57531 11.954C5.8339 8.03998 10.3898 6.08337 14.7782 5.72332L14.7783 5.72164Z" fill="#15112B"/>
<path d="M44.5222 13.0918C44.9176 13.1143 45.7163 13.1518 46.1117 13.1743C46.1042 15.7911 46.1042 18.4003 46.1042 21.0173H58.273V25.5163H46.1042C46.1499 31.8146 46.0054 38.1204 46.1726 44.4264C46.3399 46.8256 46.4084 49.8173 48.6824 51.287C51.5497 52.9667 54.9797 51.917 57.8473 50.8147C58.7293 52.944 56.4859 54.1361 54.9267 55.0212C51.2685 56.7681 46.8041 56.9557 43.0242 55.501C39.7917 54.3088 38.2325 50.8225 38.0652 47.628C37.6771 40.2649 38.0652 32.8872 38.1258 25.5167H33.3723C33.3648 25.0219 33.3572 24.5345 33.3496 24.0471C38.5137 22.1276 41.9966 17.7413 44.5222 13.0926V13.0918Z" fill="#15112B"/>
<path d="M77.0893 19.827C71.6062 19.7715 66.0761 22.4565 64.3145 27.8845C64.7936 28.1544 65.7671 28.6866 66.2537 28.9565C68.3605 25.29 73.2812 23.4082 77.1596 25.5228C80.2018 26.8874 80.4609 30.5535 80.4003 33.4257C75.6162 34.9402 70.6648 36.1327 66.1471 38.3521C60.7321 41.1714 60.0325 49.1639 63.9112 53.4902C68.4823 57.6217 76.1107 56.9541 80.6281 53.0475C82.0046 55.7317 85.2598 56.7593 88.0965 55.9719C90.5684 55.4996 92.2034 53.4678 93.8232 51.7504C93.542 51.4356 92.9721 50.7981 92.6906 50.4758C91.6713 50.7306 90.5226 51.5255 89.5263 50.753C88.2334 49.8757 88.3928 48.1139 88.3016 46.7568C88.3928 40.9384 88.72 35.1054 88.4083 29.2795C88.2562 26.2653 86.8872 23.1832 84.1796 21.6011C82.0643 20.4436 79.5817 19.8523 77.0893 19.827ZM80.316 37.9692C80.3463 41.8907 80.3163 45.8116 80.3469 49.7332C77.799 50.8504 74.7717 51.8852 72.0871 50.6031C68.8014 48.8786 68.9386 43.7204 71.6538 41.5535C74.2624 39.7839 77.3572 38.9513 80.316 37.9692Z" fill="#15112B"/>
<path d="M181.91 19.9753C177.902 20.0203 173.764 21.0026 170.631 23.5744C165.968 27.2934 163.945 33.4417 164.151 39.215C164.128 44.156 165.687 49.4272 169.635 52.7116C174.297 56.7156 181.073 57.1126 186.876 55.9204C192.998 54.5935 197.6 49.3074 198.9 43.3838C200.3 37.2357 199.714 30.0904 195.425 25.1269C192.124 21.318 186.838 19.8778 181.91 19.9753ZM181.963 24.1719C184.117 24.2131 186.249 25.0852 187.629 26.776C190.131 29.7977 190.8 33.8617 190.983 37.6554C191.013 41.7869 190.481 46.2476 187.842 49.6216C185.249 52.9281 179.659 53.2955 176.67 50.3188C174.381 48.2269 173.528 45.1158 173.011 42.1914C172.471 38.3074 172.609 34.2658 173.848 30.5242C174.715 28.0199 176.403 25.4856 179.081 24.6307C180.001 24.305 180.984 24.1524 181.963 24.1712L181.963 24.1719Z" fill="#15112B"/>
<path d="M96.6841 22.3583C100.936 22.2908 105.248 21.8559 109.172 20.1239C109.309 21.1211 109.416 22.1183 109.499 23.1306C114.009 20.2214 119.835 19.0892 124.999 20.8887C128.696 22.1109 131.282 25.6801 131.608 29.4589C132.369 36.6495 131.266 43.9376 132.24 51.1131C132.346 53.3702 134.81 53.8798 136.598 54.2472C136.605 54.6672 136.605 55.5069 136.613 55.9269C130.575 55.4543 118.482 55.9045 118.482 55.9045L118.459 54.2043C118.459 54.2043 122.821 52.9953 123.098 51.758C124.094 46.4194 123.858 40.9009 123.805 35.4801C123.608 32.2408 123.691 28.1919 120.55 26.2199C117.181 24.308 113.051 25.1927 109.606 26.4299C109.629 33.4479 109.606 40.4734 109.606 47.4918C109.705 49.3662 109.568 51.5032 110.808 53.0625C111.85 53.775 113.158 53.9022 114.352 54.2323C114.359 54.6523 114.367 55.4994 114.367 55.9269C108.412 55.5445 102.442 55.2969 96.4941 55.9194C96.4941 55.4994 96.5093 54.6672 96.5093 54.2547C98.3194 53.8425 100.707 53.28 101.049 51.1206C101.878 45.9471 101.24 40.661 101.437 35.4424C101.361 32.4657 101.696 29.4514 101.164 26.5121C100.745 24.5027 98.2582 24.6152 96.6914 24.2177C96.6914 23.7529 96.6841 22.8232 96.6841 22.3583Z" fill="#15112B"/>
<path d="M202.961 22.2024C207.22 22.1424 211.479 21.5726 215.525 20.2305L215.639 23.3196C219.731 20.073 225.899 19.2482 230.257 22.4648L225.713 29.3024C223.591 26.0783 219.286 25.2985 215.887 26.9405C215.887 26.9405 215.864 41.1343 215.909 48.2273C216.085 49.8093 215.833 51.8639 217.339 52.8983C218.792 53.738 220.557 53.6932 222.176 53.948C222.176 54.4355 222.169 55.4252 222.169 55.9124C215.636 55.4777 209.087 55.3875 202.554 55.8974L202.553 53.948C204.659 53.594 206.851 52.8759 207.171 51.6386C208.076 48.5869 207.634 45.3551 207.726 42.2135C207.635 37.2124 207.908 32.2035 207.604 27.2102C207.581 24.7809 204.79 24.5634 202.98 24.211C202.983 23.5224 202.968 22.8153 202.965 22.2016L202.961 22.2024Z" fill="#15112B"/>
</g>
</g>
<defs>
<clipPath id="clip0_0_4790">
<rect width="269.5" height="56" fill="white" transform="translate(0.644531 0.748047)"/>
</clipPath>
</defs>
</svg>
