<svg width="143" height="57" viewBox="0 0 143 57" fill="none" xmlns="http://www.w3.org/2000/svg">
<g clip-path="url(#clip0_0_4755)">
<mask id="mask0_0_4755" style="mask-type:luminance" maskUnits="userSpaceOnUse" x="0" y="1" width="143" height="56">
<path d="M142.565 1.04688H0.900391V56.359H142.565V1.04688Z" fill="white"/>
</mask>
<g mask="url(#mask0_0_4755)">
<mask id="mask1_0_4755" style="mask-type:luminance" maskUnits="userSpaceOnUse" x="0" y="1" width="143" height="56">
<path d="M0.900391 56.3868H142.65V1.04688H0.900391V56.3868Z" fill="white"/>
</mask>
<g mask="url(#mask1_0_4755)">
<path d="M76.1938 56.357C67.5781 56.357 57.7784 56.3865 48.1128 56.2133C34.2155 55.9631 26.1949 55.4841 10.0698 55.4841C9.74077 55.4841 9.73356 55.2712 10.0698 55.2712C26.3623 55.2712 34.2155 54.7914 48.1128 54.5436C57.7784 54.3696 67.5781 54.3982 76.1938 54.3982C84.8102 54.3982 94.6105 54.3696 104.275 54.5436C118.173 54.7914 126.026 55.2712 142.32 55.2712C142.646 55.2712 142.639 55.4841 142.32 55.4841C126.193 55.4841 118.173 55.9631 104.275 56.2133C94.6105 56.3865 84.8102 56.357 76.1938 56.357Z" fill="#15112B"/>
<path d="M21.762 18.8152L16.8059 7.411C15.8476 5.22107 15.4737 4.84932 12.8504 4.84932V3.77539C14.8069 3.8159 16.7226 3.858 18.6383 3.858C20.0544 3.858 21.5954 3.77539 22.9692 3.77539V4.84932C22.2199 4.84932 20.6796 4.89062 20.6796 5.88274C20.6796 6.21318 20.971 7.03925 21.1376 7.45312L23.8442 14.3535L26.4675 8.69149C26.9678 7.61754 27.2168 6.83277 27.2168 6.17187C27.2168 4.84932 26.2185 4.84932 24.4269 4.84932V3.77539C25.968 3.8159 27.6755 3.858 29.2166 3.858C30.3405 3.858 31.6734 3.77539 32.8398 3.77539V4.84932C30.6735 4.84932 29.8418 5.88274 29.05 7.4944L24.8024 16.3369L29.8002 27.7823L36.7536 8.89881C37.4613 7.03926 37.5029 6.50232 37.5029 6.21318C37.5029 5.46969 37.0866 4.89062 34.38 4.84932V3.77539C35.921 3.8159 37.5029 3.858 39.0447 3.858C40.0854 3.858 41.2926 3.77539 42.3757 3.77539V4.84932C40.4177 4.84932 39.9597 6.00586 39.2937 7.70095L29.3415 33.2369H28.2583L22.6362 20.7581L16.765 33.2369H15.5986L5.27096 8.1132C4.31272 5.84064 3.81399 4.84932 0.898438 4.84932V3.77539C2.73086 3.8159 4.77062 3.858 6.60384 3.858C8.18572 3.858 9.93487 3.77539 11.5183 3.77539V4.84932C9.60267 4.84932 8.9358 5.22107 8.9358 5.79934C8.9358 6.21318 8.9358 6.54362 9.39373 7.70095L17.5559 27.7823L21.762 18.8152Z" fill="#15112B"/>
<path d="M54.0052 26.873C54.5471 29.5999 56.2122 31.9129 59.2518 31.9129C61.7088 31.9129 62.6262 30.4252 62.6262 28.9811C62.6262 24.104 53.5472 25.6743 53.5472 19.0219C53.5472 16.7072 55.4205 13.7324 60.0011 13.7324C61.3341 13.7324 63.1257 14.1042 64.7492 14.9311L65.0404 19.1458H64.0822C63.6661 16.542 62.2101 15.055 59.544 15.055C57.8781 15.055 56.2963 16.0058 56.2963 17.7819C56.2963 22.617 65.9572 21.1292 65.9572 27.6173C65.9572 30.3434 63.7502 33.2355 58.794 33.2355C57.128 33.2355 55.1715 32.6573 53.7137 31.8304L53.2559 27.0787L54.0052 26.873Z" fill="#15112B"/>
<path d="M71.5316 27.5352C71.5316 30.2621 73.0314 31.0064 74.1565 31.0064C75.2793 31.0064 76.1127 30.6347 77.0721 29.8078L77.6947 30.4274C76.2387 31.9159 74.4063 33.2377 72.1572 33.2377C69.4914 33.2377 68.2006 31.8317 68.2006 29.3947V16.5854H65.4531V15.9237C67.6182 14.2715 68.909 13.4859 71.0333 10.1387H71.5316V14.3542H76.4309V16.5854H71.5316V27.5352Z" fill="#15112B"/>
<path d="M83.0994 30.5498C83.0994 31.5411 84.1411 31.5411 85.0586 31.5411H86.1399V32.6166C85.1402 32.5753 83.3906 32.5332 81.6008 32.5332C79.8939 32.5332 78.1449 32.5753 76.6445 32.6166V31.5411H78.0201C79.5595 31.5411 79.7678 30.8389 79.7678 30.2193V16.5839H76.8529V15.8817C77.5199 15.5084 79.7678 14.641 79.7678 13.1953C79.7678 5.83984 84.517 1.04688 90.8032 1.04688C93.3855 1.04688 95.3428 2.1216 95.3428 4.26945C95.3428 5.75723 94.5095 6.21238 93.553 6.21238C90.6375 6.21238 93.0115 2.74117 89.0548 2.74117C83.9334 2.74117 83.2237 7.16238 83.0994 14.3527H91.3856C93.8016 14.3527 94.094 13.4853 94.4272 13.4853C94.9267 13.4853 95.0096 13.857 95.0096 14.3113V30.1788C95.0096 31.5411 95.9258 31.5411 97.0918 31.5411H97.7997V32.6166C96.3833 32.6166 94.9267 32.5332 93.4281 32.5332C91.9277 32.5332 90.4291 32.5753 88.8879 32.6166V31.5411H89.6798C90.8464 31.5411 91.6774 31.5411 91.6774 30.1788V17.41C91.6774 16.6244 91.3442 16.5839 90.264 16.5839H83.0994V30.5498Z" fill="#15112B"/>
<path d="M105.258 15.055C107.59 15.055 108.881 16.7493 108.881 18.8574C108.881 19.3523 108.757 19.89 107.715 19.89H100.469C100.969 16.9145 102.717 15.055 105.258 15.055ZM112.089 27.989C110.547 29.5165 108.757 30.7564 106.466 30.7564C103.134 30.7564 100.594 27.5339 100.345 23.6083C100.261 22.2031 100.261 21.5836 100.345 21.2118H112.047L112.422 20.964C112.461 20.7162 112.461 20.4676 112.461 20.2197C112.422 15.8398 108.798 13.7324 105.423 13.7324C102.509 13.7324 97.0137 16.1289 97.0137 24.2279C97.0137 26.8738 98.3466 33.2355 104.966 33.2355C108.381 33.2355 110.755 31.0877 112.672 28.5673L112.089 27.989Z" fill="#15112B"/>
<path d="M44.5201 15.055C46.8521 15.055 48.1426 16.7493 48.1426 18.8574C48.1426 19.3523 48.0192 19.89 46.9769 19.89H39.7313C40.2308 16.9145 41.9792 15.055 44.5201 15.055ZM51.3503 27.989C49.8093 29.5165 48.0192 30.7564 45.7273 30.7564C42.3955 30.7564 39.8562 27.5339 39.6073 23.6083C39.5232 22.2031 39.5232 21.5836 39.6073 21.2118H51.3087L51.6833 20.964C51.7234 20.7162 51.7234 20.4676 51.7234 20.2197C51.6833 15.8398 48.0593 13.7324 44.6858 13.7324C41.7711 13.7324 36.2754 16.1289 36.2754 24.2279C36.2754 26.8738 37.6083 33.2355 44.2279 33.2355C47.643 33.2355 50.0166 31.0877 51.9339 28.5673L51.3503 27.989Z" fill="#15112B"/>
<path d="M112.375 31.5419H113.167C114.333 31.5419 115.165 31.5419 115.165 30.1788V7.16238C115.165 4.47678 114.542 4.39496 112.958 3.9406V3.27893C114.624 2.74117 116.372 1.99768 117.247 1.50202C117.704 1.2534 118.04 1.04688 118.165 1.04688C118.413 1.04688 118.497 1.2955 118.497 1.62594V30.1788C118.497 31.5419 119.412 31.5419 120.579 31.5419H121.287V32.6166C119.871 32.6166 118.413 32.5332 116.913 32.5332C115.414 32.5332 113.915 32.5753 112.375 32.6166V31.5419Z" fill="#15112B"/>
<path d="M135.365 28.3193C135.365 29.8483 132.575 30.7562 131.327 30.7562C127.537 30.7562 124.747 27.3693 124.747 22.8233C124.747 17.2448 127.995 15.0548 130.951 15.0548C132.784 15.0548 135.365 15.7983 135.365 18.8573V28.3193ZM140.738 30.7562C139.114 30.7562 138.698 30.7562 138.698 29.0636V1.62514C138.698 1.29471 138.614 1.04688 138.363 1.04688C138.24 1.04688 137.905 1.2534 137.448 1.50202C136.574 1.99768 134.825 2.74117 133.158 3.27893V3.93981C134.741 4.39417 135.365 4.47677 135.365 7.16237V14.4766C134.16 13.9809 132.784 13.7322 131.452 13.7322C125.706 13.7322 121.166 18.6904 121.166 24.269C121.166 28.8975 123.915 33.2361 128.911 33.2361C131.452 33.2361 133.784 31.7484 135.283 30.2193H135.365V32.1201C135.365 32.6166 135.408 33.2361 135.824 33.2361C136.074 33.2361 137.156 32.8223 138.448 32.41C139.656 32.0383 140.779 31.7079 141.404 31.5831H141.446V30.7562H140.738Z" fill="#15112B"/>
<path d="M14.3483 45.9433C14.8223 47.3397 15.8021 48.0221 17.3463 48.0221C18.8609 48.0221 19.7944 47.3246 19.7944 46.1713C19.7944 45.3968 19.2284 44.805 18.2493 44.562L16.1992 44.0616C15.3578 43.8486 14.9295 43.6517 14.5324 43.2871C13.9961 42.801 13.7063 42.1186 13.7063 41.3441C13.7063 39.6745 15.0824 38.5664 17.1326 38.5664C18.9682 38.5664 20.2074 39.4314 20.7886 41.0717L19.6414 41.3894C19.3356 40.2813 18.3718 39.599 17.087 39.599C15.8469 39.599 14.9447 40.3115 14.9447 41.2679C14.9447 42.0725 15.4194 42.5134 16.6122 42.7858L18.5095 43.2418C20.2531 43.6668 21.1248 44.5921 21.1248 46.0338C21.1248 47.8862 19.6414 49.0849 17.3767 49.0849C16.0623 49.0849 15.128 48.7822 14.3787 48.0832C13.7976 47.5518 13.5686 47.2031 13.2012 46.2006L14.3483 45.9433Z" fill="#15112B"/>
<path d="M25.0118 48.8887V39.8874H22.0898V38.7793H29.2034V39.8874H26.2814V48.8887H25.0118Z" fill="#15112B"/>
<path d="M32.8444 40.1293L31.2537 44.9858H34.4046L32.8444 40.1293ZM35.7207 48.8876L34.68 45.9422H30.9175L29.9993 48.8876H28.9434L32.2328 38.7773H33.7009L37.0208 48.8876H35.7207Z" fill="#15112B"/>
<path d="M39.9122 48.8887V39.8874H36.9902V38.7793H44.1038V39.8874H41.1819V48.8887H39.9122Z" fill="#15112B"/>
<path d="M52.6557 48.8887H46.0625V38.7793H52.518V39.8874H47.3474V43.1052H51.4469V44.137H47.3474V47.7806H52.6557V48.8887Z" fill="#15112B"/>
<path d="M66.2112 38.7773V45.3806C66.2112 46.549 66.0125 47.2774 65.5225 47.9009C64.9107 48.6897 63.9471 49.0837 62.7079 49.0837C60.2758 49.0837 59.1895 47.9454 59.1895 45.3806V38.7773H60.4591V45.3806C60.4591 46.3369 60.5816 46.8676 60.8724 47.2472C61.2399 47.7031 61.9736 47.9915 62.7697 47.9915C63.5652 47.9915 64.2527 47.7183 64.6508 47.2472C65.0182 46.8231 65.1557 46.2916 65.1557 45.3806V38.7773H66.2112Z" fill="#15112B"/>
<path d="M75.4222 48.8887L70.1453 40.0693C70.1453 40.3735 70.1603 40.6014 70.1603 40.7532C70.1759 41.1019 70.1759 41.314 70.1759 41.3902V48.8887H69.1504V38.7793H70.7415L75.6828 47.0212C75.6671 46.7178 75.6671 46.4747 75.6671 46.323C75.6521 45.9433 75.6521 45.701 75.6521 45.5946V38.7793H76.6614V48.8887H75.4222Z" fill="#15112B"/>
<path d="M79.7227 38.7793H80.9925V48.8887H79.7227V38.7793Z" fill="#15112B"/>
<path d="M87.5245 48.8887H86.3009L82.8594 38.7793H84.1905L87.0358 47.1276L89.8504 38.7793H90.966L87.5245 48.8887Z" fill="#15112B"/>
<path d="M99.3963 48.8887H92.8027V38.7793H99.2582V39.8874H94.0876V43.1052H98.1871V44.137H94.0876V47.7806H99.3963V48.8887Z" fill="#15112B"/>
<path d="M105.578 43.4837C106.878 43.4837 107.673 42.7554 107.673 41.5869C107.673 40.5392 106.924 39.8863 105.73 39.8863H102.916V43.4837H105.578ZM107.735 48.8876L105.838 44.5156H102.931V48.8876H101.738V38.7773H105.746C107.643 38.7773 108.958 39.9323 108.958 41.6163C108.958 42.2843 108.683 43.0135 108.254 43.4837C107.918 43.8475 107.689 43.9993 107.046 44.2121L109.066 48.8876H107.735Z" fill="#15112B"/>
<path d="M111.131 45.9433C111.605 47.3397 112.585 48.0221 114.129 48.0221C115.644 48.0221 116.577 47.3246 116.577 46.1713C116.577 45.3968 116.011 44.805 115.032 44.562L112.983 44.0616C112.142 43.8486 111.712 43.6517 111.314 43.2871C110.78 42.801 110.489 42.1186 110.489 41.3441C110.489 39.6745 111.865 38.5664 113.915 38.5664C115.751 38.5664 116.99 39.4314 117.572 41.0717L116.424 41.3894C116.119 40.2813 115.154 39.599 113.87 39.599C112.63 39.599 111.727 40.3115 111.727 41.2679C111.727 42.0725 112.202 42.5134 113.395 42.7858L115.293 43.2418C117.036 43.6668 117.908 44.5921 117.908 46.0338C117.908 47.8862 116.424 49.0849 114.16 49.0849C112.844 49.0849 111.911 48.7822 111.162 48.0832C110.581 47.5518 110.351 47.2031 109.984 46.2006L111.131 45.9433Z" fill="#15112B"/>
<path d="M119.807 38.7793H121.076V48.8887H119.807V38.7793Z" fill="#15112B"/>
<path d="M125.957 48.8887V39.8874H123.035V38.7793H130.149V39.8874H127.227V48.8887H125.957Z" fill="#15112B"/>
<path d="M135.765 44.6371V48.8876H134.495V44.6371L131.084 38.7773H132.568L135.291 43.4226L138.013 38.7773H139.192L135.765 44.6371Z" fill="#15112B"/>
</g>
</g>
</g>
<defs>
<clipPath id="clip0_0_4755">
<rect width="142.295" height="56" fill="white" transform="translate(0.599609 0.748047)"/>
</clipPath>
</defs>
</svg>
