<svg width="130" height="57" viewBox="0 0 130 57" fill="none" xmlns="http://www.w3.org/2000/svg">
<mask id="mask0_0_4750" style="mask-type:luminance" maskUnits="userSpaceOnUse" x="0" y="0" width="130" height="57">
<path d="M129.6 0.748047H0V56.748H129.6V0.748047Z" fill="white"/>
</mask>
<g mask="url(#mask0_0_4750)">
<path d="M43.1196 12.5084L29.9201 34.7482V49.7087C31.4396 53.3085 35.2799 53.788 38.9602 53.9484V56.0282H13.1199V53.9484C16.8 53.788 21.28 53.2286 22.4798 50.829V35.3882L9.03983 12.6681C6.72026 8.82806 4.48026 7.54866 0 7.22829V5.14847H22.4801V7.22829C18.2398 7.46805 16.8801 8.26871 15.6803 9.22905L28.1602 30.8281L40.4001 9.30836C39.1202 8.34855 37.4403 7.46805 33.2003 7.22855V5.14873H52.4V7.22855C48.0799 7.38873 45.3599 8.82807 43.1196 12.5084ZM69.3594 56.7483C65.0398 56.7483 62.9595 53.788 62.7996 51.7087C60.0793 54.5884 56.5599 56.7483 53.1999 56.7483C48.8798 56.7483 45.1994 54.1081 45.1994 49.549C45.1994 47.3083 45.7596 44.9882 46.8798 43.1486L62.7996 37.3885V31.4683C62.7996 27.8686 61.1194 24.4285 57.5194 24.4285C55.3595 24.4285 53.2794 27.0679 53.1198 31.1485L45.9192 32.3478V31.5487C48.3191 24.3479 56.2395 21.5485 60.079 21.5485C67.3591 21.5485 69.9991 25.388 69.9193 31.3082L69.6795 48.1079C69.5994 51.3881 71.3591 52.188 72.9594 52.188C74.2391 52.188 75.519 51.3881 77.0395 49.8684V52.188C75.2798 54.2685 72.16 56.7483 69.3594 56.7483ZM53.3598 43.7085C53.0397 44.9882 52.7999 46.1082 52.7999 47.8684C52.7999 50.2681 54.1599 52.6677 56.7996 52.6677C59.1995 52.6677 60.5596 51.8686 62.7197 50.1882L62.7996 39.3877C60.7198 40.3477 55.6 42.5885 53.3598 43.7085ZM77.7598 56.0282V54.1879C81.3595 53.9482 82.3989 53.1483 83.0399 51.7875V10.3478C83.0399 7.62771 82.6395 6.50823 77.1195 6.02794V4.42816L91.7599 0.748047L92.2394 2.10884L89.9198 4.98855V51.7878C90.7197 53.3883 92.2394 53.9484 95.5196 54.1882V56.0285H77.7598V56.0282ZM114.719 56.6682C106.319 56.6682 99.8391 50.0283 99.8391 40.7482C99.8391 29.388 106.8 21.6278 116.64 21.6278C124.559 21.6278 128.959 26.1089 128.959 33.2283V34.6682L107.36 34.5085C107.2 35.3882 107.119 36.8288 107.119 38.5883C107.119 46.7481 112.239 52.1081 119.04 52.1081C123.119 52.1081 125.2 50.668 128.399 47.9482L129.599 49.7878C125.04 53.9484 121.279 56.6682 114.719 56.6682ZM115.44 24.1086C111.439 24.1086 108.64 27.3082 107.68 32.3478L121.76 32.1881C121.76 27.9482 119.119 24.1086 115.44 24.1086Z" fill="#15112B"/>
</g>
</svg>
