<svg width="17" height="16" viewBox="0 0 17 16" fill="none" xmlns="http://www.w3.org/2000/svg">
<path d="M12.0001 1.85876L7.12779 6.73106C6.9544 6.90446 6.83952 7.12769 6.7992 7.36957L6.40832 9.71486C6.34196 10.113 6.68714 10.4582 7.08528 10.3918L9.43058 10.0009C9.67245 9.96063 9.89569 9.84575 10.0691 9.67236L14.9414 4.80005M12.0001 1.85876L12.4496 1.40921C13.2619 0.596996 14.5787 0.596994 15.3909 1.40921C16.2032 2.22143 16.2032 3.53829 15.3909 4.3505L14.9414 4.80005M12.0001 1.85876L14.9414 4.80005M16.0001 8.80005L16.0001 12.8C16.0001 14.1255 14.9256 15.2 13.6001 15.2H4.0001C2.67462 15.2 1.6001 14.1255 1.6001 12.8V3.20005C1.6001 1.87457 2.67461 0.800049 4.0001 0.800049H8.0001" stroke="#15112B" stroke-opacity="0.5" stroke-width="1.5" stroke-linecap="round" stroke-linejoin="round"/>
</svg>
