<svg width="26" height="32" viewBox="0 0 26 32" fill="none" xmlns="http://www.w3.org/2000/svg">
<path d="M13.2 2.2982C12.8141 2.10424 12.3842 2 11.9426 2H6.2C3.8804 2 2 3.8804 2 6.2V25.8C2 28.1196 3.8804 30 6.2 30H20.2C22.5196 30 24.4 28.1196 24.4 25.8V15.6646C24.4 15.2964 24.3274 14.935 24.1897 14.6M13.2 2.2982C13.5131 2.45558 13.7974 2.67202 14.0354 2.93978L23.6927 13.8043C23.9037 14.0417 24.071 14.3111 24.1897 14.6M13.2 2.2982V10.4C13.2 12.7196 15.0804 14.6 17.4 14.6H24.1897" stroke="#FCD87C" stroke-width="2.4"/>
</svg>
