<svg width="25" height="25" viewBox="0 0 25 25" fill="none" xmlns="http://www.w3.org/2000/svg">
<path d="M17.7083 13.0202C17.9959 13.0202 18.2292 12.787 18.2292 12.4993C18.2292 12.2117 17.9959 11.9785 17.7083 11.9785C17.4207 11.9785 17.1875 12.2117 17.1875 12.4993C17.1875 12.787 17.4207 13.0202 17.7083 13.0202Z" fill="#6D56FA" stroke="#6D56FA" stroke-width="2" stroke-linecap="round" stroke-linejoin="round"/>
<path d="M12.4959 13.0202C12.7835 13.0202 13.0168 12.787 13.0168 12.4993C13.0168 12.2117 12.7835 11.9785 12.4959 11.9785C12.2083 11.9785 11.9751 12.2117 11.9751 12.4993C11.9751 12.787 12.2083 13.0202 12.4959 13.0202Z" fill="#6D56FA" stroke="#6D56FA" stroke-width="2" stroke-linecap="round" stroke-linejoin="round"/>
<path d="M7.29159 13.02C7.57923 13.02 7.81242 12.7868 7.81242 12.4992C7.81242 12.2116 7.57923 11.9784 7.29159 11.9784C7.00394 11.9784 6.77075 12.2116 6.77075 12.4992C6.77075 12.7868 7.00394 13.02 7.29159 13.02Z" fill="#6D56FA" stroke="#6D56FA" stroke-width="2" stroke-linecap="round" stroke-linejoin="round"/>
<path d="M12.5016 22.9193C18.2545 22.9193 22.9183 18.2555 22.9183 12.5026C22.9183 6.74964 18.2545 2.08594 12.5016 2.08594C6.74866 2.08594 2.08496 6.74964 2.08496 12.5026C2.08496 14.3999 2.59222 16.1788 3.47852 17.7109L2.60579 22.3984L7.29329 21.5257C8.82545 22.412 10.6043 22.9193 12.5016 22.9193Z" stroke="#6D56FA" stroke-width="2" stroke-linecap="round" stroke-linejoin="round"/>
</svg>
