<svg width="39" height="41" viewBox="0 0 39 41" fill="none" xmlns="http://www.w3.org/2000/svg">
<rect x="0.5" y="0.605469" width="38" height="39" rx="7.5" fill="#F8F8F9"/>
<rect x="0.5" y="0.605469" width="38" height="39" rx="7.5" stroke="#EFEFF0"/>
<path d="M18.5448 10.9252C18.9694 10.2056 20.0305 10.2056 20.4551 10.9252L22.3668 14.165C22.5638 14.4989 22.9278 14.7046 23.3217 14.7047L27.1435 14.7055C27.9924 14.7057 28.523 15.6054 28.0986 16.3252L26.1885 19.5658C25.9916 19.8998 25.9916 20.3112 26.1885 20.6452L28.0986 23.8858C28.523 24.6056 27.9924 25.5053 27.1435 25.5055L23.3217 25.5063C22.9278 25.5064 22.5638 25.7121 22.3668 26.046L20.4551 29.2858C20.0305 30.0054 18.9694 30.0054 18.5448 29.2858L16.6331 26.046C16.4361 25.7121 16.0721 25.5064 15.6782 25.5063L11.8565 25.5055C11.0075 25.5053 10.477 24.6056 10.9013 23.8858L12.8114 20.6452C13.0083 20.3112 13.0083 19.8998 12.8114 19.5658L10.9013 16.3252C10.477 15.6054 11.0075 14.7057 11.8565 14.7055L15.6782 14.7047C16.0721 14.7046 16.4361 14.4989 16.6331 14.165L18.5448 10.9252Z" stroke="#F2B413" stroke-width="2.16"/>
</svg>
